<?xml version="1.0" encoding="UTF-8" standalone="no"?>
<!-- Created with Inkscape (http://www.inkscape.org/) -->

<svg
   width="439.99936"
   height="440.00027"
   viewBox="0 0 116.41652 116.41674"
   version="1.1"
   id="svg5"
   inkscape:version="1.1 (ce6663b3b7, 2021-05-25)"
   sodipodi:docname="beholder-eye.svg"
   xmlns:inkscape="http://www.inkscape.org/namespaces/inkscape"
   xmlns:sodipodi="http://sodipodi.sourceforge.net/DTD/sodipodi-0.dtd"
   xmlns="http://www.w3.org/2000/svg"
   xmlns:svg="http://www.w3.org/2000/svg">
  <sodipodi:namedview
     id="namedview7"
     pagecolor="#ffffff"
     bordercolor="#666666"
     borderopacity="1.0"
     inkscape:pageshadow="2"
     inkscape:pageopacity="0.0"
     inkscape:pagecheckerboard="0"
     inkscape:document-units="mm"
     showgrid="true"
     width="300px"
     units="px"
     borderlayer="true"
     inkscape:showpageshadow="false"
     scale-x="1"
     inkscape:snap-bbox="true"
     inkscape:bbox-nodes="true"
     inkscape:zoom="0.8117387"
     inkscape:cx="-3.0798088"
     inkscape:cy="197.72373"
     inkscape:window-width="1848"
     inkscape:window-height="1016"
     inkscape:window-x="72"
     inkscape:window-y="27"
     inkscape:window-maximized="1"
     inkscape:current-layer="layer1"
     fit-margin-top="0"
     fit-margin-left="0"
     fit-margin-right="0"
     fit-margin-bottom="0">
    <inkscape:grid
       type="xygrid"
       id="grid9"
       empspacing="1"
       spacingy="5.2916667"
       spacingx="5.2916667"
       dotted="true"
       originx="-1238.2505"
       originy="132.29173" />
  </sodipodi:namedview>
  <defs
     id="defs2" />
  <g
     inkscape:label="Layer 1"
     inkscape:groupmode="layer"
     id="layer1"
     transform="translate(-1238.2499,132.29174)">
    <path
       id="rect360-6-3"
       style="stroke-width:3"
       d="M 180 0 L 180 20 L 200 20 L 220 20 L 240 20 L 260 20 L 260 0 L 240 0 L 220 0 L 200 0 L 180 0 z "
       transform="matrix(0.26458333,0,0,0.26458333,1238.2499,-132.29174)" />
    <path
       id="rect360-5-7"
       style="stroke-width:3"
       d="M 140 20 L 140 40 L 160 40 L 180 40 L 180 20 L 160 20 L 140 20 z M 140 40 L 120 40 L 100 40 L 100 60 L 120 60 L 140 60 L 140 40 z M 260 20 L 260 40 L 280 40 L 300 40 L 300 20 L 280 20 L 260 20 z M 300 40 L 300 60 L 320 60 L 340 60 L 340 40 L 320 40 L 300 40 z "
       transform="matrix(0.26458333,0,0,0.26458333,1238.2499,-132.29174)" />
    <path
       id="rect360-9-9"
       style="stroke-width:0.79375"
       d="m 1259.4165,-116.41674 h 5.2916 v 5.29167 h -5.2916 z" />
    <path
       id="rect360-2-1"
       style="stroke-width:0.79375"
       d="m 1254.1246,-111.12501 h 5.2916 v 5.29167 h -5.2916 z" />
    <path
       id="rect360-28-2"
       style="stroke-width:3"
       d="M 40 100 L 40 120 L 40 140 L 60 140 L 60 120 L 60 100 L 40 100 z M 40 140 L 20 140 L 20 160 L 20 180 L 40 180 L 40 160 L 40 140 z M 20 180 L 0 180 L 0 200 L 0.001953125 200 L 0.001953125 220 L 0.001953125 240 L 0 240 L 0 260 L 20 260 L 20 240 L 20.001953 240 L 20.001953 220 L 20.001953 200 L 20 200 L 20 180 z M 20 260 L 20 280 L 20 300 L 40 300 L 40 280 L 40 260 L 20 260 z M 40 300 L 40 320 L 40 340 L 60 340 L 60 320 L 60 300 L 40 300 z "
       transform="matrix(0.26458333,0,0,0.26458333,1238.2499,-132.29174)" />
    <path
       id="rect360-36-1"
       style="stroke-width:0.79375"
       d="m 1254.1246,-42.333344 h 5.2916 v 5.29167 h -5.2916 z" />
    <path
       id="rect360-0-8"
       style="stroke-width:0.79375"
       d="m 1259.4165,-37.041668 h 5.2916 v 5.29167 h -5.2916 z" />
    <path
       id="rect360-63-7"
       style="stroke-width:3"
       d="M 100 380 L 100 400 L 120 400 L 140 400 L 140 380 L 120 380 L 100 380 z M 140 400 L 140 420 L 160 420 L 180 420 L 180 400 L 160 400 L 140 400 z M 180 420 L 180 440 L 200 440 L 220 440 L 240 440 L 260 440 L 260 420 L 240 420 L 220 420 L 200 420 L 180 420 z M 260 420 L 280 420 L 300 420 L 300 400 L 280 400 L 260 400 L 260 420 z M 300 400 L 320 400 L 340 400 L 340 380 L 320 380 L 300 380 L 300 400 z "
       transform="matrix(0.26458333,0,0,0.26458333,1238.2499,-132.29174)" />
    <path
       id="rect360-786-9"
       style="stroke-width:0.79375"
       d="m 1328.2081,-37.041668 h 5.2916 v 5.29167 h -5.2916 z" />
    <path
       id="rect360-8-7"
       style="stroke-width:0.79375"
       d="m 1333.4996,-42.333344 h 5.2916 v 5.29167 h -5.2916 z" />
    <path
       id="rect360-84-3"
       style="stroke-width:3"
       d="M 379.99805 100 L 379.99805 120 L 379.99805 140 L 399.99805 140 L 399.99805 120 L 399.99805 100 L 379.99805 100 z M 399.99805 140 L 399.99805 160 L 399.99805 180 L 419.99805 180 L 419.99805 160 L 419.99805 140 L 399.99805 140 z M 419.99805 180 L 419.99805 200 L 420 200 L 420 220 L 420 240 L 419.99805 240 L 419.99805 260 L 439.99805 260 L 439.99805 240 L 440 240 L 440 220 L 440 200 L 439.99805 200 L 439.99805 180 L 419.99805 180 z M 419.99805 260 L 399.99805 260 L 399.99805 280 L 399.99805 300 L 419.99805 300 L 419.99805 280 L 419.99805 260 z M 399.99805 300 L 379.99805 300 L 379.99805 320 L 379.99805 340 L 399.99805 340 L 399.99805 320 L 399.99805 300 z "
       transform="matrix(0.26458333,0,0,0.26458333,1238.2499,-132.29174)" />
    <path
       id="rect360-1-8"
       style="stroke-width:0.79375"
       d="m 1333.4997,-111.12501 h 5.2916 v 5.29167 h -5.2916 z" />
    <path
       id="rect360-722-4"
       style="stroke-width:0.79375"
       d="m 1328.2081,-116.41675 h 5.2916 v 5.29167 h -5.2916 z" />
    <path
       id="rect360-15-6"
       style="stroke-width:0.79375"
       d="m 1264.7081,-89.958348 h 5.2916 v 5.29167 h -5.2916 z" />
    <path
       id="rect360-977-3"
       style="stroke-width:0.79375"
       d="m 1269.9998,-95.250015 h 5.2916 v 5.29167 h -5.2916 z" />
    <path
       id="rect360-67-2"
       style="stroke-width:0.79375"
       d="m 1275.2915,-100.54168 h 5.2916 v 5.291668 h -5.2916 z" />
    <path
       id="rect360-365-0"
       style="stroke-width:3"
       d="M 160 100 L 160 120 L 180 120 L 180 140 L 180 160 L 180 180 L 180 200 L 180 220 L 180 240 L 180 260 L 199.99805 260 L 199.99805 240 L 199.99805 220 L 200 220 L 200 200 L 200 180 L 200 160 L 200 140 L 200 120 L 220 120 L 240 120 L 240 140 L 240 160 L 240 180 L 240 200 L 240 220 L 240 240 L 240 260 L 259.99805 260 L 259.99805 240 L 259.99805 220 L 260 220 L 260 200 L 260 180 L 260 160 L 260 140 L 260 120 L 280 120 L 280 100 L 260 100 L 240 100 L 220 100 L 200 100 L 180 100 L 160 100 z M 199.99805 260 L 199.99805 280 L 219.99805 280 L 239.99805 280 L 239.99805 260 L 219.99805 260 L 199.99805 260 z "
       transform="matrix(0.26458333,0,0,0.26458333,1238.2499,-132.29174)" />
    <path
       id="rect360-85-7"
       style="stroke-width:0.79375"
       d="m 1312.3331,-100.54168 h 5.2916 v 5.291668 h -5.2916 z" />
    <path
       id="rect360-096-6"
       style="stroke-width:0.79375"
       d="m 1317.6248,-95.250015 h 5.2916 v 5.29167 h -5.2916 z" />
    <path
       id="rect360-38-5"
       style="stroke-width:0.79375"
       d="m 1322.9165,-89.958348 h 5.2916 v 5.29167 h -5.2916 z" />
    <path
       id="rect360-561-6"
       style="stroke-width:0.79375"
       d="m 1322.9165,-63.500006 h 5.2916 v 5.29167 h -5.2916 z" />
    <path
       id="rect360-159-9"
       style="stroke-width:0.79375"
       d="m 1317.6248,-58.208339 h 5.2916 v 5.29167 h -5.2916 z" />
    <path
       id="rect360-848-3"
       style="stroke-width:0.79375"
       d="m 1312.3331,-52.916669 h 5.2916 v 5.29167 h -5.2916 z" />
    <path
       id="rect360-10-7"
       style="stroke-width:3"
       d="M 60.001953 200 L 60.001953 220 L 60.001953 240 L 80 240 L 80 220 L 80 200 L 60.001953 200 z M 160 320 L 160 340 L 180 340 L 200 340 L 220 340 L 240 340 L 260 340 L 280 340 L 280 320 L 260 320 L 240 320 L 220 320 L 200 320 L 180 320 L 160 320 z "
       transform="matrix(0.26458333,0,0,0.26458333,1238.2499,-132.29174)" />
    <path
       id="rect360-96-4"
       style="stroke-width:0.79375"
       d="m 1275.2915,-52.916668 h 5.2916 v 5.29167 h -5.2916 z" />
    <path
       id="rect360-21-7"
       style="stroke-width:0.79375"
       d="m 1269.9998,-58.208335 h 5.2916 v 5.29167 h -5.2916 z" />
    <path
       id="rect360-785-4"
       style="stroke-width:0.79375"
       d="m 1264.7081,-63.500002 h 5.2916 v 5.29167 h -5.2916 z" />
    <path
       id="rect360-46-1-6"
       style="fill:#cc0000;fill-opacity:1;stroke-width:3"
       d="M 200 180 L 200 200 L 220 200 L 240 200 L 240 180 L 220 180 L 200 180 z "
       transform="matrix(0.26458333,0,0,0.26458333,1238.2499,-132.29174)" />
    <path
       id="rect360-46-1-6-1"
       style="fill:#f2f2f2;stroke-width:3"
       d="M 160 120 L 160 140 L 140 140 L 140 160 L 120 160 L 120 180 L 100 180 L 100 200 L 80 200 L 80 220 L 80 240 L 100 240 L 100 260 L 120 260 L 120 280 L 140 280 L 140 300 L 160 300 L 160 320 L 180 320 L 200 320 L 220 320 L 240 320 L 260 320 L 280 320 L 280 300 L 300 300 L 300 280 L 320 280 L 320 260 L 340 260 L 340 240 L 360 240 L 360 220 L 360 200 L 340 200 L 340 180 L 320 180 L 320 160 L 300 160 L 300 140 L 280 140 L 280 120 L 260 120 L 260 140 L 260 160 L 260 180 L 260 200 L 260 220 L 260 240 L 260 260 L 240 260 L 240 280 L 220 280 L 200 280 L 200 260 L 180 260 L 180 240 L 180 220 L 180 200 L 180 180 L 180 160 L 180 140 L 180 120 L 160 120 z "
       transform="matrix(0.26458333,0,0,0.26458333,1238.2499,-132.29174)" />
    <path
       id="rect360-46-0-8-2"
       style="fill:#ff0000;fill-opacity:1;stroke-width:3"
       d="M 200 220 L 200 240 L 220 240 L 240 240 L 240 220 L 220 220 L 200 220 z "
       transform="matrix(0.26458333,0,0,0.26458333,1238.2499,-132.29174)" />
    <path
       id="rect360-46-0-8-2-2"
       style="fill:#e50000;fill-opacity:1;stroke-width:3"
       d="M 200 200 L 200 220 L 220 220 L 240 220 L 240 200 L 220 200 L 200 200 z "
       transform="matrix(0.26458333,0,0,0.26458333,1238.2499,-132.29174)" />
    <path
       id="rect360-46-0-3-2-6"
       style="fill:#ff3333;fill-opacity:1;stroke-width:3"
       d="M 200 240 L 200 260 L 220 260 L 240 260 L 240 240 L 220 240 L 200 240 z "
       transform="matrix(0.26458333,0,0,0.26458333,1238.2499,-132.29174)" />
    <path
       id="rect360-922-9"
       style="stroke-width:0.79375"
       d="m 1259.4165,-68.791672 h 5.2916 v 5.29167 h -5.2916 z" />
    <path
       id="rect360-47-5"
       style="stroke-width:0.79375"
       d="m 1328.2081,-68.791672 h 5.2916 v 5.29167 h -5.2916 z" />
    <path
       id="rect360-81-0"
       style="stroke-width:0.79375"
       d="m 1259.4165,-84.666678 h 5.2916 v 5.29167 h -5.2916 z" />
    <path
       id="rect360-289-4"
       style="stroke-width:0.79375"
       d="m 1328.2081,-84.666678 h 5.2916 v 5.29167 h -5.2916 z" />
    <path
       id="rect360-62-871"
       style="fill:#005c00;fill-opacity:1;stroke-width:3"
       d="M 180 20 L 180 40 L 200 40 L 220 40 L 220 20 L 200 20 L 180 20 z M 180 40 L 160 40 L 140 40 L 140 60 L 120 60 L 100 60 L 100 80 L 80 80 L 80 100 L 60 100 L 60 120 L 60 140 L 40.001953 140 L 40.001953 160 L 40.001953 180 L 40 180 L 20 180 L 20 200 L 20 220 L 20 240 L 20 260 L 40 260 L 40 240 L 40 220 L 40 200 L 60 200 L 60 180 L 60 160 L 80 160 L 80 140 L 80 120 L 100 120 L 100 100 L 120 100 L 120 80 L 140 80 L 160 80 L 160 60 L 180 60 L 180 40 z M 40.001953 240 L 40.001953 260 L 40.001953 280 L 40.001953 300 L 60 300 L 60 320 L 60 340 L 80 340 L 80 360 L 100 360 L 100 380 L 120 380 L 140 380 L 140 400 L 160 400 L 180 400 L 180 420 L 200 420 L 220 420 L 240 420 L 240 400 L 220 400 L 200 400 L 200 380 L 180 380 L 160 380 L 160 360 L 140 360 L 120 360 L 120 340 L 100 340 L 100 320 L 80 320 L 80 300 L 80 280 L 60 280 L 60 260 L 60 240 L 40.001953 240 z "
       transform="matrix(0.26458333,0,0,0.26458333,1238.2499,-132.29174)" />
    <path
       id="rect360-62-7-2"
       style="fill:#008000;stroke-width:3"
       d="M 40 200 L 40 220 L 40 240 L 60 240 L 60 220 L 60 200 L 40 200 z M 60 240 L 60 260 L 60 280 L 80 280 L 80 300 L 80 320 L 100 320 L 100 340 L 120 340 L 120 360 L 140 360 L 160 360 L 160 380 L 180 380 L 200 380 L 200 400 L 220 400 L 240 400 L 260 400 L 260 380 L 280 380 L 280 360 L 300 360 L 320 360 L 320 340 L 340 340 L 340 320 L 360 320 L 360 300 L 360 280 L 380 280 L 380 260 L 380 240 L 399.99805 240 L 399.99805 220 L 399.99805 200 L 379.99805 200 L 379.99805 220 L 379.99805 240 L 360 240 L 360 260 L 340 260 L 340 280 L 320 280 L 320 300 L 300 300 L 300 320 L 280 320 L 280 340 L 260 340 L 240 340 L 220 340 L 200 340 L 180 340 L 160 340 L 160 320 L 140 320 L 140 300 L 120 300 L 120 280 L 100 280 L 100 260 L 80 260 L 80 240 L 60 240 z "
       transform="matrix(0.26458333,0,0,0.26458333,1238.2499,-132.29174)" />
    <path
       id="rect360-62-7-2-70"
       style="fill:#00a300;fill-opacity:1;stroke-width:3"
       d="M 220 20 L 220 40 L 240 40 L 260 40 L 260 20 L 240 20 L 220 20 z M 260 40 L 260 60 L 280 60 L 280 80 L 300 80 L 320 80 L 320 100 L 340 100 L 340 120 L 360 120 L 360 140 L 360 160 L 379.99805 160 L 379.99805 180 L 379.99805 200 L 399.99805 200 L 399.99805 220 L 399.99805 240 L 379.99805 240 L 379.99805 260 L 379.99805 280 L 360 280 L 360 300 L 360 320 L 340 320 L 340 340 L 320 340 L 320 360 L 300 360 L 280 360 L 280 380 L 260 380 L 260 400 L 280 400 L 300 400 L 300 380 L 320 380 L 340 380 L 340 360 L 360 360 L 360 340 L 380 340 L 380 320 L 380 300 L 399.99805 300 L 399.99805 280 L 399.99805 260 L 419.99805 260 L 419.99805 240 L 419.99805 220 L 419.99805 200 L 419.99805 180 L 399.99805 180 L 399.99805 160 L 399.99805 140 L 380 140 L 380 120 L 380 100 L 360 100 L 360 80 L 340 80 L 340 60 L 320 60 L 300 60 L 300 40 L 280 40 L 260 40 z M 260 400 L 240 400 L 240 420 L 260 420 L 260 400 z "
       transform="matrix(0.26458333,0,0,0.26458333,1238.2499,-132.29174)" />
    <path
       id="rect360-62-7-2-45"
       style="fill:#008000;stroke-width:3"
       d="M 180 40 L 180 60 L 160 60 L 160 80 L 140 80 L 120 80 L 120 100 L 100 100 L 100 120 L 80 120 L 80 140 L 80 160 L 60 160 L 60 180 L 60 200 L 80 200 L 80 180 L 100 180 L 100 160 L 120 160 L 120 140 L 140 140 L 140 120 L 160 120 L 160 100 L 180 100 L 200 100 L 220 100 L 240 100 L 260 100 L 280 100 L 280 120 L 300 120 L 300 140 L 320 140 L 320 160 L 340 160 L 340 180 L 360 180 L 360 200 L 380 200 L 380 180 L 380 160 L 360 160 L 360 140 L 360 120 L 340 120 L 340 100 L 320 100 L 320 80 L 300 80 L 280 80 L 280 60 L 260 60 L 260 40 L 240 40 L 220 40 L 200 40 L 180 40 z "
       transform="matrix(0.26458333,0,0,0.26458333,1238.2499,-132.29174)" />
    <path
       id="rect360-46-7-6"
       style="fill:#ff3333;fill-opacity:1;stroke-width:3"
       d="M 200 120 L 200 140 L 220 140 L 240 140 L 240 120 L 220 120 L 200 120 z "
       transform="matrix(0.26458333,0,0,0.26458333,1238.2499,-132.29174)" />
    <path
       id="rect360-46-8-9"
       style="fill:#ff0000;fill-opacity:1;stroke-width:3"
       d="M 200 140 L 200 160 L 220 160 L 240 160 L 240 140 L 220 140 L 200 140 z "
       transform="matrix(0.26458333,0,0,0.26458333,1238.2499,-132.29174)" />
    <path
       id="rect360-46-86-2"
       style="fill:#ff0000;stroke-width:0.79375"
       d="m 1291.1665,-89.958345 h 5.2916 v 5.29167 h -5.2916 z" />
    <path
       id="rect360-46-5-4-4"
       style="fill:#e50000;fill-opacity:1;stroke-width:3"
       d="M 200 160 L 200 180 L 220 180 L 240 180 L 240 160 L 220 160 L 200 160 z "
       transform="matrix(0.26458333,0,0,0.26458333,1238.2499,-132.29174)" />
    <path
       id="rect360-84-3-1"
       style="stroke-width:3"
       d="M 360.00195 200 L 360.00195 220 L 360.00195 240 L 380 240 L 380 220 L 380 200 L 360.00195 200 z "
       transform="matrix(0.26458333,0,0,0.26458333,1238.2499,-132.29174)" />
  </g>
</svg>
