<?xml version="1.0" encoding="UTF-8" standalone="no"?>
<!-- Created with Inkscape (http://www.inkscape.org/) -->

<svg
   width="440.00201"
   height="440"
   viewBox="0 0 116.41722 116.41666"
   version="1.1"
   id="svg5"
   inkscape:version="1.1 (ce6663b3b7, 2021-05-25)"
   sodipodi:docname="beholder-arm-left.svg"
   xmlns:inkscape="http://www.inkscape.org/namespaces/inkscape"
   xmlns:sodipodi="http://sodipodi.sourceforge.net/DTD/sodipodi-0.dtd"
   xmlns="http://www.w3.org/2000/svg"
   xmlns:svg="http://www.w3.org/2000/svg">
  <sodipodi:namedview
     id="namedview7"
     pagecolor="#ffffff"
     bordercolor="#666666"
     borderopacity="1.0"
     inkscape:pageshadow="2"
     inkscape:pageopacity="0.0"
     inkscape:pagecheckerboard="0"
     inkscape:document-units="mm"
     showgrid="true"
     width="300px"
     units="px"
     borderlayer="true"
     inkscape:showpageshadow="false"
     scale-x="1"
     inkscape:snap-bbox="true"
     inkscape:bbox-nodes="true"
     inkscape:zoom="1.1479719"
     inkscape:cx="508.2877"
     inkscape:cy="209.4999"
     inkscape:window-width="1848"
     inkscape:window-height="1016"
     inkscape:window-x="72"
     inkscape:window-y="27"
     inkscape:window-maximized="1"
     inkscape:current-layer="layer1"
     fit-margin-top="0"
     fit-margin-left="0"
     fit-margin-right="0"
     fit-margin-bottom="0"
     inkscape:lockguides="false">
    <inkscape:grid
       type="xygrid"
       id="grid9"
       empspacing="1"
       spacingy="5.2916667"
       spacingx="5.2916667"
       dotted="true"
       originx="-1354.6663"
       originy="63.499995" />
  </sodipodi:namedview>
  <defs
     id="defs2" />
  <g
     inkscape:label="Layer 1"
     inkscape:groupmode="layer"
     id="layer1"
     transform="translate(-1354.6657,63.500009)">
    <path
       id="rect360-26-3-8"
       style="stroke-width:0.79375"
       d="m 1396.9962,52.915868 3e-4,-5.2916 -5.2917,-3.13e-4 -5.2916,-2.13e-4 -5.2917,-3.13e-4 -5.2917,-3.14e-4 -3e-4,5.2916 5.2917,3.14e-4 5.2917,3.13e-4 5.2916,2.13e-4 z m -21.1664,-5.292753 3e-4,-5.2917 -5.2916,-3.13e-4 -3e-4,5.2917 z m -5.2913,-5.292013 3e-4,-5.2917 -5.2917,-2.13e-4 -3e-4,5.2917 z m -5.2914,-5.291913 2e-4,-5.2916 3e-4,-5.2917 -5.2911,-3.13e-4 -3e-4,5.2917 -2e-4,5.2916 z m 31.7494,10.585079 5.2917,3.13e-4 3e-4,-5.2917 -5.2917,-3.13e-4 z m 5.292,-5.291387 5.2916,2.13e-4 5.2917,3.13e-4 3e-4,-5.2917 -5.2917,-3.13e-4 -5.2916,-2.13e-4 z m 10.5833,5.26e-4 -3e-4,5.2917 5.2917,3.13e-4 5.2916,2.13e-4 5.2917,3.13e-4 5.2917,3.13e-4 5.2916,2.13e-4 3e-4,-5.2917 -5.2916,-2.13e-4 -5.2917,-3.13e-4 -5.2917,-3.13e-4 -5.2916,-2.13e-4 z m 26.4583,0.0014 5.2917,3.13e-4 3e-4,-5.2917 -5.2917,-3.13e-4 z m 5.292,-5.291387 5.2917,3.13e-4 2e-4,-5.2916 -5.2917,-3.13e-4 z m 10.5856,-5.290973 3e-4,-5.2917 3e-4,-5.2917 3e-4,-5.2916 -5e-4,0 3e-4,-5.2917 -5.2912,-3.13e-4 -3e-4,5.2917 -3e-4,5.2916 -3e-4,5.291699 -3e-4,5.2917 z m -5.2905,-21.167013 3e-4,-5.2917005 -5.2916,-3.13e-4 -3e-4,5.2916995 z m -15.8772,21.16586 3e-4,-5.2917 5.2906,2.13e-4 3e-4,-5.2917 -5.2916,-2.13e-4 -3e-4,5.2917 -5.2901,-3.13e-4 -5.2917,-3.13e-4 -3e-4,5.2917 5.2917,3.13e-4 z m 5.2912,-10.583187 5.2917,3.13e-4 3e-4,-5.2916 -5.2917,-3.13e-4 z m 3e-4,-5.2916 3e-4,-5.2917 -5.2906,-2.13e-4 3e-4,-5.2916997 -5.2911,-3.131e-4 -3e-4,5.2916998 5.2901,3.13e-4 -3e-4,5.2917 z m -15.8748,15.874161 3e-4,-5.2917 -5.2917,-2.13e-4 -3e-4,5.2917 z m -26.4594,-0.0014 3e-4,-5.2917 -5.2911,-3.13e-4 -3e-4,5.2917 z m -5.2917,-3.13e-4 3e-4,-5.2917 -5.2916,-2.13e-4 -3e-4,5.2917 z m -5.2913,-5.291913 3e-4,-5.2917 -5.2912,-3.13e-4 -3e-4,5.2917 z m 31.75,0.0017 3e-4,-5.2917 -5.2912,-3.13e-4 -3e-4,5.2917 z m -15.875,-8.39e-4 3e-4,-5.2917 3e-4,-5.2916 3e-4,-5.2917 -5.2917,-3.13e-4 -3e-4,5.2917 -3e-4,5.2916 5e-4,0 -3e-4,5.2917 z m 9e-4,-15.875 5.2916,2.13e-4 3e-4,-5.2917001 -5.2916,-2.131e-4 z m 5.2919,-5.2914871 5.2917,3.131e-4 2e-4,-5.29160002702 -5.2917,-3.1306465e-4 z m -47.6262,21.1641821 3e-4,-5.2917 3e-4,-5.2916 3e-4,-5.2917 3e-4,-5.2916997 2e-4,-5.29159996 -5.2916,-3.1305e-4 -2e-4,5.29160001 -3e-4,5.2916997 -3e-4,5.2917 -3e-4,5.2916 -3e-4,5.2917 z m 52.916,-5.288869 3e-4,-5.2916 -5.2917,-3.13e-4 -3e-4,5.2916 z m -31.749,-0.0017 3e-4,-5.2916 3e-4,-5.2917 -5.2911,-3.13e-4 -3e-4,5.2917 -3e-4,5.2916 z m 6e-4,-10.5833 5.2917,3.13e-4 3e-4,-5.2917003 2e-4,-5.29160004 3e-4,-5.29169996 -5.2917,-3.131e-4 -3e-4,5.2917 -2e-4,5.2916 z m 5.2925,-15.8746873 5.2916,2.13e-4 3e-4,-5.2916997 -5.2916,-2.13e-4 z m 5.2919,-5.2914867 5.2917,3.13e-4 3e-4,-5.2916 3e-4,-5.2917 -5.2911,-3.13e-4 -3e-4,5.2917 -6e-4,0 z m 5.2923,-10.582987 5.2917,3.13e-4 2e-4,-5.2917 -5.2917,-3.13e-4 z m 5.2919,-5.291387 5.2916,2.13e-4 3e-4,-5.2916 -5.2916,-2.13e-4 z m 15.8728,42.334239 3e-4,-5.2917 -5.2917,-3.13e-4 -3e-4,5.2917 z m 52.9169,-5.288869 3e-4,-5.2917003 -5.2916,-3.131e-4 -5.2917,-3.131e-4 -3e-4,5.2917005 5.2917,3.13e-4 z m -10.583,-5.2923265 2e-4,-5.29159996 -5.2917,-2.1307e-4 -2e-4,5.29160003 z m -5.2915,-5.29181303 3e-4,-5.29169997 -5.2916,-3.131e-4 -3e-4,5.29170001 z m -5.2913,-5.29201307 3e-4,-5.2917004 3e-4,-5.2916 -5.2912,-3.13e-4 -3e-4,5.2916 -5e-4,0 -3e-4,5.2917004 z m -21.1665,15.8738476 3e-4,-5.2916998 -5.2916,-3.13e-4 -5.2912,-2.131e-4 -3e-4,5.2916999 5.2912,2.13e-4 z m 15.8759,-5.2908606 2e-4,-5.29159996 -5.2912,-3.1303e-4 -2e-4,5.29159999 z m -5.2931,-5.29191312 3e-4,-5.29169998 -5.2916,-2.131e-4 -5.2917,-3.13e-4 -5.2911,-3.131e-4 -3e-4,5.29170003187 5.2911,3.1302915e-4 5.2917,3.1306898e-4 z m -15.875,-8.3918363e-4 3e-4,-5.29169999637 -5.2916,-2.131e-4 -5.2912,-3.13e-4 -3e-4,5.29170000257 5.2912,3.1303507e-4 z m -58.2083,-0.003043686 3e-4,-5.29170001 5e-4,0 3e-4,-5.2917004 -5e-4,0 3e-4,-5.2916 -5.2911,-3.13e-4 -3e-4,5.2916 -3e-4,5.2917004 -3e-4,5.29169998 z m 9e-4,-15.87500041 5.2917,2.13e-4 3e-4,-5.291699 -5.2917,-2.14e-4 z m 5.292,-5.291486 5.2916,3.13e-4 2e-4,-5.2917 3e-4,-5.2916 3e-4,-5.2917 -5.2916,-3.13e-4 -3e-4,5.2917 -3e-4,5.2916 z m 100.5413,5.297148 3e-4,-5.2917 -5.2916,-3.13e-4 -3e-4,5.2917 z m -5.2913,-5.292013 2e-4,-5.2917 3e-4,-5.2916 -5.2912,-3.13e-4 -3e-4,5.2916 -5e-4,0 -2e-4,5.2917 z m -21.167,5.290547 3e-4,-5.2917 -5.2911,-3.13e-4 -3e-4,5.2917 z m -5.2914,-5.292013 2e-4,-5.2917 -5.2916,-2.13e-4 -2e-4,5.2917 z m -5.2914,-5.291913 3e-4,-5.2916 -5.2917,-3.13e-4 -3e-4,5.2916 z m -5.2914,-5.291913 3e-4,-5.2917 -5.2917,-3.13e-4 -5.2916,-2.13e-4 -5.2917,-3.13e-4 -5.2911,-3.13e-4 -3e-4,5.2917 5.2911,3.13e-4 5.2917,3.13e-4 5.2916,2.13e-4 z m 31.75,0.0017 3e-4,-5.2917 -5.2911,-2.13e-4 -3e-4,5.2917 z m -5.2914,-5.291913 3e-4,-5.2917 -5.2916,-3.14e-4 -3e-4,5.2917 z m -5.2913,-5.292014 3e-4,-5.2916 -5.2917,-3.13e-4 -3e-4,5.2916 z m -5.2914,-5.291913 3e-4,-5.2917 -5.2917,-3.13e-4 -3e-4,5.2917 z m -5.2914,-5.292013 2e-4,-5.2917 -5.2916,-2.13e-4 -5.2917,-3.13e-4 -2e-4,5.2917 5.2917,3.13e-4 z m -10.5831,-5.292226 3e-4,-5.2916 -5.2917,-3.13e-4 -5.2916,-2.13e-4 -5.2912,-3.13e-4 -5.2916,-3.13e-4 -5.2917,-2.13e-4 -3e-4,5.2916 5.2917,2.13e-4 5.2916,3.13e-4 5.2912,3.13e-4 5.2916,2.13e-4 z m -47.6261,21.164183 3e-4,-5.2917 -5.2911,-3.13e-4 -3e-4,5.2917 z m 3e-4,-5.2917 5.2917,3.13e-4 3e-4,-5.2916 -5.2917,-3.13e-4 z m 5.292,-5.291287 5.2916,2.13e-4 3e-4,-5.2917 -5.2916,-2.13e-4 z m 15.8753,-5.290861 2e-4,-5.2917 -5.2917,-3.13e-4 -5.2911,-3.13e-4 -2e-4,5.2917 5.2911,3.13e-4 z" />
    <path
       id="rect360-46-33-7-4"
       style="fill:#cc0000;fill-opacity:1;stroke-width:0.79375"
       d="m 1428.7472,26.459246 -5.2916,-3.13e-4 3e-4,-5.2917 5.2916,3.13e-4 z" />
    <path
       id="rect360-46-33-7-5"
       style="fill:#e50000;fill-opacity:1;stroke-width:0.79375"
       d="m 1434.039,26.460059 4e-4,-5.2917 3e-4,-5.2916 4e-4,-5.2917 -5.2917,-3.13e-4 -4e-4,5.2917 -3e-4,5.2916 -4e-4,5.2917 z m -10.5834,-6.26e-4 4e-4,-5.2917 3e-4,-5.2917 4e-4,-5.2916 -5.2916,-3.13e-4 -4e-4,5.2916 -3e-4,5.2917 -4e-4,5.2917 z" />
    <path
       id="rect360-46-33-7-6"
       style="fill:#ff0000;stroke-width:0.79375"
       d="m 1439.3309,21.168072 -5.2916,-2.13e-4 3e-4,-5.2917 5.2916,3.13e-4 z" />
    <path
       id="rect360-46-33-7-48"
       style="fill:#cc0000;fill-opacity:1;stroke-width:0.79375"
       d="m 1428.7478,15.875846 -5.2916,-2.13e-4 3e-4,-5.2917 5.2916,3.13e-4 z" />
    <path
       id="rect360-46-33-7-83"
       style="fill:#b20000;fill-opacity:1;stroke-width:0.79375"
       d="m 1428.7476,21.168046 -5.2916,-3.13e-4 3e-4,-5.2917 5.2916,4.13e-4 z" />
    <path
       id="rect360-46-33-7-45"
       style="fill:#ff0000;stroke-width:0.79375"
       d="m 1418.1642,21.16702 -5.2916,-3.13e-4 3e-4,-5.2917 5.2916,3.13e-4 z" />
    <path
       id="rect360-62-915-8-6-5"
       style="fill:#008000;stroke-width:0.79375"
       d="m 1396.9969,42.332768 4e-4,-5.2917 5.2912,3.13e-4 2e-4,-5.2916 3e-4,-5.2917 -5.2912,-3.13e-4 -3e-4,5.2917 -5.2916,-3.13e-4 -5.2917,-3.13e-4 -2e-4,5.2916 -4e-4,5.2917 5.2917,3.13e-4 z m -10.5838,-6.26e-4 4e-4,-5.2917 2e-4,-5.2916 -5.2912,-3.13e-4 3e-4,-5.2917 -5.2916,-3.13e-4 4e-4,-5.2917 -5.2917,-3.14e-4 -4e-4,5.2917 -3e-4,5.2917 -2e-4,5.2916 5.2917,3.13e-4 -4e-4,5.2917 5.2916,3.14e-4 z m 52.9176,-5.28847 2e-4,-5.2916 5.2916,3.13e-4 3e-4,-5.2917 4e-4,-5.2917 -5.2916,-3.13e-4 -4e-4,5.2917 -5.2917,-3.13e-4 -3e-4,5.2917 -2e-4,5.2916 z m -5.2922,-3.13e-4 2e-4,-5.2916 -5.2912,-3.13e-4 -5.2916,-3.13e-4 -5.2917,-3.13e-4 -2e-4,5.2916 5.2917,3.13e-4 5.2916,3.13e-4 z m -15.875,-9.39e-4 2e-4,-5.2916 3e-4,-5.2917 -5.2912,-3.13e-4 4e-4,-5.2917 -5.2916,-4.13e-4 -4e-4,5.2917 -5.2917,-3.13e-4 -3e-4,5.2917 5.2917,3.13e-4 5.2916,4.13e-4 -2e-4,5.2916 z m -47.6245,-10.586218 4e-4,-5.2917 3e-4,-5.2916 4e-4,-5.2917 3e-4,-5.2916995 3e-4,-5.29160003 -5.2912,-4.1303e-4 -3e-4,5.29159996 -3e-4,5.2916996 -4e-4,5.2917 -3e-4,5.2916 -4e-4,5.2917 z m 74.0845,-10.578817 4e-4,-5.2917 -5.2916,-3.13e-4 -4e-4,5.2917 z m -5.2912,-5.292013 3e-4,-5.2916997 -5.2917,-3.131e-4 -3e-4,5.2916998 z m -26.4588,5.290135 4e-4,-5.2917 -5.2916,-4.13e-4 -4e-4,5.2917 z m 4e-4,-5.2917 5.2912,3.13e-4 3e-4,-5.2917 -5.2912,-3.13e-4 z m -37.0416,-0.0023 3e-4,-5.2917004 3e-4,-5.29160003 3e-4,-5.29169997 5.2916,3.13e-4 3e-4,-5.2916996 5.2912,3.13e-4 4e-4,-5.2916 3e-4,-5.2917 3e-4,-5.2917 3e-4,-5.2916 4e-4,-5.2917 -5.2912,-3.13e-4 -4e-4,5.2917 -3e-4,5.2916 -3e-4,5.2917 -5.2916,-3.13e-4 -3e-4,5.2917 -5.2917,-3.13e-4 -4e-4,5.2916 -3e-4,5.2916995 -3e-4,5.2917 -3e-4,5.2916 -3e-4,5.2916995 z m 95.2503,-5.2858653 3e-4,-5.2916 3e-4,-5.2917 3e-4,-5.2916997 -5.2917,-3.13e-4 -3e-4,5.2916996 -3e-4,5.29170003 -3e-4,5.29159997 z m -5.2919,-5.2919131 3e-4,-5.2917 3e-4,-5.2916996 -5.2912,-3.13e-4 4e-4,-5.2916 -5.2916,-4.13e-4 -4e-4,5.2916 -3e-4,5.2916995 5.2916,4.131e-4 -3e-4,5.29169997 z m -10.5818,-15.8757256 3e-4,-5.2917 3e-4,-5.2917 -5.2917,-3.14e-4 -3e-4,5.2917 -3e-4,5.2917 z m -5.2919,-5.292014 3e-4,-5.2917 3e-4,-5.2916 -5.2912,-3.13e-4 4e-4,-5.2917 -5.2916,-3.13e-4 3e-4,-5.2917 -5.2917,-3.13e-4 -3e-4,5.2917 -4e-4,5.2917 5.2917,3.13e-4 -3e-4,5.2916 5.2916,3.13e-4 -3e-4,5.2917 z m -58.2078,-0.0035 3e-4,-5.2917 5.2916,3.13e-4 3e-4,-5.2916 5.2912,3.13e-4 4e-4,-5.2917 3e-4,-5.2917 3e-4,-5.2916 -5.2912,-3.13e-4 -5.2916,-3.13e-4 -3e-4,5.2916 -5.2917,-3.13e-4 -3e-4,5.2917 -4e-4,5.2917 -3e-4,5.2916 -3e-4,5.2917 z m 42.3338,-15.872396 3e-4,-5.2917 3e-4,-5.2916 -5.2912,-3.13e-4 -5.2916,-3.13e-4 4e-4,-5.2917 -5.2917,-3.13e-4 -4e-4,5.2917 -3e-4,5.2916 5.2917,3.13e-4 5.2916,3.13e-4 -3e-4,5.2917 z m -26.4578,-0.0017 3e-4,-5.2917 5.2916,4.13e-4 5.2912,3.13e-4 3e-4,-5.2916 4e-4,-5.2917 -5.2912,-3.13e-4 -5.2916,-4.13e-4 -5.2917,-3.13e-4 -4e-4,5.2917 -3e-4,5.2916 -3e-4,5.2917 z" />
    <path
       id="rect360-62-915-8-6-7"
       style="fill:#009900;fill-opacity:1;stroke-width:0.79375"
       d="m 1386.4137,31.748842 3e-4,-5.2917 -5.2912,-3.13e-4 -3e-4,5.2916 z m -5.2909,-5.292013 4e-4,-5.2917 -5.2916,-3.13e-4 -4e-4,5.2917 z m -5.2912,-5.292013 3e-4,-5.2917 4e-4,-5.2916 -5.2917,-3.14e-4 -4e-4,5.2916 -3e-4,5.2917 z m 7e-4,-10.5833 5.2916,3.13e-4 3e-4,-5.2917004 3e-4,-5.29169997 3e-4,-5.29160003 -5.2916,-3.13e-4 -3e-4,5.29159997 -3e-4,5.29170003 z m 5.2925,-15.8746874 5.2912,3.131e-4 3e-4,-5.2916997 -5.2912,-3.13e-4 z m 84.6656,10.588509 3e-4,-5.2917 -5.2912,-3.1303e-4 -3e-4,5.29170003 z m -5.2909,-5.29201303 3e-4,-5.29159997 -5.2916,-4.131e-4 -3e-4,5.29170001 z m -5.2913,-5.29201307 3e-4,-5.2915995 4e-4,-5.2917 -5.2917,-3.14e-4 -4e-4,5.2917 -3e-4,5.2916005 z m -63.4997,-5.2955565 4e-4,-5.2916 3e-4,-5.2917 -5.2917,-3.13e-4 -3e-4,5.2917 -4e-4,5.2916 z m 7e-4,-10.5833 5.2916,3.13e-4 3e-4,-5.2917 -5.2916,-3.13e-4 z m 5.2919,-5.291387 5.2912,4.13e-4 3e-4,-5.2917 -5.2912,-3.13e-4 z m 52.9156,10.58663 3e-4,-5.2917 -5.2912,-3.13e-4 -3e-4,5.2917 z m -5.2909,-5.292013 3e-4,-5.2916 -5.2916,-4.13e-4 -3e-4,5.2917 z m -5.2913,-5.292013 3e-4,-5.2916 -5.2917,-3.13e-4 -3e-4,5.2916 z m -5.2919,-5.291913 4e-4,-5.2917 -5.2912,-3.13e-4 -4e-4,5.2917 z m -5.2908,-5.292013 3e-4,-5.2917 -5.2916,-3.13e-4 -5.2917,-3.13e-4 -3e-4,5.2917 5.2917,3.13e-4 z m -21.167,5.290348 4e-4,-5.2917 -5.2917,-3.13e-4 -4e-4,5.2917 z m 4e-4,-5.2917 5.2916,4.13e-4 5.2912,3.13e-4 3e-4,-5.2917 -5.2912,-3.13e-4 -5.2916,-3.13e-4 z" />
    <path
       id="rect360-62-915-8-6-41"
       style="fill:#006600;fill-opacity:1;stroke-width:0.79375"
       d="m 1365.2477,26.455789 3e-4,-5.2916 4e-4,-5.2917 3e-4,-5.2917 3e-4,-5.2915996 3e-4,-5.29169997 -5.2917,-3.1307e-4 -2e-4,5.29170004 -4e-4,5.2915996 -3e-4,5.2917 -3e-4,5.2917 -4e-4,5.2916 z m 0,-26.45829957 5.2917,3.1306e-4 3e-4,-5.29159999 3e-4,-5.2916995 4e-4,-5.2917 -5.2917,-3.14e-4 -3e-4,5.2917 -4e-4,5.2916004 z m 5.2927,-15.87468643 5.2917,3.13e-4 3e-4,-5.2916 -5.2917,-3.13e-4 z m 5.292,-5.291287 5.2917,3.13e-4 2e-4,-5.2917 3e-4,-5.2917 4e-4,-5.2916 -5.2917,-3.13e-4 -3e-4,5.2916 -4e-4,5.2917 z m 5.2926,-15.874687 5.2917,3.13e-4 3e-4,-5.2917 -5.2917,-3.13e-4 z m 5.292,-5.291387 5.2917,3.13e-4 3e-4,-5.2916 -5.2917,-3.13e-4 z m 5.292,-5.291287 5.2917,3.13e-4 5.2916,3.13e-4 4e-4,-5.2917 -5.2917,-3.13e-4 -5.2916,-3.13e-4 z m 10.5837,-5.291074 5.2917,3.13e-4 5.2916,4.13e-4 5.2917,3.13e-4 5.2917,3.13e-4 -4e-4,5.2916 5.2917,4.13e-4 5.2916,3.13e-4 -3e-4,5.2916 5.2917,3.13e-4 -4e-4,5.2917 5.2917,3.13e-4 -4e-4,5.2917 5.2917,3.13e-4 -3e-4,5.2917 5.2916,3.14e-4 -2e-4,5.2916 -3e-4,5.2917 5.2916,3.13e-4 -3e-4,5.2917 5.2916,3.13e-4 5.2917,3.13e-4 4e-4,-5.2916 -5.2917,-4.13e-4 3e-4,-5.2916 -5.2916,-3.13e-4 2e-4,-5.2917 3e-4,-5.2917 -5.2916,-3.13e-4 3e-4,-5.2917 -5.2916,-3.13e-4 3e-4,-5.2916 -5.2917,-3.14e-4 4e-4,-5.2917 -5.2917,-3.13e-4 4e-4,-5.2917 -5.2917,-3.13e-4 -5.2917,-3.13e-4 3e-4,-5.2917 -5.2917,-3.13e-4 -5.2917,-3.13e-4 -5.2916,-3.13e-4 -5.2917,-3.13e-4 -5.2917,-3.13e-4 z" />
    <path
       id="rect360-62-915-8-6-394"
       style="fill:#006600;fill-opacity:1;stroke-width:0.79375"
       d="m 1396.9966,47.624468 3e-4,-5.2917 -5.2916,-3.13e-4 -5.2917,-3.13e-4 -3e-4,5.2917 5.2917,3.13e-4 z m 3e-4,-5.2917 5.2912,3.13e-4 4e-4,-5.2916 -5.2912,-3.13e-4 z m -10.5841,5.291074 3e-4,-5.2917 -5.2912,-4.13e-4 -5.2916,-3.14e-4 -3e-4,5.2917 5.2916,3.14e-4 z m -10.5825,-5.292427 4e-4,-5.2916 -5.2917,-3.13e-4 -4e-4,5.2916 z m 63.5,0.004 4e-4,-5.2916 -5.2917,-3.13e-4 -4e-4,5.2916 z m 4e-4,-5.2916 5.2916,3.13e-4 2e-4,-5.2917 -5.2916,-3.13e-4 z m 5.2918,-5.291387 5.2912,3.13e-4 3e-4,-5.2917 4e-4,-5.2916 3e-4,-5.2917 4e-4,-5.2917 -5.2912,-3.13e-4 -4e-4,5.2917 -3e-4,5.2917 -4e-4,5.2916 z m 0,-21.1667 3e-4,-5.2915996 -5.2916,-3.131e-4 -3e-4,5.2915997 z m -5.2913,-5.2919127 3e-4,-5.29169998 -5.2917,-3.1306e-4 -3e-4,5.29169994 z m -5.2945,37.0412867 4e-4,-5.2916 -5.2912,-3.13e-4 -5.2916,-4.13e-4 -5.2917,-3.13e-4 -4e-4,5.2916 5.2917,3.13e-4 5.2916,4.13e-4 z m -15.875,-0.001 4e-4,-5.2916 -5.2912,-3.13e-4 -4e-4,5.2916 z m -5.2908,-5.291913 2e-4,-5.2917 -5.2916,-3.13e-4 -5.2917,-3.13e-4 -2e-4,5.2917 5.2917,3.13e-4 z m -42.3338,-0.0026 2e-4,-5.2917 3e-4,-5.2917 -5.2912,-3.13e-4 -3e-4,5.2917 -2e-4,5.2917 z m 63.5019,-31.7460428 3e-4,-5.29169997 -5.2912,-3.1304e-4 -5.2916,-4.1306e-4 -5.2917,-3.1306278e-4 -3e-4,5.29170003278 5.2917,3.13e-4 5.2916,4.131e-4 z m -15.875,-0.00104 3e-4,-5.29169996236 -5.2912,-3.1303507e-4 -3e-4,5.29169999743 z" />
    <path
       id="rect360-62-915-8-6-558"
       style="fill:#009900;fill-opacity:1;stroke-width:0.79375"
       d="m 1407.581,26.458094 3e-4,-5.2917 3e-4,-5.2916 3e-4,-5.2917 -5.2917,-3.13e-4 -3e-4,5.2917 -3e-4,5.2917 -3e-4,5.2916 z m 9e-4,-15.875 5.2916,3.13e-4 3e-4,-5.2917 -5.2916,-3.131e-4 z" />
  </g>
</svg>
