<?xml version="1.0" encoding="UTF-8" standalone="no"?>
<!-- Created with Inkscape (http://www.inkscape.org/) -->

<svg
   width="440.00201"
   height="440"
   viewBox="0 0 116.41722 116.41666"
   version="1.1"
   id="svg5"
   inkscape:version="1.1 (ce6663b3b7, 2021-05-25)"
   sodipodi:docname="beholder-arm-right.svg"
   xmlns:inkscape="http://www.inkscape.org/namespaces/inkscape"
   xmlns:sodipodi="http://sodipodi.sourceforge.net/DTD/sodipodi-0.dtd"
   xmlns="http://www.w3.org/2000/svg"
   xmlns:svg="http://www.w3.org/2000/svg">
  <sodipodi:namedview
     id="namedview7"
     pagecolor="#ffffff"
     bordercolor="#666666"
     borderopacity="1.0"
     inkscape:pageshadow="2"
     inkscape:pageopacity="0.0"
     inkscape:pagecheckerboard="0"
     inkscape:document-units="mm"
     showgrid="true"
     width="300px"
     units="px"
     borderlayer="true"
     inkscape:showpageshadow="false"
     scale-x="1"
     inkscape:snap-bbox="true"
     inkscape:bbox-nodes="true"
     inkscape:zoom="1.1479719"
     inkscape:cx="508.2877"
     inkscape:cy="209.4999"
     inkscape:window-width="1848"
     inkscape:window-height="1016"
     inkscape:window-x="72"
     inkscape:window-y="27"
     inkscape:window-maximized="1"
     inkscape:current-layer="layer1"
     fit-margin-top="0"
     fit-margin-left="0"
     fit-margin-right="0"
     fit-margin-bottom="0"
     inkscape:lockguides="false">
    <inkscape:grid
       type="xygrid"
       id="grid9"
       empspacing="1"
       spacingy="5.2916667"
       spacingx="5.2916667"
       dotted="true"
       originx="-1354.6663"
       originy="63.499995" />
  </sodipodi:namedview>
  <defs
     id="defs2" />
  <g
     inkscape:label="Layer 1"
     inkscape:groupmode="layer"
     id="layer1"
     transform="translate(-1354.6657,63.500009)">
    <path
       id="rect360-26-3-8"
       style="stroke-width:0.79375"
       d="m 1428.7468,-63.5005 2e-4,5.2916 5.2917,-8.6e-5 5.2916,-2.87e-4 5.2917,-8.7e-5 5.2917,-8.6e-5 -2e-4,-5.2916 -5.2917,8.6e-5 -5.2917,8.7e-5 -5.2916,2.87e-4 z m 21.1669,5.291054 10e-5,5.2917 5.2916,-1.87e-4 -10e-5,-5.2917 z m 5.2917,5.291513 10e-5,5.2917 5.2917,-1.86e-4 -10e-5,-5.2917 z m 5.2918,5.291514 3e-4,5.2916 10e-5,5.2917 5.2911,-8.7e-5 -10e-5,-5.2917 -3e-4,-5.2916 z m -31.7502,-10.582481 -5.2917,1.87e-4 10e-5,5.2917 5.2917,-1.87e-4 z m -5.2916,5.291887 -5.2916,1.86e-4 -5.2917,8.7e-5 10e-5,5.2917 5.2917,-8.7e-5 5.2916,-1.86e-4 z m -10.5833,2.73e-4 -10e-5,-5.2917 -5.2917,1.86e-4 -5.2916,1.87e-4 -5.2917,8.6e-5 -5.2917,1.87e-4 -5.2916,1.86e-4 10e-5,5.2917 5.2916,-1.86e-4 5.2917,-1.87e-4 5.2917,-8.6e-5 5.2916,-1.87e-4 z m -26.4583,8.32e-4 -5.2917,8.7e-5 10e-5,5.2917 5.2917,-8.7e-5 z m -5.2916,5.291787 -5.2917,1.86e-4 3e-4,5.2916 5.2917,-1.86e-4 z m -10.5851,5.291873 10e-5,5.2917 10e-5,5.2917 2e-4,5.2916 5e-4,0 10e-5,5.2917 5.2912,-1.87e-4 -1e-4,-5.2917 -2e-4,-5.2916 -10e-5,-5.2916 -10e-5,-5.2917 z m 5.2922,21.166513 2e-4,5.2917 5.2916,-8.6e-5 -2e-4,-5.2917 z m 15.8755,-21.167159 10e-5,5.2917 -5.2906,2.86e-4 10e-5,5.2917 5.2916,-2.86e-4 -10e-5,-5.2917 5.2901,-8.7e-5 5.2917,-8.6e-5 -10e-5,-5.2917 -5.2917,8.6e-5 z m -5.2904,10.583686 -5.2917,8.7e-5 2e-4,5.2916 5.2917,-8.7e-5 z m 2e-4,5.2916 10e-5,5.2917 5.2906,-2.86e-4 2e-4,5.2917 5.2911,-8.7e-5 -2e-4,-5.2917 -5.2901,8.7e-5 -10e-5,-5.2917 z m 15.8735,-15.875459 10e-5,5.2917 5.2917,-2.87e-4 -10e-5,-5.2917 z m 26.4594,-8.33e-4 10e-5,5.2917 5.2911,-8.6e-5 -10e-5,-5.2917 z m 5.2917,-8.7e-5 10e-5,5.2917 5.2916,-2.86e-4 -10e-5,-5.2917 z m 5.2917,5.291414 10e-5,5.2917 5.2912,-8.6e-5 -10e-5,-5.2917 z m -31.75,9.19e-4 10e-5,5.2917 5.2912,-8.6e-5 -10e-5,-5.2917 z m 15.875,-4.6e-4 10e-5,5.2917 2e-4,5.2916 10e-5,5.2917 5.2917,-8.6e-5 -10e-5,-5.2917 -2e-4,-5.2916 -5e-4,0 -10e-5,-5.2917 z m 4e-4,15.875 -5.2916,2.87e-4 2e-4,5.2917 5.2916,-2.87e-4 z m -5.2914,5.291987 -5.2917,8.6e-5 2e-4,5.2916 5.2917,-8.6e-5 z m 47.6244,-21.168179 10e-5,5.2917 2e-4,5.2916 10e-5,5.2917 2e-4,5.2917 2e-4,5.2916 5.2916,-8.6e-5 -2e-4,-5.2916 -2e-4,-5.2917 -10e-5,-5.2917 -2e-4,-5.2916 -10e-5,-5.2917 z m -52.9156,5.293265 2e-4,5.2916 5.2917,-8.6e-5 -2e-4,-5.2916 z m 31.749,-9.19e-4 2e-4,5.2916 10e-5,5.2917 5.2911,-8.6e-5 -10e-5,-5.2917 -2e-4,-5.2916 z m 3e-4,10.5833 -5.2917,8.7e-5 2e-4,5.2917 2e-4,5.2916 10e-5,5.2917 5.2917,-8.65e-5 -10e-5,-5.2917005 -2e-4,-5.2916 z m -5.2912,15.875087 -5.2916,2.865e-4 2e-4,5.29169997656 5.2916,-2.8650086e-4 z m -5.2914,5.29198647656 -5.2917,8.650438e-5 10e-5,5.29160001906 10e-5,5.2917 5.2911,-8.7e-5 -10e-5,-5.2916995 6e-4,0 z M 1428.7489,10.5828 l -5.2917,1.86e-4 3e-4,5.2917 5.2917,-1.86e-4 z m -5.2914,5.291886 -5.2916,1.87e-4 10e-5,5.2916 5.2916,-1.87e-4 z m -15.8763,-42.33294 10e-5,5.2917 5.2917,-1.86e-4 -10e-5,-5.2917 z m -52.9165,5.293165 2e-4,5.2917 5.2916,-8.6e-5 5.2917,-8.7e-5 -2e-4,-5.2917 -5.2917,8.7e-5 z m 10.5835,5.291527 2e-4,5.2916 5.2917,-2.86e-4 -2e-4,-5.2916 z m 5.2919,5.291314 10e-5,5.2916995 5.2916,-8.65e-5 -10e-5,-5.2917 z m 5.2917,5.291613 2e-4,5.29170001 10e-5,5.29159999 5.2912,-1.865e-4 -10e-5,-5.29159997257 5e-4,-1.763e-8 -2e-4,-5.2917000098 z m 21.1652,-15.875646 2e-4,5.2917 5.2916,-8.6e-5 5.2912,-1.87e-4 -2e-4,-5.2917 -5.2912,1.87e-4 z m -15.8754,5.29216 2e-4,5.2916 5.2912,-8.7e-5 -2e-4,-5.2916 z m 5.2935,5.291513 10e-5,5.2917 5.2916,-1.865e-4 5.2917,-1.865e-4 5.2911,-8.65e-5 -10e-5,-5.2916995 -5.2911,8.6e-5 -5.2917,1.87e-4 z m 15.875,-4.6e-4 10e-5,5.2917005 5.2916,-1.865e-4 5.2912,-1.865e-4 -10e-5,-5.2916995 -5.2912,1.86e-4 z m 58.2083,-0.0018 10e-5,5.2917 -5e-4,0 2e-4,5.29169998 5e-4,-2e-8 10e-5,5.29160004 5.2911,-8.65e-5 -10e-5,-5.29160002 -2e-4,-5.29169998 -10e-5,-5.2917005 z m 4e-4,15.875 -5.2917,1.865e-4 10e-5,5.2916995 5.2917,-1.86e-4 z m -5.2916,5.291886 -5.2916,1.87e-4 3e-4,5.2917 10e-5,5.2916 10e-5,5.2917 5.2916,-1.87e-4 -10e-5,-5.2917 -10e-5,-5.2916 z m -100.5417,-5.288856 10e-5,5.2917 5.2916,-8.6e-5 -10e-5,-5.2917005 z m 5.2917,5.291614 3e-4,5.2917 10e-5,5.2916 5.2912,-8.7e-5 -10e-5,-5.2916 5e-4,0 -3e-4,-5.2917 z m 21.1666,-5.2923465 10e-5,5.2917005 5.2911,-8.7e-5 -10e-5,-5.2917 z m 5.2918,5.2916135 3e-4,5.2917 5.2916,-1.87e-4 -3e-4,-5.291699 z m 5.2919,5.291513 10e-5,5.2916 5.2917,-1.86e-4 -10e-5,-5.2916 z m 5.2918,5.291414 10e-5,5.2917 5.2917,-8.7e-5 5.2916,-1.86e-4 5.2917,-1.87e-4 5.2911,-8.6e-5 -10e-5,-5.2917 -5.2911,8.6e-5 -5.2917,1.87e-4 -5.2916,1.86e-4 z m -31.75,9.19e-4 10e-5,5.2917 5.2911,-1.86e-4 -10e-5,-5.2917 z m 5.2918,5.291514 2e-4,5.2917 5.2916,-8.7e-5 -2e-4,-5.2917 z m 5.2918,5.291613 10e-5,5.2916 5.2917,-1.87e-4 -10e-5,-5.2916 z m 5.2918,5.291413 2e-4,5.2917 5.2917,-8.6e-5 -2e-4,-5.2917 z m 5.2919,5.291614 2e-4,5.2917 5.2916,-1.87e-4 5.2917,-1.86e-4 -2e-4,-5.2917 -5.2917,1.86e-4 z m 10.5835,5.291327 10e-5,5.2916 5.2917,-8.7e-5 5.2916,-2.86e-4 5.2912,-8.7e-5 5.2916,-8.6e-5 5.2917,-2.87e-4 -10e-5,-5.2916 -5.2917,2.87e-4 -5.2916,8.6e-5 -5.2912,8.7e-5 -5.2916,2.86e-4 z m 47.6243,-21.168079 2e-4,5.2917 5.2911,-1.86e-4 -2e-4,-5.2917 z m 2e-4,5.2917 -5.2917,8.7e-5 10e-5,5.2916 5.2917,-8.7e-5 z m -5.2916,5.291687 -5.2916,2.86e-4 2e-4,5.2917 5.2916,-2.86e-4 z m -15.8748,5.292159 2e-4,5.2917 5.2917,-8.6e-5 5.2911,-8.7e-5 -2e-4,-5.2917 -5.2911,8.7e-5 z" />
    <path
       id="rect360-46-33-7-4"
       style="fill:#cc0000;fill-opacity:1;stroke-width:0.79375"
       d="m 1396.998,-37.041281 5.2916,-8.7e-5 10e-5,5.2917 -5.2916,8.7e-5 z" />
    <path
       id="rect360-46-33-7-5"
       style="fill:#e50000;fill-opacity:1;stroke-width:0.79375"
       d="m 1391.7062,-37.041594 0,5.2917 2e-4,5.2916 0,5.2917 5.2917,-1.87e-4 0,-5.2917 -2e-4,-5.2916 0,-5.2917 z m 10.5834,-2.74e-4 0,5.291701 2e-4,5.291699 0,5.291601 5.2916,-8.7e-5 0,-5.2916 -2e-4,-5.2917 0,-5.2917 z" />
    <path
       id="rect360-46-33-7-6"
       style="fill:#ff0000;stroke-width:0.79375"
       d="m 1386.4147,-31.749208 5.2916,-1.86e-4 2e-4,5.2917 -5.2916,8.6e-5 z" />
    <path
       id="rect360-46-33-7-48"
       style="fill:#cc0000;fill-opacity:1;stroke-width:0.79375"
       d="m 1396.9983,-26.457881 5.2916,-1.87e-4 10e-5,5.2917 -5.2916,8.7e-5 z" />
    <path
       id="rect360-46-33-7-83"
       style="fill:#b20000;fill-opacity:1;stroke-width:0.79375"
       d="m 1396.998,-31.750081 5.2916,-8.6e-5 2e-4,5.291699 -5.2916,-1.3e-5 z" />
    <path
       id="rect360-46-33-7-45"
       style="fill:#ff0000;stroke-width:0.79375"
       d="m 1407.5814,-31.749854 5.2916,-1.87e-4 2e-4,5.2917 -5.2916,1.87e-4 z" />
    <path
       id="rect360-62-915-8-6-5"
       style="fill:#008000;stroke-width:0.79375"
       d="m 1428.747,-52.9174 0,5.2917 -5.2912,1.86e-4 3e-4,5.2916 10e-5,5.2917 5.2912,-1.86e-4 -10e-5,-5.2917 5.2916,-8.6e-5 5.2917,-1.87e-4 -3e-4,-5.2916 0,-5.2917 -5.2917,1.87e-4 z m 10.5838,-2.73e-4 0,5.2917 3e-4,5.2916 5.2912,-8.7e-5 10e-5,5.2917 5.2916,-8.6e-5 0,5.2917 5.2917,-1.87e-4 0,-5.2917 -10e-5,-5.2917 -3e-4,-5.2916 -5.2917,1.87e-4 0,-5.2917 -5.2916,8.6e-5 z m -52.9172,5.292865 3e-4,5.2916 -5.2916,8.7e-5 10e-5,5.2917 0,5.2917 5.2916,-8.7e-5 0,-5.2917 5.2917,-8.6e-5 -10e-5,-5.2917 -3e-4,-5.2916 z m 5.2922,-8.6e-5 3e-4,5.2916 5.2912,-1.87e-4 5.2916,-8.6e-5 5.2917,-8.7e-5 -3e-4,-5.2916 -5.2917,8.7e-5 -5.2916,8.6e-5 z m 15.875,-3.6e-4 3e-4,5.2916 10e-5,5.2917 5.2912,-1.86e-4 0,5.2917 5.2916,1.3e-5 0,-5.2917 5.2917,-8.6e-5 -10e-5,-5.2917 -5.2917,8.6e-5 -5.2916,-1.3e-5 -3e-4,-5.2916 z m 47.6254,10.582221 0,5.2917 2e-4,5.2916 0,5.2917 2e-4,5.2917 10e-5,5.2916 5.2912,1.4e-5 -10e-5,-5.2916 -2e-4,-5.2917 0,-5.2917 -2e-4,-5.2916 0,-5.2917 z m -74.0836,10.584912 0,5.2917 5.2916,-8.7e-5 0,-5.2917 z m 5.2916,5.291613 2e-4,5.2917 5.2917,-8.6e-5 -2e-4,-5.2917 z m 26.4584,-5.292332 0,5.2917 5.2916,1.3e-5 0,-5.2917 z m 0,5.2917 -5.2912,1.86e-4 2e-4,5.2917 5.2912,-1.86e-4 z m 37.0416,-7.06e-4 2e-4,5.2917 1e-4,5.2916 10e-5,5.2917 -5.2916,8.65e-5 2e-4,5.29169999 -5.2912,1.864857e-4 0,5.2916000243 10e-5,5.2917 2e-4,5.2917 10e-5,5.2916 0,5.2917 5.2912,-1.87e-4 0,-5.2917 -10e-5,-5.2916 -2e-4,-5.2917 5.2916,-8.6e-5 -10e-5,-5.2917 5.2917,-1.865e-4 0,-5.29160002 -2e-4,-5.29169998 -10e-5,-5.2917005 -10e-5,-5.2916 -2e-4,-5.2917 z m -95.2498,5.293657 1e-4,5.2916 10e-5,5.2917 2e-4,5.29170004581 5.2917,-8.650438e-5 -2e-4,-5.29170004143 -10e-5,-5.2916995 -10e-5,-5.2916 z m 5.2923,5.291514 10e-5,5.2916995 2e-4,5.29170002381 5.2912,-8.648676e-5 0,5.29159996295 5.2916,-8.65e-5 0,-5.29159996381 -2e-4,-5.29170003619 -5.2916,8.65e-5 -10e-5,-5.2917 z m 10.5831,15.8748265 10e-5,5.2917005 2e-4,5.2917 5.2917,-8.7e-5 -2e-4,-5.2917 -10e-5,-5.2917 z m 5.2923,5.2916135 2e-4,5.2917 10e-5,5.2916 5.2912,-8.6e-5 0,5.2917 5.2916,-1.87e-4 2e-4,5.2917 5.2917,-8.6e-5 -2e-4,-5.2917 0,-5.2917 -5.2917,8.6e-5 -10e-5,-5.2916 -5.2916,1.87e-4 -2e-4,-5.2917 z m 58.2078,-0.0014 2e-4,5.2917 -5.2916,1.87e-4 10e-5,5.2916 -5.2912,8.6e-5 0,5.2917 2e-4,5.2917 10e-5,5.2916 5.2912,-8.6e-5 5.2916,-1.87e-4 -10e-5,-5.2916 5.2917,-8.6e-5 -2e-4,-5.2917 0,-5.2917 -10e-5,-5.2916 -2e-4,-5.2917 z m -42.3325,15.875893 2e-4,5.2917 10e-5,5.2916 5.2912,-8.7e-5 5.2916,-8.6e-5 10e-5,5.2917 5.2917,-1.87e-4 -10e-5,-5.2917 -10e-5,-5.2916 -5.2917,1.87e-4 -5.2916,8.6e-5 -2e-4,-5.2917 z m 26.4578,-4.33e-4 2e-4,5.2917 -5.2916,-1.3e-5 -5.2912,1.86e-4 10e-5,5.2916 10e-5,5.2917 5.2912,-1.86e-4 5.2916,1.3e-5 5.2917,-8.6e-5 -10e-5,-5.291701 -10e-5,-5.291599 -2e-4,-5.2917 z" />
    <path
       id="rect360-62-915-8-6-7"
       style="fill:#009900;fill-opacity:1;stroke-width:0.79375"
       d="m 1439.3311,-42.334373 10e-5,5.2917 5.2912,-8.7e-5 -10e-5,-5.2916 z m 5.2913,5.291613 0,5.2917 5.2916,-8.6e-5 0,-5.2917 z m 5.2916,5.291614 2e-4,5.2917 0,5.2916 5.2917,-1.87e-4 0,-5.2916 -2e-4,-5.2917 z m 2e-4,10.5833 -5.2916,8.6e-5 2e-4,5.2917 10e-5,5.2917 10e-5,5.2916005 5.2916,-8.65e-5 -10e-5,-5.2916 -1e-4,-5.2917 z m -5.2912,15.8750865 -5.2912,8.65e-5 2e-4,5.2916999757 5.2912,-8.64857e-5 z m -84.6664,-10.5815155 10e-5,5.2917 5.2912,-8.7e-5 -10e-5,-5.2917 z m 5.2913,5.291613 10e-5,5.2916 5.2916,-8.65e-5 -10e-5,-5.2916995 z m 5.2917,5.2915135 2e-4,5.29160003619 0,5.29169996381 5.2917,-8.65e-5 0,-5.29169996819 -2e-4,-5.29160003181 z m 63.5002,5.29036199771 0,5.29160000229 10e-5,5.2916995 5.2917,-1.86e-4 -10e-5,-5.2917 0,-5.29160000667 z m 10e-5,10.58329950229 -5.2916,8.7e-5 2e-4,5.2917 5.2916,-8.7e-5 z m -5.2914,5.291787 -5.2912,8.6e-5 10e-5,5.2917 5.2912,-1.86e-4 z m -52.9165,-10.582235 10e-5,5.2917 5.2912,-1.86e-4 -10e-5,-5.2917005 z m 5.2913,5.291514 2e-4,5.2916 5.2916,1.3e-5 -2e-4,-5.2917 z m 5.2918,5.291613 10e-5,5.2916 5.2917,-8.6e-5 -10e-5,-5.2916 z m 5.2923,5.291514 0,5.2917 5.2912,-1.87e-4 0,-5.2917 z m 5.2912,5.291513 2e-4,5.2917 5.2916,-8.6e-5 5.2917,-8.7e-5 -2e-4,-5.2917 -5.2917,8.7e-5 z m 21.1666,-5.292046 0,5.2917 5.2917,-8.6e-5 0,-5.2917 z m 0,5.2917 -5.2916,-1.3e-5 -5.2912,1.86e-4 2e-4,5.2917 5.2912,-1.86e-4 5.2916,-8.7e-5 z" />
    <path
       id="rect360-62-915-8-6-41"
       style="fill:#006600;fill-opacity:1;stroke-width:0.79375"
       d="m 1460.4975,-37.043019 10e-5,5.2916 10e-5,5.2917 1e-4,5.2917 2e-4,5.2916 10e-5,5.2917 5.2917,-8.7e-5 -2e-4,-5.2917 -10e-5,-5.2916 -1e-4,-5.2917 -2e-4,-5.2917 0,-5.2916 z m 0,26.4583 -5.2917,8.6e-5 2e-4,5.2916004 10e-5,5.29170002 0,5.29169998 5.2917,-8.65e-5 -10e-5,-5.29169998 0,-5.29160002 z m -5.2914,15.8750864 -5.2917,1.865e-4 2e-4,5.2916001 5.2917,-1.87e-4 z m -5.2915,5.2917866 -5.2917,8.6e-5 2e-4,5.2917 2e-4,5.2917 0,5.2916 5.2917,-8.6e-5 -10e-5,-5.2916 -10e-5,-5.2917 z m -5.2913,15.875086 -5.2917,8.7e-5 1e-4,5.2917 5.2917,-8.7e-5 z m -5.2916,5.291787 -5.2917,1.86e-4 2e-4,5.2916 5.2917,-1.86e-4 z m -5.2915,5.291786 -5.2917,8.7e-5 -5.2916,1.86e-4 0,5.2917 5.2917,-1.86e-4 5.2916,-8.7e-5 z m -10.5833,5.291973 -5.2917,8.7e-5 -5.2916,-1.4e-5 -5.2917,1.87e-4 -5.2917,8.6e-5 0,-5.2916 -5.2917,-1.3e-5 -5.2916,1.86e-4 -2e-4,-5.2916 -5.2917,8.7e-5 0,-5.2917 -5.2917,8.6e-5 0,-5.2917 -5.2917,1.87e-4 -2e-4,-5.2917 -5.2916,8.6e-5 -2e-4,-5.2916 -2e-4,-5.2916995 -5.2916,1.865e-4 -10e-5,-5.29170002114 -5.2916,8.650086e-5 -5.2917,8.650438e-5 0,5.2916000159 5.2917,1.35e-5 2e-4,5.2915995 5.2916,-8.6e-5 2e-4,5.2917 2e-4,5.2917 5.2916,-1.87e-4 10e-5,5.2917 5.2916,-8.6e-5 1e-4,5.2916 5.2917,-1.87e-4 10e-5,5.2917 5.2917,-8.6e-5 0,5.2917 5.2917,-8.7e-5 5.2917,-1.86e-4 10e-5,5.2917 5.2917,-8.7e-5 5.2917,-8.6e-5 5.2916,-1.87e-4 5.2917,-8.6e-5 5.2917,-8.7e-5 z" />
    <path
       id="rect360-62-915-8-6-394"
       style="fill:#006600;fill-opacity:1;stroke-width:0.79375"
       d="m 1428.7469,-58.2091 10e-5,5.2917 5.2916,-8.6e-5 5.2917,-1.87e-4 -10e-5,-5.2917 -5.2917,1.87e-4 z m 10e-5,5.2917 -5.2912,1.86e-4 0,5.2916 5.2912,-1.86e-4 z m 10.5837,-5.291973 10e-5,5.2917 5.2912,1.3e-5 5.2916,-8.6e-5 -10e-5,-5.2917 -5.2916,8.6e-5 z m 10.5829,5.291627 0,5.2916 5.2917,-1.87e-4 0,-5.2916 z m -63.5,0.0012 0,5.2916 5.2917,-1.86e-4 0,-5.2916 z m 0,5.2916 -5.2916,8.7e-5 3e-4,5.2917 5.2916,-8.7e-5 z m -5.2913,5.291787 -5.2912,8.6e-5 10e-5,5.2917 0,5.2916 2e-4,5.2917 0,5.2917 5.2912,-8.6e-5 0,-5.2917 -2e-4,-5.2917 0,-5.2916 z m 0,21.166699 2e-4,5.2916 5.2916,-8.6e-5 -2e-4,-5.2916 z m 5.2918,5.291514 10e-5,5.2917 5.2917,-1.87e-4 -10e-5,-5.2917 z m 5.2914,-37.041787 0,5.2916 5.2912,-8.6e-5 5.2916,1.3e-5 5.2917,-1.86e-4 0,-5.2916 -5.2917,1.86e-4 -5.2916,-1.3e-5 z m 15.875,-2.59e-4 0,5.2916 5.2912,-1.87e-4 0,-5.2916 z m 5.2912,5.291413 3e-4,5.2917 5.2916,-8.6e-5 5.2917,-8.7e-5 -3e-4,-5.2917 -5.2917,8.7e-5 z m 42.3338,-8.92e-4 3e-4,5.2917 10e-5,5.2917 5.2912,-8.6e-5 -10e-5,-5.2917 -3e-4,-5.2917 z m -63.4992,31.751338 10e-5,5.2917 5.2912,-8.6e-5 5.2916,-8.7e-5 5.2917,-8.6e-5 -10e-5,-5.2917 -5.2917,8.6e-5 -5.2916,8.7e-5 z m 15.875,-2.59e-4 10e-5,5.2917 5.2912,-1.87e-4 -10e-5,-5.2917 z" />
    <path
       id="rect360-62-915-8-6-558"
       style="fill:#009900;fill-opacity:1;stroke-width:0.79375"
       d="m 1418.1642,-37.041827 10e-5,5.2917 2e-4,5.2916 10e-5,5.2917 5.2917,-8.7e-5 -10e-5,-5.2917 -2e-4,-5.2917 -10e-5,-5.2916 z m 4e-4,15.875 -5.2916,8.7e-5 2e-4,5.291699 5.2916,-8.6e-5 z" />
  </g>
</svg>
