<?xml version="1.0" encoding="UTF-8" standalone="no"?>
<!-- Created with Inkscape (http://www.inkscape.org/) -->

<svg
   width="440.00201"
   height="440"
   viewBox="0 0 116.41722 116.41666"
   version="1.1"
   id="svg5"
   inkscape:version="1.1 (ce6663b3b7, 2021-05-25)"
   sodipodi:docname="beholder-arm-bottom.svg"
   xmlns:inkscape="http://www.inkscape.org/namespaces/inkscape"
   xmlns:sodipodi="http://sodipodi.sourceforge.net/DTD/sodipodi-0.dtd"
   xmlns="http://www.w3.org/2000/svg"
   xmlns:svg="http://www.w3.org/2000/svg">
  <sodipodi:namedview
     id="namedview7"
     pagecolor="#ffffff"
     bordercolor="#666666"
     borderopacity="1.0"
     inkscape:pageshadow="2"
     inkscape:pageopacity="0.0"
     inkscape:pagecheckerboard="0"
     inkscape:document-units="mm"
     showgrid="true"
     width="300px"
     units="px"
     borderlayer="true"
     inkscape:showpageshadow="false"
     scale-x="1"
     inkscape:snap-bbox="true"
     inkscape:bbox-nodes="true"
     inkscape:zoom="1.1479719"
     inkscape:cx="508.2877"
     inkscape:cy="209.4999"
     inkscape:window-width="1848"
     inkscape:window-height="1016"
     inkscape:window-x="72"
     inkscape:window-y="27"
     inkscape:window-maximized="1"
     inkscape:current-layer="layer1"
     fit-margin-top="0"
     fit-margin-left="0"
     fit-margin-right="0"
     fit-margin-bottom="0"
     inkscape:lockguides="false">
    <inkscape:grid
       type="xygrid"
       id="grid9"
       empspacing="1"
       spacingy="5.2916667"
       spacingx="5.2916667"
       dotted="true"
       originx="-1354.6663"
       originy="63.499995" />
  </sodipodi:namedview>
  <defs
     id="defs2" />
  <g
     inkscape:label="Layer 1"
     inkscape:groupmode="layer"
     id="layer1"
     transform="translate(-1354.6657,63.500009)">
    <path
       id="rect360-26-3-8"
       style="stroke-width:0.79375"
       d="m 1471.083,10.58345 -5.2916,3e-5 v 5.2917 l 10e-5,5.2916 v 5.2917 5.2917 l 5.2916,-3e-5 v -5.2917 -5.2917 l -10e-5,-5.2916 z m -5.2915,21.16673 -5.2917,3.1e-5 v 5.2916 l 5.2917,-3.1e-5 z m -5.2917,5.291631 -5.2917,3.1e-5 10e-5,5.2917 5.2917,-3.1e-5 z m -5.2916,5.291731 -5.2916,3.1e-5 -5.2917,3e-5 v 5.2911 l 5.2917,-3e-5 5.2916,-3.1e-5 z M 1465.7914,10.58348 V 5.2917804 l -5.2917,3.08e-5 v 5.2916998 z m -5.2917,-5.2916688 -10e-5,-5.2916 v -5.2917001 l -5.2917,3.1e-5 V 2.42e-4 l 10e-5,5.2916 z m -10e-5,-10.5833001 5.2917,-3.1e-5 V -10.58322 l -1e-4,-5.2916 v -5.2917 -5.2917 l -10e-5,-5.2916 -5.2917,3.1e-5 10e-5,5.2916 v 5.2917 5.2917 l 1e-4,5.2916 z m -2e-4,-26.4583001 v -5.2917 l -5.2917,3.1e-5 v 5.2917 z m -5.2917,-5.291669 v -5.2917 l -5.2916,3.1e-5 v 5.2917 z m -5.2916,-10.585369 -5.2917,3e-5 -5.2917,3.1e-5 -5.2916,3.1e-5 v 5e-4 l -5.2917,3.1e-5 v 5.2912 l 5.2917,-3.1e-5 5.2916,-3.1e-5 5.2917,-3.1e-5 5.2917,-3e-5 z m -21.1667,5.291823 -5.2917,3e-5 v 5.2916 l 5.2917,-3e-5 z m 21.1668,15.875877 -5.2917,3e-5 -10e-5,-5.2906 -5.2917,3.1e-5 10e-5,5.2916 5.2917,-3.1e-5 v 5.2901 5.2917 l 5.2917,-3e-5 v -5.2917 z m -10.5835,-5.290539 v -5.2917 l -5.2916,3.1e-5 v 5.2917 z m -5.2916,3.1e-5 -5.2917,3.1e-5 10e-5,5.2906 -5.2917,3e-5 v 5.2911 l 5.2917,-3e-5 v -5.2901 l 5.2917,-3.1e-5 z m 15.8751,15.873808 -5.2917,3e-5 1e-4,5.2917 5.2917,-3e-5 z m 2e-4,26.4594 -5.2917,3e-5 v 5.2911 l 5.2917,-3e-5 z m 0,5.2917 -5.2917,3e-5 10e-5,5.2916 5.2917,-3e-5 z m -5.2916,5.29163 -5.2917,3.1e-5 v 5.2912 l 5.2917,-3.1e-5 z m -2e-4,-31.75 -5.2917,3.1e-5 v 5.2912001 l 5.2917,-3.1e-5 z m 10e-5,15.8750005 -5.2917,3.08e-5 -5.2916,3.07e-5 -5.2917,3.08e-5 v 5.2917002 l 5.2917,-3.1e-5 5.2916,-3.1e-5 v -5e-4 l 5.2917,-3.1e-5 z m -15.875,9.23e-5 -10e-5,-5.2916 -5.2917,3.08e-5 10e-5,5.2916 z m -5.2918,-5.2915692 v -5.2917005 l -5.2916,3.1e-5 V 4.573e-4 Z m 21.167,47.6248764 -5.2917,3.1e-5 -5.2916,3.1e-5 -5.2917,3.1e-5 -5.2917,3e-5 -5.2916,3.1e-5 v 5.2916 l 5.2916,-3.1e-5 5.2917,-3e-5 5.2917,-3.1e-5 5.2916,-3.1e-5 5.2917,-3.1e-5 z m -5.292,-52.9156689 -5.2916,3.1e-5 V 0.001365 l 5.2916,-3.07e-5 z m 2e-4,31.7489999 -5.2916,3.1e-5 -5.2917,3.1e-5 v 5.2911 l 5.2917,-3.1e-5 5.2916,-3.1e-5 z m -10.5833,6.2e-5 v -5.2917 l -5.2917,3e-5 -5.2916,3.1e-5 -5.2917,3.1e-5 v 5.2917 l 5.2917,-3.1e-5 5.2916,-3.1e-5 z m -15.875,-5.291608 -10e-5,-5.2916 -5.2917,3.1e-5 10e-5,5.2916 z m -5.2918,-5.291569 v -5.2917 l -5.2916,3.1e-5 -5.2917,3e-5 v 5.2911 l 5.2917,-3e-5 v 6e-4 z M 1396.9997,10.58388 V 5.2921804 l -5.2917,3.08e-5 v 5.2916998 z m -5.2917,-5.2916688 -10e-5,-5.2916 -5.2916,3.07e-5 10e-5,5.2916 z m 42.3333,-15.8752462 -5.2917,3.1e-5 v 5.2917001 l 5.2917,-3.1e-5 z m -5.292,-52.916569 -5.2917,3e-5 v 5.2916 5.2917 l 5.2917,-3e-5 v -5.2917 z m -5.2917,10.58333 -5.2916,3.1e-5 10e-5,5.2917 5.2916,-3.1e-5 z m -5.2915,5.291731 -5.2917,3.1e-5 v 5.2916 l 5.2917,-3.1e-5 z m -5.2917,5.291631 -5.2917,3.1e-5 -5.2916,3.1e-5 v 5.2912 l 5.2916,-3.1e-5 v 5e-4 l 5.2917,-3.1e-5 z m 15.8751,21.165608 -5.2917,3e-5 v 5.2916 l 1e-4,5.2912 5.2917,-3e-5 -1e-4,-5.2912 z m -5.2918,-15.87557 -5.2916,3.1e-5 v 5.2912 l 5.2916,-3.1e-5 z m -5.2916,5.293331 -5.2917,3.1e-5 10e-5,5.2916 v 5.2917 5.2911 l 5.2917,-3.1e-5 v -5.2911 -5.2917 z m 10e-5,15.875 -5.2917,3.1e-5 1e-4,5.2916 v 5.2912001 l 5.2917,-3.1e-5 v -5.2912001 z m 4e-4,58.2083 -5.2917,3.1e-5 v -5e-4 l -5.2917,3.1e-5 v 5e-4 l -5.2916,3.1e-5 v 5.2911 l 5.2916,-3.1e-5 5.2917,-3.1e-5 5.2917,-3.1e-5 z m -15.875,9.3e-5 -10e-5,-5.2917 -5.2917,3e-5 10e-5,5.2917 z m -5.2918,-5.29167 v -5.2916 l -5.2917,3.1e-5 -5.2916,3.1e-5 -5.2917,3.1e-5 v 5.2916 l 5.2917,-3.1e-5 5.2916,-3.1e-5 z m 5.2912,-100.54163 -5.2917,3e-5 v 5.2916 l 5.2917,-3e-5 z m -5.2917,5.29163 -5.2917,3.1e-5 -5.2916,3.1e-5 v 5.2912 l 5.2916,-3.1e-5 v 5e-4 l 5.2917,-3.1e-5 z m 5.2918,21.16667 -5.2917,3e-5 v 5.2911 l 5.2917,-3e-5 z m -5.2917,5.29173 -5.2917,3.1e-5 10e-5,5.2916 5.2917,-3.1e-5 z m -5.2916,5.291631 -5.2916,3.1e-5 v 5.2917 l 5.2916,-3.1e-5 z m -5.2916,5.291731 -5.2917,3.1e-5 v 5.2917 l 1e-4,5.2916 V -5.2910269 7.27e-5 l 5.2917,-3.08e-5 v -5.2910998 -5.2917001 l -1e-4,-5.2916 z m -2e-4,-31.75 -5.2917,3.1e-5 10e-5,5.2911 5.2917,-3.1e-5 z m -5.2916,5.291731 -5.2917,3e-5 v 5.2916 l 5.2917,-3e-5 z m -5.2917,5.29163 -5.2916,3.1e-5 v 5.2917 l 5.2916,-3.1e-5 z m -5.2916,5.291731 -5.2917,3.1e-5 v 5.2917 l 5.2917,-3.1e-5 z m -5.2917,5.291731 -5.2917,3.1e-5 10e-5,5.2916 v 5.2917 l 5.2917,-3.1e-5 v -5.2917 z m -5.2916,10.583331 -5.2916,3e-5 v 5.2917 l 1e-4,5.2916 v 5.2912001 5.2916004 l 10e-5,5.2917 5.2916,-3.07e-5 -10e-5,-5.2917 v -5.2915997 -5.2912001 l -1e-4,-5.2916 z m 21.167,47.624877 -5.2917,3e-5 v 5.2911 l 5.2917,-3e-5 z m -5.2917,3e-5 v -5.2917 l -5.2916,3.1e-5 v 5.2917 z m -5.2916,-5.291669 -10e-5,-5.2916 -5.2917,3.1e-5 10e-5,5.2916 z m -5.2918,-15.874969 -5.2917,3.08e-5 v 5.2917002 5.2911 l 5.2917,-3.1e-5 v -5.2911 z" />
    <path
       id="rect360-46-33-7-4"
       style="fill:#cc0000;fill-opacity:1;stroke-width:0.79375"
       d="m 1444.6245,-21.165997 v 5.2916 l -5.2917,3.1e-5 v -5.2916 z" />
    <path
       id="rect360-46-33-7-5"
       style="fill:#e50000;fill-opacity:1;stroke-width:0.79375"
       d="m 1444.625,-26.457797 -5.2917,-6.9e-5 -5.2916,3.1e-5 -5.2917,-6.9e-5 v 5.2917 l 5.2917,6.9e-5 5.2916,-3.1e-5 5.2917,6.9e-5 z m 0,10.5834 -5.2917,-6.9e-5 -5.2917,3.1e-5 -5.2916,-6.9e-5 v 5.2916 l 5.2916,6.9e-5 5.2917,-3.1e-5 5.2917,6.9e-5 z" />
    <path
       id="rect360-46-33-7-6"
       style="fill:#ff0000;stroke-width:0.79375"
       d="m 1439.3327,-31.749366 10e-5,5.2916 -5.2917,3.1e-5 v -5.2916 z" />
    <path
       id="rect360-46-33-7-48"
       style="fill:#cc0000;fill-opacity:1;stroke-width:0.79375"
       d="m 1434.0411,-21.165935 10e-5,5.2916 -5.2917,3.1e-5 v -5.2916 z" />
    <path
       id="rect360-46-33-7-83"
       style="fill:#b20000;fill-opacity:1;stroke-width:0.79375"
       d="m 1439.3333,-21.166066 v 5.2916 l -5.2917,3.1e-5 10e-5,-5.2916 z" />
    <path
       id="rect360-46-33-7-45"
       style="fill:#ff0000;stroke-width:0.79375"
       d="m 1439.3329,-10.582666 v 5.2916001 l -5.2917,3.1e-5 v -5.2916001 z" />
    <path
       id="rect360-62-915-8-6-5"
       style="fill:#008000;stroke-width:0.79375"
       d="m 1460.4999,10.583411 -5.2917,-6.9e-5 v -5.2912 l -5.2916,3.07e-5 -5.2917,3.08e-5 v 5.2911995 l 5.2917,-3e-5 v 5.2916 5.2917 l 5.2916,-3.1e-5 5.2917,6.9e-5 v -5.2917 z m 0,10.5838 -5.2917,-6.9e-5 -5.2916,3.1e-5 v 5.2912 l -5.2917,3e-5 v 5.2916 l -5.2917,-6.9e-5 v 5.2917 l 5.2917,6.9e-5 5.2917,-3e-5 5.2916,-3.1e-5 v -5.2917 l 5.2917,6.9e-5 v -5.2916 z m -5.2916,-52.917269 -5.2916,3.1e-5 v -5.2916 l -5.2917,3e-5 -5.2917,-6.9e-5 v 5.2916 l 5.2917,6.9e-5 v 5.2917 l 5.2917,-3e-5 5.2916,-3.1e-5 z m 0,5.2922 -5.2916,3.1e-5 v 5.2912 5.2916 5.2917 l 5.2916,-3.1e-5 v -5.2917 -5.2916 z m 0,15.875 -5.2916,3.1e-5 -5.2917,3e-5 v 5.2912001 l -5.2917,-6.9e-5 -10e-5,5.2916002 5.2917,6.92e-5 v 5.2917 l 5.2917,-3.08e-5 v -5.2917 l 10e-5,-5.2915996 5.2916,-3.1e-5 z m -10.5834,47.625061 -5.2917,-6.9e-5 -5.2916,3.1e-5 -5.2917,-6.9e-5 -5.2917,3e-5 -5.2916,-6.9e-5 -10e-5,5.2912 5.2916,6.9e-5 5.2917,-3e-5 5.2917,6.9e-5 5.2916,-3.1e-5 5.2917,6.9e-5 z m -10.5832,-74.083838 -5.2917,-6.9e-5 v 5.2916 l 5.2917,6.9e-5 z m -5.2917,5.291531 -5.2917,3e-5 v 5.2917 l 5.2917,-3e-5 z m 5.2917,26.4584691 -5.2917,-6.9e-5 -10e-5,5.2915997 5.2917,6.92e-5 z m -5.2917,-6.9e-5 v -5.2912001 l -5.2917,3e-5 v 5.2912001 z m -10e-5,37.0415999 -5.2917,3e-5 -5.2916,-6.9e-5 -5.2917,3.1e-5 v -5.2916 l -5.2917,3.1e-5 v -5.2912 l -5.2916,-6.9e-5 -5.2917,3e-5 -5.2917,-6.9e-5 -5.2916,3.1e-5 -5.2917,-6.9e-5 v 5.2912 l 5.2917,6.9e-5 5.2916,-3.1e-5 5.2917,6.9e-5 v 5.2916 l 5.2917,-3e-5 v 5.2917 l 5.2916,6.9e-5 5.2917,-3.1e-5 5.2917,-3.1e-5 5.2916,6.9e-5 5.2917,-3e-5 z m -5.2915,-95.24997 -5.2916,-6.9e-5 -5.2917,3.1e-5 -5.2917,3.1e-5 v 5.2917 l 5.2917,-3.1e-5 5.2917,-3.1e-5 5.2916,6.9e-5 z m -5.2916,5.292131 -5.2917,3.1e-5 -5.2917,3.1e-5 v 5.2912 l -5.2916,-6.9e-5 -10e-5,5.2916 5.2916,6.9e-5 5.2917,-3.1e-5 10e-5,-5.2916 5.2917,-3.1e-5 z m -15.8751,10.582793 -5.2917,3e-5 -5.2917,-6.9e-5 v 5.2917 l 5.2917,6.9e-5 5.2917,-3e-5 z m -5.2917,5.29223 -5.2917,-6.9e-5 -5.2916,3.1e-5 v 5.2912 l -5.2917,-6.9e-5 v 5.2916 l -5.2917,3e-5 v 5.2917 l 5.2917,-3e-5 5.2917,6.9e-5 v -5.2917 l 5.2916,-3.1e-5 v -5.2916 l 5.2917,6.9e-5 z m -10e-5,58.2078 -5.2917,-6.9e-5 v -5.2916 l -5.2916,3.1e-5 V 5.2920419 l -5.2917,-6.92e-5 -5.2917,3.08e-5 -5.2916,3.07e-5 v 5.2911998 5.2916 l 5.2916,-3.1e-5 v 5.2917 l 5.2917,-3e-5 5.2917,6.9e-5 5.2916,-3.1e-5 5.2917,6.9e-5 z m -15.8749,-42.332907 -5.2917,3e-5 -5.2916,3.1e-5 v 5.2912 5.2916 l -5.2917,-6.9e-5 v 5.2917 l 5.2917,6.9e-5 5.2916,-3.1e-5 v -5.2917 -5.2916 l 5.2917,-3e-5 z m -10e-5,26.4577997 -5.2917,3.08e-5 10e-5,-5.2916004 v -5.2912001 l -5.2916,3.1e-5 -5.2917,-6.9e-5 v 5.2912001 l -10e-5,5.2915999 v 5.2917 l 5.2917,6.92e-5 5.2916,-3.07e-5 5.2917,-3.08e-5 z" />
    <path
       id="rect360-62-915-8-6-7"
       style="fill:#009900;fill-opacity:1;stroke-width:0.79375"
       d="m 1449.9166,21.167173 -5.2917,3e-5 v 5.2912 l 5.2916,-3e-5 z m -5.2917,5.29123 -5.2917,-6.9e-5 v 5.2916 l 5.2917,6.9e-5 z m -5.2917,5.291531 -5.2917,3.1e-5 -5.2916,-6.9e-5 v 5.2917 l 5.2916,6.9e-5 5.2917,-3.1e-5 z m -10.5833,-3.8e-5 v -5.2916 l -5.2917,3e-5 -5.2917,-6.9e-5 -5.2916,3.1e-5 v 5.2916 l 5.2916,-3.1e-5 5.2917,6.9e-5 z m -15.875,-5.291608 v -5.2912 l -5.2917,3.1e-5 v 5.2912 z m 10.5835,-84.666162 -5.2917,-6.9e-5 v 5.2912 l 5.2917,6.9e-5 z m -5.2917,5.291131 -5.2916,3.1e-5 -10e-5,5.2916 5.2917,-3.1e-5 z m -5.2917,5.291631 -5.2916,3.1e-5 -5.2917,-6.9e-5 v 5.2917 l 5.2917,6.9e-5 5.2916,-3.1e-5 z m -5.2918,63.500031 -5.2916,-6.9e-5 -5.2917,3e-5 v 5.2917 l 5.2917,-3e-5 5.2916,6.9e-5 z m -10.5833,-3.9e-5 v -5.2916 l -5.2917,-6.9e-5 v 5.2916 z m -5.2917,-5.291669 10e-5,-5.2911998 -5.2917,3.07e-5 v 5.2912001 z m 10.5835,-52.916161 -5.2917,3e-5 v 5.2912 l 5.2917,-3e-5 z m -5.2917,5.29123 -5.2916,-6.9e-5 -10e-5,5.2916 5.2917,6.9e-5 z m -5.2917,5.291531 -5.2916,3.1e-5 v 5.2917 l 5.2916,-3.1e-5 z m -5.2916,5.292231 -5.2917,-6.9e-5 v 5.2912 l 5.2917,6.9e-5 z m -5.2917,5.291131 -5.2917,3e-5 v 5.2916 5.2917 l 5.2917,-3e-5 v -5.2917 z m 5.2916,21.1666689 -5.2917,-6.92e-5 v 5.2917 l 5.2917,6.92e-5 z m -5.2917,-6.92e-5 10e-5,-5.2915996 v -5.2912001 l -5.2917,3e-5 v 5.2912001 5.2916004 z" />
    <path
       id="rect360-62-915-8-6-41"
       style="fill:#006600;fill-opacity:1;stroke-width:0.79375"
       d="m 1444.6248,42.333503 -5.2916,3.1e-5 -5.2917,-6.9e-5 -5.2917,3.1e-5 -5.2916,3e-5 -5.2917,-6.9e-5 v 5.2917 l 5.2917,-3.1e-5 5.2916,7e-5 5.2917,-3.1e-5 5.2917,-3.1e-5 5.2916,6.9e-5 z m -26.4583,-4.6e-5 v -5.2917 l -5.2916,3.1e-5 -5.2917,3.1e-5 -5.2917,-6.9e-5 v 5.2917 l 5.2917,-3.1e-5 5.2916,6.9e-5 z m -15.875,-5.291707 v -5.2917 l -5.2916,3e-5 v 5.2917 z m -5.2916,-5.29167 v -5.2917 l -5.2917,3.1e-5 -5.2917,3.1e-5 -5.2916,-6.9e-5 v 5.2917 l 5.2916,-3.1e-5 5.2917,6.9e-5 z m -15.875,-5.291707 v -5.2917 l -5.2917,3e-5 v 5.2917 z m -5.2917,-5.29167 v -5.2917 l -5.2916,3.1e-5 v 5.2917 z m -5.2916,-5.291669 v -5.2917 -5.2915998 l -5.2917,-6.92e-5 v 5.2917 5.2916 z m -5.2917,-10.583369 v -5.2917 l 10e-5,-5.2915999 v -5.2917001 -5.2917 l 5.2916,6.9e-5 10e-5,-5.2917 v -5.2916 l 5.2916,-3.1e-5 v -5.2917 l 5.2917,7e-5 v -5.2917 l 5.2917,6.9e-5 v -5.2917 l 5.2917,-3.1e-5 v -5.2916 l 5.2916,-3.1e-5 5.2917,-3e-5 v -5.2916 l 5.2917,-3.1e-5 v -5.2916 -5.2917 l -5.2916,-6.9e-5 -10e-5,5.2917 -5.2916,3e-5 v 5.2916 l -5.2917,3.1e-5 -5.2917,3.1e-5 v 5.2916 l -5.2917,3.1e-5 v 5.2916 l -5.2916,3e-5 v 5.2917 l -5.2917,-6.9e-5 v 5.2917 l -5.2917,-6.9e-5 v 5.2917 5.2917 l -5.2917,-6.9e-5 v 5.2917 5.2917 5.2916001 5.2916997 5.2917 z" />
    <path
       id="rect360-62-915-8-6-394"
       style="fill:#006600;fill-opacity:1;stroke-width:0.79375"
       d="m 1465.7916,10.58338 -5.2917,3.1e-5 v 5.2916 5.2917 l 5.2917,-3.1e-5 v -5.2917 z m -5.2917,3.1e-5 V 5.2922112 l -5.2916,-6.92e-5 v 5.2912 z m 5.2917,10.583769 -5.2917,3.1e-5 -10e-5,5.2912 v 5.2916 l 5.2917,-3.1e-5 v -5.2916 z m -5.2918,10.582831 -5.2916,-6.9e-5 v 5.2917 l 5.2916,6.9e-5 z m 2e-4,-63.5 -5.2916,-6.9e-5 v 5.2917 l 5.2916,6.9e-5 z m -5.2916,-6.9e-5 v -5.2916 l -5.2917,3.1e-5 v 5.2916 z m -5.2917,-5.291569 v -5.2912 l -5.2917,3e-5 -5.2916,-6.9e-5 -5.2917,3.1e-5 -5.2917,-6.9e-5 v 5.2912 l 5.2917,6.9e-5 5.2917,-3.1e-5 5.2916,6.9e-5 z m -21.1667,-7.7e-5 -5.2916,3e-5 v 5.2916 l 5.2916,-3e-5 z m -5.2916,5.29163 -5.2917,-6.9e-5 v 5.2917 l 5.2917,6.9e-5 z m 37.0416,5.292285 -5.2916,-6.9e-5 v 5.2912 l -10e-5,5.2916 v 5.2917 l 5.2916,6.9e-5 v -5.2917 l 10e-5,-5.2916 z m -10e-5,15.875 -5.2916,-6.9e-5 v 5.2912001 l 5.2916,6.9e-5 z m -5.2916,5.2911311 -5.2917,3.1e-5 v 5.2915996 5.2917 l 5.2917,-3.07e-5 v -5.2917 z m -10e-5,42.3337999 -5.2917,3.1e-5 -5.2917,3e-5 v 5.2912 l 5.2917,-3e-5 5.2917,-3.1e-5 z m -31.7498,-63.500016 -5.2917,-6.9e-5 v 5.2912 l -10e-5,5.2916 v 5.2917 l 5.2917,6.9e-5 v -5.2917 l 10e-5,-5.2916 z m -10e-5,15.875 -5.2917,-6.9e-5 v 5.2912001 l 5.2917,6.9e-5 z" />
    <path
       id="rect360-62-915-8-6-558"
       style="fill:#009900;fill-opacity:1;stroke-width:0.79375"
       d="m 1444.6246,2.035e-4 -5.2917,3.08e-5 -5.2916,3.07e-5 -5.2917,3.08e-5 v 5.2917 l 5.2917,-3.08e-5 5.2917,-3.07e-5 5.2916,-3.08e-5 z m -15.875,9.23e-5 v -5.2915997 l -5.2917,3e-5 V 3.266e-4 Z" />
  </g>
</svg>
