<?xml version="1.0" encoding="UTF-8" standalone="no"?>
<!-- Created with Inkscape (http://www.inkscape.org/) -->

<svg
   width="440.00201"
   height="440"
   viewBox="0 0 116.41722 116.41666"
   version="1.1"
   id="svg5"
   inkscape:version="1.1 (ce6663b3b7, 2021-05-25)"
   sodipodi:docname="beholder-arm-top.svg"
   xmlns:inkscape="http://www.inkscape.org/namespaces/inkscape"
   xmlns:sodipodi="http://sodipodi.sourceforge.net/DTD/sodipodi-0.dtd"
   xmlns="http://www.w3.org/2000/svg"
   xmlns:svg="http://www.w3.org/2000/svg">
  <sodipodi:namedview
     id="namedview7"
     pagecolor="#ffffff"
     bordercolor="#666666"
     borderopacity="1.0"
     inkscape:pageshadow="2"
     inkscape:pageopacity="0.0"
     inkscape:pagecheckerboard="0"
     inkscape:document-units="mm"
     showgrid="true"
     width="300px"
     units="px"
     borderlayer="true"
     inkscape:showpageshadow="false"
     scale-x="1"
     inkscape:snap-bbox="true"
     inkscape:bbox-nodes="true"
     inkscape:zoom="1.1479719"
     inkscape:cx="508.2877"
     inkscape:cy="209.4999"
     inkscape:window-width="1848"
     inkscape:window-height="1016"
     inkscape:window-x="72"
     inkscape:window-y="27"
     inkscape:window-maximized="1"
     inkscape:current-layer="layer1"
     fit-margin-top="0"
     fit-margin-left="0"
     fit-margin-right="0"
     fit-margin-bottom="0"
     inkscape:lockguides="false">
    <inkscape:grid
       type="xygrid"
       id="grid9"
       empspacing="1"
       spacingy="5.2916667"
       spacingx="5.2916667"
       dotted="true"
       originx="-1354.6663"
       originy="63.499995" />
  </sodipodi:namedview>
  <defs
     id="defs2" />
  <g
     inkscape:label="Layer 1"
     inkscape:groupmode="layer"
     id="layer1"
     transform="translate(-1354.6657,63.500009)">
    <path
       id="rect360-26-3-8"
       style="stroke-width:0.79375"
       d="m 1354.665,-21.167218 5.2916,5.1e-5 10e-5,-5.2917 -10e-5,-5.2916 10e-5,-5.2917 10e-5,-5.2917 -5.2916,-5.1e-5 -10e-5,5.2917 -10e-5,5.2917 10e-5,5.2916 z m 5.2918,-21.166649 5.2917,5e-5 0,-5.2916 -5.2917,-5e-5 z m 5.2917,-5.29155 5.2917,5e-5 0,-5.2917 -5.2917,-5e-5 z m 5.2917,-5.29165 5.2916,-5e-5 5.2917,5.1e-5 10e-5,-5.2911 -5.2917,-5.1e-5 -5.2916,5e-5 z m -10.5836,31.7499 0,5.2917 5.2917,5e-5 0,-5.2917 z m 5.2917,5.29175 0,5.2916 -10e-5,5.2916999 5.2917,5.02e-5 10e-5,-5.2917001 0,-5.2916 z m -10e-5,10.5832999 -5.2917,-5.03e-5 0,5.29170005866 0,5.29160004134 -10e-5,5.2917003 0,5.2917 0,5.2916 5.2917,5e-5 0,-5.2916 0,-5.2917 10e-5,-5.2917001 0,-5.29160000454 z m -10e-5,26.4583001 -10e-5,5.2917 5.2917,5e-5 10e-5,-5.2917 z m 5.2916,5.29175 0,5.2917 5.2916,-5e-5 0,-5.2917 z m 5.2915,10.58535 5.2917,5.1e-5 5.2917,5e-5 5.2916,5e-5 0,-5e-4 5.2917,5e-5 0,-5.2912 -5.2917,-5e-5 -5.2916,-5e-5 -5.2916,-5e-5 -5.2917,-5.1e-5 z m 21.1667,-5.291499 5.2917,5.1e-5 10e-5,-5.2916 -5.2917,-5.1e-5 z m -21.1666,-15.876201 5.2917,5.1e-5 10e-5,5.2906 5.2917,5e-5 -10e-5,-5.2916 -5.2917,-5e-5 10e-5,-5.2901 10e-5,-5.2917004 -5.2917,-5.02e-5 -10e-5,5.2916996 z m 10.5835,5.290701 -10e-5,5.2917 5.2916,5e-5 10e-5,-5.2917 z m 5.2916,5e-5 5.2917,5e-5 -10e-5,-5.2906 5.2917,5.1e-5 10e-5,-5.2911 -5.2917,-5.1e-5 -10e-5,5.2901 -5.2917,-5e-5 z m -15.8749,-15.8740506 5.2917,5.02e-5 -10e-5,-5.29169998778 -5.2917,-5.02368e-5 z m 10e-5,-26.4594004 5.2917,5.1e-5 10e-5,-5.2911 -5.2917,-5.1e-5 z m 10e-5,-5.2917 5.2917,5.1e-5 -10e-5,-5.2916 -5.2917,-5.1e-5 z m 5.2916,-5.291549 5.2917,5e-5 10e-5,-5.2912 -5.2917,-5e-5 z m -2e-4,31.7499996116 5.2917,5.02368e-5 10e-5,-5.2912000484 -5.2917,-5.02e-5 z m 10e-5,-15.8749996116 5.2917,5e-5 5.2916,5e-5 5.2917,5e-5 10e-5,-5.2917 -5.2917,-5e-5 -5.2916,-5e-5 0,5e-4 -5.2917,-5e-5 z m 15.875,1.5e-4 10e-5,5.2916 5.2917,5.1e-5 -10e-5,-5.2916 z m 5.2918,5.291651 -10e-5,5.2916996 5.2916,-4.98e-5 10e-5,-5.2916998 z m -21.1665,-47.625201 5.2917,5e-5 5.2916,5e-5 5.2917,5e-5 5.2917,5e-5 5.2916,-4.9e-5 10e-5,-5.2916 -5.2916,4.9e-5 -5.2917,-5e-5 -5.2917,-5e-5 -5.2916,-5e-5 -5.2917,-5e-5 z m 5.2914,52.9157498 5.2916,5.03e-5 10e-5,-5.2917001 -5.2916,-5e-5 z m 2e-4,-31.7489998 5.2916,5e-5 5.2917,5e-5 10e-5,-5.2911 -5.2917,-5e-5 -5.2916,-5e-5 z m 10.5833,10e-5 -10e-5,5.2917 5.2917,5.1e-5 5.2916,-5e-5 5.2917,5e-5 10e-5,-5.2917 -5.2917,-5e-5 -5.2916,5e-5 z m 15.8749,5.291751 10e-5,5.2916 5.2917,5e-5 -10e-5,-5.2916 z m 5.2918,5.29165 -10e-5,5.2917 5.2916,5e-5 5.2917,5.1e-5 10e-5,-5.2911 -5.2917,-5.1e-5 0,-6e-4 z m 10.5832,5.291801 0,5.2917 5.2917,-5e-5 0,-5.2917 z m 5.2917,5.29165 0,5.2916 5.2916,5e-5 0,-5.2916 z m -42.3335,15.87479808888 5.2917,5.023679e-5 0,-5.29170002567 -5.2917,-5.02e-5 z m 5.2913,52.91664991112 5.2917,5.1e-5 10e-5,-5.2916 10e-5,-5.2917 -5.2917,-5.1e-5 -10e-5,5.2917 z m 5.2919,-10.583249 5.2916,-5e-5 -10e-5,-5.2917 -5.2916,5e-5 z m 5.2915,-5.29175 5.2917,5e-5 10e-5,-5.2916 -5.2917,-5e-5 z m 5.2918,-5.29155 5.2917,5e-5 5.2916,5.1e-5 0,-5.2912 -5.2916,-5.1e-5 0,-5e-4 -5.2917,-5e-5 z m -15.8749,-21.165751 5.2917,5.1e-5 10e-5,-5.2916004 0,-5.29120004 -5.2917,-5.023e-5 0,5.29119997 z m 5.2916,15.875651 5.2916,-5e-5 10e-5,-5.2912 -5.2916,5e-5 z m 5.2917,-5.29335 5.2917,5e-5 0,-5.2916 0,-5.2917 10e-5,-5.2911 -5.2917,-5.02e-5 -10e-5,5.2911002 0,5.2917 z m 10e-5,-15.8750002 5.2917,5.02e-5 0,-5.29159995922 0,-5.29120004078 -5.2917,-5.02e-5 0,5.29120000399 z m 3e-4,-58.2082998 5.2917,5e-5 0,5e-4 5.2917,5e-5 0,-5e-4 5.2916,5e-5 10e-5,-5.2911 -5.2916,-5e-5 -5.2917,-5e-5 -5.2917,-5e-5 z m 15.875,1.5e-4 0,5.2917 5.2917,5.1e-5 0,-5.2917 z m 5.2917,5.291751 0,5.2916 5.2917,-5e-5 5.2916,5e-5 5.2917,5e-5 0,-5.2916 -5.2917,-5e-5 -5.2916,-5e-5 z m -5.2924,100.54155 5.2917,5e-5 10e-5,-5.2916 -5.2917,-5e-5 z m 5.2918,-5.29155 5.2917,-5e-5 5.2916,5e-5 10e-5,-5.2912 -5.2916,-5e-5 0,-5e-4 -5.2917,5e-5 z m -5.2916,-21.16675 5.2917,5e-5 10e-5,-5.2911 -5.2917,-5e-5 z m 5.2918,-5.29165 5.2917,-5e-5 0,-5.2916 -5.2917,5e-5 z m 5.2917,-5.29165 5.2916,5e-5 0,-5.2917 -5.2916,-5e-5 z m 5.2916,-5.29165 5.2917,5e-5 10e-5,-5.2916995 0,-5.291600029005 0,-5.291699970995 10e-5,-5.2911005 -5.2917,-5e-5 -10e-5,5.2911002 0,5.2917000342 0,5.2915999658 z m -2e-4,31.75 5.2917,5.1e-5 0,-5.2911 -5.2917,-5.1e-5 z m 5.2917,-5.291649 5.2917,5e-5 10e-5,-5.2916 -5.2917,-5e-5 z m 5.2918,-5.29155 5.2916,5e-5 0,-5.2917 -5.2916,-5e-5 z m 5.2916,-5.29165 5.2917,5e-5 10e-5,-5.2917 -5.2917,-5e-5 z m 5.2918,-5.29165 5.2917,-5e-5 0,-5.2916 0,-5.2917 -5.2917,5e-5 0,5.2917 z m 5.2917,-10.58335 5.2916,5.1e-5 10e-5,-5.2917003 -10e-5,-5.29160003459 10e-5,-5.29119996541 10e-5,-5.2915997 -10e-5,-5.2917 -5.2916,-5.1e-5 10e-5,5.2917 -10e-5,5.2916004 -10e-5,5.29120002389 10e-5,5.29159997611 z m -21.1664,-47.625101 5.2917,5.1e-5 0,-5.2911 -5.2917,-5.1e-5 z m 5.2917,5.1e-5 -10e-5,5.2917 5.2916,5e-5 10e-5,-5.2917 z m 5.2915,5.29175 10e-5,5.2916 5.2917,5e-5 -10e-5,-5.2916 z m 5.2916,15.87505 5.2917,-5e-5 10e-5,-5.2917 10e-5,-5.2911 -5.2917,5e-5 -10e-5,5.2911 z" />
    <path
       id="rect360-46-33-7-4"
       style="fill:#cc0000;fill-opacity:1;stroke-width:0.79375"
       d="m 1381.1231,10.582534 10e-5,-5.2916004 5.2917,5.03e-5 -10e-5,5.2916001 z" />
    <path
       id="rect360-46-33-7-5"
       style="fill:#e50000;fill-opacity:1;stroke-width:0.79375"
       d="m 1381.1226,15.874334 5.2917,1.5e-4 5.2916,5e-5 5.2917,1.5e-4 0,-5.2917 -5.2917,-1.5e-4 -5.2916,-5e-5 -5.2917,-1.5e-4 z m 10e-5,-10.5834004 5.2917,1.503e-4 5.2917,5.02e-5 5.2916,1.503e-4 1e-4,-5.29160005545 -5.2916,-1.5024151e-4 -5.2917,-5.02368e-5 -5.2917,-1.5023679e-4 z" />
    <path
       id="rect360-46-33-7-6"
       style="fill:#ff0000;stroke-width:0.79375"
       d="m 1386.4148,21.165984 0,-5.2916 5.2917,5e-5 -10e-5,5.2916 z" />
    <path
       id="rect360-46-33-7-48"
       style="fill:#cc0000;fill-opacity:1;stroke-width:0.79375"
       d="m 1391.7065,10.582634 0,-5.2915999 5.2917,5.02e-5 -10e-5,5.2915997 z" />
    <path
       id="rect360-46-33-7-83"
       style="fill:#b20000;fill-opacity:1;stroke-width:0.79375"
       d="m 1386.4143,10.582684 10e-5,-5.2916001 5.2917,5.02e-5 -2e-4,5.2915999 z" />
    <path
       id="rect360-46-33-7-45"
       style="fill:#ff0000;stroke-width:0.79375"
       d="m 1386.4149,-7.1615264e-4 0,-5.29160004736 5.2917,5.03e-5 0,5.29159998416 z" />
    <path
       id="rect360-62-915-8-6-5"
       style="fill:#008000;stroke-width:0.79375"
       d="m 1365.2481,-21.167017 5.2917,1.5e-4 0,5.2912 5.2916,-5e-5 5.2917,5.1e-5 0,-5.2912 -5.2917,-5.1e-5 10e-5,-5.2916 0,-5.2917 -5.2916,5e-5 -5.2917,-1.5e-4 0,5.2917 z m 10e-5,-10.5838 5.2917,1.5e-4 5.2916,-5e-5 10e-5,-5.2912 5.2917,5.1e-5 10e-5,-5.2916 5.2917,1.5e-4 0,-5.2917 -5.2917,-1.5e-4 -5.2917,-5.1e-5 -5.2916,5e-5 0,5.2917 -5.2917,-1.5e-4 -10e-5,5.2916 z m 5.291,52.91735 5.2916,-5e-5 -10e-5,5.2916 5.2917,5.1e-5 5.2917,1.5e-4 10e-5,-5.2916 -5.2917,-1.5e-4 10e-5,-5.2917 -5.2917,-5.1e-5 -5.2916,5e-5 z m 10e-5,-5.2922 5.2916,-5e-5 0,-5.2912 10e-5,-5.2915996 1e-4,-5.29170000735 -5.2916,4.975849e-5 -1e-4,5.29170004886 -10e-5,5.2915998 z m 2e-4,-15.87499984886 5.2916,-4.975849e-5 5.2917,5.02368e-5 0,-5.29120002945 5.2917,1.503e-4 2e-4,-5.2915999 -5.2917,-1.5e-4 10e-5,-5.2917 -5.2917,-5.1e-5 -10e-5,5.2917 -2e-4,5.2916004 -5.2916,4.97e-5 z M 1381.1234,-47.625666 l 5.2917,1.5e-4 5.2916,5e-5 5.2917,1.5e-4 5.2917,5e-5 5.2916,5.1e-5 2e-4,-5.2912 -5.2916,-5.1e-5 -5.2917,-5e-5 -5.2917,-1.5e-4 -5.2916,-5e-5 -5.2917,-1.5e-4 z m 10.5823,74.084 5.2917,1.5e-4 10e-5,-5.2916 -5.2917,-1.5e-4 z m 5.2918,-5.29145 5.2917,5.1e-5 10e-5,-5.2917 -5.2917,-5.1e-5 z m -5.2914,-26.4585499 5.2917,1.502e-4 2e-4,-5.2916003 -5.2917,-1.5e-4 z m 5.2917,1.502e-4 0,5.29120004455 5.2917,5.02368e-5 0,-5.29119998135 z m 6e-4,-37.0416003 5.2917,5.1e-5 5.2916,5e-5 5.2917,5e-5 -10e-5,5.2916 5.2917,5e-5 0,5.2912 5.2916,1.5e-4 5.2917,5.1e-5 5.2917,5e-5 5.2916,5e-5 5.2917,1.5e-4 0,-5.2912 -5.2917,-1.5e-4 -5.2916,-5e-5 -5.2917,-5e-5 10e-5,-5.2916 -5.2917,-5.1e-5 0,-5.2917 -5.2916,-1.5e-4 -5.2917,-5e-5 -5.2917,-5e-5 -5.2916,-5.1e-5 -5.2917,-5e-5 z m 5.2903,95.250051 5.2916,5e-5 5.2917,5e-5 5.2917,5e-5 10e-5,-5.2917 -5.2917,-5e-5 -5.2917,-5e-5 -5.2916,-5e-5 z m 5.2917,-5.29215 5.2917,5e-5 5.2917,5e-5 10e-5,-5.2912 5.2916,1.51e-4 10e-5,-5.2916 -5.2916,-1.51e-4 -5.2917,-5e-5 -10e-5,5.2916 -5.2917,-5e-5 z m 15.8752,-10.582549 5.2917,5e-5 5.2917,5e-5 10e-5,-5.2917 -5.2917,-5e-5 -5.2917,-5e-5 z m 5.2918,-5.29215 5.2917,5e-5 5.2916,5e-5 10e-5,-5.2912 5.2917,1.51e-4 0,-5.2916 5.2917,5e-5 10e-5,-5.2917 -5.2917,-5e-5 -5.2917,-1.51e-4 -10e-5,5.2917 -5.2916,-5e-5 0,5.2916 -5.2917,-5e-5 z m 7e-4,-58.2078 5.2917,5e-5 0,5.2916 5.2916,5e-5 -10e-5,5.2912 5.2917,1.5e-4 5.2917,5.1e-5 5.2916,5e-5 10e-5,-5.2912 0,-5.2916 -5.2916,-5e-5 10e-5,-5.2917 -5.2917,-5.1e-5 -5.2917,-1.5e-4 -5.2916,-5e-5 -5.2917,-5e-5 z m 15.8744,42.333051 5.2917,5e-5 5.2916,5e-5 10e-5,-5.2912 10e-5,-5.2916 5.2917,1.502e-4 0,-5.29169999 -5.2917,-1.5024021e-4 -5.2916,-5.024151e-5 0,5.29169997172 -10e-5,5.2916003 -5.2917,-5e-5 z m 5e-4,-26.457801 5.2917,5.1e-5 -2e-4,5.2915997 0,5.29120002662 5.2916,5.024152e-5 5.2917,1.502368e-4 0,-5.29120000494 2e-4,-5.2916002 10e-5,-5.2917 -5.2917,-1.5e-4 -5.2916,-5e-5 -5.2917,-5.1e-5 z" />
    <path
       id="rect360-62-915-8-6-7"
       style="fill:#009900;fill-opacity:1;stroke-width:0.79375"
       d="m 1375.8315,-31.750717 5.2917,5.1e-5 10e-5,-5.2912 -5.2916,-5.1e-5 z m 5.2918,-5.291149 5.2917,1.5e-4 10e-5,-5.2916 -5.2917,-1.5e-4 z m 5.2918,-5.29145 5.2917,5e-5 5.2916,1.5e-4 0,-5.2917 -5.2916,-1.5e-4 -5.2917,-5e-5 z m 10.5833,2e-4 -10e-5,5.2916 5.2917,5.1e-5 5.2917,5e-5 5.2916,5e-5 10e-5,-5.2916 -5.2916,-5e-5 -5.2917,-5e-5 z m 15.8749,5.291751 -10e-5,5.2912 5.2917,5e-5 10e-5,-5.2912 z m -10.5845,84.6661 5.2917,5e-5 10e-5,-5.2912 -5.2917,-5e-5 z m 5.2918,-5.29115 5.2916,5e-5 10e-5,-5.2916 -5.2917,-5e-5 z m 5.2917,-5.29155 5.2916,5e-5 5.2917,1.51e-4 10e-5,-5.2917 -5.2917,-1.51e-4 -5.2916,-5e-5 z m 5.2926,-63.49995 5.2916,1.5e-4 5.2917,5.1e-5 0,-5.2917 -5.2917,-5.1e-5 -5.2916,-1.5e-4 z m 10.5833,2.01e-4 -10e-5,5.2916 5.2917,5e-5 10e-5,-5.2916 z m 5.2916,5.29165 -10e-5,5.2912 5.2917,5e-5 0,-5.2912 z m -10.5841,52.9161 5.2917,5e-5 0,-5.2912 -5.2917,-5e-5 z m 5.2917,-5.29115 5.2916,5e-5 2e-4,-5.2916 -5.2917,-5e-5 z m 5.2918,-5.29155 5.2916,5e-5 10e-5,-5.2917 -5.2916,-5e-5 z m 5.2917,-5.29215 5.2917,1.51e-4 0,-5.2912 -5.2917,-1.51e-4 z m 5.2917,-5.291049 5.2917,5e-5 10e-5,-5.2916003 1e-4,-5.29169997333 -5.2917,-5.023679e-5 -1e-4,5.29170001012 z m -5.2913,-21.166751 5.2917,1.5e-4 10e-5,-5.2917 -5.2917,-1.5e-4 z m 5.2917,1.5e-4 -2e-4,5.2916005 0,5.29119998988 5.2917,5.023679e-5 0,-5.29120002667 10e-5,-5.2915997 z" />
    <path
       id="rect360-62-915-8-6-41"
       style="fill:#006600;fill-opacity:1;stroke-width:0.79375"
       d="m 1381.1236,-52.916966 5.2916,5e-5 5.2917,1.5e-4 5.2917,5e-5 5.2916,5e-5 5.2917,5.1e-5 1e-4,-5.2917 -5.2917,4.9e-5 -5.2916,-1.5e-4 -5.2917,-5e-5 -5.2917,-5e-5 -5.2916,-1.5e-4 z m 26.4583,-0.0012 -10e-5,5.2917 5.2916,5e-5 5.2917,5e-5 5.2917,1.5e-4 10e-5,-5.2917 -5.2917,-5e-5 -5.2916,-1.5e-4 z m 15.8749,5.29195 0,5.2917 5.2916,5.1e-5 0,-5.2917 z m 5.2916,5.291751 -10e-5,5.2917 5.2917,-5e-5 5.2917,5e-5 5.2916,1.5e-4 10e-5,-5.2917 -5.2916,-5e-5 -5.2917,-1.5e-4 z m 15.8749,5.29185 -10e-5,5.2917 5.2917,5.1e-5 10e-5,-5.2917 z m 5.2916,5.291751 0,5.2917 5.2916,5e-5 0,-5.2917 z m 5.2916,5.29175 -10e-5,5.2917 0,5.2916 5.2917,1.5e-4 0,-5.2917 10e-5,-5.2916 z m 5.2916,10.58345 -10e-5,5.2917 -2e-4,5.2916002 0,5.29170000498 -1e-4,5.29169999502 -5.2916,-1.502e-4 -2e-4,5.2917 0,5.2916 -5.2916,-5e-5 -10e-5,5.2917 -5.2917,-1.5e-4 -10e-5,5.2917 -5.2917,-1.51e-4 0,5.2917 -5.2917,-5e-5 -10e-5,5.2916 -5.2916,5e-5 -5.2917,-5e-5 0,5.2916 -5.2917,-5.1e-5 -10e-5,5.2916 -10e-5,5.2917 5.2916,1.51e-4 2e-4,-5.2917 5.2916,5e-5 10e-5,-5.2916 5.2917,-5e-5 5.2917,5e-5 0,-5.2916 5.2917,5.1e-5 10e-5,-5.2916 5.2916,5e-5 0,-5.2917 5.2917,1.5e-4 10e-5,-5.2917 5.2917,1.5e-4 10e-5,-5.2917 0,-5.2917 5.2917,5e-5 10e-5,-5.2916995 1e-4,-5.29170005822 0,-5.29160004178 10e-5,-5.2917004 10e-5,-5.2917 z" />
    <path
       id="rect360-62-915-8-6-394"
       style="fill:#006600;fill-opacity:1;stroke-width:0.79375"
       d="m 1359.9564,-21.167067 5.2917,5e-5 10e-5,-5.2916 0,-5.2917 -5.2917,-5e-5 0,5.2917 z m 5.2917,5e-5 0,5.2912 5.2916,1.5e-4 0,-5.2912 z m -5.2916,-10.58385 5.2917,5e-5 2e-4,-5.2912 10e-5,-5.2916 -5.2917,-5e-5 -10e-5,5.2916 z m 5.292,-10.58275 5.2916,1.5e-4 0,-5.2917 -5.2916,-1.5e-4 z m -10e-4,63.5 5.2916,1.5e-4 0,-5.2917 -5.2916,-1.5e-4 z m 5.2916,1.5e-4 -10e-5,5.2916 5.2917,-5e-5 10e-5,-5.2916 z m 5.2916,5.29155 -10e-5,5.2912 5.2917,5.1e-5 5.2916,1.5e-4 5.2917,5e-5 5.2917,1.5e-4 10e-5,-5.2912 -5.2917,-1.5e-4 -5.2917,-5e-5 -5.2916,-1.5e-4 z m 21.1667,-9.99e-4 5.2916,5.1e-5 10e-5,-5.2916 -5.2916,-5.1e-5 z m 5.2917,-5.291549 5.2917,5e-5 0,-5.2917 -5.2917,-5e-5 z m -37.0416,-5.292752 5.2916,1.5e-4 10e-5,-5.2912 2e-4,-5.2915998 0,-5.29170005 -5.2916,-1.5024e-4 0,5.29169999 -2e-4,5.2916001 z m 3e-4,-15.87500009 5.2916,1.5025e-4 0,-5.29120006 -5.2916,-1.502e-4 z m 5.2916,-5.29104981 5.2917,-4.97e-5 10e-5,-5.2916004 10e-5,-5.2917 -5.2917,5e-5 -10e-5,5.2917 z m 6e-4,-42.3338001 5.2917,-5e-5 5.2917,5.1e-5 10e-5,-5.2912 -5.2917,-5.1e-5 -5.2917,5e-5 z m 31.7491,63.500402 5.2917,5e-5 10e-5,-5.2912 10e-5,-5.2916002 1e-4,-5.29169998 -5.2917,-5.023e-5 -10e-5,5.29170001 -10e-5,5.2916004 z m 3e-4,-15.87500041 5.2917,5.023e-5 0,-5.29120002 -5.2917,-5.02e-5 z" />
    <path
       id="rect360-62-915-8-6-558"
       style="fill:#009900;fill-opacity:1;stroke-width:0.79375"
       d="m 1381.1233,-10.583666 5.2917,5e-5 5.2916,5e-5 5.2917,5e-5 10e-5,-5.2917 -5.2917,-5e-5 -5.2917,-5e-5 -5.2916,-5e-5 z m 15.875,1.5e-4 -10e-5,5.2916003 5.2917,5.03e-5 10e-5,-5.2915996 z" />
  </g>
</svg>
