<?xml version="1.0" encoding="UTF-8" standalone="no"?>
<!-- Created with Inkscape (http://www.inkscape.org/) -->

<svg
   width="580.00201"
   height="400"
   viewBox="0 0 153.45889 105.83333"
   version="1.1"
   id="svg5"
   inkscape:version="1.1 (ce6663b3b7, 2021-05-25)"
   sodipodi:docname="ghost.svg"
   xmlns:inkscape="http://www.inkscape.org/namespaces/inkscape"
   xmlns:sodipodi="http://sodipodi.sourceforge.net/DTD/sodipodi-0.dtd"
   xmlns="http://www.w3.org/2000/svg"
   xmlns:svg="http://www.w3.org/2000/svg">
  <sodipodi:namedview
     id="namedview7"
     pagecolor="#ffffff"
     bordercolor="#666666"
     borderopacity="1.0"
     inkscape:pageshadow="2"
     inkscape:pageopacity="0.0"
     inkscape:pagecheckerboard="0"
     inkscape:document-units="mm"
     showgrid="true"
     width="300px"
     units="px"
     borderlayer="true"
     inkscape:showpageshadow="false"
     scale-x="1"
     inkscape:snap-bbox="true"
     inkscape:bbox-nodes="true"
     inkscape:zoom="0.25"
     inkscape:cx="-190"
     inkscape:cy="54"
     inkscape:window-width="1848"
     inkscape:window-height="1016"
     inkscape:window-x="72"
     inkscape:window-y="27"
     inkscape:window-maximized="1"
     inkscape:current-layer="layer1"
     fit-margin-top="0"
     fit-margin-left="0"
     fit-margin-right="0"
     fit-margin-bottom="0">
    <inkscape:grid
       type="xygrid"
       id="grid9"
       empspacing="1"
       spacingy="5.2916667"
       spacingx="5.2916667"
       dotted="true"
       originx="-264.5829"
       originy="158.74999" />
  </sodipodi:namedview>
  <defs
     id="defs2" />
  <g
     inkscape:label="Layer 1"
     inkscape:groupmode="layer"
     id="layer1"
     transform="translate(-264.58279,158.75)">
    <path
       id="rect15332"
       style="stroke-width:3.00009"
       d="m 520,0 v 20 h -20 -20 v 20 h 20 20.00195 V 20 h 20 20 20 20 20 H 640 V 40 H 660.00195 680 v 20 h 20 v 20 20 20 h 20 v 20 20 20 20 20 20 20 20 h 19.99805 v 20 H 740 v 20 h 19.99805 v 20 H 780 799.99805 v 20 h 20 v 20 H 800 780 760 740 v -20 h -20 -20 -20 -20 v -20 h -20 -20 -20 -20 -20 -20 v -20 h -20 -20 -20 v -20 -20 h -20 v -20 -20 h -20 v -20 -20 -20 -20 -20 -20 h -20 v 20 20 20 20 20 20 h 19.99805 v 20 20 h 20 v 20 20 h 20 v 20 H 500 h 20 19.99805 v 20 H 560 h 20 20 20 20 19.99805 v 20 H 680 h 20 20 19.99805 v 20 H 760 h 20 20 20 v -20 h 20 V 360 H 820 V 340 H 800 V 320 H 780 760.00195 V 300 H 760 v -20 h -19.99805 v -20 -20 -20 -20 -20 -20 -20 -20 h -20 V 100 80 60 h -20 V 40 h -20 V 20 h -20 -20 V 0 h -20 -20 -20 -20 -20 z m -80,120 h 20 V 100 80 60 h -20 v 20 20 z m 20,-60 h 20 V 40 h -20 z m 19.99805,20 v 20 H 480 v 20 h 20.00195 V 100 H 500 V 80 Z M 520,80 v 20 20 h 20.00195 V 100 80 Z m 100,100 v 20 H 600.00195 580 v 20 H 560.00195 540 v 20 h -19.99805 v 20 H 520 v 20 h 20 v 20 h 20.00195 V 280 H 580 v 20 h 20.00195 V 280 H 620 v 20 h 20.00195 v -20 h 20 v -20 -20 -20 -20 h -20 v -20 z m -260.00195,20 v 20 H 340 319.99805 v 20 H 300 279.99805 v 20 H 260 v 20 h -0.002 v 20 h 20 v 20 H 300 v -20 h 19.99805 v 20 H 340 v -20 h 19.99805 v 20 H 380 v -20 h 20 v -20 -20 -20 -20 h -20 v -20 z m 260.0039,0 H 640 v 20 20 20 20 H 620.00195 V 260 H 600 v 20 H 580.00195 V 260 H 560 v 20 h -19.99805 v -20 -20 h 20 20 v -20 h 20 20 z M 360,220 h 19.99805 v 20 20 20 20 H 360 v -20 h -20.00195 v 20 H 320 v -20 h -20.00195 v 20 H 280 v -20 h 0.002 V 260 H 300 320.00195 V 240 H 340 360 Z"
       transform="matrix(0.26458333,0,0,0.26458333,195.79165,-158.75)" />
    <path
       id="rect15332-08-7"
       style="fill:#ff0000;stroke-width:0.793774"
       d="m 317.49989,-121.70834 v 5.29166 h -5.1e-4 v 5.29167 h 5.29167 v 5.29167 h 5.29218 v -5.29167 h 5.29115 v 5.29167 h 5.29218 v -5.29167 h 5.29167 v -5.29167 -5.29166 h -5.29218 v 5.29166 h -5.29116 v -5.29166 h -5.29218 v 5.29166 h -5.29063 v -5.29166 z" />
    <path
       style="fill:#f9f9f9;fill-opacity:1;stroke-width:2.12132"
       d="m 540.58314,259.86174 v -19.79899 h 19.79899 19.79899 v -9.89949 -9.8995 h 20.15254 20.15254 v -9.89949 -9.8995 h 9.54594 9.54594 v 39.59798 39.59798 h -9.54594 -9.54594 v -9.89949 -9.8995 h -10.25305 -10.25304 v 9.8995 9.89949 h -9.8995 -9.89949 v -9.89949 -9.8995 h -10.25305 -10.25305 v 9.8995 9.89949 h -9.54594 -9.54594 z"
       id="path23259"
       transform="matrix(0.26458333,0,0,0.26458333,195.79165,-158.75)" />
    <path
       style="fill:#f9f9f9;fill-opacity:1;stroke-width:2.12132"
       d="m 740.53753,369.64007 -0.19673,-9.72272 -40.12831,-0.18261 -40.12831,-0.18262 v -9.89366 -9.89365 h -59.75052 -59.75052 v -9.8995 -9.89949 H 510.5311 480.47906 v -20.15254 -20.15255 h -9.88848 -9.88849 l -0.18779,-19.97576 -0.18778,-19.97577 -10.07628,-0.19619 -10.07627,-0.19619 v -59.37756 -59.37755 h 10.25305 10.25305 V 90.509668 60.45763 h 9.89949 9.8995 V 50.558135 40.65864 h 19.79899 19.79899 V 30.405592 20.152543 h 59.75052 59.75052 V 30.405592 40.65864 h 20.15255 20.15254 v 9.899495 9.899495 h 9.8995 9.89949 v 30.052038 30.052042 h 9.8995 9.89949 v 79.90306 79.90307 h 10.25305 10.25305 v 20.15254 20.15255 h 9.89949 9.8995 v 9.89949 9.8995 h 19.79899 19.79899 v 9.89949 9.8995 h 10.25305 10.25304 v 9.54594 9.54594 h -39.57802 -39.57803 z m -180.1554,-79.37274 v -9.89949 h 9.54594 9.54594 v 9.89949 9.8995 h 10.6066 10.6066 v -9.8995 -9.89949 h 9.54594 9.54595 v 9.89949 9.8995 h 10.25304 10.25305 v -9.8995 -9.89949 h 9.8995 9.89949 v -40.30509 -40.30508 h -9.89949 -9.8995 v -9.8995 -9.89949 H 630.03214 619.7791 v 9.89949 9.8995 h -20.15255 -20.15254 v 9.89949 9.8995 h -19.79899 -19.79899 v 9.89949 9.8995 h -10.25305 -10.25305 v 20.50609 20.5061 h 10.25305 10.25305 v 9.89949 9.8995 h 10.25305 10.25305 z m -60.10408,-99.70205 v -9.8995 h 9.54594 9.54594 v 9.8995 9.89949 h 10.6066 10.60661 v -9.89949 -9.8995 h 9.89949 9.8995 v -20.50609 -20.5061 h -10.25305 -10.25305 v 9.89949 9.8995 h -9.8995 -9.89949 v -9.8995 -9.89949 h -10.25305 -10.25305 v 9.89949 9.8995 h -9.54594 -9.54594 v -9.8995 -9.89949 h -10.25305 -10.25305 v 20.5061 20.50609 h 9.8995 9.89949 v 9.8995 9.89949 h 10.25305 10.25305 z m 0,-90.50967 V 79.549513 H 490.025 479.77195 v 20.506097 20.5061 h 10.25305 10.25305 z m 40.30509,0 V 79.549513 h -10.60661 -10.6066 v 20.506097 20.5061 h 10.6066 10.60661 z"
       id="path23298"
       transform="matrix(0.26458333,0,0,0.26458333,195.79165,-158.75)" />
    <path
       id="rect23524-33"
       style="fill:#d9d9d9;stroke-width:3;fill-opacity:1"
       d="M 280.00195 320 L 280.00195 340 L 300.00195 340 L 320.00195 340 L 340.00195 340 L 360.00195 340 L 380.00195 340 L 400.00195 340 L 400.00195 320 L 380.00195 320 L 360.00195 320 L 340.00195 320 L 320.00195 320 L 300.00195 320 L 280.00195 320 z M 400.00195 340 L 400.00195 360 L 420.00195 360 L 440.00195 360 L 460.00195 360 L 480.00195 360 L 480.00195 340 L 460.00195 340 L 440.00195 340 L 420.00195 340 L 400.00195 340 z M 480.00195 360 L 480.00195 380 L 500.00195 380 L 520.00195 380 L 540.00195 380 L 560.00195 380 L 560.00195 360 L 540.00195 360 L 540.00195 340 L 520.00195 340 L 520.00195 360 L 500.00195 360 L 480.00195 360 z "
       transform="matrix(0.26458333,0,0,0.26458333,264.58279,-158.75)" />
    <path
       id="rect23524-895"
       style="fill:#d9d9d9;stroke-width:3;fill-opacity:1"
       d="M 440.00195 120 L 440.00195 140 L 440.00195 160 L 440.00195 180 L 440.00195 200 L 440.00195 220 L 440.00195 240 L 440.00195 260 L 440.00195 280 L 460.00195 280 L 460.00195 260 L 460.00195 240 L 460.00195 220 L 460.00195 200 L 460.00195 180 L 460.00195 160 L 460.00195 140 L 460.00195 120 L 440.00195 120 z M 460.00195 280 L 460.00195 300 L 460.00195 320 L 480.00195 320 L 480.00195 300 L 480.00195 280 L 460.00195 280 z "
       transform="matrix(0.26458333,0,0,0.26458333,264.58279,-158.75)" />
    <path
       id="rect23524-53"
       style="fill:#d9d9d9;stroke-width:0.79375;fill-opacity:1"
       d="m 391.58321,-74.083336 h 5.29166 v 5.29166 h -5.29166 z" />
    <path
       id="rect23524-249"
       style="fill:#d9d9d9;stroke-width:3;fill-opacity:1"
       d="M 260.00195 20 L 260.00195 40 L 280.00195 40 L 300.00195 40 L 320.00195 40 L 340.00195 40 L 360.00195 40 L 380.00195 40 L 380.00195 20 L 360.00195 20 L 340.00195 20 L 320.00195 20 L 300.00195 20 L 280.00195 20 L 260.00195 20 z M 380.00195 40 L 380.00195 60 L 400.00195 60 L 420.00195 60 L 420.00195 40 L 400.00195 40 L 380.00195 40 z M 420.00195 60 L 420.00195 80 L 420.00195 100 L 420.00195 120 L 440.00195 120 L 440.00195 100 L 440.00195 80 L 440.00195 60 L 420.00195 60 z M 260.00195 40 L 240.00195 40 L 220.00195 40 L 220.00195 60 L 240.00195 60 L 260.00195 60 L 260.00195 40 z M 220.00195 60 L 200.00195 60 L 200.00195 80 L 200.00195 100 L 200.00195 120 L 220.00195 120 L 220.00195 100 L 220.00195 80 L 220.00195 60 z "
       transform="matrix(0.26458333,0,0,0.26458333,264.58279,-158.75)" />
    <path
       id="rect23524-458"
       style="fill:#d9d9d9;stroke-width:3;fill-opacity:1"
       d="M 180.00195 120 L 180.00195 140 L 180.00195 160 L 180.00195 180 L 180.00195 200 L 180.00195 220 L 180.00195 240 L 200.00195 240 L 200.00195 220 L 200.00195 200 L 200.00195 180 L 200.00195 160 L 200.00195 140 L 200.00195 120 L 180.00195 120 z M 200.00195 240 L 200.00195 260 L 200.00195 280 L 220.00195 280 L 220.00195 260 L 220.00195 240 L 200.00195 240 z M 220.00195 280 L 220.00195 300 L 220.00195 320 L 240.00195 320 L 260.00195 320 L 280.00195 320 L 280.00195 300 L 260.00195 300 L 240.00195 300 L 240.00195 280 L 220.00195 280 z "
       transform="matrix(0.26458333,0,0,0.26458333,264.58279,-158.75)" />
    <path
       style="fill:#f9f9f9;fill-opacity:1;stroke-width:2.12132"
       d="m 280.36784,280.01429 v -19.44544 h 20.15254 20.15255 V 250.3158 240.06275 h 19.79899 19.79899 v -9.89949 -9.8995 h 9.54594 9.54594 v 39.59798 39.59798 h -9.54594 -9.54594 v -9.89949 -9.8995 h -10.25305 -10.25305 v 9.8995 9.89949 h -9.54594 -9.54594 v -9.89949 -9.8995 h -10.60661 -10.6066 v 9.8995 9.89949 h -9.54594 -9.54594 z"
       id="path23337"
       transform="matrix(0.26458333,0,0,0.26458333,195.79165,-158.75)" />
    <path
       id="rect23524-92"
       style="fill:#d9d9d9;stroke-width:3;fill-opacity:1"
       d="M 100.00195 220 L 100.00195 240 L 80.001953 240 L 60.001953 240 L 60.001953 260 L 80.001953 260 L 100.00195 260 L 120.00195 260 L 120.00195 240 L 120.00195 220 L 100.00195 220 z M 60.001953 260 L 40.001953 260 L 20.001953 260 L 20.001953 280 L 40.001953 280 L 60.001953 280 L 60.001953 260 z "
       transform="matrix(0.26458333,0,0,0.26458333,264.58279,-158.75)" />
    <path
       id="rect23524-537"
       style="fill:#d9d9d9;stroke-width:3;fill-opacity:1"
       d="M 360.00195 200 L 360.00195 220 L 340.00195 220 L 320.00195 220 L 320.00195 240 L 340.00195 240 L 360.00195 240 L 380.00195 240 L 380.00195 220 L 380.00195 200 L 360.00195 200 z M 320.00195 240 L 300.00195 240 L 280.00195 240 L 280.00195 260 L 300.00195 260 L 320.00195 260 L 320.00195 240 z "
       transform="matrix(0.26458333,0,0,0.26458333,264.58279,-158.75)" />
  </g>
</svg>
