<?xml version="1.0" encoding="UTF-8" standalone="no"?>
<!-- Created with Inkscape (http://www.inkscape.org/) -->

<svg
   width="180"
   height="160"
   viewBox="0 0 47.625006 42.333334"
   version="1.1"
   id="svg5"
   inkscape:version="1.1 (ce6663b3b7, 2021-05-25)"
   sodipodi:docname="heart.svg"
   xmlns:inkscape="http://www.inkscape.org/namespaces/inkscape"
   xmlns:sodipodi="http://sodipodi.sourceforge.net/DTD/sodipodi-0.dtd"
   xmlns="http://www.w3.org/2000/svg"
   xmlns:svg="http://www.w3.org/2000/svg">
  <sodipodi:namedview
     id="namedview7"
     pagecolor="#ffffff"
     bordercolor="#666666"
     borderopacity="1.0"
     inkscape:pageshadow="2"
     inkscape:pageopacity="0.0"
     inkscape:pagecheckerboard="0"
     inkscape:document-units="mm"
     showgrid="true"
     width="199px"
     units="px"
     borderlayer="true"
     inkscape:showpageshadow="false"
     scale-x="1"
     inkscape:snap-bbox="true"
     inkscape:bbox-nodes="true"
     inkscape:zoom="5.6568542"
     inkscape:cx="89.007066"
     inkscape:cy="62.313785"
     inkscape:window-width="1848"
     inkscape:window-height="1016"
     inkscape:window-x="72"
     inkscape:window-y="27"
     inkscape:window-maximized="1"
     inkscape:current-layer="layer1"
     fit-margin-top="-1.9428903e-16"
     fit-margin-left="0"
     fit-margin-right="0"
     fit-margin-bottom="0">
    <inkscape:grid
       type="xygrid"
       id="grid9"
       empspacing="1"
       spacingy="5.2916667"
       spacingx="5.2916667"
       dotted="true"
       originx="1.0000001e-06"
       originy="-10.583333" />
  </sodipodi:namedview>
  <defs
     id="defs2" />
  <g
     inkscape:label="Layer 1"
     inkscape:groupmode="layer"
     id="layer1"
     transform="translate(1e-6,-10.583333)">
    <path
       id="rect848"
       style="fill-rule:evenodd;stroke-width:0.264583"
       d="m 21.166666,47.625 h 5.291667 v 5.291667 h -5.291667 z" />
    <path
       id="rect848-4"
       style="fill:#d40000;fill-rule:evenodd;stroke-width:0.999999"
       d="m 40,20 v 20 20 20 h 20 v 20 h 20 v 20 h 20 20 v -20 h 20 V 80 60 40 H 120 100 80 V 20 H 60 Z"
       transform="matrix(0.26458333,0,0,0.26458333,-1e-6,10.583333)" />
    <path
       id="rect848-4-8"
       style="fill:#b00000;fill-opacity:1;fill-rule:evenodd;stroke-width:0.999999"
       d="M 20,20 V 40 60 80 H 40 V 60 40 20 Z"
       transform="matrix(0.26458333,0,0,0.26458333,-1e-6,10.583333)" />
    <path
       id="rect848-23"
       style="fill-rule:evenodd;stroke-width:0.999999"
       d="M 0,20 V 40 60 80 H 20 V 60 40 20 Z"
       transform="matrix(0.26458333,0,0,0.26458333,-1e-6,10.583333)" />
    <path
       id="rect848-97"
       style="fill-rule:evenodd;stroke-width:0.264583"
       d="m 5.291666,31.75 h 5.291667 v 5.291667 H 5.291666 Z" />
    <path
       id="rect848-36"
       style="fill-rule:evenodd;stroke-width:0.264583"
       d="m 10.583332,37.041666 h 5.291667 v 5.291667 h -5.291667 z" />
    <path
       id="rect848-12"
       style="fill-rule:evenodd;stroke-width:0.264583"
       d="m 15.874999,42.333333 h 5.291667 V 47.625 h -5.291667 z" />
    <path
       id="rect848-5"
       style="fill-rule:evenodd;stroke-width:0.264583"
       d="M 26.458333,42.333333 H 31.75 V 47.625 h -5.291667 z" />
    <path
       id="rect848-0"
       style="fill-rule:evenodd;stroke-width:0.264583"
       d="m 31.749999,37.041666 h 5.291667 v 5.291667 h -5.291667 z" />
    <path
       id="rect848-3"
       style="fill-rule:evenodd;stroke-width:0.264583"
       d="m 37.041666,31.75 h 5.291667 v 5.291667 h -5.291667 z" />
    <path
       id="rect848-6"
       style="fill-rule:evenodd;stroke-width:0.999999"
       d="m 160,20 v 20 20 20 h 20 V 60 40 20 Z"
       transform="matrix(0.26458333,0,0,0.26458333,-1e-6,10.583333)" />
    <path
       id="rect848-97-5"
       style="fill-rule:evenodd;stroke-width:0.999999"
       d="m 100,0 v 20 h 20 20 20 V 0 h -20 -20 z"
       transform="matrix(0.26458333,0,0,0.26458333,-1e-6,10.583333)" />
    <path
       id="rect848-97-74"
       style="fill-rule:evenodd;stroke-width:0.264583"
       d="m 21.166666,15.875 h 5.291667 v 5.291667 h -5.291667 z" />
    <path
       id="rect848-97-43"
       style="fill-rule:evenodd;stroke-width:0.999999"
       d="M 20,0 V 20 H 40 60 80 V 0 H 60 40 Z"
       transform="matrix(0.26458333,0,0,0.26458333,-1e-6,10.583333)" />
    <path
       id="rect848-4-26"
       style="fill:#b00000;fill-opacity:1;fill-rule:evenodd;stroke-width:0.264583"
       d="M 10.583333,31.75 H 15.875 v 5.291667 h -5.291667 z" />
    <path
       id="rect848-4-64"
       style="fill:#b00000;fill-opacity:1;fill-rule:evenodd;stroke-width:0.264583"
       d="m 15.875,37.041666 h 5.291667 v 5.291667 H 15.875 Z" />
    <path
       id="rect848-4-95"
       style="fill:#b00000;fill-opacity:1;fill-rule:evenodd;stroke-width:0.264583"
       d="m 21.166666,42.333333 h 5.291667 V 47.625 h -5.291667 z" />
    <path
       id="rect848-4-22"
       style="fill:#d40000;fill-rule:evenodd;stroke-width:0.264583"
       d="m 21.166666,26.458333 h 5.291667 V 31.75 h -5.291667 z" />
    <path
       id="rect848-4-06"
       style="fill:#d40000;fill-rule:evenodd;stroke-width:0.264583"
       d="m 21.166666,21.166666 h 5.291667 v 5.291667 h -5.291667 z" />
    <path
       id="rect848-4-15"
       style="fill:#d40000;fill-rule:evenodd;stroke-width:0.264583"
       d="m 21.166666,21.166666 h 5.291667 v 5.291667 h -5.291667 z" />
    <path
       id="rect848-4-94"
       style="fill:#d40000;fill-rule:evenodd;stroke-width:0.264583"
       d="m 21.166666,21.166666 h 5.291667 v 5.291667 h -5.291667 z" />
    <path
       id="rect848-4-7"
       style="fill:#d40000;fill-rule:evenodd;stroke-width:0.264583"
       d="m 37.041666,21.166666 h 5.291667 v 5.291667 h -5.291667 z" />
    <path
       id="rect848-4-71"
       style="fill:#d40000;fill-rule:evenodd;stroke-width:0.264583"
       d="m 37.041666,21.166666 h 5.291667 v 5.291667 h -5.291667 z" />
    <path
       id="rect848-4-159"
       style="fill:#d40000;fill-rule:evenodd;stroke-width:0.264583"
       d="m 37.041666,21.166666 h 5.291667 v 5.291667 h -5.291667 z" />
    <path
       id="rect848-4-77"
       style="fill:#d40000;fill-rule:evenodd;stroke-width:0.264583"
       d="m 37.041666,21.166666 h 5.291667 v 5.291667 h -5.291667 z" />
    <path
       id="rect848-4-67"
       style="fill:#f50000;fill-opacity:1;fill-rule:evenodd;stroke-width:0.999999"
       d="m 100,20 v 20 h 20 20 v 20 20 h 20 V 60 40 20 h -20 -20 z"
       transform="matrix(0.26458333,0,0,0.26458333,-1e-6,10.583333)" />
  </g>
</svg>
