<?xml version="1.0" encoding="UTF-8" standalone="no"?>
<!-- Created with Inkscape (http://www.inkscape.org/) -->

<svg
   width="220.00002"
   height="200.00127"
   viewBox="0 0 58.208334 52.917002"
   version="1.1"
   id="svg5"
   inkscape:version="1.1 (ce6663b3b7, 2021-05-25)"
   sodipodi:docname="hero-shield.svg"
   xmlns:inkscape="http://www.inkscape.org/namespaces/inkscape"
   xmlns:sodipodi="http://sodipodi.sourceforge.net/DTD/sodipodi-0.dtd"
   xmlns="http://www.w3.org/2000/svg"
   xmlns:svg="http://www.w3.org/2000/svg">
  <sodipodi:namedview
     id="namedview7"
     pagecolor="#ffffff"
     bordercolor="#666666"
     borderopacity="1.0"
     inkscape:pageshadow="2"
     inkscape:pageopacity="0.0"
     inkscape:pagecheckerboard="0"
     inkscape:document-units="mm"
     showgrid="true"
     width="110.00001px"
     units="px"
     borderlayer="true"
     inkscape:showpageshadow="false"
     scale-x="1"
     inkscape:snap-bbox="true"
     inkscape:bbox-nodes="true"
     inkscape:zoom="2.8284271"
     inkscape:cx="95.28264"
     inkscape:cy="89.625785"
     inkscape:window-width="1848"
     inkscape:window-height="1016"
     inkscape:window-x="72"
     inkscape:window-y="27"
     inkscape:window-maximized="1"
     inkscape:current-layer="layer1"
     fit-margin-top="0"
     fit-margin-left="0"
     fit-margin-right="0"
     fit-margin-bottom="0"
     height="200px"
     showguides="true">
    <inkscape:grid
       type="xygrid"
       id="grid9"
       empspacing="1"
       spacingy="2.6458335"
       spacingx="2.6458335"
       dotted="true"
       originx="-5.2916662"
       originy="-7.9373348"
       visible="true"
       enabled="true" />
  </sodipodi:namedview>
  <defs
     id="defs2">
    <inkscape:perspective
       sodipodi:type="inkscape:persp3d"
       inkscape:vp_x="0 : 26.458668 : 1"
       inkscape:vp_y="0 : 1000 : 0"
       inkscape:vp_z="52.916664 : 26.458668 : 1"
       inkscape:persp3d-origin="26.458332 : 17.639224 : 1"
       id="perspective20505" />
    <inkscape:path-effect
       effect="fill_between_many"
       method="originald"
       linkedpaths="#rect964-23-7-8-9-06-1-498,0,1"
       id="path-effect20573"
       is_visible="true"
       lpeversion="0"
       join="true"
       close="true"
       autoreverse="true"
       applied="false" />
  </defs>
  <g
     inkscape:label="Layer 1"
     inkscape:groupmode="layer"
     id="layer1"
     transform="translate(-5.2916645,-7.9373347)">
    <path
       id="rect964-12-4-5-5"
       style="fill:#ffff00;fill-opacity:1;stroke-width:0.264591"
       d="m 37.04167,29.104335 h 2.645833 v -2.646 H 37.04167 Z" />
    <path
       id="rect964-12-4-5-01"
       style="fill:#cccc00;fill-opacity:1;stroke-width:0.264591"
       d="m 37.04167,31.750169 h 2.645833 v -2.646 H 37.04167 Z" />
    <path
       id="rect964-12-4-5-2"
       style="fill:#ffff00;fill-opacity:1;stroke-width:0.264591"
       d="m 31.750003,29.104335 h 2.645833 v -2.646 h -2.645833 z" />
    <path
       id="rect964-12-4-5-6"
       style="fill:#cccc00;fill-opacity:1;stroke-width:0.264591"
       d="m 31.750003,31.750169 h 2.645833 v -2.646 h -2.645833 z" />
    <path
       id="rect964-975-853-2-4"
       style="fill:#000000;stroke-width:0.264591"
       d="M 37.041667,21.166666 V 23.8125 H 39.6875 42.333334 V 26.458333 29.104166 31.75 34.395833 H 39.6875 v 2.645833 H 37.041667 34.395834 31.75 V 34.395833 H 29.104167 V 31.75 29.104166 26.458333 23.8125 H 31.75 v -2.645834 h 2.645834 z M 39.6875,26.458333 H 37.041667 V 29.104166 31.75 H 39.6875 v -2.645834 z m -5.291666,0 H 31.75 V 29.104166 31.75 h 2.645834 v -2.645834 z" />
    <path
       id="rect964-23-7-8-9-06-1-9"
       style="fill:#3333ff;fill-opacity:1;stroke-width:0.264591"
       d="m 34.395834,10.583333 v 2.645834 H 31.75 29.104167 V 10.583333 H 31.75 Z m 0,2.645834 H 37.041667 39.6875 V 15.875 H 37.041667 34.395834 Z M 39.6875,15.875 h 2.645834 v 2.645833 H 39.6875 Z m 2.645834,2.645833 H 44.979167 47.625 v 2.645833 2.645834 h -2.645833 v -2.645834 h -2.645833 z m 2.645833,5.291667 v 2.645833 2.645833 2.645834 2.645833 2.645833 H 42.333334 V 34.395833 31.75 29.104166 26.458333 23.8125 Z M 42.333334,37.041666 V 39.6875 H 39.6875 v -2.645834 z m 0,2.645834 H 44.979167 47.625 v 2.645833 H 44.979167 42.333334 Z M 47.625,42.333333 h 2.645834 v 2.645833 H 47.625 Z m -5.291666,2.645833 V 47.625 50.270833 H 39.6875 V 47.625 44.979166 Z m 0,5.291667 h 2.645833 v 2.645833 h -2.645833 z m 2.645833,2.645833 H 47.625 v 2.645833 2.645834 2.645833 H 44.979167 42.333334 39.6875 v -2.645833 h 2.645834 2.645833 v -2.645834 z" />
    <path
       id="rect964-23-7-8-9-06-1-5"
       style="fill:#0000ff;fill-opacity:1;stroke-width:0.264591"
       d="M 31.75,13.229167 V 15.875 h 2.645834 2.645833 v 2.645833 H 39.6875 v 2.645833 h 2.645834 V 23.8125 H 39.6875 37.041667 V 21.166666 H 34.395834 31.75 V 23.8125 h -2.645833 -2.645833 v -2.645834 -2.645833 h 2.645833 V 15.875 13.229167 Z m 7.9375,23.812499 V 39.6875 h 2.645834 v 2.645833 2.645833 H 39.6875 v 2.645834 2.645833 2.645833 h 2.645834 v 2.645833 h 2.645833 v 2.645834 H 42.333334 39.6875 v 2.645833 H 37.041667 34.395834 31.75 29.104167 26.458334 v -2.645833 h 2.645833 V 55.562499 H 31.75 v -2.645833 h 2.645834 V 50.270833 47.625 H 31.75 V 44.979166 H 29.104167 V 42.333333 H 31.75 V 39.6875 37.041666 h 2.645834 2.645833 z" />
    <path
       id="rect964-23-7-8-9-06-1-95"
       style="fill:#0000e5;fill-opacity:1;stroke-width:0.264591"
       d="M 29.104167,13.229167 V 15.875 18.520833 H 26.458334 V 15.875 13.229167 Z m -2.645833,5.291666 V 21.166666 23.8125 H 23.8125 v -2.645834 -2.645833 z m 0,5.291667 h 2.645833 V 26.458333 29.104166 31.75 34.395833 H 26.458334 V 31.75 29.104166 26.458333 Z m 2.645833,10.583333 H 31.75 v 2.645833 H 29.104167 Z M 31.75,39.6875 v 2.645833 H 29.104167 V 39.6875 Z m -2.645833,2.645833 v 2.645833 h -2.645833 v -2.645833 z m 0,2.645833 H 31.75 V 47.625 H 29.104167 Z M 31.75,47.625 h 2.645834 v 2.645833 2.645833 H 31.75 v -2.645833 z m 0,5.291666 v 2.645833 h -2.645833 v -2.645833 z m -2.645833,2.645833 v 2.645834 h -2.645833 v -2.645834 z m -2.645833,2.645834 v 2.645833 H 23.8125 v -2.645833 z" />
    <path
       id="rect964-23-7-8-9-06-1-53"
       style="fill:#0000cc;fill-opacity:1;stroke-width:0.264591"
       d="m 29.104167,7.9375 v 2.645833 2.645834 H 26.458334 V 10.583333 7.9375 Z m -2.645833,5.291667 V 15.875 18.520833 H 23.8125 V 15.875 13.229167 Z M 23.8125,18.520833 v 2.645833 2.645834 h -2.645833 v -2.645834 -2.645833 z m 0,5.291667 h 2.645834 v 2.645833 2.645833 2.645834 2.645833 h 2.645833 v 2.645833 H 26.458334 23.8125 V 34.395833 31.75 29.104166 26.458333 Z m 5.291667,13.229166 H 31.75 V 39.6875 h -2.645833 z m 0,2.645834 v 2.645833 H 26.458334 V 39.6875 Z m -2.645833,2.645833 v 2.645833 h 2.645833 V 47.625 H 26.458334 23.8125 V 44.979166 42.333333 Z M 29.104167,47.625 H 31.75 v 2.645833 2.645833 h -2.645833 v -2.645833 z m 0,5.291666 v 2.645833 h -2.645833 v -2.645833 z m -2.645833,2.645833 v 2.645834 H 23.8125 V 55.562499 Z M 23.8125,58.208333 v 2.645833 h -2.645833 v -2.645833 z" />
    <path
       id="rect964-23-7-8-9-06-1-498"
       style="fill:#1a1aff;fill-opacity:1;stroke-width:0.264591"
       d="M 34.395834,13.229167 V 15.875 H 31.75 V 13.229167 Z M 39.6875,15.875 v 2.645833 H 37.041667 V 15.875 Z m 0,2.645833 h 2.645834 v 2.645833 H 39.6875 Z m 2.645834,2.645833 h 2.645833 V 23.8125 h -2.645833 z m 0,13.229167 v 2.645833 H 39.6875 v -2.645833 z m 5.291666,7.9375 v 2.645833 h -2.645833 -2.645833 v -2.645833 h 2.645833 z m -5.291666,7.9375 v 2.645833 H 39.6875 v -2.645833 z m 0,2.645833 h 2.645833 v 2.645833 h -2.645833 z" />
    <path
       id="rect964-12-4-5-5-3-3"
       style="fill:#00ffff;fill-opacity:1;stroke-width:1.00003"
       d="M 170 0 L 170 10 L 170 20.001953 L 180 20.001953 L 180 30 L 180 40.001953 L 190 40.001953 L 190 50 L 190 60 L 200 60 L 200 50 L 200 40 L 190 40 L 190 30 L 190 20 L 180 20 L 180 10 L 180 0 L 170 0 z M 200 60 L 200 70 L 200 80 L 210 80 L 210 70 L 210 60 L 200 60 z M 210 80 L 210 90 L 210 100 L 210 110.00195 L 210 120 L 200 120 L 200 130.00195 L 200 140 L 190 140 L 190 150 L 190 160 L 200 160 L 200 150 L 200 140.00195 L 210 140.00195 L 210 130 L 210 120.00195 L 220 120.00195 L 220 110 L 220 100 L 220 90 L 220 80 L 210 80 z M 190 160 L 180 160 L 180 170 L 180 180 L 190 180 L 190 170 L 190 160 z M 180 180 L 170 180 L 170 190 L 170 190.00195 L 170 200 L 180 200 L 180 190.00195 L 180 190 L 180 180 z "
       transform="matrix(0.26458333,0,0,0.26458333,5.2916645,7.9373347)" />
    <path
       id="rect964-12-4-5-5-3-9-1"
       style="fill:#00e5e5;fill-opacity:1;stroke-width:1.00003"
       d="M 180 40 L 180 50 L 180 60 L 190 60 L 190 50 L 190 40 L 180 40 z M 190 60 L 190 70 L 190 80 L 200 80 L 200 90 L 200 100 L 200 110 L 200 120 L 210 120 L 210 110 L 210 100 L 210 90 L 210 79.998047 L 200 79.998047 L 200 70 L 200 60 L 190 60 z M 200 120 L 190 120 L 190 130 L 190 140 L 200 140 L 200 130 L 200 120 z M 190 140 L 180 140 L 180 150 L 180 160 L 190 160 L 190 150 L 190 140 z "
       transform="matrix(0.26458333,0,0,0.26458333,5.2916645,7.9373347)" />
    <path
       id="rect964-12-4-5-5-3-27-9-3"
       style="fill:#00cccc;fill-opacity:1;stroke-width:1.00003"
       d="M 180 60 L 180 70 L 180 80 L 190 80 L 190 70 L 190 60 L 180 60 z M 190 80 L 190 90 L 190 100 L 190 110.00195 L 190 120 L 180 120 L 180 130 L 180 130.00195 L 180 140.00195 L 190 140.00195 L 190 130.00195 L 190 130 L 190 120.00195 L 200 120.00195 L 200 110 L 200 100 L 200 90 L 200 80 L 190 80 z "
       transform="matrix(0.26458333,0,0,0.26458333,5.2916645,7.9373347)" />
    <path
       id="rect964-12-4-5-5-3-3-6"
       style="fill:#00ffff;fill-opacity:1;stroke-width:1.00003"
       d="M 40 0 L 40 10.001953 L 40 20 L 30 20 L 30 30.001953 L 30 40 L 20 40 L 20 50.001953 L 20 60 L 10 60 L 10 70.001953 L 10 80 L 0 80 L 0 90 L 0 100.00195 L 0 110.00195 L 0 120.00195 L 10 120.00195 L 10 110.00195 L 10 100.00195 L 10 90 L 10 80.001953 L 20 80.001953 L 20 70 L 20 60.001953 L 30 60.001953 L 30 50 L 30 40.001953 L 40 40.001953 L 40 30.001953 L 40 20.001953 L 50 20.001953 L 50 10.001953 L 50 0 L 40 0 z M 10 120.00195 L 10 130.00195 L 10 140.00195 L 20 140.00195 L 20 150.00195 L 20 160.00195 L 30 160.00195 L 30 170.00195 L 30 180.00195 L 40 180.00195 L 40 170 L 40 160 L 30 160 L 30 150 L 30 140 L 20 140 L 20 130.00195 L 20 120.00195 L 10 120.00195 z M 40 180.00195 L 40 190 L 40 190.00195 L 40 200.00195 L 50 200.00195 L 50 190.00195 L 50 190 L 50 180.00195 L 40 180.00195 z "
       transform="matrix(0.26458333,0,0,0.26458333,5.2916645,7.9373347)" />
    <path
       id="rect964-12-4-5-5-3-9-1-4"
       style="fill:#00e5e5;fill-opacity:1;stroke-width:1.00003"
       d="M 30 40 L 30 50 L 30 60 L 40 60 L 40 50 L 40 40 L 30 40 z M 30 60 L 20 60 L 20 70 L 20 80 L 30 80 L 30 70 L 30 60 z M 20 80 L 10 80 L 10 90 L 10 100 L 10 110.00195 L 10 120.00195 L 20 120.00195 L 20 130.00195 L 20 140.00195 L 30 140.00195 L 30 150 L 30 160 L 40 160 L 40 150 L 40 140 L 30 140 L 30 130 L 30 120 L 20 120 L 20 110 L 20 100 L 20 90 L 20 80 z "
       transform="matrix(0.26458333,0,0,0.26458333,5.2916645,7.9373347)" />
    <path
       id="rect964-12-4-5-5-3-27-9-3-4"
       style="fill:#00cccc;fill-opacity:1;stroke-width:1.00003"
       d="M 30 60 L 30 70.001953 L 30 80 L 20 80 L 20 90 L 20 100.00195 L 20 110.00195 L 20 120.00195 L 30 120.00195 L 30 110.00195 L 30 100.00195 L 30 90 L 30 80.001953 L 40 80.001953 L 40 70 L 40 60 L 30 60 z M 30 120.00195 L 30 130.00195 L 30 140.00195 L 40 140.00195 L 40 130.00195 L 40 120.00195 L 30 120.00195 z "
       transform="matrix(0.26458333,0,0,0.26458333,5.2916645,7.9373347)" />
  </g>
</svg>
