<?xml version="1.0" encoding="UTF-8" standalone="no"?>
<!-- Created with Inkscape (http://www.inkscape.org/) -->

<svg
   width="200"
   height="200"
   viewBox="0 0 52.916664 52.916667"
   version="1.1"
   id="svg5"
   inkscape:version="1.1 (ce6663b3b7, 2021-05-25)"
   sodipodi:docname="hero.svg"
   xmlns:inkscape="http://www.inkscape.org/namespaces/inkscape"
   xmlns:sodipodi="http://sodipodi.sourceforge.net/DTD/sodipodi-0.dtd"
   xmlns="http://www.w3.org/2000/svg"
   xmlns:svg="http://www.w3.org/2000/svg">
  <sodipodi:namedview
     id="namedview7"
     pagecolor="#ffffff"
     bordercolor="#666666"
     borderopacity="1.0"
     inkscape:pageshadow="2"
     inkscape:pageopacity="0.0"
     inkscape:pagecheckerboard="0"
     inkscape:document-units="mm"
     showgrid="true"
     width="110.00001px"
     units="px"
     borderlayer="true"
     inkscape:showpageshadow="false"
     scale-x="1"
     inkscape:snap-bbox="true"
     inkscape:bbox-nodes="true"
     inkscape:zoom="2.8284271"
     inkscape:cx="75.130096"
     inkscape:cy="89.625785"
     inkscape:window-width="1848"
     inkscape:window-height="1016"
     inkscape:window-x="72"
     inkscape:window-y="27"
     inkscape:window-maximized="1"
     inkscape:current-layer="layer1"
     fit-margin-top="0"
     fit-margin-left="0"
     fit-margin-right="0"
     fit-margin-bottom="0"
     height="200px"
     showguides="true">
    <inkscape:grid
       type="xygrid"
       id="grid9"
       empspacing="1"
       spacingy="2.6458335"
       spacingx="2.6458335"
       dotted="true"
       originx="-10.583336"
       originy="-7.9375001"
       visible="true"
       enabled="true" />
  </sodipodi:namedview>
  <defs
     id="defs2">
    <inkscape:perspective
       sodipodi:type="inkscape:persp3d"
       inkscape:vp_x="0 : 26.458333 : 1"
       inkscape:vp_y="0 : 1000 : 0"
       inkscape:vp_z="52.916664 : 26.458333 : 1"
       inkscape:persp3d-origin="26.458332 : 17.638889 : 1"
       id="perspective20505" />
    <inkscape:path-effect
       effect="fill_between_many"
       method="originald"
       linkedpaths="#rect964-23-7-8-9-06-1-498,0,1|"
       id="path-effect20573" />
  </defs>
  <g
     inkscape:label="Layer 1"
     inkscape:groupmode="layer"
     id="layer1"
     transform="translate(-10.583334,-7.9375)">
    <path
       id="rect964-12-4-5-5"
       style="fill:#ffff00;fill-opacity:1;stroke-width:0.264591"
       d="m 37.04167,29.104335 h 2.645833 v -2.646 H 37.04167 Z" />
    <path
       id="rect964-12-4-5-01"
       style="fill:#cccc00;fill-opacity:1;stroke-width:0.264591"
       d="m 37.04167,31.750169 h 2.645833 v -2.646 H 37.04167 Z" />
    <path
       id="rect964-12-4-5-2"
       style="fill:#ffff00;fill-opacity:1;stroke-width:0.264591"
       d="m 31.750003,29.104335 h 2.645833 v -2.646 h -2.645833 z" />
    <path
       id="rect964-12-4-5-6"
       style="fill:#cccc00;fill-opacity:1;stroke-width:0.264591"
       d="m 31.750003,31.750169 h 2.645833 v -2.646 h -2.645833 z" />
    <path
       id="rect964-975-853-2-4"
       style="fill:#000000;stroke-width:0.264591"
       d="M 37.041667,21.166666 V 23.8125 H 39.6875 42.333334 V 26.458333 29.104166 31.75 34.395833 H 39.6875 v 2.645833 H 37.041667 34.395834 31.75 V 34.395833 H 29.104167 V 31.75 29.104166 26.458333 23.8125 H 31.75 v -2.645834 h 2.645834 z M 39.6875,26.458333 H 37.041667 V 29.104166 31.75 H 39.6875 v -2.645834 z m -5.291666,0 H 31.75 V 29.104166 31.75 h 2.645834 v -2.645834 z" />
    <path
       id="rect964-23-7-8-9-06-1-9"
       style="fill:#3333ff;fill-opacity:1;stroke-width:0.264591"
       d="m 34.395834,10.583333 v 2.645834 H 31.75 29.104167 V 10.583333 H 31.75 Z m 0,2.645834 H 37.041667 39.6875 V 15.875 H 37.041667 34.395834 Z M 39.6875,15.875 h 2.645834 v 2.645833 H 39.6875 Z m 2.645834,2.645833 H 44.979167 47.625 v 2.645833 2.645834 h -2.645833 v -2.645834 h -2.645833 z m 2.645833,5.291667 v 2.645833 2.645833 2.645834 2.645833 2.645833 H 42.333334 V 34.395833 31.75 29.104166 26.458333 23.8125 Z M 42.333334,37.041666 V 39.6875 H 39.6875 v -2.645834 z m 0,2.645834 H 44.979167 47.625 v 2.645833 H 44.979167 42.333334 Z M 47.625,42.333333 h 2.645834 v 2.645833 H 47.625 Z m -5.291666,2.645833 V 47.625 50.270833 H 39.6875 V 47.625 44.979166 Z m 0,5.291667 h 2.645833 v 2.645833 h -2.645833 z m 2.645833,2.645833 H 47.625 v 2.645833 2.645834 2.645833 H 44.979167 42.333334 39.6875 v -2.645833 h 2.645834 2.645833 v -2.645834 z" />
    <path
       id="rect964-23-7-8-9-06-1-5"
       style="fill:#0000ff;fill-opacity:1;stroke-width:0.264591"
       d="M 31.75,13.229167 V 15.875 h 2.645834 2.645833 v 2.645833 H 39.6875 v 2.645833 h 2.645834 V 23.8125 H 39.6875 37.041667 V 21.166666 H 34.395834 31.75 V 23.8125 h -2.645833 -2.645833 v -2.645834 -2.645833 h 2.645833 V 15.875 13.229167 Z m 7.9375,23.812499 V 39.6875 h 2.645834 v 2.645833 2.645833 H 39.6875 v 2.645834 2.645833 2.645833 h 2.645834 v 2.645833 h 2.645833 v 2.645834 H 42.333334 39.6875 v 2.645833 H 37.041667 34.395834 31.75 29.104167 26.458334 v -2.645833 h 2.645833 V 55.562499 H 31.75 v -2.645833 h 2.645834 V 50.270833 47.625 H 31.75 V 44.979166 H 29.104167 V 42.333333 H 31.75 V 39.6875 37.041666 h 2.645834 2.645833 z" />
    <path
       id="rect964-23-7-8-9-06-1-95"
       style="fill:#0000e5;fill-opacity:1;stroke-width:0.264591"
       d="M 29.104167,13.229167 V 15.875 18.520833 H 26.458334 V 15.875 13.229167 Z m -2.645833,5.291666 V 21.166666 23.8125 H 23.8125 v -2.645834 -2.645833 z m 0,5.291667 h 2.645833 V 26.458333 29.104166 31.75 34.395833 H 26.458334 V 31.75 29.104166 26.458333 Z m 2.645833,10.583333 H 31.75 v 2.645833 H 29.104167 Z M 31.75,39.6875 v 2.645833 H 29.104167 V 39.6875 Z m -2.645833,2.645833 v 2.645833 h -2.645833 v -2.645833 z m 0,2.645833 H 31.75 V 47.625 H 29.104167 Z M 31.75,47.625 h 2.645834 v 2.645833 2.645833 H 31.75 v -2.645833 z m 0,5.291666 v 2.645833 h -2.645833 v -2.645833 z m -2.645833,2.645833 v 2.645834 h -2.645833 v -2.645834 z m -2.645833,2.645834 v 2.645833 H 23.8125 v -2.645833 z" />
    <path
       id="rect964-23-7-8-9-06-1-53"
       style="fill:#0000cc;fill-opacity:1;stroke-width:0.264591"
       d="m 29.104167,7.9375 v 2.645833 2.645834 H 26.458334 V 10.583333 7.9375 Z m -2.645833,5.291667 V 15.875 18.520833 H 23.8125 V 15.875 13.229167 Z M 23.8125,18.520833 v 2.645833 2.645834 h -2.645833 v -2.645834 -2.645833 z m 0,5.291667 h 2.645834 v 2.645833 2.645833 2.645834 2.645833 h 2.645833 v 2.645833 H 26.458334 23.8125 V 34.395833 31.75 29.104166 26.458333 Z m 5.291667,13.229166 H 31.75 V 39.6875 h -2.645833 z m 0,2.645834 v 2.645833 H 26.458334 V 39.6875 Z m -2.645833,2.645833 v 2.645833 h 2.645833 V 47.625 H 26.458334 23.8125 V 44.979166 42.333333 Z M 29.104167,47.625 H 31.75 v 2.645833 2.645833 h -2.645833 v -2.645833 z m 0,5.291666 v 2.645833 h -2.645833 v -2.645833 z m -2.645833,2.645833 v 2.645834 H 23.8125 V 55.562499 Z M 23.8125,58.208333 v 2.645833 h -2.645833 v -2.645833 z" />
    <path
       id="rect964-23-7-8-9-06-1-498"
       style="fill:#1a1aff;fill-opacity:1;stroke-width:0.264591"
       d="M 34.395834,13.229167 V 15.875 H 31.75 V 13.229167 Z M 39.6875,15.875 v 2.645833 H 37.041667 V 15.875 Z m 0,2.645833 h 2.645834 v 2.645833 H 39.6875 Z m 2.645834,2.645833 h 2.645833 V 23.8125 h -2.645833 z m 0,13.229167 v 2.645833 H 39.6875 v -2.645833 z m 5.291666,7.9375 v 2.645833 h -2.645833 -2.645833 v -2.645833 h 2.645833 z m -5.291666,7.9375 v 2.645833 H 39.6875 v -2.645833 z m 0,2.645833 h 2.645833 v 2.645833 h -2.645833 z" />
  </g>
</svg>
