<?xml version="1.0" encoding="UTF-8" standalone="no"?>
<!-- Created with Inkscape (http://www.inkscape.org/) -->

<svg
   width="110.00001"
   height="190.00002"
   viewBox="0 0 29.104172 50.270838"
   version="1.1"
   id="svg5"
   inkscape:version="1.1 (ce6663b3b7, 2021-05-25)"
   sodipodi:docname="key.svg"
   xmlns:inkscape="http://www.inkscape.org/namespaces/inkscape"
   xmlns:sodipodi="http://sodipodi.sourceforge.net/DTD/sodipodi-0.dtd"
   xmlns="http://www.w3.org/2000/svg"
   xmlns:svg="http://www.w3.org/2000/svg">
  <sodipodi:namedview
     id="namedview7"
     pagecolor="#ffffff"
     bordercolor="#666666"
     borderopacity="1.0"
     inkscape:pageshadow="2"
     inkscape:pageopacity="0.0"
     inkscape:pagecheckerboard="0"
     inkscape:document-units="mm"
     showgrid="true"
     width="199px"
     units="px"
     borderlayer="true"
     inkscape:showpageshadow="false"
     scale-x="1"
     inkscape:snap-bbox="true"
     inkscape:bbox-nodes="true"
     inkscape:zoom="4"
     inkscape:cx="41.375"
     inkscape:cy="73.625"
     inkscape:window-width="1848"
     inkscape:window-height="1016"
     inkscape:window-x="72"
     inkscape:window-y="27"
     inkscape:window-maximized="1"
     inkscape:current-layer="layer1"
     fit-margin-top="0"
     fit-margin-left="0"
     fit-margin-right="0"
     fit-margin-bottom="0"
     height="200px"
     showguides="true">
    <inkscape:grid
       type="xygrid"
       id="grid9"
       empspacing="1"
       spacingy="2.6458335"
       spacingx="2.6458335"
       dotted="true"
       originx="-10.583336"
       originy="-7.9375001"
       visible="true"
       enabled="true" />
  </sodipodi:namedview>
  <defs
     id="defs2" />
  <g
     inkscape:label="Layer 1"
     inkscape:groupmode="layer"
     id="layer1"
     transform="translate(-10.583334,-7.9375)">
    <path
       id="rect1918-547"
       style="stroke-width:0.999999"
       d="M 0 20 L 0 30 L 0 40 L 0 50 L 0 60 L 0 70 L 0 80 L 10 80 L 10 70 L 10 60 L 10 50 L 10 40 L 10 30 L 10 20 L 0 20 z "
       transform="matrix(0.26458333,0,0,0.26458333,10.583334,7.9375)" />
    <path
       id="rect1918-64-0"
       style="stroke-width:0.999999"
       d="M 40 60 L 40 70 L 50 70 L 60 70 L 70 70 L 70 60 L 60 60 L 50 60 L 40 60 z "
       transform="matrix(0.26458333,0,0,0.26458333,10.583334,7.9375)" />
    <path
       id="rect1918-91"
       style="stroke-width:0.264583"
       d="M 13.229167,29.104168 H 15.875 v 2.645833 h -2.645833 z" />
    <path
       id="rect1918-77"
       style="stroke-width:0.999999"
       d="M 20 90 L 20 100 L 30 100 L 40 100 L 40 110 L 40 120 L 30 120 L 20 120 L 20 130 L 20 140 L 20 150 L 30 150 L 40 150 L 40 160 L 30 160 L 20 160 L 10 160 L 10 170 L 10 180 L 10 190 L 20 190 L 30 190 L 40 190 L 50 190 L 60 190 L 70 190 L 70 180 L 70 170 L 70 160 L 70 150 L 70 140 L 70 130 L 70 120 L 70 110 L 70 100 L 80 100 L 90 100 L 90 90 L 80 90 L 70 90 L 60 90 L 60 100 L 60 110 L 60 120 L 60 130 L 60 140 L 60 150 L 60 160 L 60 170 L 60 180 L 50 180 L 40 180 L 30 180 L 20 180 L 20 170 L 30 170 L 40 170 L 50 170 L 50 160 L 50 150 L 50 140 L 40 140 L 30 140 L 30 130 L 40 130 L 50 130 L 50 120 L 50 110 L 50 100 L 50 90 L 40 90 L 30 90 L 20 90 z "
       transform="matrix(0.26458333,0,0,0.26458333,10.583334,7.9375)" />
    <path
       id="rect4575"
       style="fill:#cca400;fill-opacity:1;stroke-width:0.264583"
       d="m 15.875001,52.916668 h 2.645833 v 2.645833 h -2.645833 z" />
    <path
       id="rect4575-9"
       style="fill:#ffcc00;fill-opacity:1;stroke-width:0.999999"
       d="M 50 100 L 50 110 L 50 120 L 50 130 L 40 130 L 40 140 L 50 140 L 50 150 L 50 160 L 50 170 L 40 170 L 30 170 L 30 180 L 40 180 L 50 180 L 60 180 L 60 170 L 60 160 L 60 150 L 60 140 L 60 130 L 60 120 L 60 110 L 60 100 L 50 100 z "
       transform="matrix(0.26458333,0,0,0.26458333,10.583334,7.9375)" />
    <path
       id="rect4575-11"
       style="fill:#cca400;fill-opacity:1;stroke-width:0.264583"
       d="m 18.520835,42.333335 h 2.645833 v 2.645833 h -2.645833 z" />
    <path
       id="rect4575-4"
       style="fill:#ffcc00;stroke-width:0.999999"
       d="M 20 30 L 20 40 L 20 50 L 20 60 L 20 70 L 20 80 L 30 80 L 40 80 L 40 90 L 50 90 L 50 100 L 60 100 L 60 90 L 70 90 L 80 90 L 80 80 L 90 80 L 90 70 L 90 60 L 90 50 L 90 40 L 80 40 L 80 50 L 80 60 L 70 60 L 70 70 L 60 70 L 50 70 L 40 70 L 40 60 L 30 60 L 30 50 L 30 40 L 30 30 L 20 30 z "
       transform="matrix(0.26458333,0,0,0.26458333,10.583334,7.9375)" />
    <path
       id="rect4575-62-5"
       style="fill:#cea500;fill-opacity:1;stroke-width:0.999999"
       d="M 20,80 V 90 H 30 40 V 80 H 30 Z"
       transform="matrix(0.26458333,0,0,0.26458333,10.583334,7.9375)" />
    <path
       id="rect4575-62-70"
       style="fill:#cea500;fill-opacity:1;stroke-width:0.999999"
       d="M 10,20 V 30 40 50 60 70 80 H 20 V 70 60 50 40 30 20 Z"
       transform="matrix(0.26458333,0,0,0.26458333,10.583334,7.9375)" />
    <path
       id="rect4575-62-80"
       style="fill:#ffcc00;stroke-width:0.264583"
       d="m 21.166668,26.458334 h 2.645833 v 2.645834 h -2.645833 z" />
    <path
       id="rect4575-62-2"
       style="fill:#ffcc00;stroke-width:0.264583"
       d="m 31.750002,23.812501 h 2.645833 v 2.645833 h -2.645833 z" />
    <path
       id="rect4575-62-05"
       style="fill:#ffcc00;stroke-width:0.264583"
       d="m 31.750002,18.520834 h 2.645833 v 2.645833 h -2.645833 z" />
    <path
       id="rect4575-62-3"
       style="fill:#ffd942;fill-opacity:1;stroke-width:0.264583"
       d="m 31.750002,29.104168 h 2.645833 v 2.645833 h -2.645833 z" />
    <path
       id="rect4575-62-804"
       style="fill:#ffcc00;stroke-width:0.264583"
       d="m 29.104169,23.812501 h 2.645833 v 2.645833 h -2.645833 z" />
    <path
       id="rect4575-62-19"
       style="fill:#ffd942;fill-opacity:1;stroke-width:0.999999"
       d="M 90 20 L 90 30 L 90 40 L 90 50 L 90 60 L 90 70 L 90 80 L 100 80 L 100 70 L 100 60 L 100 50 L 100 40 L 100 30 L 100 20 L 90 20 z "
       transform="matrix(0.26458333,0,0,0.26458333,10.583334,7.9375)" />
    <path
       id="rect4575-62-49"
       style="fill:#ffd942;stroke-width:0.999999;fill-opacity:1"
       d="M 90 20 L 90 30 L 90 40 L 90 50 L 90 60 L 90 70 L 90 80 L 100 80 L 100 70 L 100 60 L 100 50 L 100 40 L 100 30 L 100 20 L 90 20 z "
       transform="matrix(0.26458333,0,0,0.26458333,10.583334,7.9375)" />
    <path
       id="rect4575-62-49-35"
       style="fill:#ffd942;stroke-width:0.264583;fill-opacity:1"
       d="m 34.395836,13.229168 h 2.645833 v 2.645833 h -2.645833 z" />
    <path
       id="rect4575-62-29"
       style="fill:#ffcc00;stroke-width:0.999999"
       d="M 60,10 V 20 30 H 70 V 40 H 80 90 V 30 20 H 80 70 V 10 Z"
       transform="matrix(0.26458333,0,0,0.26458333,10.583334,7.9375)" />
    <path
       id="rect4575-62-74"
       style="fill:#ffd942;fill-opacity:1;stroke-width:0.999999"
       d="M 70,10 V 20 H 80 90 V 10 H 80 Z"
       transform="matrix(0.26458333,0,0,0.26458333,10.583334,7.9375)" />
    <path
       id="rect4575-62-64"
       style="fill:#ffcc00;stroke-width:0.264583"
       d="m 18.520835,10.583333 h 2.645833 v 2.645833 h -2.645833 z" />
    <path
       id="rect4575-62-12"
       style="fill:#ffcc00;stroke-width:0.748354"
       d="m 18.520835,10.583333 h 10.583332 v 5.291668 H 18.520835 Z" />
    <path
       id="rect4575-62-88"
       style="fill:#ffcc00;stroke-width:0.264583"
       d="m 23.812502,10.583333 h 2.645833 v 2.645833 h -2.645833 z" />
    <path
       id="rect4575-62-68"
       style="fill:#ffcc00;stroke-width:0.264583"
       d="m 21.166668,13.229167 h 2.645833 V 15.875 h -2.645833 z" />
    <path
       id="rect4575-62-38"
       style="fill:#ffcc00;stroke-width:0.264583"
       d="m 21.166668,13.229167 h 2.645833 V 15.875 h -2.645833 z" />
    <path
       id="rect4575-62-33"
       style="fill:#ffcc00;stroke-width:0.264583"
       d="m 21.166668,10.583333 h 2.645833 v 2.645833 h -2.645833 z" />
    <path
       id="rect4575-62-380"
       style="fill:#ffcc00;stroke-width:0.264583"
       d="m 23.812502,13.229167 h 2.645833 V 15.875 h -2.645833 z" />
    <path
       id="rect4575-62-47"
       style="fill:#cea500;fill-opacity:1;stroke-width:0.264583"
       d="m 15.875002,10.583333 h 2.645832 v 2.645833 h -2.645832 z" />
    <path
       id="rect4575-62-689"
       style="fill:#ffcc00;stroke-width:0.264583"
       d="m 18.520835,13.229167 h 2.645833 V 15.875 h -2.645833 z" />
    <path
       id="rect4575-62-06"
       style="fill:#ffcc00;stroke-width:0.264583"
       d="m 18.520835,15.875 h 2.645833 v 2.645833 h -2.645833 z" />
    <path
       id="rect4575-62-87"
       style="fill:#ffcc00;fill-opacity:1;stroke-width:0.529166"
       d="m 15.875,13.229167 h 5.291666 v 5.291667 H 15.875 Z" />
    <path
       id="rect4575-62-337"
       style="fill:#ffcc00;stroke-width:0.264583"
       d="m 15.875002,15.875 h 2.645832 v 2.645833 h -2.645832 z" />
    <path
       id="rect1918-64-9"
       style="stroke-width:0.264583"
       d="m 34.395836,29.104168 h 2.645833 v 2.645833 h -2.645833 z" />
    <path
       id="rect1918-64-90"
       style="stroke-width:0.999999"
       d="M 100 20 L 100 30 L 100 40 L 100 50 L 100 60 L 100 70 L 100 80 L 110 80 L 110 70 L 110 60 L 110 50 L 110 40 L 110 30 L 110 20 L 100 20 z "
       transform="matrix(0.26458333,0,0,0.26458333,10.583334,7.9375)" />
    <path
       id="rect1918-64-96"
       style="stroke-width:0.999999"
       d="M 70 40 L 70 50 L 70 60 L 80 60 L 80 50 L 80 40 L 70 40 z "
       transform="matrix(0.26458333,0,0,0.26458333,10.583334,7.9375)" />
    <path
       id="rect1918-64-38"
       style="stroke-width:0.999999"
       d="M 40 30 L 40 40 L 50 40 L 60 40 L 70 40 L 70 30 L 60 30 L 50 30 L 40 30 z "
       transform="matrix(0.26458333,0,0,0.26458333,10.583334,7.9375)" />
    <path
       id="rect1918-64-00"
       style="stroke-width:0.999999"
       d="M 30 40 L 30 50 L 30 60 L 40 60 L 40 50 L 40 40 L 30 40 z "
       transform="matrix(0.26458333,0,0,0.26458333,10.583334,7.9375)" />
    <path
       id="rect1918-64-7"
       style="stroke-width:0.999999"
       d="M 20 0 L 20 10 L 30 10 L 40 10 L 50 10 L 60 10 L 70 10 L 80 10 L 90 10 L 90 0 L 80 0 L 70 0 L 60 0 L 50 0 L 40 0 L 30 0 L 20 0 z "
       transform="matrix(0.26458333,0,0,0.26458333,10.583334,7.9375)" />
    <path
       id="rect1918-64-60"
       style="stroke-width:0.264583"
       d="m 34.395837,10.583334 h 2.645833 v 2.645833 h -2.645833 z" />
    <path
       id="rect1918-64-910"
       style="stroke-width:0.264583"
       d="m 13.229169,10.583334 h 2.645833 v 2.645833 h -2.645833 z" />
  </g>
</svg>
