<?xml version="1.0" encoding="UTF-8" standalone="no"?>
<!-- Created with Inkscape (http://www.inkscape.org/) -->

<svg
   width="200"
   height="200"
   viewBox="0 0 52.916664 52.916667"
   version="1.1"
   id="svg5"
   inkscape:version="1.1 (ce6663b3b7, 2021-05-25)"
   sodipodi:docname="mage-red.svg"
   xmlns:inkscape="http://www.inkscape.org/namespaces/inkscape"
   xmlns:sodipodi="http://sodipodi.sourceforge.net/DTD/sodipodi-0.dtd"
   xmlns="http://www.w3.org/2000/svg"
   xmlns:svg="http://www.w3.org/2000/svg">
  <sodipodi:namedview
     id="namedview7"
     pagecolor="#ffffff"
     bordercolor="#666666"
     borderopacity="1.0"
     inkscape:pageshadow="2"
     inkscape:pageopacity="0.0"
     inkscape:pagecheckerboard="0"
     inkscape:document-units="mm"
     showgrid="true"
     width="110.00001px"
     units="px"
     borderlayer="true"
     inkscape:showpageshadow="false"
     scale-x="1"
     inkscape:snap-bbox="true"
     inkscape:bbox-nodes="true"
     inkscape:zoom="4"
     inkscape:cx="121.375"
     inkscape:cy="98.875001"
     inkscape:window-width="1848"
     inkscape:window-height="1016"
     inkscape:window-x="72"
     inkscape:window-y="27"
     inkscape:window-maximized="1"
     inkscape:current-layer="layer1"
     fit-margin-top="0"
     fit-margin-left="0"
     fit-margin-right="0"
     fit-margin-bottom="0"
     height="200px"
     showguides="true">
    <inkscape:grid
       type="xygrid"
       id="grid9"
       empspacing="1"
       spacingy="2.6458335"
       spacingx="2.6458335"
       dotted="true"
       originx="-10.583336"
       originy="-7.9375001"
       visible="true"
       enabled="true" />
  </sodipodi:namedview>
  <defs
     id="defs2">
    <inkscape:perspective
       sodipodi:type="inkscape:persp3d"
       inkscape:vp_x="0 : 26.458333 : 1"
       inkscape:vp_y="0 : 1000 : 0"
       inkscape:vp_z="52.916664 : 26.458333 : 1"
       inkscape:persp3d-origin="26.458332 : 17.638889 : 1"
       id="perspective20505" />
    <inkscape:path-effect
       effect="fill_between_many"
       method="originald"
       linkedpaths="#rect964-23-7-8-9-06-1-498,0,1|"
       id="path-effect20573" />
  </defs>
  <g
     inkscape:label="Layer 1"
     inkscape:groupmode="layer"
     id="layer1"
     transform="translate(-10.583334,-7.9375)">
    <path
       id="rect964-12-4-5-5"
       style="fill:#ffff00;fill-opacity:1;stroke-width:0.264591"
       d="m 34.395831,29.104335 h -2.645833 v -2.646 h 2.645833 z" />
    <path
       id="rect964-12-4-5-01"
       style="fill:#cccc00;fill-opacity:1;stroke-width:0.264591"
       d="m 34.395831,31.750169 h -2.645833 v -2.646 h 2.645833 z" />
    <path
       id="rect964-12-4-5-2"
       style="fill:#ffff00;fill-opacity:1;stroke-width:0.264591"
       d="m 39.687498,29.104335 h -2.645833 v -2.646 h 2.645833 z" />
    <path
       id="rect964-12-4-5-6"
       style="fill:#cccc00;fill-opacity:1;stroke-width:0.264591"
       d="m 39.687498,31.750169 h -2.645833 v -2.646 h 2.645833 z" />
    <path
       id="rect964-975-853-2-4"
       style="fill:#000000;stroke-width:1.00003"
       d="M 90 50 L 90 60 L 80 60 L 70 60 L 70 70 L 70 80 L 70 90 L 70 100 L 80 100 L 80 110 L 90 110 L 100 110 L 110 110 L 110 100 L 120 100 L 120 90 L 120 80 L 120 70 L 120 60 L 110 60 L 110 50 L 100 50 L 90 50 z M 80 70 L 90 70 L 90 80 L 90 90 L 80 90 L 80 80 L 80 70 z M 100 70 L 110 70 L 110 80 L 110 90 L 100 90 L 100 80 L 100 70 z "
       transform="matrix(0.26458333,0,0,0.26458333,10.583334,7.9375)" />
    <path
       id="rect964-23-7-8-9-06-1-9"
       style="fill:#850000;fill-opacity:1;stroke-width:1.00003"
       d="M 100 10 L 100 20 L 110 20 L 120 20 L 120 10 L 110 10 L 100 10 z M 100 20 L 90 20 L 80 20 L 80 30 L 90 30 L 100 30 L 100 20 z M 80 30 L 70 30 L 70 40 L 80 40 L 80 30 z M 70 40 L 60 40 L 50 40 L 50 50 L 50 60 L 60 60 L 60 50 L 70 50 L 70 40 z M 60 60 L 60 70 L 60 80 L 60 90 L 60 100 L 60 110 L 70 110 L 70 100 L 70 90 L 70 80 L 70 70 L 70 60 L 60 60 z M 70 110 L 70 120 L 80 120 L 80 110 L 70 110 z M 70 120 L 60 120 L 50 120 L 50 130 L 60 130 L 70 130 L 70 120 z M 50 130 L 40 130 L 40 140 L 50 140 L 50 130 z M 70 140 L 70 150 L 70 160 L 80 160 L 80 150 L 80 140 L 70 140 z M 70 160 L 60 160 L 60 170 L 70 170 L 70 160 z M 60 170 L 50 170 L 50 180 L 50 190 L 50 200 L 60 200 L 70 200 L 80 200 L 80 190 L 70 190 L 60 190 L 60 180 L 60 170 z "
       transform="matrix(0.26458333,0,0,0.26458333,10.583334,7.9375)" />
    <path
       id="rect964-23-7-8-9-06-1-5"
       style="fill:#aa0000;fill-opacity:1;stroke-width:1.00003"
       d="M 110 20 L 110 30 L 100 30 L 90 30 L 90 40 L 80 40 L 80 50 L 70 50 L 70 60 L 80 60 L 90 60 L 90 50 L 100 50 L 110 50 L 110 60 L 120 60 L 130 60 L 130 50 L 130 40 L 120 40 L 120 30 L 120 20 L 110 20 z M 80 110 L 80 120 L 70 120 L 70 130 L 70 140 L 80 140 L 80 150 L 80 160 L 80 170 L 70 170 L 70 180 L 60 180 L 60 190 L 70 190 L 80 190 L 80 200 L 90 200 L 100 200 L 110 200 L 120 200 L 130 200 L 130 190 L 120 190 L 120 180 L 110 180 L 110 170 L 100 170 L 100 160 L 100 150 L 110 150 L 110 140 L 120 140 L 120 130 L 110 130 L 110 120 L 110 110 L 100 110 L 90 110 L 80 110 z "
       transform="matrix(0.26458333,0,0,0.26458333,10.583334,7.9375)" />
    <path
       id="rect964-23-7-8-9-06-1-95"
       style="fill:#bd0000;fill-opacity:1;stroke-width:1.00003"
       d="M 120 20 L 120 30 L 120 40 L 130 40 L 130 30 L 130 20 L 120 20 z M 130 40 L 130 50 L 130 60 L 140 60 L 140 50 L 140 40 L 130 40 z M 130 60 L 120 60 L 120 70 L 120 80 L 120 90 L 120 100 L 130 100 L 130 90 L 130 80 L 130 70 L 130 60 z M 120 100 L 110 100 L 110 110 L 120 110 L 120 100 z M 110 120 L 110 130 L 120 130 L 120 120 L 110 120 z M 120 130 L 120 140 L 130 140 L 130 130 L 120 130 z M 120 140 L 110 140 L 110 150 L 120 150 L 120 140 z M 110 150 L 100 150 L 100 160 L 100 170 L 110 170 L 110 160 L 110 150 z M 110 170 L 110 180 L 120 180 L 120 170 L 110 170 z M 120 180 L 120 190 L 130 190 L 130 180 L 120 180 z M 130 190 L 130 200 L 140 200 L 140 190 L 130 190 z "
       transform="matrix(0.26458333,0,0,0.26458333,10.583334,7.9375)" />
    <path
       id="rect964-23-7-8-9-06-1-53"
       style="fill:#cc0000;fill-opacity:1;stroke-width:1.00003"
       d="M 120 0 L 120 10 L 120 20 L 130 20 L 130 10 L 130 0 L 120 0 z M 130 20 L 130 30 L 130 40 L 140 40 L 140 30 L 140 20 L 130 20 z M 140 40 L 140 50 L 140 60 L 150 60 L 150 50 L 150 40 L 140 40 z M 140 60 L 130 60 L 130 70 L 130 80 L 130 90 L 130 100 L 120 100 L 120 110 L 130 110 L 140 110 L 140 100 L 140 90 L 140 80 L 140 70 L 140 60 z M 120 110 L 110 110 L 110 120 L 120 120 L 120 110 z M 120 120 L 120 130 L 130 130 L 130 120 L 120 120 z M 130 130 L 130 140 L 120 140 L 120 150 L 130 150 L 140 150 L 140 140 L 140 130 L 130 130 z M 120 150 L 110 150 L 110 160 L 110 170 L 120 170 L 120 160 L 120 150 z M 120 170 L 120 180 L 130 180 L 130 170 L 120 170 z M 130 180 L 130 190 L 140 190 L 140 180 L 130 180 z M 140 190 L 140 200 L 150 200 L 150 190 L 140 190 z "
       transform="matrix(0.26458333,0,0,0.26458333,10.583334,7.9375)" />
    <path
       id="rect964-23-7-8-9-06-1-498"
       style="fill:#8f0000;fill-opacity:1;stroke-width:1.00003"
       d="M 100 20 L 100 30 L 110 30 L 110 20 L 100 20 z M 80 30 L 80 40 L 90 40 L 90 30 L 80 30 z M 80 40 L 70 40 L 70 50 L 80 50 L 80 40 z M 70 50 L 60 50 L 60 60 L 70 60 L 70 50 z M 70 100 L 70 110 L 80 110 L 80 100 L 70 100 z M 50 130 L 50 140 L 60 140 L 70 140 L 70 130 L 60 130 L 50 130 z M 70 160 L 70 170 L 80 170 L 80 160 L 70 160 z M 70 170 L 60 170 L 60 180 L 70 180 L 70 170 z "
       transform="matrix(0.26458333,0,0,0.26458333,10.583334,7.9375)" />
  </g>
</svg>
