<?xml version="1.0" encoding="UTF-8" standalone="no"?>
<!-- Created with Inkscape (http://www.inkscape.org/) -->

<svg
   width="300"
   height="520"
   viewBox="0 0 79.375009 137.58333"
   version="1.1"
   id="svg5"
   inkscape:version="1.1 (ce6663b3b7, 2021-05-25)"
   sodipodi:docname="mummy.svg"
   xmlns:inkscape="http://www.inkscape.org/namespaces/inkscape"
   xmlns:sodipodi="http://sodipodi.sourceforge.net/DTD/sodipodi-0.dtd"
   xmlns="http://www.w3.org/2000/svg"
   xmlns:svg="http://www.w3.org/2000/svg">
  <sodipodi:namedview
     id="namedview7"
     pagecolor="#ffffff"
     bordercolor="#666666"
     borderopacity="1.0"
     inkscape:pageshadow="2"
     inkscape:pageopacity="0.0"
     inkscape:pagecheckerboard="0"
     inkscape:document-units="mm"
     showgrid="true"
     width="300px"
     units="px"
     borderlayer="true"
     inkscape:showpageshadow="false"
     scale-x="1"
     inkscape:snap-bbox="true"
     inkscape:bbox-nodes="true"
     inkscape:zoom="0.70710678"
     inkscape:cx="449.71991"
     inkscape:cy="468.8118"
     inkscape:window-width="1337"
     inkscape:window-height="1016"
     inkscape:window-x="72"
     inkscape:window-y="27"
     inkscape:window-maximized="0"
     inkscape:current-layer="layer1"
     fit-margin-top="0"
     fit-margin-left="0"
     fit-margin-right="0"
     fit-margin-bottom="0">
    <inkscape:grid
       type="xygrid"
       id="grid9"
       empspacing="1"
       spacingy="5.2916667"
       spacingx="5.2916667"
       dotted="true"
       originx="-79.375005"
       originy="126.99999" />
  </sodipodi:namedview>
  <defs
     id="defs2" />
  <g
     inkscape:label="Layer 1"
     inkscape:groupmode="layer"
     id="layer1"
     transform="translate(-79.374986,127)">
    <path
       id="rect16007"
       style="stroke-width:3"
       d="M 140,-20 V 0 h 20 20 20 20 20 20 v -20 h -20 -20 -20 -20 -20 z"
       transform="matrix(0.26458333,0,0,0.26458333,74.083319,-121.70833)" />
    <path
       id="rect16007-6"
       style="stroke-width:3"
       d="m 100,20 v 20 20 20 20 20 h 20 V 100 80 60 40 20 Z"
       transform="matrix(0.26458333,0,0,0.26458333,74.083319,-121.70833)" />
    <path
       id="rect16007-0-6"
       style="stroke-width:3"
       d="m 140,40 v 20 20 20 h 20 20 20 20 20 V 80 h 20 V 60 H 240 V 40 h -20 -20 -20 -20 z m 20,20 h 20 v 20 h -20 z m 40,0 h 20 v 20 h -20 z"
       transform="matrix(0.26458333,0,0,0.26458333,74.083319,-121.70833)" />
    <path
       id="rect16007-3"
       style="stroke-width:0.79375"
       d="m 105.83332,-89.95834 h 5.29167 v 5.29166 h -5.29167 z" />
    <path
       id="rect16007-33"
       style="stroke-width:0.79375"
       d="m 111.12499,-84.666673 h 5.29167 v 5.29166 h -5.29167 z" />
    <path
       id="rect16007-7"
       style="stroke-width:3"
       d="m 160,160 v 20 h 20 20 v 20 h 20 20 20 20 20 v -20 h -20 v -20 h -20 v 20 h -20 v -20 h -20 -20 -20 z"
       transform="matrix(0.26458333,0,0,0.26458333,74.083319,-121.70833)" />
    <path
       id="rect16007-48"
       style="stroke-width:0.79375"
       d="m 137.58332,-84.666673 h 5.29167 v 5.29166 h -5.29167 z" />
    <path
       id="rect16007-481"
       style="stroke-width:0.79375"
       d="m 142.87499,-89.95834 h 5.29167 v 5.29166 h -5.29167 z" />
    <path
       id="rect16007-68"
       style="stroke-width:3"
       d="m 280,20 v 20 20 20 20 20 h 20 V 100 80 60 40 20 Z"
       transform="matrix(0.26458333,0,0,0.26458333,74.083319,-121.70833)" />
    <path
       id="rect16007-2"
       style="fill:#ff0000;stroke-width:0.79375"
       d="m 116.41666,-105.83334 h 5.29167 v 5.29166 h -5.29167 z" />
    <path
       id="rect16007-21"
       style="fill:#ff0000;stroke-width:0.79375"
       d="m 126.99999,-105.83334 h 5.29167 v 5.29166 h -5.29167 z" />
    <path
       id="rect16007-0-07"
       style="stroke-width:0.79375"
       d="m 105.83333,-79.37501 h 5.29167 v 5.29166 h -5.29167 z" />
    <path
       id="rect16007-0-91"
       style="stroke-width:3"
       d="m 40,180 v 20 h 20 20 20 20 V 180 H 100 80 60 Z"
       transform="matrix(0.26458333,0,0,0.26458333,74.083319,-121.70833)" />
    <path
       id="rect16007-0-98"
       style="stroke-width:3"
       d="m 20,200 v 20 20 20 h 20 v -20 -20 -20 z"
       transform="matrix(0.26458333,0,0,0.26458333,74.083319,-121.70833)" />
    <path
       id="rect16007-0-370"
       style="stroke-width:0.79375"
       d="m 84.666654,-52.91666 h 5.29167 v 5.29166 h -5.29167 z" />
    <path
       id="rect16007-0-69"
       style="stroke-width:3"
       d="m 60,240 v 20 h 20 20 20 V 240 H 100 80 Z"
       transform="matrix(0.26458333,0,0,0.26458333,74.083319,-121.70833)" />
    <path
       id="rect16007-0-62"
       style="stroke-width:3"
       d="m 300,200 v 20 20 h 20 v -20 -20 z"
       transform="matrix(0.26458333,0,0,0.26458333,74.083319,-121.70833)" />
    <path
       id="rect16007-0-71"
       style="stroke-width:3"
       d="m 220,240 v 20 h 20 20 v 20 20 20 20 h 20 v -20 -20 -20 -20 h 20 v -20 h -20 -20 -20 z"
       transform="matrix(0.26458333,0,0,0.26458333,74.083319,-121.70833)" />
    <path
       id="rect16007-0-56"
       style="stroke-width:0.79375"
       d="m 126.99999,-52.91666 h 5.29167 v 5.29166 h -5.29167 z" />
    <path
       id="rect16007-0-568"
       style="stroke-width:3"
       d="m 180,200 v 20 20 20 h 20 v -20 -20 -20 z"
       transform="matrix(0.26458333,0,0,0.26458333,74.083319,-121.70833)" />
    <path
       id="rect16007-0-20"
       style="stroke-width:3"
       d="m 100,340 v 20 20 20 20 20 20 h 20 v -20 -20 -20 -20 -20 -20 z"
       transform="matrix(0.26458333,0,0,0.26458333,74.083319,-121.70833)" />
    <path
       id="rect16007-0-31"
       style="stroke-width:3"
       d="m 280,340 v 20 20 20 20 20 20 20 h 20 v -20 -20 -20 -20 -20 -20 -20 z"
       transform="matrix(0.26458333,0,0,0.26458333,74.083319,-121.70833)" />
    <path
       id="rect16007-0-076"
       style="stroke-width:3"
       d="m 220,380 v 20 20 20 20 h 20 v -20 -20 -20 -20 z"
       transform="matrix(0.26458333,0,0,0.26458333,74.083319,-121.70833)" />
    <path
       id="rect16007-0-24"
       style="stroke-width:3"
       d="m 160,380 v 20 20 20 20 20 h 20 v -20 -20 -20 -20 -20 z"
       transform="matrix(0.26458333,0,0,0.26458333,74.083319,-121.70833)" />
    <path
       id="rect16007-0-024"
       style="stroke-width:0.79375"
       d="m 95.249987,-1e-5 h 5.291643 v 5.29166 h -5.291643 z" />
    <path
       id="rect16007-0-90"
       style="stroke-width:3"
       d="m 100,480 v 20 h 20 20 20 v -20 h -20 -20 z"
       transform="matrix(0.26458333,0,0,0.26458333,74.083319,-121.70833)" />
    <path
       id="rect16007-0-873"
       style="stroke-width:0.79375"
       d="m 126.99999,-1e-5 h 5.29167 v 5.29166 h -5.29167 z" />
    <path
       id="rect16007-0-100"
       style="stroke-width:3"
       d="m 220,480 v 20 h 20 20 20 v -20 h -20 -20 z"
       transform="matrix(0.26458333,0,0,0.26458333,74.083319,-121.70833)" />
    <path
       id="rect16007-0-17"
       style="stroke-width:3"
       d="m 180,360 v 20 h 20 20 v -20 h -20 z"
       transform="matrix(0.26458333,0,0,0.26458333,74.083319,-121.70833)" />
    <path
       id="rect16007-0-6-9"
       style="stroke-width:0.79375"
       d="m 105.83332,-121.70834 h 5.29167 v 5.29166 h -5.29167 z" />
    <path
       id="rect16007-0-6-4"
       style="stroke-width:0.79375"
       d="m 142.87499,-121.70834 h 5.29167 v 5.29166 h -5.29167 z" />
    <path
       id="rect24385"
       style="fill:#6c5353;stroke-width:3"
       d="M 100 460 L 100 480 L 120 480 L 140 480 L 140 460 L 120 460 L 100 460 z "
       transform="matrix(0.26458333,0,0,0.26458333,79.374986,-127)" />
    <path
       id="rect24385-5"
       style="fill:#6c5353;stroke-width:3"
       d="M 100 400 L 100 420 L 120 420 L 140 420 L 140 400 L 120 400 L 100 400 z "
       transform="matrix(0.26458333,0,0,0.26458333,79.374986,-127)" />
    <path
       id="rect24385-56"
       style="fill:#6c5353;stroke-width:3"
       d="M 220 440 L 220 460 L 240 460 L 260 460 L 260 440 L 240 440 L 220 440 z "
       transform="matrix(0.26458333,0,0,0.26458333,79.374986,-127)" />
    <path
       id="rect24385-14"
       style="fill:#6c5353;stroke-width:3"
       d="M 200 380 L 200 400 L 220 400 L 240 400 L 240 380 L 220 380 L 200 380 z "
       transform="matrix(0.26458333,0,0,0.26458333,79.374986,-127)" />
    <path
       id="rect24385-3"
       style="fill:#6c5353;stroke-width:0.79375"
       d="m 142.87499,-31.749999 h 5.29167 v 5.291666 h -5.29167 z" />
    <path
       id="rect24385-7"
       style="fill:#000000;fill-opacity:1;stroke-width:3"
       d="m 120,260 v 20 20 20 20 h 20 v -20 -20 -20 -20 z"
       transform="matrix(0.26458333,0,0,0.26458333,74.083319,-121.70833)" />
    <path
       id="rect24385-2"
       style="fill:#6c5353;stroke-width:3"
       d="M 120 340 L 120 360 L 140 360 L 160 360 L 160 340 L 140 340 L 120 340 z "
       transform="matrix(0.26458333,0,0,0.26458333,79.374986,-127)" />
    <path
       id="rect24385-39"
       style="fill:#6c5353;stroke-width:3"
       d="M 160 320 L 160 340 L 180 340 L 200 340 L 220 340 L 240 340 L 240 320 L 220 320 L 200 320 L 180 320 L 160 320 z "
       transform="matrix(0.26458333,0,0,0.26458333,79.374986,-127)" />
    <path
       id="rect24385-8"
       style="fill:#6c5353;stroke-width:0.79375"
       d="m 111.12499,-52.916666 h 5.29167 V -47.625 h -5.29167 z" />
    <path
       id="rect24385-32"
       style="fill:#6c5353;stroke-width:0.79375"
       d="m 116.41665,-58.208332 h 5.29167 v 5.291666 h -5.29167 z" />
    <path
       id="rect24385-32-9"
       style="fill:#6c5353;stroke-width:0.79375"
       d="m 89.958316,-68.791665 h 5.29167 v 5.291666 h -5.29167 z" />
    <path
       id="rect24385-32-5"
       style="fill:#6c5353;stroke-width:0.79375"
       d="m 95.249983,-63.499999 h 5.291667 v 5.291666 h -5.291667 z" />
    <path
       id="rect24385-32-4"
       style="fill:#6c5353;stroke-width:0.79375"
       d="m 105.83332,-68.791665 h 5.29167 v 5.291666 h -5.29167 z" />
    <path
       id="rect24385-32-3"
       style="fill:#6c5353;stroke-width:0.79375"
       d="m 111.12498,-63.499999 h 5.29167 v 5.291666 h -5.29167 z" />
    <path
       id="rect24385-32-94"
       style="fill:#6c5353;stroke-width:0.79375"
       d="m 142.87498,-68.791665 h 5.29167 v 5.291666 h -5.29167 z" />
    <path
       id="rect24385-32-95"
       style="fill:#6c5353;stroke-width:0.79375"
       d="m 137.58332,-63.499999 h 5.29167 v 5.291666 h -5.29167 z" />
    <path
       id="rect24385-32-39"
       style="fill:#6c5353;stroke-width:3"
       d="M 120 140 L 120 160 L 140 160 L 160 160 L 180 160 L 180 140 L 160 140 L 140 140 L 120 140 z "
       transform="matrix(0.26458333,0,0,0.26458333,79.374986,-127)" />
    <path
       id="rect24385-32-2"
       style="fill:#6c5353;stroke-width:3"
       d="M 180 120 L 180 140 L 200 140 L 220 140 L 240 140 L 240 120 L 220 120 L 200 120 L 180 120 z "
       transform="matrix(0.26458333,0,0,0.26458333,79.374986,-127)" />
    <path
       id="rect24385-32-50"
       style="fill:#6c5353;stroke-width:0.79375"
       d="m 142.87498,-100.54167 h 5.29167 V -95.25 h -5.29167 z" />
    <path
       id="rect24385-32-41"
       style="fill:#6c5353;stroke-width:0.79375"
       d="m 105.83332,-100.54167 h 5.29167 V -95.25 h -5.29167 z" />
    <path
       id="rect24385-32-79"
       style="fill:#6c5353;stroke-width:3"
       d="M 220 60 L 220 80 L 240 80 L 260 80 L 260 60 L 240 60 L 220 60 z "
       transform="matrix(0.26458333,0,0,0.26458333,79.374986,-127)" />
    <path
       id="rect24385-32-21"
       style="fill:#6c5353;stroke-width:3"
       d="M 100 40 L 100 60 L 120 60 L 140 60 L 140 40 L 120 40 L 100 40 z "
       transform="matrix(0.26458333,0,0,0.26458333,79.374986,-127)" />
    <path
       id="rect24385-32-391"
       style="fill:#6c5353;stroke-width:0.79375"
       d="m 116.41665,-121.70833 h 5.29167 v 5.29166 h -5.29167 z" />
    <path
       id="rect24385-32-8"
       style="fill:#6c5353;stroke-width:0.79375"
       d="m 126.99998,-116.41667 h 5.29167 v 5.29167 h -5.29167 z" />
    <path
       id="rect24385-32-87"
       style="fill:#6c5353;stroke-width:0.79375"
       d="m 132.29165,-121.70833 h 5.29167 v 5.29166 h -5.29167 z" />
    <path
       id="rect25305"
       style="fill:#f4e3d7;stroke-width:0.79375"
       d="m 111.12499,-121.70833 h 5.29167 v 5.29166 h -5.29167 z" />
    <path
       id="rect25305-0"
       style="fill:#f4e3d7;stroke-width:3"
       d="M 100 60 L 100 80 L 100 100 L 120 100 L 120 80 L 120 60 L 100 60 z "
       transform="matrix(0.26458333,0,0,0.26458333,79.374986,-127)" />
    <path
       id="rect25305-2"
       style="fill:#f4e3d7;stroke-width:0.79375"
       d="m 116.41666,-116.41666 h 5.29167 v 5.29166 h -5.29167 z" />
    <path
       id="rect25305-7"
       style="fill:#f4e3d7;stroke-width:0.79375"
       d="m 121.70832,-116.41666 h 5.29167 v 5.29166 h -5.29167 z" />
    <path
       id="rect25305-9"
       style="fill:#f4e3d7;stroke-width:0.79375"
       d="m 121.70832,-121.70833 h 5.29167 v 5.29166 h -5.29167 z" />
    <path
       id="rect25305-1"
       style="fill:#f4e3d7;stroke-width:0.79375"
       d="m 126.99999,-121.70833 h 5.29167 v 5.29166 h -5.29167 z" />
    <path
       id="rect25305-96"
       style="fill:#f4e3d7;stroke-width:3"
       d="M 220 20 L 220 40 L 200 40 L 200 60 L 220 60 L 240 60 L 260 60 L 260 40 L 240 40 L 240 20 L 220 20 z "
       transform="matrix(0.26458333,0,0,0.26458333,79.374986,-127)" />
    <path
       id="rect25305-4"
       style="fill:#f4e3d7;stroke-width:0.79375"
       d="m 142.87499,-105.83333 h 5.29167 v 5.29166 h -5.29167 z" />
    <path
       id="rect25305-66"
       style="fill:#f4e3d7;stroke-width:0.79375"
       d="m 137.58332,-100.54166 h 5.29167 v 5.291657 h -5.29167 z" />
    <path
       id="rect25305-72"
       style="fill:#f4e3d7;stroke-width:0.79375"
       d="m 142.87499,-95.249996 h 5.29167 v 5.29166 h -5.29167 z" />
    <path
       id="rect25305-74"
       style="fill:#f4e3d7;stroke-width:3"
       d="M 180 140 L 180 160 L 160 160 L 140 160 L 140 180 L 160 180 L 180 180 L 200 180 L 220 180 L 220 160 L 240 160 L 240 140 L 220 140 L 200 140 L 180 140 z "
       transform="matrix(0.26458333,0,0,0.26458333,79.374986,-127)" />
    <path
       id="rect25305-79"
       style="fill:#f4e3d7;stroke-width:3"
       d="M 100 120 L 100 140 L 120 140 L 140 140 L 160 140 L 180 140 L 180 120 L 160 120 L 140 120 L 120 120 L 100 120 z "
       transform="matrix(0.26458333,0,0,0.26458333,79.374986,-127)" />
    <path
       id="rect25305-21"
       style="fill:#f4e3d7;stroke-width:3"
       d="M 120 180 L 120 200 L 100 200 L 100 220 L 120 220 L 120 240 L 140 240 L 140 260 L 160 260 L 160 240 L 160 220 L 180 220 L 180 200 L 160 200 L 140 200 L 140 180 L 120 180 z "
       transform="matrix(0.26458333,0,0,0.26458333,79.374986,-127)" />
    <path
       id="rect25305-59"
       style="fill:#f4e3d7;stroke-width:0.79375"
       d="m 137.58332,-79.374996 h 5.29167 v 5.29166 h -5.29167 z" />
    <path
       id="rect25305-76"
       style="fill:#f4e3d7;stroke-width:0.79375"
       d="m 116.41666,-68.791663 h 5.29167 v 5.29166 h -5.29167 z" />
    <path
       id="rect25305-064"
       style="fill:#f4e3d7;stroke-width:3"
       d="M 180 220 L 180 240 L 180 260 L 180 280 L 200 280 L 200 260 L 220 260 L 220 240 L 240 240 L 240 220 L 220 220 L 200 220 L 180 220 z "
       transform="matrix(0.26458333,0,0,0.26458333,79.374986,-127)" />
    <path
       id="rect25305-38"
       style="fill:#f4e3d7;stroke-width:3"
       d="M 260 220 L 260 240 L 240 240 L 240 260 L 260 260 L 280 260 L 280 240 L 280 220 L 260 220 z "
       transform="matrix(0.26458333,0,0,0.26458333,79.374986,-127)" />
    <path
       id="rect25305-18"
       style="fill:#f4e3d7;stroke-width:3"
       d="M 60 220 L 60 240 L 80 240 L 80 260 L 100 260 L 100 280 L 120 280 L 140 280 L 140 260 L 120 260 L 120 240 L 100 240 L 100 220 L 80 220 L 60 220 z "
       transform="matrix(0.26458333,0,0,0.26458333,79.374986,-127)" />
    <path
       id="rect25305-48"
       style="fill:#f4e3d7;stroke-width:3"
       d="M 20 220 L 20 240 L 20 260 L 20 280 L 40 280 L 40 260 L 60 260 L 60 240 L 40 240 L 40 220 L 20 220 z "
       transform="matrix(0.26458333,0,0,0.26458333,79.374986,-127)" />
    <path
       id="rect25305-94"
       style="fill:#f4e3d7;stroke-width:3"
       d="M 140 280 L 140 300 L 120 300 L 120 320 L 120 340 L 140 340 L 160 340 L 160 320 L 180 320 L 200 320 L 220 320 L 240 320 L 240 300 L 240 280 L 220 280 L 200 280 L 200 300 L 180 300 L 180 280 L 160 280 L 140 280 z "
       transform="matrix(0.26458333,0,0,0.26458333,79.374986,-127)" />
    <path
       id="rect25305-30"
       style="fill:#f4e3d7;stroke-width:3"
       d="M 160 340 L 160 360 L 140 360 L 120 360 L 100 360 L 100 380 L 100 400 L 120 400 L 140 400 L 160 400 L 160 380 L 180 380 L 200 380 L 220 380 L 240 380 L 240 360 L 240 340 L 220 340 L 200 340 L 180 340 L 160 340 z "
       transform="matrix(0.26458333,0,0,0.26458333,79.374986,-127)" />
    <path
       id="rect25305-387"
       style="fill:#f4e3d7;stroke-width:3"
       d="M 100 420 L 100 440 L 100 460 L 120 460 L 140 460 L 140 440 L 140 420 L 120 420 L 100 420 z "
       transform="matrix(0.26458333,0,0,0.26458333,79.374986,-127)" />
    <path
       id="rect25305-08"
       style="fill:#f4e3d7;stroke-width:3"
       d="M 80 480 L 80 500 L 100 500 L 120 500 L 140 500 L 140 480 L 120 480 L 100 480 L 80 480 z "
       transform="matrix(0.26458333,0,0,0.26458333,79.374986,-127)" />
    <path
       id="rect25305-50"
       style="fill:#f4e3d7;stroke-width:3"
       d="M 240 380 L 240 400 L 220 400 L 220 420 L 220 440 L 240 440 L 260 440 L 260 420 L 260 400 L 260 380 L 240 380 z "
       transform="matrix(0.26458333,0,0,0.26458333,79.374986,-127)" />
    <path
       id="rect25305-78"
       style="fill:#f4e3d7;stroke-width:3"
       d="M 220 460 L 220 480 L 200 480 L 200 500 L 220 500 L 240 500 L 260 500 L 260 480 L 260 460 L 240 460 L 220 460 z "
       transform="matrix(0.26458333,0,0,0.26458333,79.374986,-127)" />
  </g>
</svg>
