<?xml version="1.0" encoding="UTF-8" standalone="no"?>
<!-- Created with Inkscape (http://www.inkscape.org/) -->

<svg
   width="170"
   height="230"
   viewBox="0 0 44.979172 60.854167"
   version="1.1"
   id="svg5"
   inkscape:version="1.1 (ce6663b3b7, 2021-05-25)"
   sodipodi:docname="note-orange.svg"
   xmlns:inkscape="http://www.inkscape.org/namespaces/inkscape"
   xmlns:sodipodi="http://sodipodi.sourceforge.net/DTD/sodipodi-0.dtd"
   xmlns="http://www.w3.org/2000/svg"
   xmlns:svg="http://www.w3.org/2000/svg">
  <sodipodi:namedview
     id="namedview7"
     pagecolor="#ffffff"
     bordercolor="#666666"
     borderopacity="1.0"
     inkscape:pageshadow="2"
     inkscape:pageopacity="0.0"
     inkscape:pagecheckerboard="0"
     inkscape:document-units="mm"
     showgrid="true"
     width="110.00001px"
     units="px"
     borderlayer="true"
     inkscape:showpageshadow="false"
     scale-x="1"
     inkscape:snap-bbox="true"
     inkscape:bbox-nodes="true"
     inkscape:zoom="4"
     inkscape:cx="47.625"
     inkscape:cy="120.125"
     inkscape:window-width="1848"
     inkscape:window-height="1016"
     inkscape:window-x="72"
     inkscape:window-y="27"
     inkscape:window-maximized="1"
     inkscape:current-layer="layer1"
     fit-margin-top="0"
     fit-margin-left="0"
     fit-margin-right="0"
     fit-margin-bottom="0"
     height="200px"
     showguides="true">
    <inkscape:grid
       type="xygrid"
       id="grid9"
       empspacing="1"
       spacingy="2.6458335"
       spacingx="2.6458335"
       dotted="true"
       originx="-21.166672"
       originy="5.2916664"
       visible="true"
       enabled="true" />
  </sodipodi:namedview>
  <defs
     id="defs2" />
  <g
     inkscape:label="Layer 1"
     inkscape:groupmode="layer"
     id="layer1"
     transform="translate(-21.166667,5.2916665)">
    <path
       id="rect2750-3"
       style="stroke-width:0.999999"
       d="m 60,170 v 10 h 10 10 10 10 10 10 10 10 V 170 H 130 120 110 100 90 80 70 Z"
       transform="matrix(0.26458333,0,0,0.26458333,10.583334,7.9375)" />
    <path
       id="rect2750-2"
       style="stroke-width:0.264583"
       d="m 47.625001,50.270836 h 2.645834 v 2.645833 h -2.645834 z" />
    <path
       id="rect2750-70"
       style="stroke-width:0.999999"
       d="m 150,120 v 10 10 10 10 h 10 v -10 -10 -10 -10 z"
       transform="matrix(0.26458333,0,0,0.26458333,10.583334,7.9375)" />
    <path
       id="rect2750-79"
       style="stroke-width:0.999999"
       d="m 140,-10 v 10 10 10 10 10 10 10 10 10 10 10 10 10 h 10 V 110 100 90 80 70 60 50 40 30 20 10 0 h 10 v -10 h -10 z"
       transform="matrix(0.26458333,0,0,0.26458333,10.583334,7.9375)" />
    <path
       id="rect2750-75"
       style="stroke-width:0.999999"
       d="m 120,-50 v 10 10 10 10 10 10 10 10 10 10 10 10 10 10 10 H 110 100 90 80 70 60 v 10 h 10 10 10 10 10 10 10 V 100 90 80 70 60 50 40 30 20 10 0 -10 -20 -30 -40 h 10 v -10 h -10 z"
       transform="matrix(0.26458333,0,0,0.26458333,10.583334,7.9375)" />
    <path
       id="rect2750-615"
       style="stroke-width:0.264583"
       d="m 52.916671,7.9374952 h 2.645834 v 2.6458318 h -2.645834 z" />
    <path
       id="rect2750-77"
       style="stroke-width:0.999999"
       d="M 200,-10 V 0 10 20 30 40 50 h 10 V 40 30 20 10 0 -10 Z"
       transform="matrix(0.26458333,0,0,0.26458333,10.583334,7.9375)" />
    <path
       id="rect2750-48"
       style="stroke-width:0.264583"
       d="m 60.854171,2.6458302 h 2.645834 v 2.6458315 h -2.645834 z" />
    <path
       id="rect2750-129"
       style="stroke-width:0.999999"
       d="m 170,-30 v 10 h 10 10 v -10 h -10 z"
       transform="matrix(0.26458333,0,0,0.26458333,10.583334,7.9375)" />
    <path
       id="rect2750-08"
       style="stroke-width:0.999999"
       d="m 140,-40 v 10 h 10 10 10 v -10 h -10 -10 z"
       transform="matrix(0.26458333,0,0,0.26458333,10.583334,7.9375)" />
    <path
       id="rect2750"
       style="stroke-width:0.264583"
       d="m 23.812499,50.270836 h 2.645834 v 2.645833 h -2.645834 z" />
    <path
       id="rect2750-56"
       style="stroke-width:0.264583"
       d="m 23.812499,37.041669 h 2.645834 v 2.645833 h -2.645834 z" />
    <path
       id="rect2750-115"
       style="stroke-width:0.999999"
       d="m 40,120 v 10 10 10 10 h 10 v -10 -10 -10 -10 z"
       transform="matrix(0.26458333,0,0,0.26458333,10.583334,7.9375)" />
    <path
       id="rect6181"
       style="fill:#ff6f0f;fill-opacity:1;stroke-width:0.999999"
       d="m 70,120 v 10 h 10 v -10 z m 0,10 H 60 v 10 10 h 10 v -10 z m 0,20 v 10 h 10 v -10 z"
       transform="matrix(0.26458333,0,0,0.26458333,10.583334,7.9375)" />
    <path
       id="rect6181-5"
       style="fill:#f56200;fill-opacity:1;stroke-width:0.999999"
       d="m 60,110 v 10 H 50 v 10 10 10 10 h 10 v 10 H 70 80 V 160 H 70 V 150 H 60 V 140 130 H 70 V 120 H 80 V 110 H 70 Z"
       transform="matrix(0.26458333,0,0,0.26458333,10.583334,7.9375)" />
    <path
       id="rect6181-4"
       style="fill:#ff7f2a;stroke-width:0.999999;fill-opacity:1"
       d="m 80,110 v 10 10 H 70 v 10 10 h 10 v 10 10 h 10 10 10 10 10 v -10 h -10 v -10 h 10 V 140 130 H 120 V 120 110 H 110 100 90 Z"
       transform="matrix(0.26458333,0,0,0.26458333,10.583334,7.9375)" />
    <path
       id="rect6181-3"
       style="fill:#ff9c5c;fill-opacity:1;stroke-width:0.999999"
       d="m 130,110 v 10 10 h 10 v 10 10 h -10 v 10 10 h 10 v -10 h 10 v -10 -10 -10 -10 h -10 v -10 z"
       transform="matrix(0.26458333,0,0,0.26458333,10.583334,7.9375)" />
    <path
       id="rect6181-89"
       style="fill:#ff8d42;fill-opacity:1;stroke-width:0.999999"
       d="m 120,110 v 10 10 h 10 v -10 -10 z m 10,20 v 10 10 h 10 v -10 -10 z m 0,20 h -10 v 10 h 10 z"
       transform="matrix(0.26458333,0,0,0.26458333,10.583334,7.9375)" />
    <path
       id="rect6181-80"
       style="fill:#ff9c5c;fill-opacity:1;stroke-width:0.264583"
       d="m 44.979172,34.395833 h 2.645833 v 2.645833 h -2.645833 z" />
    <path
       id="rect6181-56"
       style="fill:#ff6f0f;fill-opacity:1;stroke-width:0.999999"
       d="m 130,-30 v 10 10 10 10 10 10 10 10 10 10 10 10 10 h 10 V 90 80 70 60 50 40 30 20 10 0 -10 -20 -30 Z"
       transform="matrix(0.26458333,0,0,0.26458333,10.583334,7.9375)" />
    <path
       id="rect6181-960-2"
       style="fill:#f56200;fill-opacity:1;stroke-width:0.264583"
       d="m 44.979173,-2.645835 h 2.645833 V -2e-6 h -2.645833 z" />
    <path
       id="rect6181-960-64"
       style="fill:#f56200;fill-opacity:1;stroke-width:0.999999"
       d="m 140,-30 v 10 h 10 10 10 v -10 h -10 -10 z"
       transform="matrix(0.26458333,0,0,0.26458333,10.583334,7.9375)" />
    <path
       id="rect6181-15"
       style="fill:#ff7f2a;stroke-width:0.999999;fill-opacity:1"
       d="m 140,-20 v 10 h 10 10 V 0 h 10 v 10 h 10 v 10 10 10 10 h 10 V 40 30 20 10 0 -10 h -10 -10 v -10 h -10 -10 z"
       transform="matrix(0.26458333,0,0,0.26458333,10.583334,7.9375)" />
    <path
       id="rect6181-991"
       style="fill:#ff9c5c;fill-opacity:1;stroke-width:0.999999"
       d="m 170,-20 v 10 h 10 10 v -10 h -10 z m 20,10 V 0 10 20 30 40 50 h 10 V 40 30 20 10 0 -10 Z m 0,60 h -10 v 10 10 h 10 V 60 Z"
       transform="matrix(0.26458333,0,0,0.26458333,10.583334,7.9375)" />
    <path
       id="rect2750-621-0"
       style="stroke-width:0.264583"
       d="m 58.208337,26.45833 h 2.645834 v 2.645833 h -2.645834 z" />
    <path
       id="rect2750-621-09"
       style="stroke-width:0.999999"
       d="m 170,10 v 10 10 10 10 10 10 h 10 V 60 50 40 30 20 10 Z"
       transform="matrix(0.26458333,0,0,0.26458333,10.583334,7.9375)" />
    <path
       id="rect2750-621-09-5-9"
       style="stroke-width:0.999999"
       d="m 190,50 v 10 10 h 10 V 60 50 Z"
       transform="matrix(0.26458333,0,0,0.26458333,10.583334,7.9375)" />
  </g>
</svg>
