<?xml version="1.0" encoding="UTF-8" standalone="no"?>
<!-- Created with Inkscape (http://www.inkscape.org/) -->

<svg
   width="180.00002"
   height="100.00002"
   viewBox="0 0 47.625002 26.458338"
   version="1.1"
   id="svg5"
   inkscape:version="1.1 (ce6663b3b7, 2021-05-25)"
   sodipodi:docname="pig.svg"
   xmlns:inkscape="http://www.inkscape.org/namespaces/inkscape"
   xmlns:sodipodi="http://sodipodi.sourceforge.net/DTD/sodipodi-0.dtd"
   xmlns="http://www.w3.org/2000/svg"
   xmlns:svg="http://www.w3.org/2000/svg">
  <sodipodi:namedview
     id="namedview7"
     pagecolor="#ffffff"
     bordercolor="#666666"
     borderopacity="1.0"
     inkscape:pageshadow="2"
     inkscape:pageopacity="0.0"
     inkscape:pagecheckerboard="0"
     inkscape:document-units="mm"
     showgrid="true"
     width="110.00001px"
     units="px"
     borderlayer="true"
     inkscape:showpageshadow="false"
     scale-x="1"
     inkscape:snap-bbox="true"
     inkscape:bbox-nodes="true"
     inkscape:zoom="2.8284271"
     inkscape:cx="66.644815"
     inkscape:cy="81.140504"
     inkscape:window-width="1848"
     inkscape:window-height="1016"
     inkscape:window-x="72"
     inkscape:window-y="27"
     inkscape:window-maximized="1"
     inkscape:current-layer="layer1"
     fit-margin-top="0"
     fit-margin-left="0"
     fit-margin-right="0"
     fit-margin-bottom="0"
     height="200px"
     showguides="true">
    <inkscape:grid
       type="xygrid"
       id="grid9"
       empspacing="1"
       spacingy="2.6458335"
       spacingx="2.6458335"
       dotted="true"
       originx="-13.229165"
       originy="-21.166663"
       visible="true"
       enabled="true" />
  </sodipodi:namedview>
  <defs
     id="defs2">
    <inkscape:perspective
       sodipodi:type="inkscape:persp3d"
       inkscape:vp_x="0 : 5.5558316e-06 : 1"
       inkscape:vp_y="0 : 999.99994 : 0"
       inkscape:vp_z="52.916664 : 5.5558316e-06 : 1"
       inkscape:persp3d-origin="26.458332 : -8.8194379 : 1"
       id="perspective20505" />
  </defs>
  <g
     inkscape:label="Layer 1"
     inkscape:groupmode="layer"
     id="layer1"
     transform="translate(-13.229164,-21.166664)">
    <path
       id="rect3089-76-96"
       style="stroke-width:0.264583"
       d="m 13.229164,26.458333 h 2.645834 v 2.645833 h -2.645834 z" />
    <path
       id="rect3089-76-38"
       style="stroke-width:0.264583"
       d="m 13.229164,29.104167 h 2.645834 V 31.75 h -2.645834 z" />
    <path
       id="rect3089-76-56"
       style="stroke-width:0.264583"
       d="m 13.229164,31.75 h 2.645834 v 2.645833 h -2.645834 z" />
    <path
       id="rect3089-76-115"
       style="stroke-width:0.264583"
       d="m 13.229164,34.395834 h 2.645834 v 2.645833 h -2.645834 z" />
    <path
       id="rect3089-76-98"
       style="stroke-width:0.264583"
       d="m 13.229164,34.395834 h 2.645834 v 2.645833 h -2.645834 z" />
    <path
       id="rect3089-76-48"
       style="stroke-width:0.264583"
       d="m 13.229164,37.041668 h 2.645834 v 2.645833 h -2.645834 z" />
    <path
       id="rect3089-76-76"
       style="stroke-width:0.264583"
       d="m 18.520831,21.166664 h 2.645834 v 2.645833 h -2.645834 z" />
    <path
       id="rect3089-76-31"
       style="stroke-width:0.264583"
       d="m 21.166664,21.166664 h 2.645834 v 2.645833 h -2.645834 z" />
    <path
       id="rect3089-76-75"
       style="stroke-width:0.264583"
       d="m 23.812498,23.812497 h 2.645833 v -2.645833 h -2.645834 z" />
    <path
       id="rect3089-76-962"
       style="stroke-width:0.264583"
       d="m 26.458331,21.166664 h 2.645834 v 2.645833 h -2.645834 z" />
    <path
       id="rect3089-76-17"
       style="stroke-width:0.264583"
       d="m 29.104165,21.166664 h 2.645833 v 2.645833 h -2.645834 z" />
    <path
       id="rect3089-76-85"
       style="stroke-width:0.264583"
       d="m 29.104165,21.166664 h 2.645833 v 2.645833 h -2.645834 z" />
    <path
       id="rect3089-76-741"
       style="stroke-width:0.264583"
       d="m 31.749998,21.166664 h 2.645834 v 2.645833 h -2.645834 z" />
    <path
       id="rect3089-76-859"
       style="stroke-width:0.264583"
       d="m 34.395831,21.166664 h 2.645834 v 2.645833 h -2.645834 z" />
    <path
       id="rect3089-76-753"
       style="stroke-width:0.264583"
       d="m 34.395831,21.166664 h 2.645834 v 2.645833 h -2.645834 z" />
    <path
       id="rect3089-76-88"
       style="stroke-width:0.264583"
       d="m 39.687499,21.166664 h 2.645833 v 2.645833 h -2.645834 z" />
    <path
       id="rect3089-76-318"
       style="stroke-width:0.264583"
       d="m 37.041665,21.166664 h 2.645834 v 2.645833 h -2.645834 z" />
    <path
       id="rect3089-76-964"
       style="stroke-width:0.264583"
       d="m 39.687499,21.166664 h 2.645833 v 2.645833 h -2.645834 z" />
    <path
       id="rect3089-76-33"
       style="stroke-width:0.264583"
       d="M 44.979166,21.166664 H 47.625 v 2.645833 h -2.645834 z" />
    <path
       id="rect3089-76-386"
       style="stroke-width:0.264583"
       d="m 47.624999,21.166664 h 2.645834 v 2.645833 h -2.645834 z" />
    <path
       id="rect3089-76-048"
       style="stroke-width:0.264583"
       d="m 42.333332,21.166664 h 2.645834 v 2.645833 h -2.645834 z" />
    <path
       id="rect3089-76-889"
       style="stroke-width:0.264583"
       d="m 50.270833,21.166664 h 2.645834 v 2.645833 h -2.645834 z" />
    <path
       id="rect3089-76-337"
       style="stroke-width:0.264583"
       d="m 18.520831,42.333334 h 2.645834 v 2.645833 h -2.645834 z" />
    <path
       id="rect3089-76-79"
       style="stroke-width:0.264583"
       d="m 29.104165,42.333334 h 2.645833 v 2.645833 h -2.645834 z" />
    <path
       id="rect3089-76-60"
       style="stroke-width:0.264583"
       d="m 31.749998,42.333334 h 2.645834 v 2.645833 h -2.645834 z" />
    <path
       id="rect3089-76-41"
       style="stroke-width:0.264583"
       d="m 34.395831,42.333334 h 2.645834 v 2.645833 h -2.645834 z" />
    <path
       id="rect3089-76-0487"
       style="stroke-width:0.264583"
       d="m 37.041665,42.333334 h 2.645834 v 2.645833 h -2.645834 z" />
    <path
       id="rect3089-76-08"
       style="stroke-width:0.264583"
       d="m 39.687499,42.333334 h 2.645833 v 2.645833 h -2.645834 z" />
    <path
       id="rect3089-76-62"
       style="stroke-width:0.264583"
       d="m 42.333332,42.333334 h 2.645834 v 2.645833 h -2.645834 z" />
    <path
       id="rect3089-76-47"
       style="stroke-width:0.264583"
       d="M 44.979166,42.333334 H 47.625 v 2.645833 h -2.645834 z" />
    <path
       id="rect3089-76-92"
       style="stroke-width:0.264583"
       d="m 47.624999,42.333334 h 2.645834 v 2.645833 h -2.645834 z" />
    <path
       id="rect3089-76-83"
       style="stroke-width:0.264583"
       d="m 50.270833,42.333334 h 2.645834 v 2.645833 h -2.645834 z" />
    <path
       id="rect3089-76-789-82"
       style="stroke-width:0.264583"
       d="m 21.166664,42.333334 h 2.645834 v 2.645833 h -2.645834 z" />
    <path
       id="rect3089-76-789-5"
       style="stroke-width:0.264583"
       d="m 26.458331,42.333334 h 2.645834 v 2.645833 h -2.645834 z" />
    <path
       id="rect3089-76-789"
       style="stroke-width:0.264583"
       d="m 23.812497,44.979168 h 2.645834 v 2.645833 h -2.645834 z" />
    <path
       id="rect3089-76-789-3"
       style="stroke-width:0.264583"
       d="m 23.812497,42.333334 h 2.645834 v 2.645833 h -2.645834 z" />
    <path
       id="rect3089-76-789-4"
       style="stroke-width:0.264583"
       d="m 44.979165,44.979168 h 2.645834 v 2.645833 h -2.645834 z" />
    <path
       id="rect3089-76-789-0"
       style="stroke-width:0.264583"
       d="m 58.208333,29.104166 h 2.645834 v 2.645833 h -2.645834 z" />
    <path
       id="rect3089-76-789-6"
       style="stroke-width:0.264583"
       d="m 58.208333,34.395833 h 2.645834 v 2.645833 h -2.645834 z" />
    <path
       id="rect3089-76-789-21"
       style="stroke-width:0.264583"
       d="m 58.208333,31.749999 h 2.645834 v 2.645833 h -2.645834 z" />
    <path
       id="rect13939"
       style="fill:#c87137;stroke-width:0.264583"
       d="m 23.8125,31.750002 h 2.645833 v 2.645833 H 23.8125 Z" />
    <path
       id="rect13939-5"
       style="fill:#c87137;stroke-width:0.264583"
       d="m 15.874999,26.458336 h 2.645833 v 2.645833 h -2.645833 z" />
    <path
       id="rect13939-8"
       style="fill:#9f5a2d;fill-opacity:1;stroke-width:0.264583"
       d="m 15.874999,29.104169 h 2.645833 v 2.645833 h -2.645833 z" />
    <path
       id="rect13939-2"
       style="fill:#9f5a2d;fill-opacity:1;stroke-width:0.264583"
       d="m 15.874999,31.750002 h 2.645833 v 2.645833 h -2.645833 z" />
    <path
       id="rect13939-6"
       style="fill:#9f5a2d;fill-opacity:1;stroke-width:0.264583"
       d="m 15.874999,34.395837 h 2.645833 v 2.645832 h -2.645833 z" />
    <path
       id="rect13939-0"
       style="fill:#9f5a2d;fill-opacity:1;stroke-width:0.264583"
       d="m 15.874999,37.04167 h 2.645833 v 2.645833 h -2.645833 z" />
    <path
       id="rect13939-66"
       style="fill:#000000;fill-opacity:1;stroke-width:0.264583"
       d="m 15.874999,39.687503 h 2.645833 v 2.645834 h -2.645833 z" />
    <path
       id="rect13939-4"
       style="fill:#9f5a2d;fill-opacity:1;stroke-width:0.264583"
       d="m 18.520833,39.687503 h 2.645833 v 2.645834 h -2.645833 z" />
    <path
       id="rect13939-62"
       style="fill:#b36432;fill-opacity:1;stroke-width:0.264583"
       d="m 18.520833,34.395837 h 2.645833 v 2.645832 h -2.645833 z" />
    <path
       id="rect13939-89"
       style="fill:#b36432;fill-opacity:1;stroke-width:0.264583"
       d="m 18.520833,37.04167 h 2.645833 v 2.645833 h -2.645833 z" />
    <path
       id="rect13939-60"
       style="fill:#b36432;fill-opacity:1;stroke-width:0.264583"
       d="m 18.520833,31.750002 h 2.645833 v 2.645833 h -2.645833 z" />
    <path
       id="rect13939-7"
       style="fill:#b36432;fill-opacity:1;stroke-width:0.264583"
       d="m 18.520833,29.104169 h 2.645833 v 2.645833 h -2.645833 z" />
    <path
       id="rect13939-01"
       style="fill:#9f5a2d;fill-opacity:1;stroke-width:0.264583"
       d="m 15.874999,26.458336 h 2.645833 v 2.645833 h -2.645833 z" />
    <path
       id="rect13939-01-7"
       style="fill:#000000;fill-opacity:1;stroke-width:0.264583"
       d="m 15.874999,23.812502 h 2.645833 v 2.645833 h -2.645833 z" />
    <path
       id="rect13939-01-6"
       style="fill:#c87137;stroke-width:0.264583"
       d="m 18.520833,23.812502 h 2.645833 v 2.645833 h -2.645833 z" />
    <path
       id="rect13939-01-5"
       style="fill:#c87137;stroke-width:0.264583"
       d="m 21.166666,23.812502 h 2.645833 v 2.645833 h -2.645833 z" />
    <path
       id="rect13939-01-71"
       style="fill:#c87137;stroke-width:0.264583"
       d="m 23.8125,23.812502 h 2.645833 v 2.645833 H 23.8125 Z" />
    <path
       id="rect13939-01-3"
       style="fill:#c87137;stroke-width:0.264583"
       d="m 26.458333,23.812502 h 2.645833 v 2.645833 h -2.645833 z" />
    <path
       id="rect13939-01-33"
       style="fill:#b06431;fill-opacity:1;stroke-width:0.264583"
       d="M 29.104167,23.812502 H 31.75 v 2.645833 h -2.645833 z" />
    <path
       id="rect13939-01-8"
       style="fill:#c87137;stroke-width:0.264583"
       d="m 31.75,23.812502 h 2.645833 v 2.645833 H 31.75 Z" />
    <path
       id="rect13939-01-51"
       style="fill:#c87137;stroke-width:0.264583"
       d="m 34.395834,23.812502 h 2.645833 v 2.645833 h -2.645833 z" />
    <path
       id="rect13939-01-0"
       style="fill:#c87137;stroke-width:0.264583"
       d="M 37.041667,23.812502 H 39.6875 v 2.645833 h -2.645833 z" />
    <path
       id="rect13939-01-87"
       style="fill:#b46632;fill-opacity:1;stroke-width:0.264583"
       d="m 39.687501,23.812502 h 2.645833 v 2.645833 h -2.645833 z" />
    <path
       id="rect13939-01-63"
       style="fill:#b46632;fill-opacity:1;stroke-width:0.264583"
       d="m 42.333334,23.812502 h 2.645833 v 2.645833 h -2.645833 z" />
    <path
       id="rect13939-01-50"
       style="fill:#b46632;fill-opacity:1;stroke-width:0.264583"
       d="m 44.979168,23.812502 h 2.645833 v 2.645833 h -2.645833 z" />
    <path
       id="rect13939-01-80"
       style="fill:#b46632;fill-opacity:1;stroke-width:0.264583"
       d="m 47.625001,23.812502 h 2.645833 v 2.645833 h -2.645833 z" />
    <path
       id="rect13939-01-80-0"
       style="fill:#c86f37;fill-opacity:1;stroke-width:0.264583"
       d="m 47.625001,26.458335 h 2.645833 v 2.645833 h -2.645833 z" />
    <path
       id="rect13939-01-80-08"
       style="fill:#c86f37;fill-opacity:1;stroke-width:0.264583"
       d="M 44.979167,31.750002 H 47.625 v 2.645833 h -2.645833 z" />
    <path
       id="rect13939-01-80-08-2"
       style="fill:#c86f37;fill-opacity:1;stroke-width:0.264583"
       d="M 44.979167,29.104169 H 47.625 v 2.645833 h -2.645833 z" />
    <path
       id="rect13939-01-80-08-2-2"
       style="fill:#c86f37;fill-opacity:1;stroke-width:0.264583"
       d="M 44.979167,26.458336 H 47.625 v 2.645833 h -2.645833 z" />
    <path
       id="rect13939-01-4"
       style="fill:#b46632;fill-opacity:1;stroke-width:0.264583"
       d="m 50.270835,23.812502 h 2.645833 v 2.645833 h -2.645833 z" />
    <path
       id="rect13939-01-1"
       style="fill:#c87137;stroke-width:0.264583"
       d="m 52.916668,23.812502 h 2.645833 v 2.645833 h -2.645833 z" />
    <path
       id="rect3089-76-789-20-5-1"
       style="stroke-width:0.264583"
       d="m 52.916665,23.812499 h 2.645834 v 2.645833 h -2.645834 z" />
    <path
       id="rect13939-013"
       style="fill:#c87137;stroke-width:0.264583"
       d="m 18.520833,26.458336 h 2.645833 v 2.645833 h -2.645833 z" />
    <path
       id="rect13939-77"
       style="fill:#c87137;stroke-width:0.264583"
       d="m 21.166666,26.458336 h 2.645833 v 2.645833 h -2.645833 z" />
    <path
       id="rect13939-26"
       style="fill:#c87137;stroke-width:0.264583"
       d="m 21.166666,29.104169 h 2.645833 v 2.645833 h -2.645833 z" />
    <path
       id="rect13939-45"
       style="fill:#c87137;stroke-width:0.264583"
       d="m 21.166666,31.750002 h 2.645833 v 2.645833 h -2.645833 z" />
    <path
       id="rect13939-20"
       style="fill:#b36432;fill-opacity:1;stroke-width:0.264583"
       d="m 21.166666,34.395837 h 2.645833 v 2.645832 h -2.645833 z" />
    <path
       id="rect13939-29"
       style="fill:#b46732;fill-opacity:1;stroke-width:0.264583"
       d="m 21.166666,37.04167 h 2.645833 v 2.645833 h -2.645833 z" />
    <path
       id="rect13939-09"
       style="fill:#9f5a2d;fill-opacity:1;stroke-width:0.264583"
       d="m 21.166666,39.687503 h 2.645833 v 2.645834 h -2.645833 z" />
    <path
       id="rect13939-9"
       style="fill:#b36432;fill-opacity:1;stroke-width:0.264583"
       d="m 23.8125,39.687503 h 2.645833 v 2.645834 H 23.8125 Z" />
    <path
       id="rect13939-451"
       style="fill:#c87137;stroke-width:0.264583"
       d="m 23.8125,34.395837 h 2.645833 v 2.645832 H 23.8125 Z" />
    <path
       id="rect13939-03"
       style="fill:#b36432;fill-opacity:1;stroke-width:0.264583"
       d="m 23.8125,37.04167 h 2.645833 v 2.645833 H 23.8125 Z" />
    <path
       id="rect13939-78"
       style="fill:#c87137;stroke-width:0.264583"
       d="m 23.8125,29.104169 h 2.645833 v 2.645833 H 23.8125 Z" />
    <path
       id="rect13939-86"
       style="fill:#c87137;stroke-width:0.264583"
       d="m 23.8125,26.458336 h 2.645833 v 2.645833 H 23.8125 Z" />
    <path
       id="rect13939-04"
       style="fill:#c87137;stroke-width:0.264583"
       d="m 26.458333,26.458336 h 2.645833 v 2.645833 h -2.645833 z" />
    <path
       id="rect13939-67"
       style="fill:#c87137;stroke-width:0.264583"
       d="m 26.458333,29.104169 h 2.645833 v 2.645833 h -2.645833 z" />
    <path
       id="rect13939-609"
       style="fill:#c87137;stroke-width:0.264583"
       d="m 26.458333,31.750002 h 2.645833 v 2.645833 h -2.645833 z" />
    <path
       id="rect13939-75"
       style="fill:#c87137;stroke-width:0.264583"
       d="m 26.458333,34.395837 h 2.645833 v 2.645832 h -2.645833 z" />
    <path
       id="rect13939-97"
       style="fill:#c87137;stroke-width:0.264583"
       d="m 26.458333,37.04167 h 2.645833 v 2.645833 h -2.645833 z" />
    <path
       id="rect13939-85"
       style="fill:#b36432;fill-opacity:1;stroke-width:0.264583"
       d="m 26.458333,39.687503 h 2.645833 v 2.645834 h -2.645833 z" />
    <path
       id="rect13939-3"
       style="fill:#b06431;fill-opacity:1;stroke-width:0.264583"
       d="M 29.104167,26.458336 H 31.75 v 2.645833 h -2.645833 z" />
    <path
       id="rect13939-38"
       style="fill:#c87137;stroke-width:0.264583"
       d="M 29.104167,31.750002 H 31.75 v -2.645833 h -2.645833 z" />
    <path
       id="rect13939-37"
       style="fill:#c87137;stroke-width:0.264583"
       d="M 29.104167,31.750002 H 31.75 v 2.645833 h -2.645833 z" />
    <path
       id="rect13939-93"
       style="fill:#c87137;stroke-width:0.264583"
       d="M 29.104167,34.395837 H 31.75 v 2.645832 h -2.645833 z" />
    <path
       id="rect13939-787"
       style="fill:#c87137;stroke-width:0.264583"
       d="M 29.104167,37.04167 H 31.75 v 2.645833 h -2.645833 z" />
    <path
       id="rect13939-41"
       style="fill:#b36432;fill-opacity:1;stroke-width:0.264583"
       d="M 29.104167,39.687503 H 31.75 v 2.645834 h -2.645833 z" />
    <path
       id="rect13939-90"
       style="fill:#b06431;fill-opacity:1;stroke-width:0.264583"
       d="m 31.75,26.458336 h 2.645833 v 2.645833 H 31.75 Z" />
    <path
       id="rect13939-98"
       style="fill:#b06431;fill-opacity:1;stroke-width:0.264583"
       d="m 31.75,29.104169 h 2.645833 v 2.645833 H 31.75 Z" />
    <path
       id="rect13939-858"
       style="fill:#b06431;fill-opacity:1;stroke-width:0.264583"
       d="m 31.75,34.395835 h 2.645833 V 31.750002 H 31.75 Z" />
    <path
       id="rect13939-43"
       style="fill:#c87137;stroke-width:0.264583"
       d="m 31.75,34.395837 h 2.645833 v 2.645832 H 31.75 Z" />
    <path
       id="rect13939-71"
       style="fill:#c87137;stroke-width:0.264583"
       d="m 31.75,37.04167 h 2.645833 v 2.645833 H 31.75 Z" />
    <path
       id="rect13939-380"
       style="fill:#c87137;stroke-width:0.264583"
       d="m 34.395834,39.687503 h 2.645833 v 2.645834 h -2.645833 z" />
    <path
       id="rect13939-979"
       style="fill:#c87137;stroke-width:0.264583"
       d="m 31.75,39.687503 h 2.645833 v 2.645834 H 31.75 Z" />
    <path
       id="rect13939-932"
       style="fill:#c87137;stroke-width:0.264583"
       d="m 34.395834,26.458336 h 2.645833 v 2.645833 h -2.645833 z" />
    <path
       id="rect13939-437"
       style="fill:#c87137;stroke-width:0.264583"
       d="m 34.395834,29.104169 h 2.645833 v 2.645833 h -2.645833 z" />
    <path
       id="rect13939-437-2"
       style="fill:#c87137;stroke-width:0.264583"
       d="m 37.041668,29.104169 h 2.645833 v 2.645833 h -2.645833 z" />
    <path
       id="rect13939-437-7"
       style="fill:#c87137;stroke-width:0.264583"
       d="m 37.041668,26.458336 h 2.645833 v 2.645833 h -2.645833 z" />
    <path
       id="rect13939-1"
       style="fill:#b06431;fill-opacity:1;stroke-width:0.264583"
       d="m 34.395834,31.750002 h 2.645833 v 2.645833 h -2.645833 z" />
    <path
       id="rect13939-22"
       style="fill:#b06431;fill-opacity:1;stroke-width:0.264583"
       d="m 34.395834,34.395837 h 2.645833 v 2.645832 h -2.645833 z" />
    <path
       id="rect13939-02"
       style="fill:#b06431;fill-opacity:1;stroke-width:0.264583"
       d="m 34.395834,37.04167 h 2.645833 v 2.645833 h -2.645833 z" />
    <path
       id="rect13939-17"
       style="fill:#b06431;fill-opacity:1;stroke-width:0.264583"
       d="M 37.041667,39.687503 H 39.6875 v 2.645834 h -2.645833 z" />
    <path
       id="rect13939-51"
       style="fill:#b06431;fill-opacity:1;stroke-width:0.264583"
       d="M 37.041667,37.04167 H 39.6875 v 2.645833 h -2.645833 z" />
    <path
       id="rect13939-74"
       style="fill:#c87137;stroke-width:0.264583"
       d="M 37.041667,34.395837 H 39.6875 v 2.645832 h -2.645833 z" />
    <path
       id="rect13939-171"
       style="fill:#c87137;stroke-width:0.264583"
       d="M 37.041667,31.750002 H 39.6875 v 2.645833 h -2.645833 z" />
    <path
       id="rect13939-662"
       style="fill:#c87137;stroke-width:0.264583"
       d="m 39.687501,31.750002 h 2.645833 v 2.645833 h -2.645833 z" />
    <path
       id="rect13939-19"
       style="fill:#c87137;stroke-width:0.264583"
       d="m 39.687501,34.395837 h 2.645833 v 2.645832 h -2.645833 z" />
    <path
       id="rect13939-64"
       style="fill:#c87137;stroke-width:0.264583"
       d="m 39.687501,37.04167 h 2.645833 v 2.645833 h -2.645833 z" />
    <path
       id="rect13939-80"
       style="fill:#c87137;stroke-width:0.264583"
       d="m 39.687501,37.04167 h 2.645833 v 2.645833 h -2.645833 z" />
    <path
       id="rect13939-81"
       style="fill:#b06431;fill-opacity:1;stroke-width:0.264583"
       d="m 39.687501,39.687503 h 2.645833 v 2.645834 h -2.645833 z" />
    <path
       id="rect13939-022"
       style="fill:#c87137;stroke-width:0.264583"
       d="m 42.333334,39.687503 h 2.645833 v 2.645834 h -2.645833 z" />
    <path
       id="rect13939-975"
       style="fill:#b46532;fill-opacity:1;stroke-width:0.264583"
       d="m 44.979168,39.687503 h 2.645833 V 37.04167 h -2.645833 z" />
    <path
       id="rect13939-646"
       style="fill:#b46532;fill-opacity:1;stroke-width:0.264583"
       d="m 50.270835,42.333337 h 2.645833 v -2.645834 h -2.645833 z" />
    <path
       id="rect13939-749"
       style="fill:#b46532;fill-opacity:1;stroke-width:0.264583"
       d="m 47.625001,39.687503 h 2.645833 v 2.645834 h -2.645833 z" />
    <path
       id="rect13939-170"
       style="fill:#c87137;stroke-width:0.264583"
       d="m 44.979168,39.687503 h 2.645833 v 2.645834 h -2.645833 z" />
    <path
       id="rect13939-608"
       style="fill:#c87137;stroke-width:0.264583"
       d="m 42.333334,37.04167 h 2.645833 v 2.645833 h -2.645833 z" />
    <path
       id="rect13939-53"
       style="fill:#c87137;stroke-width:0.264583"
       d="m 42.333334,34.395837 h 2.645833 v 2.645832 h -2.645833 z" />
    <path
       id="rect13939-01-80-1"
       style="fill:#b46532;fill-opacity:1;stroke-width:0.264583"
       d="M 44.979167,34.395836 H 47.625 v 2.645833 h -2.645833 z" />
    <path
       id="rect13939-94"
       style="fill:#c87137;stroke-width:0.264583"
       d="m 42.333334,31.750002 h 2.645833 v 2.645833 h -2.645833 z" />
    <path
       id="rect13939-44"
       style="fill:#c87137;stroke-width:0.264583"
       d="m 50.270835,37.04167 h 2.645833 v 2.645833 h -2.645833 z" />
    <path
       id="rect13939-39"
       style="fill:#b46532;fill-opacity:1;stroke-width:0.264583"
       d="m 47.625001,37.04167 h 2.645833 v 2.645833 h -2.645833 z" />
    <path
       id="rect3089-76-789-20"
       style="stroke-width:0.264583"
       d="M 52.916666,29.104166 H 55.5625 v 2.645833 h -2.645834 z" />
    <path
       id="rect3089-76-789-20-3"
       style="stroke-width:0.264583"
       d="m 52.916665,34.395833 h 2.645834 v 2.645833 h -2.645834 z" />
    <path
       id="rect3089-76-789-20-5"
       style="stroke-width:0.264583"
       d="m 50.270831,37.041666 h 2.645834 v 2.645833 h -2.645834 z" />
    <path
       id="rect3089-76-789-20-5-0"
       style="stroke-width:0.264583"
       d="m 47.624998,34.395834 h 2.645834 v 2.645833 h -2.645834 z" />
    <path
       id="rect3089-76-789-20-5-7"
       style="stroke-width:0.264583"
       d="m 47.624998,31.75 h 2.645834 v 2.645833 h -2.645834 z" />
    <path
       id="rect3089-76-789-20-5-6"
       style="stroke-width:0.264583"
       d="m 47.624998,29.104166 h 2.645834 V 31.75 h -2.645834 z" />
    <path
       id="rect3089-76-789-20-5-3"
       style="stroke-width:0.264583"
       d="m 50.270831,26.458333 h 2.645834 v 2.645833 h -2.645834 z" />
    <path
       id="rect3089-76-789-20-5-5"
       style="stroke-width:0.264583"
       d="m 52.916665,39.6875 h 2.645834 v 2.645834 h -2.645834 z" />
    <path
       id="rect3089-76-789-20-5-6-1"
       style="stroke-width:0.264583"
       d="m 55.562498,37.041666 h 2.645834 V 39.6875 h -2.645834 z" />
    <path
       id="rect3089-76-789-20-5-6-0"
       style="stroke-width:0.264583"
       d="m 55.562498,26.458332 h 2.645834 v 2.645834 h -2.645834 z" />
    <path
       id="rect3089-76-789-20-5-6-4"
       style="fill:#f5c7c7;fill-opacity:1;stroke-width:0.264583"
       d="m 55.562498,31.75 h 2.645834 v 2.645834 h -2.645834 z" />
    <path
       id="rect3089-76-789-20-5-6-4-2"
       style="fill:#f5c7c7;fill-opacity:1;stroke-width:0.264583"
       d="m 55.562498,29.104166 h 2.645834 V 31.75 h -2.645834 z" />
    <path
       id="rect3089-76-789-20-5-6-4-7"
       style="fill:#f5c7c7;fill-opacity:1;stroke-width:0.264583"
       d="m 55.562498,34.395833 h 2.645834 v 2.645834 h -2.645834 z" />
    <path
       id="rect3089-76-789-20-5-6-4-4"
       style="fill:#f5c7c7;fill-opacity:1;stroke-width:0.264583"
       d="m 52.916664,31.75 h 2.645834 v 2.645834 h -2.645834 z" />
    <path
       id="rect3089-76-789-20-5-6-4-0"
       style="fill:#f5c7c7;fill-opacity:1;stroke-width:0.264583"
       d="m 52.916664,26.458332 h 2.645834 v 2.645834 h -2.645834 z" />
    <path
       id="rect3089-76-789-20-5-6-4-3"
       style="fill:#eb9e9e;fill-opacity:1;stroke-width:0.264583"
       d="m 50.270831,29.104166 h 2.645834 V 31.75 h -2.645834 z" />
    <path
       id="rect3089-76-789-20-5-6-4-28"
       style="fill:#eb9e9e;fill-opacity:1;stroke-width:0.264583"
       d="m 50.270831,31.75 h 2.645834 v 2.645834 h -2.645834 z" />
    <path
       id="rect3089-76-789-20-5-6-4-03"
       style="fill:#eb9e9e;fill-opacity:1;stroke-width:0.264583"
       d="m 50.270831,34.395833 h 2.645834 v 2.645834 h -2.645834 z" />
    <path
       id="rect3089-76-789-20-5-6-4-70"
       style="fill:#eb9e9e;fill-opacity:1;stroke-width:0.264583"
       d="m 52.916664,37.041666 h 2.645834 V 39.6875 h -2.645834 z" />
    <path
       id="rect13939-437-7-4"
       style="fill:#000000;fill-opacity:1;stroke-width:0.264583"
       d="m 39.687501,26.458336 h 2.645833 v 2.645833 h -2.645833 z" />
    <path
       id="rect13939-437-7-2"
       style="fill:#000000;fill-opacity:1;stroke-width:0.264583"
       d="m 39.687501,29.104169 h 2.645833 v 2.645833 h -2.645833 z" />
    <path
       id="rect13939-437-7-4-43"
       style="fill:#000000;fill-opacity:0;stroke-width:0.264583"
       d="m 44.979168,29.104169 h 2.645833 v 2.645833 h -2.645833 z" />
    <path
       id="rect13939-437-7-2-6-8"
       style="fill:#000000;fill-opacity:0;stroke-width:0.264583"
       d="m 42.333334,26.458336 h 2.645833 v 2.645833 h -2.645833 z" />
    <path
       id="rect13939-437-7-2-6-9"
       style="fill:#000000;fill-opacity:1;stroke-width:0.264583"
       d="m 42.333334,29.104169 h 2.645833 v 2.645833 h -2.645833 z" />
  </g>
</svg>
