<?xml version="1.0" encoding="UTF-8" standalone="no"?>
<!-- Created with Inkscape (http://www.inkscape.org/) -->

<svg
   width="240"
   height="260"
   viewBox="0 0 63.50001 68.791671"
   version="1.1"
   id="svg5"
   inkscape:version="1.1 (ce6663b3b7, 2021-05-25)"
   sodipodi:docname="ring.svg"
   xmlns:inkscape="http://www.inkscape.org/namespaces/inkscape"
   xmlns:sodipodi="http://sodipodi.sourceforge.net/DTD/sodipodi-0.dtd"
   xmlns="http://www.w3.org/2000/svg"
   xmlns:svg="http://www.w3.org/2000/svg">
  <sodipodi:namedview
     id="namedview7"
     pagecolor="#ffffff"
     bordercolor="#666666"
     borderopacity="1.0"
     inkscape:pageshadow="2"
     inkscape:pageopacity="0.0"
     inkscape:pagecheckerboard="0"
     inkscape:document-units="mm"
     showgrid="true"
     width="300px"
     units="px"
     borderlayer="true"
     inkscape:showpageshadow="false"
     scale-x="1"
     inkscape:snap-bbox="true"
     inkscape:bbox-nodes="true"
     inkscape:zoom="1.4142136"
     inkscape:cx="-50.911689"
     inkscape:cy="86.620581"
     inkscape:window-width="1848"
     inkscape:window-height="1016"
     inkscape:window-x="72"
     inkscape:window-y="27"
     inkscape:window-maximized="1"
     inkscape:current-layer="layer1"
     fit-margin-top="0"
     fit-margin-left="0"
     fit-margin-right="0"
     fit-margin-bottom="0">
    <inkscape:grid
       type="xygrid"
       id="grid9"
       empspacing="1"
       spacingy="5.2916667"
       spacingx="5.2916667"
       dotted="true"
       originx="-10.583342"
       originy="-21.16667" />
  </sodipodi:namedview>
  <defs
     id="defs2">
    <inkscape:path-effect
       effect="fill_between_many"
       method="originald"
       linkedpaths="#rect2101-45-77-4-53,0,1|#rect2101-45-77-4-53-3,0,1"
       id="path-effect8658"
       is_visible="true"
       lpeversion="0"
       join="true"
       close="true"
       autoreverse="true"
       applied="false" />
  </defs>
  <g
     inkscape:label="Layer 1"
     inkscape:groupmode="layer"
     id="layer1"
     transform="translate(-10.583332,-21.166666)">
    <path
       id="rect2101"
       style="stroke-width:0.999999"
       d="m 100,0 v 20 h 20 20 V 0 h -20 z m 40,20 v 20 h 20 V 20 Z m 20,20 v 20 20 h 20 20 V 60 H 180 V 40 Z m 40,40 v 20 h 20 V 80 Z m 20,20 v 20 20 20 20 20 h 20 v -20 -20 -20 -20 -20 z m 0,100 h -20 v 20 h 20 z m -20,20 h -20 v 20 h 20 z m -20,20 H 160 140 120 100 80 60 v 20 h 20 20 20 20 20 20 z M 60,240 V 220 H 40 v 20 z M 40,220 V 200 H 20 v 20 z M 20,200 V 180 160 140 120 100 H 0 v 20 20 20 20 20 z M 20,100 H 40 V 80 H 20 Z M 40,80 H 60 80 V 60 40 H 60 V 60 H 40 Z M 80,40 h 20 V 20 H 80 Z m 0,40 v 20 h 20 V 80 Z m 20,20 v 20 h 20 20 v -20 h -20 z m 40,0 h 20 V 80 h -20 z m 20,0 v 20 h 20 v -20 z m 20,20 v 20 20 20 h 20 v -20 -20 -20 z m 0,60 h -20 v 20 h 20 z m -20,20 H 140 120 100 80 v 20 h 20 20 20 20 z m -80,0 V 180 H 60 v 20 z M 60,180 V 160 140 120 H 40 v 20 20 20 z m 0,-60 H 80 V 100 H 60 Z m 20,0 v 20 h 20 v -20 z m 20,20 v 20 h 20 20 v -20 h -20 z m 40,0 h 20 v -20 h -20 z"
       transform="matrix(0.26458333,0,0,0.26458333,10.583332,21.166666)" />
    <path
       inkscape:original-d="M 0,0"
       inkscape:path-effect="#path-effect8658"
       d="M 0,0"
       id="path8660" />
    <path
       id="rect2101-45-77-4-53"
       style="fill:#0000ff;stroke-width:0.999999"
       d="m 100,40 v 20 20 h 20 20 V 60 40 h -20 z"
       transform="matrix(0.26458333,0,0,0.26458333,10.583332,21.166666)" />
    <path
       id="rect2101-45-77-4-53-3"
       style="fill:#0000cc;fill-opacity:1;stroke-width:0.999999"
       d="m 100,20 v 20 h 20 20 V 20 h -20 z m 40,20 v 20 20 h 20 V 60 40 Z m 0,40 h -20 -20 v 20 h 20 20 z m -40,0 V 60 40 H 80 v 20 20 z"
       transform="matrix(0.26458333,0,0,0.26458333,10.583332,21.166666)" />
    <path
       id="rect2101-45-65"
       style="fill:#ffcc00;fill-opacity:1;stroke-width:0.999999"
       d="m 60,80 v 20 H 80 V 80 Z m 100,0 v 20 h 20 V 80 Z M 60,200 v 20 20 h 20 20 20 20 20 20 v -20 -20 h -20 v 20 H 140 120 100 80 v -20 z"
       transform="matrix(0.26458333,0,0,0.26458333,10.583332,21.166666)" />
    <path
       id="rect2101-45-65-9"
       style="fill:#e5b800;fill-opacity:1;stroke-width:0.999999"
       d="m 40,80 v 20 H 20 v 20 20 20 20 20 h 20 v 20 H 60 V 200 180 H 40 V 160 140 120 H 60 V 100 80 Z"
       transform="matrix(0.26458333,0,0,0.26458333,10.583332,21.166666)" />
    <path
       id="rect2101-45-65-81"
       style="fill:#ffd633;fill-opacity:1;stroke-width:0.999999"
       d="m 180,80 v 20 20 h 20 v 20 20 20 h -20 v 20 20 h 20 v -20 h 20 V 180 160 140 120 100 H 200 V 80 Z"
       transform="matrix(0.26458333,0,0,0.26458333,10.583332,21.166666)" />
    <path
       id="rect2101-45-77-4"
       style="fill:#aa8800;stroke-width:0.999999"
       d="m 80,100 v 20 h 20 v -20 z m 20,20 v 20 h 20 20 v -20 h -20 z m 40,0 h 20 v -20 h -20 z"
       transform="matrix(0.26458333,0,0,0.26458333,10.583332,21.166666)" />
  </g>
</svg>
