<?xml version="1.0" encoding="UTF-8" standalone="no"?>
<!-- Created with Inkscape (http://www.inkscape.org/) -->

<svg
   width="680.00757"
   height="600.00055"
   viewBox="0 0 179.9187 158.75014"
   version="1.1"
   id="svg5"
   inkscape:version="1.1 (ce6663b3b7, 2021-05-25)"
   sodipodi:docname="soldier-b.svg"
   xmlns:inkscape="http://www.inkscape.org/namespaces/inkscape"
   xmlns:sodipodi="http://sodipodi.sourceforge.net/DTD/sodipodi-0.dtd"
   xmlns="http://www.w3.org/2000/svg"
   xmlns:svg="http://www.w3.org/2000/svg">
  <sodipodi:namedview
     id="namedview7"
     pagecolor="#ffffff"
     bordercolor="#666666"
     borderopacity="1.0"
     inkscape:pageshadow="2"
     inkscape:pageopacity="0.0"
     inkscape:pagecheckerboard="0"
     inkscape:document-units="mm"
     showgrid="true"
     width="300px"
     units="px"
     borderlayer="true"
     inkscape:showpageshadow="false"
     scale-x="1"
     inkscape:snap-bbox="true"
     inkscape:bbox-nodes="true"
     inkscape:zoom="0.8117387"
     inkscape:cx="271.63914"
     inkscape:cy="397.29534"
     inkscape:window-width="1848"
     inkscape:window-height="1016"
     inkscape:window-x="72"
     inkscape:window-y="27"
     inkscape:window-maximized="1"
     inkscape:current-layer="layer1"
     fit-margin-top="0"
     fit-margin-left="0"
     fit-margin-right="0"
     fit-margin-bottom="0">
    <inkscape:grid
       type="xygrid"
       id="grid9"
       empspacing="1"
       spacingy="5.2916667"
       spacingx="5.2916667"
       dotted="true"
       originx="-825.5003"
       originy="153.45848" />
  </sodipodi:namedview>
  <defs
     id="defs2" />
  <g
     inkscape:label="Layer 1"
     inkscape:groupmode="layer"
     id="layer1"
     transform="translate(-825.49992,153.4585)">
    <path
       id="rect969-177-59-4"
       style="fill:#000000;stroke-width:3"
       d="m 460.00781,20 v 20 h 20 20 V 20 h -20 z"
       transform="matrix(0.26458333,0,0,0.26458333,814.91652,-137.58334)" />
    <path
       id="rect969-03-5"
       style="fill:#000000;stroke-width:3"
       d="m 420.00781,60 v 20 20 h -20 v 20 20 h 20 v -20 h 20 20 20 20 20 V 100 80 60 h -20 v 20 20 h -20 -20 -20 V 80 60 Z"
       transform="matrix(0.26458333,0,0,0.26458333,814.91652,-137.58334)" />
    <path
       id="rect969-447-2"
       style="fill:#000000;stroke-width:3"
       d="m 380.00781,140 v 20 20 20 20 20 20 20 20 h 20 v -20 -20 -20 -20 -20 h 20 20 v -20 h -20 -20 v -20 -20 z"
       transform="matrix(0.26458333,0,0,0.26458333,814.91652,-137.58334)" />
    <path
       id="rect969-75-9"
       style="fill:#000000;stroke-width:3"
       d="m 500.00781,0 v 20 h 20 20 v 20 h 20 V 20 h 20 20 v 20 h 20 V 20 h 20 V 0 h -20 -20 -20 -20 -20 -20 z"
       transform="matrix(0.26458333,0,0,0.26458333,814.91652,-137.58334)" />
    <path
       id="rect969-96-9"
       style="fill:#000000;stroke-width:0.79375"
       d="m 989.54368,-132.29167 h -5.29167 v 5.29166 h 5.29167 z" />
    <path
       id="rect969-21-9"
       style="fill:#000000;stroke-width:0.79375"
       d="m 994.83534,-127 h -5.29167 v 5.29165 h 5.29167 z" />
    <path
       id="rect969-74-4"
       style="fill:#000000;stroke-width:3"
       d="m 560.00781,60 v 20 20 20 h 20 20 20 20 20 20 20 v 20 20 20 h -20 -20 -20 -20 -20 v 20 h 20 20 20 20 20 v 20 20 20 h 20 v -20 -20 -20 -20 -20 -20 -20 -20 h -20 V 80 60 h -20 v 20 20 h -20 -20 -20 -20 -20 V 80 60 Z"
       transform="matrix(0.26458333,0,0,0.26458333,814.91652,-137.58334)" />
    <path
       id="rect969-189-3"
       style="fill:#000000;stroke-width:3"
       d="m 640.00781,280 v 20 h 20 20 v -20 h -20 z"
       transform="matrix(0.26458333,0,0,0.26458333,814.91652,-137.58334)" />
    <path
       id="rect969-210-6"
       style="fill:#000000;stroke-width:3"
       d="m 560.00781,220 v 20 20 20 20 20 h -20 -20 -20 -20 -20 -20 -20 v 20 h 20 20 20 20 20 20 20 20 v -20 h 20 20 20 v -20 h -20 -20 -20 v -20 -20 -20 -20 z"
       transform="matrix(0.26458333,0,0,0.26458333,814.91652,-137.58334)" />
    <path
       id="rect969-943-7"
       style="fill:#000000;stroke-width:0.79375"
       d="m 931.33314,-68.79169 v 5.291667 5.291666 5.291667 5.291667 h 5.29167 v 5.291666 5.291667 h -5.29167 v 5.291669 h -5.29167 v 5.291667 h 5.29167 5.29167 5.29166 5.29167 v -5.291667 h -5.29167 v -5.291669 -5.291667 -5.291666 h 5.29167 v 5.291666 5.291667 h 5.29167 v 5.291669 5.291667 h -5.29167 v 5.29167 h 5.29167 v 5.29167 h 5.29166 v -5.29167 -5.29167 -5.291667 -5.291669 h 5.29167 5.29167 5.29166 5.29167 v 5.291669 5.291667 5.29167 5.29167 5.291666 5.2916658 5.291663963333 h -5.29167 -5.29166 -5.29167 -5.29167 -5.29166 -5.29167 -5.29167 -5.29166 -5.29167 -5.29167 -5.29166 V -5.2916822 v -5.2916658 -5.291666 -5.29167 h -5.29167 v 5.29167 5.291666 5.2916658 h -5.29166 V -1.8236667e-5 h 5.29166 V 5.2916457 h 5.29167 5.29166 5.29167 5.29167 5.29166 5.29167 5.29167 5.29166 5.29167 5.29167 5.29166 5.29167 5.29167 V -1.8236667e-5 -5.2916822 v -5.2916658 -5.291666 -5.29167 -5.29167 -5.291667 -5.291669 h 5.29166 v -5.291667 -5.291666 -5.291667 -5.291667 h -5.29166 -5.29167 -5.29167 v -5.291666 -5.291667 h -5.29166 -5.29167 -5.29167 -5.29166 -5.29167 -5.29167 -5.29166 z m -21.16666,63.5000078 v -5.2916658 -5.291666 -5.29167 -5.29167 -5.291667 h -5.29167 v 5.291667 5.29167 5.29167 5.291666 5.2916658 z m 0,-26.4583388 h 5.29166 v -5.291669 h -5.29166 z m 5.29166,-5.291669 h 5.29167 5.29166 5.29167 v -5.291667 h -5.29167 -5.29166 -5.29167 z m 5.29167,15.875006 h 5.29166 v -5.29167 h -5.29166 z m 15.875,-42.333339 h 5.29166 5.29167 5.29167 5.29166 5.29167 5.29167 v 5.291666 h -5.29167 -5.29167 -5.29166 -5.29167 v 5.291667 h -5.29167 -5.29166 v -5.291667 z m 15.875,10.583333 h 5.29166 5.29167 5.29167 5.29166 5.29167 5.29167 v 5.291667 5.291666 h -5.29167 -5.29167 -5.29166 -5.29167 -5.29167 -5.29166 v -5.291666 z" />
    <path
       id="rect969-789-3"
       style="fill:#000000;stroke-width:0.79375"
       d="m 904.87699,-116.41678 v 5.29169 h 5.29166 5.29167 v 5.2917 5.2917 h 5.29167 v -5.2917 -5.2917 -5.29169 h -5.29167 -5.29167 z m 10.58333,15.87509 h -5.29167 v 5.291663 h 5.29167 z m -5.29167,5.291663 h -5.29166 v 5.29167 h 5.29166 z m -5.29166,5.29167 h -5.29167 v 5.291666 h 5.29167 z m 0,5.291666 v 5.291667 h 5.29166 v -5.291667 z m 5.29166,5.291667 v 5.291667 h 5.29167 v -5.291667 z m 5.29167,5.291667 v 5.291666 h 5.29167 v -5.291666 z m 5.29167,5.291666 v 5.291667 5.291666 h -5.29167 -5.29167 v 5.291667 h 5.29167 5.29167 5.29166 v -5.291667 -5.291666 -5.291667 z m -10.58334,10.583333 v -5.291666 h -5.29166 v 5.291666 z m -5.29166,-5.291666 v -5.291667 h -5.29167 v 5.291667 z m -5.29167,-5.291667 v -5.291666 h -5.29167 v 5.291666 z m -5.29167,-5.291666 v -5.291667 h -5.29166 v 5.291667 z m -5.29166,0 h -5.29167 v 5.291666 h 5.29167 z m -5.29167,5.291666 h -5.29167 v 5.291667 h 5.29167 z m -5.29167,5.291667 h -5.29166 -5.29115 v -5.291667 -5.291666 h 5.29115 v -5.291667 h -5.29167 v 5.291667 h -5.29167 v 5.291666 5.291667 5.291666 h 5.29167 5.29167 5.29166 z m -5.29166,-15.875 h 5.29166 v -5.291667 h -5.29166 z m 5.29166,-5.291667 h 5.29167 v -5.291666 h -5.29167 z m 26.45834,-26.458399 h -5.29167 v 5.2917 h 5.29167 z m -5.29167,5.2917 h -5.29167 v 5.2917 h 5.29167 z m -5.29167,5.2917 h -5.29166 v 5.291663 h 5.29166 z" />
    <path
       id="rect969-902-9"
       style="fill:#000000;stroke-width:0.79375"
       d="m 889.00205,-105.83337 h -5.29167 v 5.29169 h 5.29167 z" />
    <path
       id="rect969-01-8"
       style="fill:#000000;stroke-width:0.79375"
       d="m 883.71039,-111.12504 h -5.29167 v 5.29166 h 5.29167 z" />
    <path
       id="rect969-962-0"
       style="fill:#000000;stroke-width:0.79375"
       d="m 878.41872,-116.41673 h -5.29169 v 5.29169 h 5.29169 z" />
    <path
       id="rect969-120-2"
       style="fill:#000000;stroke-width:0.79375"
       d="m 873.12703,-121.70842 h -5.2919 v 5.29167 h 5.2919 z" />
    <path
       id="rect969-731-4"
       style="fill:#000000;stroke-width:0.79375"
       d="m 867.83513,-127.00008 h -5.292 v 5.29165 h 5.292 z" />
    <path
       id="rect969-190-9"
       style="fill:#000000;stroke-width:0.79375"
       d="m 862.54313,-132.29175 h -5.292 v 5.29166 h 5.292 z" />
    <path
       id="rect969-567-0"
       style="fill:#000000;stroke-width:0.79375"
       d="m 857.25113,-137.58342 h -5.2919 v 5.29165 h 5.2919 z" />
    <path
       id="rect969-740-1"
       style="fill:#000000;stroke-width:0.79375"
       d="m 851.95923,-142.87508 h -5.292 v 5.29166 h 5.292 z" />
    <path
       id="rect969-647-2"
       style="fill:#000000;stroke-width:0.79375"
       d="m 846.66723,-148.16677 h -5.292 v 5.29167 h 5.292 z" />
    <path
       id="rect969-960-0"
       style="fill:#000000;stroke-width:0.79375"
       d="m 873.12703,-100.54167 h -5.2919 v 5.291653 h 5.2919 z" />
    <path
       id="rect969-508-9"
       style="fill:#000000;stroke-width:0.79375"
       d="m 1000.127,-68.791661 h -5.29164 v 5.29166 h 5.29164 z" />
    <path
       id="rect969-0411-4"
       style="fill:#000000;stroke-width:0.79375"
       d="m 926.04368,-58.208337 h -5.29167 v 5.29166 h 5.29167 z" />
    <path
       id="rect969-076-4"
       style="fill:#000000;stroke-width:0.79375"
       d="m 878.41872,-95.250007 h -5.29169 v 5.29166 h 5.29169 z" />
    <path
       id="rect969-6-2"
       style="fill:#000000;stroke-width:0.79375"
       d="m 867.83513,-105.83337 h -5.292 v 5.29168 h 5.292 z" />
    <path
       id="rect969-15-0"
       style="fill:#000000;stroke-width:0.79375"
       d="m 862.54313,-111.12504 h -5.292 v 5.29166 h 5.292 z" />
    <path
       id="rect969-06-6"
       style="fill:#000000;stroke-width:0.79375"
       d="m 857.25113,-116.41674 h -5.2919 v 5.29169 h 5.2919 z" />
    <path
       id="rect969-50-5"
       style="fill:#000000;stroke-width:0.79375"
       d="m 851.95923,-121.70842 h -5.292 v 5.29167 h 5.292 z" />
    <path
       id="rect969-812-9"
       style="fill:#000000;stroke-width:0.79375"
       d="m 846.66723,-127.00009 h -5.292 v 5.29166 h 5.292 z" />
    <path
       id="rect969-2-5"
       style="fill:#000000;stroke-width:0.79375"
       d="m 841.37523,-132.29176 h -5.292 v 5.29166 h 5.292 z" />
    <path
       id="rect969-691-6"
       style="fill:#000000;stroke-width:0.79375"
       d="m 836.08333,-137.58343 h -5.29171 v 5.29166 h 5.29171 z" />
    <path
       id="rect969-219-1"
       style="fill:#000000;stroke-width:0.79375"
       d="m 825.49992,-153.4585 v 5.29166 5.29167 5.29167 h 5.29167 v -5.29167 -5.29167 h 5.29166 5.29219 v -5.29166 h -5.29219 -5.29166 z" />
    <path
       id="rect969-177-128-9"
       style="fill:#000000;stroke-width:0.79375"
       d="m 936.62701,-126.99999 h -5.29167 v 5.29166 h 5.29167 z" />
    <path
       id="rect969-177-25-5-00"
       style="fill:#000000;stroke-width:0.79375"
       d="M 973.66867,-127.00001 H 968.377 v 5.29166 h 5.29167 z" />
    <path
       id="rect969-177-25-5-23"
       style="fill:#000000;stroke-width:0.79375"
       d="M 957.79367,-127.00001 H 952.502 v 5.29166 h 5.29167 z" />
    <path
       id="rect969-177-25-5-51"
       style="fill:#000000;stroke-width:3"
       d="m 440.00781,140 v 20 h 20 20 20 v 20 20 20 20 20 h 20 20 v -20 -20 -20 -20 -20 h 20 20 20 v -20 h -20 -20 -20 -20 -20 -20 -20 z"
       transform="matrix(0.26458333,0,0,0.26458333,814.91652,-137.58334)" />
    <path
       id="rect969-177-25-5-61"
       style="fill:#000000;stroke-width:0.79375"
       d="m 963.08533,-100.54167 h -5.29167 v 5.291664 h 5.29167 z" />
    <path
       id="rect969-177-25-5-37"
       style="fill:#000000;stroke-width:0.79375"
       d="m 963.08533,-100.54167 h -5.29167 v 5.291664 h 5.29167 z" />
    <path
       id="rect969-177-25-5-33"
       style="fill:#000000;stroke-width:0.79375"
       d="m 973.66868,-84.666666 h -5.29167 v 5.29166 h 5.29167 z" />
    <path
       id="rect969-177-25-5-72"
       style="fill:#000000;stroke-width:0.79375"
       d="M 941.91867,-79.375006 H 936.627 v 5.29166 h 5.29167 z" />
    <path
       id="rect969-177-25-5-10"
       style="fill:#000000;stroke-width:0.79375"
       d="M 941.91867,-74.083336 H 936.627 v 5.291659 h 5.29167 z" />
    <path
       id="rect969-177-25-5-137"
       style="fill:#000000;stroke-width:0.79375"
       d="M 941.91867,-68.79167 H 936.627 v 5.29166 h 5.29167 z" />
    <path
       id="rect969-177-25-5-76"
       style="fill:#000000;stroke-width:0.79375"
       d="M 941.91867,-63.500003 H 936.627 v 5.29166 h 5.29167 z" />
    <path
       id="rect969-177-25-5-391"
       style="fill:#000000;stroke-width:0.79375"
       d="M 941.91867,-58.208337 H 936.627 v 5.29166 h 5.29167 z" />
    <path
       id="rect969-177-25-5-729"
       style="fill:#000000;stroke-width:0.79375"
       d="m 936.627,-84.666666 h -5.29167 v 5.29166 h 5.29167 z" />
    <path
       id="rect25674"
       style="fill:#005c00;fill-opacity:1;stroke-width:0.79375"
       d="m 973.66647,-37.04169 v 5.291669 5.291667 5.29167 5.29167 5.291666 5.2916658 h -5.29166 -5.29167 -5.29167 V -1.8236667e-5 h 5.29167 5.29167 5.29166 5.29167 V -5.2916822 v -5.2916658 -5.291666 -5.29167 -5.29167 -5.291667 -5.291669 z" />
    <path
       id="rect25674-1"
       style="fill:#008000;stroke-width:0.79375"
       d="m 957.79147,-37.04169 v 5.291669 5.291667 5.29167 5.29167 h -5.29166 v -5.29167 h -5.29167 v -5.29167 h -5.29167 -5.29166 v 5.29167 h -5.29167 v 5.29167 h -5.29167 v 5.291666 5.2916658 5.291663963333 h 5.29167 5.29167 5.29166 5.29167 5.29167 5.29166 V -5.2916822 h 5.29167 5.29167 5.29166 v -5.2916658 -5.291666 -5.29167 -5.29167 -5.291667 -5.291669 h -5.29166 -5.29167 z" />
    <path
       id="rect25674-54"
       style="fill:#009900;fill-opacity:1;stroke-width:0.79375"
       d="m 926.04147,-26.458354 v 5.29167 h -5.29166 v 5.29167 5.291666 5.2916658 5.291663963333 h 5.29166 V -5.2916822 -10.583348 -15.875014 h 5.29167 v -5.29167 h 5.29167 v -5.29167 h -5.29167 z" />
    <path
       id="rect25674-148"
       style="fill:#009900;fill-opacity:1;stroke-width:0.79375"
       d="m 915.45814,-37.04169 v 5.291669 h -5.29166 v 5.291667 5.29167 5.29167 5.291666 5.2916658 h 5.29166 v -5.2916658 -5.291666 -5.29167 -5.29167 h 5.29167 v -5.291667 -5.291669 z" />
    <path
       id="rect25674-769"
       style="fill:#008000;stroke-width:0.79375"
       d="m 920.7499,-26.458363 h -5.29166 v 5.291669 h 5.29166 z" />
    <path
       id="rect25674-87"
       style="fill:#008000;stroke-width:0.79375"
       d="m 920.74981,-37.04169 v 5.291669 5.291667 h 5.29166 v -5.291667 h 5.29167 v -5.291669 h -5.29167 z" />
    <path
       id="rect25674-7697"
       style="fill:#008000;stroke-width:0.79375"
       d="m 941.91647,-47.625023 v 5.291666 5.291667 5.291669 h 5.29167 v 5.291667 h 5.29167 v -5.291667 -5.291669 h -5.29167 v -5.291667 -5.291666 z" />
    <path
       id="rect25674-128-0"
       style="fill:#cca400;fill-opacity:1;stroke-width:3"
       d="m 540.00781,220 v 20 20 20 20 h -20 v 20 h 20 20 v -20 -20 -20 -20 -20 z"
       transform="matrix(0.26458333,0,0,0.26458333,814.91652,-137.58334)" />
    <path
       id="rect25674-128-0-2"
       style="fill:#ffcc00;stroke-width:3"
       d="m 500.00781,260 v 20 20 20 h 20 v -20 h 20 v -20 -20 h -20 z"
       transform="matrix(0.26458333,0,0,0.26458333,814.91652,-137.58334)" />
    <path
       id="rect25674-128-0-0"
       style="fill:#ffd633;fill-opacity:1;stroke-width:3"
       d="m 480.00781,220 v 20 20 20 20 20 h 20 v -20 -20 -20 -20 -20 z"
       transform="matrix(0.26458333,0,0,0.26458333,814.91652,-137.58334)" />
    <path
       id="rect25674-128-0-07-9"
       style="fill:#000080;stroke-width:3"
       d="m 600.00781,200 v 20 h -20 v 20 20 20 h 20 20 20 v -20 h 20 v -20 h 20 v -20 -20 h -20 -20 -20 z"
       transform="matrix(0.26458333,0,0,0.26458333,814.91652,-137.58334)" />
    <path
       id="rect25674-128-0-08"
       style="fill:#ffcc00;stroke-width:3"
       d="m 540.00781,160 v 20 20 20 h 20 v -20 h 20 v -20 h 20 v -20 h -20 -20 z"
       transform="matrix(0.26458333,0,0,0.26458333,814.91652,-137.58334)" />
    <path
       id="rect25674-128-0-6"
       style="fill:#cca400;fill-opacity:1;stroke-width:0.79375"
       d="m 968.37701,-84.666685 h -5.29166 v 5.291666 h 5.29166 z" />
    <path
       id="rect25674-128-0-27"
       style="fill:#cca400;fill-opacity:1;stroke-width:0.79375"
       d="m 973.66867,-89.958351 h -5.29166 v 5.291666 h 5.29166 z" />
    <path
       id="rect25674-128-0-39"
       style="fill:#cca400;fill-opacity:1;stroke-width:3"
       d="m 680.00781,120 v 20 20 h -20 -20 -20 -20 v 20 h 20 20 20 20 20 v -20 -20 -20 z"
       transform="matrix(0.26458333,0,0,0.26458333,814.91652,-137.58334)" />
    <path
       id="rect25674-128-0-01"
       style="fill:#ffcc00;stroke-width:3"
       d="m 540.00781,60 v 20 20 20 h -20 -20 -20 -20 v 20 h 20 20 20 20 20 20 20 v 20 h 20 20 20 20 v -20 -20 h -20 -20 -20 -20 -20 -20 V 100 80 60 Z"
       transform="matrix(0.26458333,0,0,0.26458333,814.91652,-137.58334)" />
    <path
       id="rect25674-128-0-490"
       style="fill:#ffcc00;stroke-width:0.79375"
       d="m 973.66867,-132.29168 h -5.29166 v 5.29166 h 5.29166 z" />
    <path
       id="rect25674-128-0-55"
       style="fill:#ffd324;fill-opacity:1;stroke-width:0.79375"
       d="m 968.37701,-132.29168 h -5.29166 v 5.29166 h 5.29166 z" />
    <path
       id="rect25674-128-0-016"
       style="fill:#ffcc00;stroke-width:0.79375"
       d="m 968.37701,-127.00002 h -5.29166 v 5.29167 h 5.29166 z" />
    <path
       id="rect25674-128-0-02"
       style="fill:#ffd324;fill-opacity:1;stroke-width:0.79375"
       d="m 963.08534,-127.00002 h -5.29166 v 5.29167 h 5.29166 z" />
    <path
       id="rect25674-128-0-498"
       style="fill:#ffd324;fill-opacity:1;stroke-width:3"
       d="m 520.00781,60 v 20 20 20 h 20 V 100 80 60 Z"
       transform="matrix(0.26458333,0,0,0.26458333,814.91652,-137.58334)" />
    <path
       id="rect25674-128-0-03"
       style="fill:#ffd633;fill-opacity:1;stroke-width:3"
       d="m 420.00781,120 v 20 h -20 v 20 20 h 20 20 v -20 -20 h 20 v -20 h -20 z"
       transform="matrix(0.26458333,0,0,0.26458333,814.91652,-137.58334)" />
    <path
       id="rect25674-128-0-975"
       style="fill:#ffcc00;stroke-width:3"
       d="m 440.00781,160 v 20 h 20 v 20 h 20 v 20 h 20 v -20 -20 -20 h -20 -20 z"
       transform="matrix(0.26458333,0,0,0.26458333,814.91652,-137.58334)" />
    <path
       id="rect25674-128-0-32"
       style="fill:#ffd633;fill-opacity:1;stroke-width:0.79375"
       d="m 936.62701,-89.958351 h -5.29166 v 5.291666 h 5.29166 z" />
    <path
       id="rect25674-128-0-73"
       style="fill:#ffd633;fill-opacity:1;stroke-width:0.79375"
       d="m 941.91867,-84.666685 h -5.29166 v 5.291666 h 5.29166 z" />
    <path
       id="rect25674-128-0-07-9-9"
       style="fill:#000066;fill-opacity:1;stroke-width:3"
       d="m 680.00781,200 v 20 20 h -20 v 20 h -20 v 20 h 20 20 v -20 h 20 v -20 -20 -20 z"
       transform="matrix(0.26458333,0,0,0.26458333,814.91652,-137.58334)" />
    <path
       id="rect25674-128-0-07-9-46"
       style="fill:#000066;fill-opacity:1;stroke-width:3"
       d="m 580.00781,280 v 20 h 20 20 20 v -20 h -20 -20 z"
       transform="matrix(0.26458333,0,0,0.26458333,814.91652,-137.58334)" />
    <path
       id="rect25674-128-0-07-9-85"
       style="fill:#000066;fill-opacity:1;stroke-width:3"
       d="m 620.00781,20 v 20 20 h 20 v 20 h 20 v 20 h 20 V 80 60 h -20 V 40 h -20 V 20 Z"
       transform="matrix(0.26458333,0,0,0.26458333,814.91652,-137.58334)" />
    <path
       id="rect25674-128-0-07-9-34"
       style="fill:#000080;stroke-width:3"
       d="m 600.00781,40 v 20 h -20 v 20 20 h 20 20 20 20 V 80 h -20 V 60 h -20 V 40 Z"
       transform="matrix(0.26458333,0,0,0.26458333,814.91652,-137.58334)" />
    <path
       id="rect25674-128-0-07-9-24"
       style="fill:#000080;stroke-width:0.79375"
       d="m 957.79365,-132.29168 h -5.29166 v 5.29167 h 5.29166 z" />
    <path
       id="rect25674-128-0-07-9-90"
       style="fill:#0000ad;fill-opacity:1;stroke-width:0.79375"
       d="m 952.50198,-132.29168 h -5.29166 v 5.29167 h 5.29166 z" />
    <path
       id="rect25674-128-0-07-9-14"
       style="fill:#000080;stroke-width:0.79375"
       d="m 952.50198,-127.00001 h -5.29166 v 5.29167 h 5.29166 z" />
    <path
       id="rect25674-128-0-07-9-432"
       style="fill:#0000ad;fill-opacity:1;stroke-width:3"
       d="m 460.00781,40 v 20 h 20 20 V 40 h -20 z"
       transform="matrix(0.26458333,0,0,0.26458333,814.91652,-137.58334)" />
    <path
       id="rect25674-128-0-07-9-51"
       style="fill:#000080;stroke-width:3"
       d="m 460.00781,60 v 20 20 h 20 20 V 80 60 h -20 z"
       transform="matrix(0.26458333,0,0,0.26458333,814.91652,-137.58334)" />
    <path
       id="rect25674-128-0-07-9-968"
       style="fill:#0000ad;fill-opacity:1;stroke-width:3"
       d="m 440.00781,60 v 20 20 h 20 V 80 60 Z"
       transform="matrix(0.26458333,0,0,0.26458333,814.91652,-137.58334)" />
    <path
       id="rect25674-128-0-07-9-605"
       style="fill:#0000ad;fill-opacity:1;stroke-width:3"
       d="m 400.00781,200 v 20 20 20 20 20 h 20 v -20 -20 -20 -20 -20 z"
       transform="matrix(0.26458333,0,0,0.26458333,814.91652,-137.58334)" />
    <path
       id="rect25674-128-0-07-9-539"
       style="fill:#000080;stroke-width:3"
       d="m 420.00781,200 v 20 20 20 20 20 h 20 v 20 h 20 v -20 -20 -20 -20 -20 h -20 v -20 z"
       transform="matrix(0.26458333,0,0,0.26458333,814.91652,-137.58334)" />
    <path
       id="rect25674-128-0-07-9-97"
       style="fill:#0000ad;fill-opacity:1;stroke-width:0.79375"
       d="m 931.33531,-58.208343 h -5.29166 v 5.291666 h 5.29166 z" />
    <path
       id="rect25674-128-0-07-9-25"
       style="fill:#000000;stroke-width:0.79375"
       d="m 920.75205,-68.791693 h -5.29166 v 5.291666 h 5.29166 z" />
    <path
       id="rect25674-128-0-07-9-25-8"
       style="fill:#000000;fill-opacity:1;stroke-width:0.79375"
       d="m 920.75205,-63.500027 h -5.29166 v 5.291666 h 5.29166 z" />
    <path
       id="rect25674-128-0-07-9-25-0"
       style="fill:#28170b;stroke-width:0.79375"
       d="m 915.46038,-63.500027 h -5.29166 v 5.291666 h 5.29166 z" />
    <path
       id="rect25674-128-0-07-9-25-6"
       style="fill:#512b15;fill-opacity:1;stroke-width:0.79375"
       d="m 915.46038,-68.791693 h -5.29166 v 5.291666 h 5.29166 z" />
    <path
       id="rect25674-128-0-07-9-25-2"
       style="fill:#28170b;stroke-width:0.79375"
       d="m 915.46038,-74.08336 h -5.29166 v 5.291666 h 5.29166 z" />
    <path
       id="rect25674-128-0-07-9-25-65"
       style="fill:#512b15;fill-opacity:1;stroke-width:0.79375"
       d="m 910.16871,-74.08336 h -5.29166 v 5.291666 h 5.29166 z" />
    <path
       id="rect25674-128-0-07-9-25-66"
       style="fill:#28170b;stroke-width:0.79375"
       d="m 910.16871,-68.791693 h -5.29166 v 5.291666 h 5.29166 z" />
    <path
       id="rect25674-128-0-07-9-25-3"
       style="fill:#28170b;stroke-width:0.79375"
       d="m 904.87705,-74.08336 h -5.29166 v 5.291666 h 5.29166 z" />
    <path
       id="rect25674-128-0-07-9-25-4"
       style="fill:#28170b;stroke-width:0.79375"
       d="m 910.16871,-79.375027 h -5.29166 v 5.291666 h 5.29166 z" />
    <path
       id="rect25674-128-0-07-9-25-1"
       style="fill:#512b15;fill-opacity:1;stroke-width:0.79375"
       d="m 904.87705,-79.375027 h -5.29166 v 5.291666 h 5.29166 z" />
    <path
       id="rect25674-128-0-07-9-25-7"
       style="fill:#28170b;stroke-width:0.79375"
       d="m 899.58538,-79.375027 h -5.29166 v 5.291666 h 5.29166 z" />
    <path
       id="rect25674-128-0-07-9-25-13"
       style="fill:#28170b;stroke-width:0.79375"
       d="m 904.87705,-84.666693 h -5.29166 v 5.291666 h 5.29166 z" />
    <path
       id="rect25674-128-0-07-9-25-08"
       style="fill:#502d16;stroke-width:0.79375"
       d="m 899.58538,-84.666693 h -5.29166 v 5.291666 h 5.29166 z" />
    <path
       id="rect25674-128-0-07-9-25-29"
       style="fill:#784421;stroke-width:0.79375"
       d="m 894.29371,-84.666693 h -5.29166 v 5.291666 h 5.29166 z" />
    <path
       id="rect25674-128-0-07-9-25-29-0"
       style="fill:#784421;stroke-width:0.79375"
       d="m 899.58538,-89.958357 h -5.29166 v 5.291663 h 5.29166 z" />
    <path
       id="rect25674-128-0-07-9-25-29-1"
       style="fill:#4f2d17;fill-opacity:1;stroke-width:0.79375"
       d="m 894.29371,-89.958357 h -5.29166 v 5.291663 h 5.29166 z" />
    <path
       id="rect25674-128-0-07-9-25-29-08"
       style="fill:#784421;stroke-width:0.79375"
       d="m 889.00205,-89.958357 h -5.29166 v 5.291663 h 5.29166 z" />
    <path
       id="rect25674-128-0-07-9-25-29-16"
       style="fill:#4f2d17;fill-opacity:1;stroke-width:0.79375"
       d="m 889.00205,-84.666693 h -5.29166 v 5.291666 h 5.29166 z" />
    <path
       id="rect25674-128-0-07-9-25-29-7"
       style="fill:#784421;stroke-width:0.79375"
       d="m 883.71038,-84.666693 h -5.29166 v 5.291666 h 5.29166 z" />
    <path
       id="rect25674-128-0-07-9-25-29-8"
       style="fill:#784421;stroke-width:0.79375"
       d="m 889.00205,-79.375027 h -5.29166 v 5.291666 h 5.29166 z" />
    <path
       id="rect25674-128-0-07-9-25-29-82"
       style="fill:#4f2d17;fill-opacity:1;stroke-width:0.79375"
       d="m 883.71038,-79.375027 h -5.29166 v 5.291666 h 5.29166 z" />
    <path
       id="rect25674-128-0-07-9-25-29-13"
       style="fill:#784421;stroke-width:0.79375"
       d="m 883.71038,-74.08336 h -5.29166 v 5.291666 h 5.29166 z" />
    <path
       id="rect25674-128-0-07-9-25-29-89"
       style="fill:#784421;stroke-width:0.79375"
       d="m 878.41871,-79.375027 h -5.29166 v 5.291666 h 5.29166 z" />
    <path
       id="rect25674-128-0-07-9-25-29-3"
       style="fill:#4f2d17;fill-opacity:1;stroke-width:0.79375"
       d="m 878.41871,-74.08336 h -5.29166 v 5.291666 h 5.29166 z" />
    <path
       id="rect25674-128-0-07-9-25-29-5"
       style="fill:#784421;stroke-width:0.79375"
       d="m 878.41871,-68.791693 h -5.29166 v 5.291666 h 5.29166 z" />
    <path
       id="rect25674-128-0-07-9-25-29-4"
       style="fill:#4f2d17;fill-opacity:1;stroke-width:0.79375"
       d="m 873.12705,-68.791693 h -5.29166 v 5.291666 h 5.29166 z" />
    <path
       id="rect25674-128-0-07-9-25-29-12"
       style="fill:#784421;stroke-width:0.79375"
       d="m 873.12705,-74.08336 h -5.29166 v 5.291666 h 5.29166 z" />
    <path
       id="rect25674-128-0-07-9-25-29-2"
       style="fill:#4f2d17;fill-opacity:1;stroke-width:0.79375"
       d="m 899.58538,-95.250027 h -5.29166 v 5.29167 h 5.29166 z" />
    <path
       id="rect25674-128-0-07-9-25-29-77"
       style="fill:#784421;stroke-width:0.79375"
       d="m 899.58538,-100.5417 h -5.29166 v 5.291673 h 5.29166 z" />
    <path
       id="rect25674-128-0-07-9-25-29-9"
       style="fill:#784421;stroke-width:0.79375"
       d="m 904.87705,-95.250027 h -5.29166 v 5.29167 h 5.29166 z" />
    <path
       id="rect25674-128-0-07-9-25-29-14"
       style="fill:#4f2d17;fill-opacity:1;stroke-width:0.79375"
       d="m 904.87705,-100.5417 h -5.29166 v 5.291673 h 5.29166 z" />
    <path
       id="rect25674-128-0-07-9-25-29-04"
       style="fill:#784421;stroke-width:0.79375"
       d="m 904.87705,-105.83339 h -5.29166 v 5.29169 h 5.29166 z" />
    <path
       id="rect25674-128-0-07-9-25-29-78"
       style="fill:#4f2d17;fill-opacity:1;stroke-width:0.79375"
       d="m 910.16871,-105.83339 h -5.29166 v 5.29169 h 5.29166 z" />
    <path
       id="rect25674-128-0-07-9-25-29-76"
       style="fill:#784421;stroke-width:0.79375"
       d="m 915.46038,-105.83339 h -5.29166 v 5.29169 h 5.29166 z" />
    <path
       id="rect25674-128-0-07-9-25-29-80"
       style="fill:#4f2d17;fill-opacity:1;stroke-width:0.79375"
       d="m 915.46038,-111.12509 h -5.29166 v 5.2917 h 5.29166 z" />
    <path
       id="rect25674-128-0-07-9-25-29-86"
       style="fill:#784421;stroke-width:0.79375"
       d="m 910.16871,-111.12509 h -5.29166 v 5.2917 h 5.29166 z" />
    <path
       id="rect25674-128-0-07-9-25-29-145"
       style="fill:#784421;stroke-width:0.79375"
       d="m 910.16871,-100.5417 h -5.29166 v 5.291673 h 5.29166 z" />
    <path
       id="rect25674-128-0-07-9-25-29-25"
       style="fill:#784421;stroke-width:0.79375"
       d="m 894.29371,-95.250027 h -5.29166 v 5.29167 h 5.29166 z" />
    <path
       id="rect25674-128-0-07-9-25-29-93"
       style="fill:#d7eef4;stroke-width:0.79375"
       d="m 873.12699,-111.12509 v 5.2917 h -5.29167 v 5.2917 h 5.29167 v 5.291663 h 5.29166 v 5.29167 h 5.29167 5.29167 v -5.29167 -5.291663 h -5.29167 v -5.2917 h -5.29167 v -5.2917 z" />
    <path
       id="rect25674-128-0-07-9-25-29-93-53"
       style="fill:#aedaea;fill-opacity:1;stroke-width:0.79375"
       d="m 873.12705,-111.12509 h -5.29166 v 5.2917 h 5.29166 z" />
    <path
       id="rect25674-128-0-07-9-25-29-93-20"
       style="fill:#d7eef4;stroke-width:0.79375"
       d="m 873.12705,-116.41679 h -5.29166 v 5.2917 h 5.29166 z" />
    <path
       id="rect25674-128-0-07-9-25-29-93-00"
       style="fill:#aedaea;fill-opacity:1;stroke-width:0.79375"
       d="m 867.83538,-116.41679 h -5.29166 v 5.2917 h 5.29166 z" />
    <path
       id="rect25674-128-0-07-9-25-29-93-9"
       style="fill:#d7eef4;stroke-width:0.79375"
       d="m 867.83538,-111.12509 h -5.29166 v 5.2917 h 5.29166 z" />
    <path
       id="rect25674-128-0-07-9-25-29-93-8"
       style="fill:#d7eef4;stroke-width:0.79375"
       d="m 862.54371,-116.41679 h -5.29166 v 5.2917 h 5.29166 z" />
    <path
       id="rect25674-128-0-07-9-25-29-93-09"
       style="fill:#d7eef4;stroke-width:0.79375"
       d="m 867.83538,-121.70848 h -5.29166 v 5.29169 h 5.29166 z" />
    <path
       id="rect25674-128-0-07-9-25-29-93-67"
       style="fill:#aedaea;fill-opacity:1;stroke-width:0.79375"
       d="m 862.54371,-121.70848 h -5.29166 v 5.29169 h 5.29166 z" />
    <path
       id="rect25674-128-0-07-9-25-29-93-21"
       style="fill:#d7eef4;stroke-width:0.79375"
       d="m 862.54371,-127.00018 h -5.29166 v 5.2917 h 5.29166 z" />
    <path
       id="rect25674-128-0-07-9-25-29-93-44"
       style="fill:#aedaea;fill-opacity:1;stroke-width:0.79375"
       d="m 857.25205,-127.00018 h -5.29166 v 5.2917 h 5.29166 z" />
    <path
       id="rect25674-128-0-07-9-25-29-93-84"
       style="fill:#d7eef4;stroke-width:0.79375"
       d="m 857.25205,-121.70848 h -5.29166 v 5.29169 h 5.29166 z" />
    <path
       id="rect25674-128-0-07-9-25-29-93-98"
       style="fill:#d7eef4;stroke-width:0.79375"
       d="m 857.25205,-132.29184 h -5.29166 v 5.29166 h 5.29166 z" />
    <path
       id="rect25674-128-0-07-9-25-29-93-441"
       style="fill:#aedaea;fill-opacity:1;stroke-width:0.79375"
       d="m 851.96038,-132.29184 h -5.29166 v 5.29166 h 5.29166 z" />
    <path
       id="rect25674-128-0-07-9-25-29-93-96"
       style="fill:#d7eef4;stroke-width:0.79375"
       d="m 851.96038,-127.00018 h -5.29166 v 5.2917 h 5.29166 z" />
    <path
       id="rect25674-128-0-07-9-25-29-93-80"
       style="fill:#d7eef4;stroke-width:0.79375"
       d="m 846.66871,-132.29184 h -5.29166 v 5.29166 h 5.29166 z" />
    <path
       id="rect25674-128-0-07-9-25-29-93-93"
       style="fill:#d7eef4;stroke-width:0.79375"
       d="m 851.96038,-137.58351 h -5.29166 v 5.29167 h 5.29166 z" />
    <path
       id="rect25674-128-0-07-9-25-29-93-63"
       style="fill:#aedaea;fill-opacity:1;stroke-width:0.79375"
       d="m 846.66871,-137.58351 h -5.29166 v 5.29167 h 5.29166 z" />
    <path
       id="rect25674-128-0-07-9-25-29-93-89"
       style="fill:#d7eef4;stroke-width:0.79375"
       d="m 846.66871,-142.87518 h -5.29166 v 5.29167 h 5.29166 z" />
    <path
       id="rect25674-128-0-07-9-25-29-93-50"
       style="fill:#aedaea;fill-opacity:1;stroke-width:0.79375"
       d="m 841.37705,-142.87518 h -5.29166 v 5.29167 h 5.29166 z" />
    <path
       id="rect25674-128-0-07-9-25-29-93-1"
       style="fill:#d7eef4;stroke-width:0.79375"
       d="m 841.37705,-137.58351 h -5.29166 v 5.29167 h 5.29166 z" />
    <path
       id="rect25674-128-0-07-9-25-29-93-7"
       style="fill:#d7eef4;stroke-width:0.79375"
       d="m 830.79365,-148.16684 v 5.29167 5.29167 h 5.29167 v -5.29167 h 5.29167 v -5.29167 h -5.29167 z" />
    <path
       id="rect2082"
       style="fill:#004d00;stroke-width:3"
       d="m 580,320 v 20 h -20 -20 -20 v 20 h 20 20 20 20 20 20 v -20 -20 h -20 -20 z"
       transform="matrix(0.26458333,0,0,0.26458333,814.91652,-137.58334)" />
  </g>
</svg>
