<?xml version="1.0" encoding="UTF-8" standalone="no"?>
<!-- Created with Inkscape (http://www.inkscape.org/) -->

<svg
   width="720.00824"
   height="640.00012"
   viewBox="0 0 190.50221 169.33336"
   version="1.1"
   id="svg5"
   inkscape:version="1.1 (ce6663b3b7, 2021-05-25)"
   sodipodi:docname="soldier.svg"
   xmlns:inkscape="http://www.inkscape.org/namespaces/inkscape"
   xmlns:sodipodi="http://sodipodi.sourceforge.net/DTD/sodipodi-0.dtd"
   xmlns="http://www.w3.org/2000/svg"
   xmlns:svg="http://www.w3.org/2000/svg">
  <sodipodi:namedview
     id="namedview7"
     pagecolor="#ffffff"
     bordercolor="#666666"
     borderopacity="1.0"
     inkscape:pageshadow="2"
     inkscape:pageopacity="0.0"
     inkscape:pagecheckerboard="0"
     inkscape:document-units="mm"
     showgrid="true"
     width="300px"
     units="px"
     borderlayer="true"
     inkscape:showpageshadow="false"
     scale-x="1"
     inkscape:snap-bbox="true"
     inkscape:bbox-nodes="true"
     inkscape:zoom="0.8117387"
     inkscape:cx="521.71961"
     inkscape:cy="-153.37448"
     inkscape:window-width="1848"
     inkscape:window-height="1016"
     inkscape:window-x="72"
     inkscape:window-y="27"
     inkscape:window-maximized="1"
     inkscape:current-layer="layer1"
     fit-margin-top="0"
     fit-margin-left="0"
     fit-margin-right="0"
     fit-margin-bottom="0">
    <inkscape:grid
       type="xygrid"
       id="grid9"
       empspacing="1"
       spacingy="5.2916667"
       spacingx="5.2916667"
       dotted="true"
       originx="-814.91676"
       originy="137.58333" />
  </sodipodi:namedview>
  <defs
     id="defs2" />
  <g
     inkscape:label="Layer 1"
     inkscape:groupmode="layer"
     id="layer1"
     transform="translate(-814.91652,137.58334)">
    <path
       id="rect969-177-59-4"
       style="fill:#000000;stroke-width:3"
       d="M 460.00781 20 L 460.00781 40 L 480.00781 40 L 500.00781 40 L 500.00781 20 L 480.00781 20 L 460.00781 20 z "
       transform="matrix(0.26458333,0,0,0.26458333,814.91652,-137.58334)" />
    <path
       id="rect969-03-5"
       style="fill:#000000;stroke-width:3"
       d="M 420.00781 60 L 420.00781 80 L 420.00781 100 L 400.00781 100 L 400.00781 120 L 400.00781 140 L 420.00781 140 L 420.00781 120 L 440.00781 120 L 460.00781 120 L 480.00781 120 L 500.00781 120 L 520.00781 120 L 520.00781 100 L 520.00781 80 L 520.00781 60 L 500.00781 60 L 500.00781 80 L 500.00781 100 L 480.00781 100 L 460.00781 100 L 440.00781 100 L 440.00781 80 L 440.00781 60 L 420.00781 60 z "
       transform="matrix(0.26458333,0,0,0.26458333,814.91652,-137.58334)" />
    <path
       id="rect969-447-2"
       style="fill:#000000;stroke-width:3"
       d="M 380.00781 140 L 380.00781 160 L 380.00781 180 L 380.00781 200 L 380.00781 220 L 380.00781 240 L 380.00781 260 L 380.00781 280 L 380.00781 300 L 400.00781 300 L 400.00781 280 L 400.00781 260 L 400.00781 240 L 400.00781 220 L 400.00781 200 L 420.00781 200 L 440.00781 200 L 440.00781 180 L 420.00781 180 L 400.00781 180 L 400.00781 160 L 400.00781 140 L 380.00781 140 z "
       transform="matrix(0.26458333,0,0,0.26458333,814.91652,-137.58334)" />
    <path
       id="rect969-75-9"
       style="fill:#000000;stroke-width:3"
       d="M 500.00781 0 L 500.00781 20 L 520.00781 20 L 540.00781 20 L 540.00781 40 L 560.00781 40 L 560.00781 20 L 580.00781 20 L 600.00781 20 L 600.00781 40 L 620.00781 40 L 620.00781 20 L 640.00781 20 L 640.00781 0 L 620.00781 0 L 600.00781 0 L 580.00781 0 L 560.00781 0 L 540.00781 0 L 520.00781 0 L 500.00781 0 z "
       transform="matrix(0.26458333,0,0,0.26458333,814.91652,-137.58334)" />
    <path
       id="rect969-96-9"
       style="fill:#000000;stroke-width:0.79375"
       d="m 989.54368,-132.29167 h -5.29167 v 5.29166 h 5.29167 z" />
    <path
       id="rect969-21-9"
       style="fill:#000000;stroke-width:0.79375"
       d="m 994.83534,-127 h -5.29167 v 5.29165 h 5.29167 z" />
    <path
       id="rect969-74-4"
       style="fill:#000000;stroke-width:3"
       d="M 560.00781 60 L 560.00781 80 L 560.00781 100 L 560.00781 120 L 580.00781 120 L 600.00781 120 L 620.00781 120 L 640.00781 120 L 660.00781 120 L 680.00781 120 L 700.00781 120 L 700.00781 140 L 700.00781 160 L 700.00781 180 L 680.00781 180 L 660.00781 180 L 640.00781 180 L 620.00781 180 L 600.00781 180 L 600.00781 200 L 620.00781 200 L 640.00781 200 L 660.00781 200 L 680.00781 200 L 700.00781 200 L 700.00781 220 L 700.00781 240 L 700.00781 260 L 720.00781 260 L 720.00781 240 L 720.00781 220 L 720.00781 200 L 720.00781 180 L 720.00781 160 L 720.00781 140 L 720.00781 120 L 720.00781 100 L 700.00781 100 L 700.00781 80 L 700.00781 60 L 680.00781 60 L 680.00781 80 L 680.00781 100 L 660.00781 100 L 640.00781 100 L 620.00781 100 L 600.00781 100 L 580.00781 100 L 580.00781 80 L 580.00781 60 L 560.00781 60 z "
       transform="matrix(0.26458333,0,0,0.26458333,814.91652,-137.58334)" />
    <path
       id="rect969-189-3"
       style="fill:#000000;stroke-width:3"
       d="M 640.00781 280 L 640.00781 300 L 660.00781 300 L 680.00781 300 L 680.00781 280 L 660.00781 280 L 640.00781 280 z "
       transform="matrix(0.26458333,0,0,0.26458333,814.91652,-137.58334)" />
    <path
       id="rect969-210-6"
       style="fill:#000000;stroke-width:3"
       d="M 560.00781 220 L 560.00781 240 L 560.00781 260 L 560.00781 280 L 560.00781 300 L 560.00781 320 L 540.00781 320 L 520.00781 320 L 500.00781 320 L 480.00781 320 L 460.00781 320 L 440.00781 320 L 420.00781 320 L 420.00781 340 L 440.00781 340 L 460.00781 340 L 480.00781 340 L 500.00781 340 L 520.00781 340 L 540.00781 340 L 560.00781 340 L 580.00781 340 L 580.00781 320 L 600.00781 320 L 620.00781 320 L 640.00781 320 L 640.00781 300 L 620.00781 300 L 600.00781 300 L 580.00781 300 L 580.00781 280 L 580.00781 260 L 580.00781 240 L 580.00781 220 L 560.00781 220 z "
       transform="matrix(0.26458333,0,0,0.26458333,814.91652,-137.58334)" />
    <path
       id="rect969-943-7"
       style="fill:#000000;stroke-width:3"
       d="M 440.00781 360 L 440.00781 380 L 440.00781 400 L 440.00781 420 L 440.00781 440 L 460.00781 440 L 460.00781 460 L 460.00781 480 L 440.00781 480 L 440.00781 500 L 420.00781 500 L 420.00781 520 L 440.00781 520 L 460.00781 520 L 480.00781 520 L 500.00781 520 L 500.00781 500 L 480.00781 500 L 480.00781 480 L 480.00781 460 L 480.00781 440 L 500.00781 440 L 500.00781 460 L 500.00781 480 L 520.00781 480 L 520.00781 500 L 520.00781 520 L 500.00781 520 L 500.00781 540 L 520.00781 540 L 520.00781 560 L 540.00781 560 L 540.00781 540 L 540.00781 520 L 540.00781 500 L 540.00781 480 L 560.00781 480 L 580.00781 480 L 600.00781 480 L 620.00781 480 L 620.00781 500 L 620.00781 520 L 620.00781 540 L 620.00781 560 L 620.00781 580 L 620.00781 600 L 620.00781 620 L 600.00781 620 L 580.00781 620 L 560.00781 620 L 540.00781 620 L 520.00781 620 L 500.00781 620 L 480.00781 620 L 460.00781 620 L 440.00781 620 L 420.00781 620 L 400.00781 620 L 400.00781 600 L 400.00781 580 L 400.00781 560 L 400.00781 540 L 380.00781 540 L 380.00781 560 L 380.00781 580 L 380.00781 600 L 360.00781 600 L 360.00781 620 L 380.00781 620 L 380.00781 640 L 400.00781 640 L 420.00781 640 L 440.00781 640 L 460.00781 640 L 480.00781 640 L 500.00781 640 L 520.00781 640 L 540.00781 640 L 560.00781 640 L 580.00781 640 L 600.00781 640 L 620.00781 640 L 640.00781 640 L 640.00781 620 L 640.00781 600 L 640.00781 580 L 640.00781 560 L 640.00781 540 L 640.00781 520 L 640.00781 500 L 640.00781 480 L 660.00781 480 L 660.00781 460 L 660.00781 440 L 660.00781 420 L 660.00781 400 L 640.00781 400 L 620.00781 400 L 600.00781 400 L 600.00781 380 L 600.00781 360 L 580.00781 360 L 560.00781 360 L 540.00781 360 L 520.00781 360 L 500.00781 360 L 480.00781 360 L 460.00781 360 L 440.00781 360 z M 360.00781 600 L 360.00781 580 L 360.00781 560 L 360.00781 540 L 360.00781 520 L 360.00781 500 L 340.00781 500 L 340.00781 520 L 340.00781 540 L 340.00781 560 L 340.00781 580 L 340.00781 600 L 360.00781 600 z M 360.00781 500 L 380.00781 500 L 380.00781 480 L 360.00781 480 L 360.00781 500 z M 380.00781 480 L 400.00781 480 L 420.00781 480 L 440.00781 480 L 440.00781 460 L 420.00781 460 L 400.00781 460 L 380.00781 460 L 380.00781 480 z M 400.00781 540 L 420.00781 540 L 420.00781 520 L 400.00781 520 L 400.00781 540 z M 460.00781 380 L 480.00781 380 L 500.00781 380 L 520.00781 380 L 540.00781 380 L 560.00781 380 L 580.00781 380 L 580.00781 400 L 560.00781 400 L 540.00781 400 L 520.00781 400 L 500.00781 400 L 500.00781 420 L 480.00781 420 L 460.00781 420 L 460.00781 400 L 460.00781 380 z M 520.00781 420 L 540.00781 420 L 560.00781 420 L 580.00781 420 L 600.00781 420 L 620.00781 420 L 640.00781 420 L 640.00781 440 L 640.00781 460 L 620.00781 460 L 600.00781 460 L 580.00781 460 L 560.00781 460 L 540.00781 460 L 520.00781 460 L 520.00781 440 L 520.00781 420 z "
       transform="matrix(0.26458333,0,0,0.26458333,814.91652,-137.58334)" />
    <path
       id="rect969-789-3"
       style="fill:#000000;stroke-width:3"
       d="M 300.00781 180 L 300.00781 200 L 320.00781 200 L 340.00781 200 L 340.00781 220 L 340.00781 240 L 360.00781 240 L 360.00781 220 L 360.00781 200 L 360.00781 180 L 340.00781 180 L 320.00781 180 L 300.00781 180 z M 340.00781 240 L 320.00781 240 L 320.00781 260 L 340.00781 260 L 340.00781 240 z M 320.00781 260 L 300.00781 260 L 300.00781 280 L 320.00781 280 L 320.00781 260 z M 300.00781 280 L 280.00781 280 L 280.00781 300 L 300.00781 300 L 300.00781 280 z M 300.00781 300 L 300.00781 320 L 320.00781 320 L 320.00781 300 L 300.00781 300 z M 320.00781 320 L 320.00781 340 L 340.00781 340 L 340.00781 320 L 320.00781 320 z M 340.00781 340 L 340.00781 360 L 360.00781 360 L 360.00781 340 L 340.00781 340 z M 360.00781 360 L 360.00781 380 L 360.00781 400 L 340.00781 400 L 320.00781 400 L 320.00781 420 L 340.00781 420 L 360.00781 420 L 380.00781 420 L 380.00781 400 L 380.00781 380 L 380.00781 360 L 360.00781 360 z M 320.00781 400 L 320.00781 380 L 300.00781 380 L 300.00781 400 L 320.00781 400 z M 300.00781 380 L 300.00781 360 L 280.00781 360 L 280.00781 380 L 300.00781 380 z M 280.00781 360 L 280.00781 340 L 260.00781 340 L 260.00781 360 L 280.00781 360 z M 260.00781 340 L 260.00781 320 L 240.00781 320 L 240.00781 340 L 260.00781 340 z M 240.00781 340 L 220.00781 340 L 220.00781 360 L 240.00781 360 L 240.00781 340 z M 220.00781 360 L 200.00781 360 L 200.00781 380 L 220.00781 380 L 220.00781 360 z M 200.00781 380 L 180.00781 380 L 160.00977 380 L 160.00977 360 L 160.00977 340 L 180.00781 340 L 180.00781 320 L 160.00781 320 L 160.00781 340 L 140.00781 340 L 140.00781 360 L 140.00781 380 L 140.00781 400 L 160.00781 400 L 180.00781 400 L 200.00781 400 L 200.00781 380 z M 180.00781 320 L 200.00781 320 L 200.00781 300 L 180.00781 300 L 180.00781 320 z M 200.00781 300 L 220.00781 300 L 220.00781 280 L 200.00781 280 L 200.00781 300 z M 300.00781 200 L 280.00781 200 L 280.00781 220 L 300.00781 220 L 300.00781 200 z M 280.00781 220 L 260.00781 220 L 260.00781 240 L 280.00781 240 L 280.00781 220 z M 260.00781 240 L 240.00781 240 L 240.00781 260 L 260.00781 260 L 260.00781 240 z "
       transform="matrix(0.26458333,0,0,0.26458333,814.91652,-137.58334)" />
    <path
       id="rect969-902-9"
       style="fill:#000000;stroke-width:0.79375"
       d="m 878.41865,-79.374983 h -5.29167 v 5.29166 h 5.29167 z" />
    <path
       id="rect969-01-8"
       style="fill:#000000;stroke-width:0.79375"
       d="m 873.12699,-84.666623 h -5.29167 v 5.29163 h 5.29167 z" />
    <path
       id="rect969-962-0"
       style="fill:#000000;stroke-width:0.79375"
       d="m 867.83532,-89.958283 h -5.29169 v 5.29166 h 5.29169 z" />
    <path
       id="rect969-120-2"
       style="fill:#000000;stroke-width:0.79375"
       d="m 862.54363,-95.249947 h -5.2919 v 5.291644 h 5.2919 z" />
    <path
       id="rect969-731-4"
       style="fill:#000000;stroke-width:0.79375"
       d="m 857.25173,-100.54158 h -5.292 v 5.291623 h 5.292 z" />
    <path
       id="rect969-190-9"
       style="fill:#000000;stroke-width:0.79375"
       d="m 851.95973,-105.83325 h -5.292 v 5.29166 h 5.292 z" />
    <path
       id="rect969-567-0"
       style="fill:#000000;stroke-width:0.79375"
       d="m 846.66773,-111.12492 h -5.2919 v 5.29165 h 5.2919 z" />
    <path
       id="rect969-740-1"
       style="fill:#000000;stroke-width:0.79375"
       d="m 841.37583,-116.41658 h -5.292 v 5.29166 h 5.292 z" />
    <path
       id="rect969-647-2"
       style="fill:#000000;stroke-width:0.79375"
       d="m 836.08383,-121.70827 h -5.292 v 5.29167 h 5.292 z" />
    <path
       id="rect969-960-0"
       style="fill:#000000;stroke-width:0.79375"
       d="m 862.54363,-74.083313 h -5.2919 v 5.29165 h 5.2919 z" />
    <path
       id="rect969-508-9"
       style="fill:#000000;stroke-width:0.79375"
       d="m 1000.127,-68.791661 h -5.29164 v 5.29166 h 5.29164 z" />
    <path
       id="rect969-0411-4"
       style="fill:#000000;stroke-width:0.79375"
       d="m 926.04368,-58.208337 h -5.29167 v 5.29166 h 5.29167 z" />
    <path
       id="rect969-076-4"
       style="fill:#000000;stroke-width:0.79375"
       d="m 867.83532,-68.791653 h -5.29169 v 5.29166 h 5.29169 z" />
    <path
       id="rect969-6-2"
       style="fill:#000000;stroke-width:0.79375"
       d="m 857.25173,-79.374983 h -5.292 v 5.29165 h 5.292 z" />
    <path
       id="rect969-15-0"
       style="fill:#000000;stroke-width:0.79375"
       d="m 851.95973,-84.666623 h -5.292 v 5.29163 h 5.292 z" />
    <path
       id="rect969-06-6"
       style="fill:#000000;stroke-width:0.79375"
       d="m 846.66773,-89.958293 h -5.2919 v 5.29166 h 5.2919 z" />
    <path
       id="rect969-50-5"
       style="fill:#000000;stroke-width:0.79375"
       d="m 841.37583,-95.249947 h -5.292 v 5.291644 h 5.292 z" />
    <path
       id="rect969-812-9"
       style="fill:#000000;stroke-width:0.79375"
       d="m 836.08383,-100.54159 h -5.292 v 5.291633 h 5.292 z" />
    <path
       id="rect969-2-5"
       style="fill:#000000;stroke-width:0.79375"
       d="m 830.79183,-105.83326 h -5.292 v 5.29166 h 5.292 z" />
    <path
       id="rect969-691-6"
       style="fill:#000000;stroke-width:0.79375"
       d="m 825.49993,-111.12493 h -5.29171 v 5.29166 h 5.29171 z" />
    <path
       id="rect969-219-1"
       style="fill:#000000;stroke-width:3"
       d="M 0 40 L 0 60 L 0 80 L 0 100 L 20 100 L 20 80 L 20 60 L 40 60 L 60.001953 60 L 60.001953 40 L 40 40 L 20 40 L 0 40 z "
       transform="matrix(0.26458333,0,0,0.26458333,814.91652,-137.58334)" />
    <path
       id="rect969-177-128-9"
       style="fill:#000000;stroke-width:0.79375"
       d="m 936.62701,-126.99999 h -5.29167 v 5.29166 h 5.29167 z" />
    <path
       id="rect969-177-25-5-00"
       style="fill:#000000;stroke-width:0.79375"
       d="M 973.66867,-127.00001 H 968.377 v 5.29166 h 5.29167 z" />
    <path
       id="rect969-177-25-5-23"
       style="fill:#000000;stroke-width:0.79375"
       d="M 957.79367,-127.00001 H 952.502 v 5.29166 h 5.29167 z" />
    <path
       id="rect969-177-25-5-51"
       style="fill:#000000;stroke-width:3"
       d="M 440.00781 140 L 440.00781 160 L 460.00781 160 L 480.00781 160 L 500.00781 160 L 500.00781 180 L 500.00781 200 L 500.00781 220 L 500.00781 240 L 500.00781 260 L 520.00781 260 L 540.00781 260 L 540.00781 240 L 540.00781 220 L 540.00781 200 L 540.00781 180 L 540.00781 160 L 560.00781 160 L 580.00781 160 L 600.00781 160 L 600.00781 140 L 580.00781 140 L 560.00781 140 L 540.00781 140 L 520.00781 140 L 500.00781 140 L 480.00781 140 L 460.00781 140 L 440.00781 140 z "
       transform="matrix(0.26458333,0,0,0.26458333,814.91652,-137.58334)" />
    <path
       id="rect969-177-25-5-61"
       style="fill:#000000;stroke-width:0.79375"
       d="m 963.08533,-100.54167 h -5.29167 v 5.291664 h 5.29167 z" />
    <path
       id="rect969-177-25-5-37"
       style="fill:#000000;stroke-width:0.79375"
       d="m 963.08533,-100.54167 h -5.29167 v 5.291664 h 5.29167 z" />
    <path
       id="rect969-177-25-5-33"
       style="fill:#000000;stroke-width:0.79375"
       d="m 973.66868,-84.666666 h -5.29167 v 5.29166 h 5.29167 z" />
    <path
       id="rect969-177-25-5-72"
       style="fill:#000000;stroke-width:0.79375"
       d="M 941.91867,-79.375006 H 936.627 v 5.29166 h 5.29167 z" />
    <path
       id="rect969-177-25-5-10"
       style="fill:#000000;stroke-width:0.79375"
       d="M 941.91867,-74.083336 H 936.627 v 5.291659 h 5.29167 z" />
    <path
       id="rect969-177-25-5-137"
       style="fill:#000000;stroke-width:0.79375"
       d="M 941.91867,-68.79167 H 936.627 v 5.29166 h 5.29167 z" />
    <path
       id="rect969-177-25-5-76"
       style="fill:#000000;stroke-width:0.79375"
       d="M 941.91867,-63.500003 H 936.627 v 5.29166 h 5.29167 z" />
    <path
       id="rect969-177-25-5-391"
       style="fill:#000000;stroke-width:0.79375"
       d="M 941.91867,-58.208337 H 936.627 v 5.29166 h 5.29167 z" />
    <path
       id="rect969-177-25-5-729"
       style="fill:#000000;stroke-width:0.79375"
       d="m 936.627,-84.666666 h -5.29167 v 5.29166 h 5.29167 z" />
    <path
       id="rect25674"
       style="fill:#005c00;fill-opacity:1;stroke-width:3"
       d="M 600.00781 480 L 600.00781 500 L 600.00781 520 L 600.00781 540 L 600.00781 560 L 600.00781 580 L 600.00781 600 L 580.00781 600 L 560.00781 600 L 540.00781 600 L 540.00781 620 L 560.00781 620 L 580.00781 620 L 600.00781 620 L 620.00781 620 L 620.00781 600 L 620.00781 580 L 620.00781 560 L 620.00781 540 L 620.00781 520 L 620.00781 500 L 620.00781 480 L 600.00781 480 z "
       transform="matrix(0.26458333,0,0,0.26458333,814.91652,-137.58334)" />
    <path
       id="rect25674-1"
       style="fill:#008000;stroke-width:3"
       d="M 540.00781 480 L 540.00781 500 L 540.00781 520 L 540.00781 540 L 540.00781 560 L 520.00781 560 L 520.00781 540 L 500.00781 540 L 500.00781 520 L 480.00781 520 L 460.00781 520 L 460.00781 540 L 440.00781 540 L 440.00781 560 L 420.00781 560 L 420.00781 580 L 420.00781 600 L 420.00781 620 L 440.00781 620 L 460.00781 620 L 480.00781 620 L 500.00781 620 L 520.00781 620 L 540.00781 620 L 540.00781 600 L 560.00781 600 L 580.00781 600 L 600.00781 600 L 600.00781 580 L 600.00781 560 L 600.00781 540 L 600.00781 520 L 600.00781 500 L 600.00781 480 L 580.00781 480 L 560.00781 480 L 540.00781 480 z "
       transform="matrix(0.26458333,0,0,0.26458333,814.91652,-137.58334)" />
    <path
       id="rect25674-54"
       style="fill:#009900;fill-opacity:1;stroke-width:3"
       d="M 420.00781 520 L 420.00781 540 L 400.00781 540 L 400.00781 560 L 400.00781 580 L 400.00781 600 L 400.00781 620 L 420.00781 620 L 420.00781 600 L 420.00781 580 L 420.00781 560 L 440.00781 560 L 440.00781 540 L 460.00781 540 L 460.00781 520 L 440.00781 520 L 420.00781 520 z "
       transform="matrix(0.26458333,0,0,0.26458333,814.91652,-137.58334)" />
    <path
       id="rect25674-148"
       style="fill:#009900;fill-opacity:1;stroke-width:3"
       d="M 380.00781 480 L 380.00781 500 L 360.00781 500 L 360.00781 520 L 360.00781 540 L 360.00781 560 L 360.00781 580 L 360.00781 600 L 380.00781 600 L 380.00781 580 L 380.00781 560 L 380.00781 540 L 380.00781 520 L 400.00781 520 L 400.00781 500 L 400.00781 480 L 380.00781 480 z "
       transform="matrix(0.26458333,0,0,0.26458333,814.91652,-137.58334)" />
    <path
       id="rect25674-769"
       style="fill:#008000;stroke-width:0.79375"
       d="m 920.75201,-1.8e-5 h -5.29166 v 5.2916664 h 5.29166 z" />
    <path
       id="rect25674-87"
       style="fill:#008000;stroke-width:3"
       d="M 400.00781 480 L 400.00781 500 L 400.00781 520 L 420.00781 520 L 420.00781 500 L 440.00781 500 L 440.00781 480 L 420.00781 480 L 400.00781 480 z "
       transform="matrix(0.26458333,0,0,0.26458333,814.91652,-137.58334)" />
    <path
       id="rect25674-7697"
       style="fill:#008000;stroke-width:3"
       d="M 480.00781 440 L 480.00781 460 L 480.00781 480 L 480.00781 500 L 500.00781 500 L 500.00781 520 L 520.00781 520 L 520.00781 500 L 520.00781 480 L 500.00781 480 L 500.00781 460 L 500.00781 440 L 480.00781 440 z "
       transform="matrix(0.26458333,0,0,0.26458333,814.91652,-137.58334)" />
    <path
       id="rect25674-128-0"
       style="fill:#cca400;fill-opacity:1;stroke-width:3"
       d="M 540.00781 220 L 540.00781 240 L 540.00781 260 L 540.00781 280 L 540.00781 300 L 520.00781 300 L 520.00781 320 L 540.00781 320 L 560.00781 320 L 560.00781 300 L 560.00781 280 L 560.00781 260 L 560.00781 240 L 560.00781 220 L 540.00781 220 z "
       transform="matrix(0.26458333,0,0,0.26458333,814.91652,-137.58334)" />
    <path
       id="rect25674-128-0-2"
       style="fill:#ffcc00;stroke-width:3"
       d="M 500.00781 260 L 500.00781 280 L 500.00781 300 L 500.00781 320 L 520.00781 320 L 520.00781 300 L 540.00781 300 L 540.00781 280 L 540.00781 260 L 520.00781 260 L 500.00781 260 z "
       transform="matrix(0.26458333,0,0,0.26458333,814.91652,-137.58334)" />
    <path
       id="rect25674-128-0-0"
       style="fill:#ffd633;fill-opacity:1;stroke-width:3"
       d="M 480.00781 220 L 480.00781 240 L 480.00781 260 L 480.00781 280 L 480.00781 300 L 480.00781 320 L 500.00781 320 L 500.00781 300 L 500.00781 280 L 500.00781 260 L 500.00781 240 L 500.00781 220 L 480.00781 220 z "
       transform="matrix(0.26458333,0,0,0.26458333,814.91652,-137.58334)" />
    <path
       id="rect25674-128-0-07-9"
       style="fill:#000080;stroke-width:3"
       d="M 600.00781 200 L 600.00781 220 L 580.00781 220 L 580.00781 240 L 580.00781 260 L 580.00781 280 L 600.00781 280 L 620.00781 280 L 640.00781 280 L 640.00781 260 L 660.00781 260 L 660.00781 240 L 680.00781 240 L 680.00781 220 L 680.00781 200 L 660.00781 200 L 640.00781 200 L 620.00781 200 L 600.00781 200 z "
       transform="matrix(0.26458333,0,0,0.26458333,814.91652,-137.58334)" />
    <path
       id="rect25674-128-0-08"
       style="fill:#ffcc00;stroke-width:3"
       d="M 540.00781 160 L 540.00781 180 L 540.00781 200 L 540.00781 220 L 560.00781 220 L 560.00781 200 L 580.00781 200 L 580.00781 180 L 600.00781 180 L 600.00781 160 L 580.00781 160 L 560.00781 160 L 540.00781 160 z "
       transform="matrix(0.26458333,0,0,0.26458333,814.91652,-137.58334)" />
    <path
       id="rect25674-128-0-6"
       style="fill:#cca400;fill-opacity:1;stroke-width:0.79375"
       d="m 968.37701,-84.666685 h -5.29166 v 5.291666 h 5.29166 z" />
    <path
       id="rect25674-128-0-27"
       style="fill:#cca400;fill-opacity:1;stroke-width:0.79375"
       d="m 973.66867,-89.958351 h -5.29166 v 5.291666 h 5.29166 z" />
    <path
       id="rect25674-128-0-39"
       style="fill:#cca400;fill-opacity:1;stroke-width:3"
       d="M 680.00781 120 L 680.00781 140 L 680.00781 160 L 660.00781 160 L 640.00781 160 L 620.00781 160 L 600.00781 160 L 600.00781 180 L 620.00781 180 L 640.00781 180 L 660.00781 180 L 680.00781 180 L 700.00781 180 L 700.00781 160 L 700.00781 140 L 700.00781 120 L 680.00781 120 z "
       transform="matrix(0.26458333,0,0,0.26458333,814.91652,-137.58334)" />
    <path
       id="rect25674-128-0-01"
       style="fill:#ffcc00;stroke-width:3"
       d="M 540.00781 60 L 540.00781 80 L 540.00781 100 L 540.00781 120 L 520.00781 120 L 500.00781 120 L 480.00781 120 L 460.00781 120 L 460.00781 140 L 480.00781 140 L 500.00781 140 L 520.00781 140 L 540.00781 140 L 560.00781 140 L 580.00781 140 L 600.00781 140 L 600.00781 160 L 620.00781 160 L 640.00781 160 L 660.00781 160 L 680.00781 160 L 680.00781 140 L 680.00781 120 L 660.00781 120 L 640.00781 120 L 620.00781 120 L 600.00781 120 L 580.00781 120 L 560.00781 120 L 560.00781 100 L 560.00781 80 L 560.00781 60 L 540.00781 60 z "
       transform="matrix(0.26458333,0,0,0.26458333,814.91652,-137.58334)" />
    <path
       id="rect25674-128-0-490"
       style="fill:#ffcc00;stroke-width:0.79375"
       d="m 973.66867,-132.29168 h -5.29166 v 5.29166 h 5.29166 z" />
    <path
       id="rect25674-128-0-55"
       style="fill:#ffd324;fill-opacity:1;stroke-width:0.79375"
       d="m 968.37701,-132.29168 h -5.29166 v 5.29166 h 5.29166 z" />
    <path
       id="rect25674-128-0-016"
       style="fill:#ffcc00;stroke-width:0.79375"
       d="m 968.37701,-127.00002 h -5.29166 v 5.29167 h 5.29166 z" />
    <path
       id="rect25674-128-0-02"
       style="fill:#ffd324;fill-opacity:1;stroke-width:0.79375"
       d="m 963.08534,-127.00002 h -5.29166 v 5.29167 h 5.29166 z" />
    <path
       id="rect25674-128-0-498"
       style="fill:#ffd324;fill-opacity:1;stroke-width:3"
       d="M 520.00781 60 L 520.00781 80 L 520.00781 100 L 520.00781 120 L 540.00781 120 L 540.00781 100 L 540.00781 80 L 540.00781 60 L 520.00781 60 z "
       transform="matrix(0.26458333,0,0,0.26458333,814.91652,-137.58334)" />
    <path
       id="rect25674-128-0-03"
       style="fill:#ffd633;fill-opacity:1;stroke-width:3"
       d="M 420.00781 120 L 420.00781 140 L 400.00781 140 L 400.00781 160 L 400.00781 180 L 420.00781 180 L 440.00781 180 L 440.00781 160 L 440.00781 140 L 460.00781 140 L 460.00781 120 L 440.00781 120 L 420.00781 120 z "
       transform="matrix(0.26458333,0,0,0.26458333,814.91652,-137.58334)" />
    <path
       id="rect25674-128-0-975"
       style="fill:#ffcc00;stroke-width:3"
       d="M 440.00781 160 L 440.00781 180 L 460.00781 180 L 460.00781 200 L 480.00781 200 L 480.00781 220 L 500.00781 220 L 500.00781 200 L 500.00781 180 L 500.00781 160 L 480.00781 160 L 460.00781 160 L 440.00781 160 z "
       transform="matrix(0.26458333,0,0,0.26458333,814.91652,-137.58334)" />
    <path
       id="rect25674-128-0-32"
       style="fill:#ffd633;fill-opacity:1;stroke-width:0.79375"
       d="m 936.62701,-89.958351 h -5.29166 v 5.291666 h 5.29166 z" />
    <path
       id="rect25674-128-0-73"
       style="fill:#ffd633;fill-opacity:1;stroke-width:0.79375"
       d="m 941.91867,-84.666685 h -5.29166 v 5.291666 h 5.29166 z" />
    <path
       id="rect25674-128-0-07-9-9"
       style="fill:#000066;fill-opacity:1;stroke-width:3"
       d="M 680.00781 200 L 680.00781 220 L 680.00781 240 L 660.00781 240 L 660.00781 260 L 640.00781 260 L 640.00781 280 L 660.00781 280 L 680.00781 280 L 680.00781 260 L 700.00781 260 L 700.00781 240 L 700.00781 220 L 700.00781 200 L 680.00781 200 z "
       transform="matrix(0.26458333,0,0,0.26458333,814.91652,-137.58334)" />
    <path
       id="rect25674-128-0-07-9-46"
       style="fill:#000066;fill-opacity:1;stroke-width:3"
       d="M 580.00781 280 L 580.00781 300 L 600.00781 300 L 620.00781 300 L 640.00781 300 L 640.00781 280 L 620.00781 280 L 600.00781 280 L 580.00781 280 z "
       transform="matrix(0.26458333,0,0,0.26458333,814.91652,-137.58334)" />
    <path
       id="rect25674-128-0-07-9-85"
       style="fill:#000066;fill-opacity:1;stroke-width:3"
       d="M 620.00781 20 L 620.00781 40 L 620.00781 60 L 640.00781 60 L 640.00781 80 L 660.00781 80 L 660.00781 100 L 680.00781 100 L 680.00781 80 L 680.00781 60 L 660.00781 60 L 660.00781 40 L 640.00781 40 L 640.00781 20 L 620.00781 20 z "
       transform="matrix(0.26458333,0,0,0.26458333,814.91652,-137.58334)" />
    <path
       id="rect25674-128-0-07-9-34"
       style="fill:#000080;stroke-width:3"
       d="M 600.00781 40 L 600.00781 60 L 580.00781 60 L 580.00781 80 L 580.00781 100 L 600.00781 100 L 620.00781 100 L 640.00781 100 L 660.00781 100 L 660.00781 80 L 640.00781 80 L 640.00781 60 L 620.00781 60 L 620.00781 40 L 600.00781 40 z "
       transform="matrix(0.26458333,0,0,0.26458333,814.91652,-137.58334)" />
    <path
       id="rect25674-128-0-07-9-24"
       style="fill:#000080;stroke-width:0.79375"
       d="m 957.79365,-132.29168 h -5.29166 v 5.29167 h 5.29166 z" />
    <path
       id="rect25674-128-0-07-9-90"
       style="fill:#0000ad;fill-opacity:1;stroke-width:0.79375"
       d="m 952.50198,-132.29168 h -5.29166 v 5.29167 h 5.29166 z" />
    <path
       id="rect25674-128-0-07-9-14"
       style="fill:#000080;stroke-width:0.79375"
       d="m 952.50198,-127.00001 h -5.29166 v 5.29167 h 5.29166 z" />
    <path
       id="rect25674-128-0-07-9-432"
       style="fill:#0000ad;fill-opacity:1;stroke-width:3"
       d="M 460.00781 40 L 460.00781 60 L 480.00781 60 L 500.00781 60 L 500.00781 40 L 480.00781 40 L 460.00781 40 z "
       transform="matrix(0.26458333,0,0,0.26458333,814.91652,-137.58334)" />
    <path
       id="rect25674-128-0-07-9-51"
       style="fill:#000080;stroke-width:3"
       d="M 460.00781 60 L 460.00781 80 L 460.00781 100 L 480.00781 100 L 500.00781 100 L 500.00781 80 L 500.00781 60 L 480.00781 60 L 460.00781 60 z "
       transform="matrix(0.26458333,0,0,0.26458333,814.91652,-137.58334)" />
    <path
       id="rect25674-128-0-07-9-968"
       style="fill:#0000ad;fill-opacity:1;stroke-width:3"
       d="M 440.00781 60 L 440.00781 80 L 440.00781 100 L 460.00781 100 L 460.00781 80 L 460.00781 60 L 440.00781 60 z "
       transform="matrix(0.26458333,0,0,0.26458333,814.91652,-137.58334)" />
    <path
       id="rect25674-128-0-07-9-605"
       style="fill:#0000ad;fill-opacity:1;stroke-width:3"
       d="M 400.00781 200 L 400.00781 220 L 400.00781 240 L 400.00781 260 L 400.00781 280 L 400.00781 300 L 420.00781 300 L 420.00781 280 L 420.00781 260 L 420.00781 240 L 420.00781 220 L 420.00781 200 L 400.00781 200 z "
       transform="matrix(0.26458333,0,0,0.26458333,814.91652,-137.58334)" />
    <path
       id="rect25674-128-0-07-9-539"
       style="fill:#000080;stroke-width:3"
       d="M 420.00781 200 L 420.00781 220 L 420.00781 240 L 420.00781 260 L 420.00781 280 L 420.00781 300 L 440.00781 300 L 440.00781 320 L 460.00781 320 L 460.00781 300 L 460.00781 280 L 460.00781 260 L 460.00781 240 L 460.00781 220 L 440.00781 220 L 440.00781 200 L 420.00781 200 z "
       transform="matrix(0.26458333,0,0,0.26458333,814.91652,-137.58334)" />
    <path
       id="rect25674-128-0-07-9-97"
       style="fill:#0000ad;fill-opacity:1;stroke-width:0.79375"
       d="m 931.33531,-58.208343 h -5.29166 v 5.291666 h 5.29166 z" />
    <path
       id="rect25674-128-0-07-9-25"
       style="fill:#28170b;stroke-width:0.79375"
       d="m 910.16865,-42.333343 h -5.29166 v 5.291666 h 5.29166 z" />
    <path
       id="rect25674-128-0-07-9-25-8"
       style="fill:#512b15;fill-opacity:1;stroke-width:0.79375"
       d="m 910.16865,-37.041677 h -5.29166 v 5.291666 h 5.29166 z" />
    <path
       id="rect25674-128-0-07-9-25-0"
       style="fill:#28170b;stroke-width:0.79375"
       d="m 904.87698,-37.041677 h -5.29166 v 5.291666 h 5.29166 z" />
    <path
       id="rect25674-128-0-07-9-25-6"
       style="fill:#512b15;fill-opacity:1;stroke-width:0.79375"
       d="m 904.87698,-42.333343 h -5.29166 v 5.291666 h 5.29166 z" />
    <path
       id="rect25674-128-0-07-9-25-2"
       style="fill:#28170b;stroke-width:0.79375"
       d="m 904.87698,-47.62501 h -5.29166 v 5.291666 h 5.29166 z" />
    <path
       id="rect25674-128-0-07-9-25-65"
       style="fill:#512b15;fill-opacity:1;stroke-width:0.79375"
       d="m 899.58531,-47.62501 h -5.29166 v 5.291666 h 5.29166 z" />
    <path
       id="rect25674-128-0-07-9-25-66"
       style="fill:#28170b;stroke-width:0.79375"
       d="m 899.58531,-42.333343 h -5.29166 v 5.291666 h 5.29166 z" />
    <path
       id="rect25674-128-0-07-9-25-3"
       style="fill:#28170b;stroke-width:0.79375"
       d="m 894.29365,-47.62501 h -5.29166 v 5.291666 h 5.29166 z" />
    <path
       id="rect25674-128-0-07-9-25-4"
       style="fill:#28170b;stroke-width:0.79375"
       d="m 899.58531,-52.916677 h -5.29166 v 5.291666 h 5.29166 z" />
    <path
       id="rect25674-128-0-07-9-25-1"
       style="fill:#512b15;fill-opacity:1;stroke-width:0.79375"
       d="m 894.29365,-52.916677 h -5.29166 v 5.291666 h 5.29166 z" />
    <path
       id="rect25674-128-0-07-9-25-7"
       style="fill:#28170b;stroke-width:0.79375"
       d="m 889.00198,-52.916677 h -5.29166 v 5.291666 h 5.29166 z" />
    <path
       id="rect25674-128-0-07-9-25-13"
       style="fill:#28170b;stroke-width:0.79375"
       d="m 894.29365,-58.208343 h -5.29166 v 5.291666 h 5.29166 z" />
    <path
       id="rect25674-128-0-07-9-25-08"
       style="fill:#502d16;stroke-width:0.79375"
       d="m 889.00198,-58.208343 h -5.29166 v 5.291666 h 5.29166 z" />
    <path
       id="rect25674-128-0-07-9-25-29"
       style="fill:#784421;stroke-width:0.79375"
       d="m 883.71031,-58.208343 h -5.29166 v 5.291666 h 5.29166 z" />
    <path
       id="rect25674-128-0-07-9-25-29-0"
       style="fill:#784421;stroke-width:0.79375"
       d="m 889.00198,-63.50001 h -5.29166 v 5.291666 h 5.29166 z" />
    <path
       id="rect25674-128-0-07-9-25-29-1"
       style="fill:#4f2d17;fill-opacity:1;stroke-width:0.79375"
       d="m 883.71031,-63.50001 h -5.29166 v 5.291666 h 5.29166 z" />
    <path
       id="rect25674-128-0-07-9-25-29-08"
       style="fill:#784421;stroke-width:0.79375"
       d="m 878.41865,-63.50001 h -5.29166 v 5.291666 h 5.29166 z" />
    <path
       id="rect25674-128-0-07-9-25-29-16"
       style="fill:#4f2d17;fill-opacity:1;stroke-width:0.79375"
       d="m 878.41865,-58.208343 h -5.29166 v 5.291666 h 5.29166 z" />
    <path
       id="rect25674-128-0-07-9-25-29-7"
       style="fill:#784421;stroke-width:0.79375"
       d="m 873.12698,-58.208343 h -5.29166 v 5.291666 h 5.29166 z" />
    <path
       id="rect25674-128-0-07-9-25-29-8"
       style="fill:#784421;stroke-width:0.79375"
       d="m 878.41865,-52.916677 h -5.29166 v 5.291666 h 5.29166 z" />
    <path
       id="rect25674-128-0-07-9-25-29-82"
       style="fill:#4f2d17;fill-opacity:1;stroke-width:0.79375"
       d="m 873.12698,-52.916677 h -5.29166 v 5.291666 h 5.29166 z" />
    <path
       id="rect25674-128-0-07-9-25-29-13"
       style="fill:#784421;stroke-width:0.79375"
       d="m 873.12698,-47.62501 h -5.29166 v 5.291666 h 5.29166 z" />
    <path
       id="rect25674-128-0-07-9-25-29-89"
       style="fill:#784421;stroke-width:0.79375"
       d="m 867.83531,-52.916677 h -5.29166 v 5.291666 h 5.29166 z" />
    <path
       id="rect25674-128-0-07-9-25-29-3"
       style="fill:#4f2d17;fill-opacity:1;stroke-width:0.79375"
       d="m 867.83531,-47.62501 h -5.29166 v 5.291666 h 5.29166 z" />
    <path
       id="rect25674-128-0-07-9-25-29-5"
       style="fill:#784421;stroke-width:0.79375"
       d="m 867.83531,-42.333343 h -5.29166 v 5.291666 h 5.29166 z" />
    <path
       id="rect25674-128-0-07-9-25-29-4"
       style="fill:#4f2d17;fill-opacity:1;stroke-width:0.79375"
       d="m 862.54365,-42.333343 h -5.29166 v 5.291666 h 5.29166 z" />
    <path
       id="rect25674-128-0-07-9-25-29-12"
       style="fill:#784421;stroke-width:0.79375"
       d="m 862.54365,-47.62501 h -5.29166 v 5.291666 h 5.29166 z" />
    <path
       id="rect25674-128-0-07-9-25-29-2"
       style="fill:#4f2d17;fill-opacity:1;stroke-width:0.79375"
       d="m 889.00198,-68.791677 h -5.29166 v 5.291666 h 5.29166 z" />
    <path
       id="rect25674-128-0-07-9-25-29-77"
       style="fill:#784421;stroke-width:0.79375"
       d="m 889.00198,-74.083343 h -5.29166 v 5.291666 h 5.29166 z" />
    <path
       id="rect25674-128-0-07-9-25-29-9"
       style="fill:#784421;stroke-width:0.79375"
       d="m 894.29365,-68.791677 h -5.29166 v 5.291666 h 5.29166 z" />
    <path
       id="rect25674-128-0-07-9-25-29-14"
       style="fill:#4f2d17;fill-opacity:1;stroke-width:0.79375"
       d="m 894.29365,-74.083343 h -5.29166 v 5.291666 h 5.29166 z" />
    <path
       id="rect25674-128-0-07-9-25-29-04"
       style="fill:#784421;stroke-width:0.79375"
       d="m 894.29365,-79.37501 h -5.29166 v 5.291666 h 5.29166 z" />
    <path
       id="rect25674-128-0-07-9-25-29-78"
       style="fill:#4f2d17;fill-opacity:1;stroke-width:0.79375"
       d="m 899.58531,-79.37501 h -5.29166 v 5.291666 h 5.29166 z" />
    <path
       id="rect25674-128-0-07-9-25-29-76"
       style="fill:#784421;stroke-width:0.79375"
       d="m 904.87698,-79.37501 h -5.29166 v 5.291666 h 5.29166 z" />
    <path
       id="rect25674-128-0-07-9-25-29-80"
       style="fill:#4f2d17;fill-opacity:1;stroke-width:0.79375"
       d="m 904.87698,-84.666677 h -5.29166 v 5.291666 h 5.29166 z" />
    <path
       id="rect25674-128-0-07-9-25-29-86"
       style="fill:#784421;stroke-width:0.79375"
       d="m 899.58531,-84.666677 h -5.29166 v 5.291666 h 5.29166 z" />
    <path
       id="rect25674-128-0-07-9-25-29-145"
       style="fill:#784421;stroke-width:0.79375"
       d="m 899.58531,-74.083343 h -5.29166 v 5.291666 h 5.29166 z" />
    <path
       id="rect25674-128-0-07-9-25-29-25"
       style="fill:#784421;stroke-width:0.79375"
       d="m 883.71031,-68.791677 h -5.29166 v 5.291666 h 5.29166 z" />
    <path
       id="rect25674-128-0-07-9-25-29-93"
       style="fill:#d7eef4;stroke-width:3"
       d="M 180.00781 200 L 180.00781 220 L 160.00781 220 L 160.00781 240 L 180.00781 240 L 180.00781 260 L 200.00781 260 L 200.00781 280 L 220.00781 280 L 240.00781 280 L 240.00781 260 L 240.00781 240 L 220.00781 240 L 220.00781 220 L 200.00781 220 L 200.00781 200 L 180.00781 200 z "
       transform="matrix(0.26458333,0,0,0.26458333,814.91652,-137.58334)" />
    <path
       id="rect25674-128-0-07-9-25-29-93-53"
       style="fill:#aedaea;fill-opacity:1;stroke-width:0.79375"
       d="m 862.54365,-84.666677 h -5.29166 v 5.291666 h 5.29166 z" />
    <path
       id="rect25674-128-0-07-9-25-29-93-20"
       style="fill:#d7eef4;stroke-width:0.79375"
       d="m 862.54365,-89.958343 h -5.29166 v 5.291666 h 5.29166 z" />
    <path
       id="rect25674-128-0-07-9-25-29-93-00"
       style="fill:#aedaea;fill-opacity:1;stroke-width:0.79375"
       d="m 857.25198,-89.958343 h -5.29166 v 5.291666 h 5.29166 z" />
    <path
       id="rect25674-128-0-07-9-25-29-93-9"
       style="fill:#d7eef4;stroke-width:0.79375"
       d="m 857.25198,-84.666677 h -5.29166 v 5.291666 h 5.29166 z" />
    <path
       id="rect25674-128-0-07-9-25-29-93-8"
       style="fill:#d7eef4;stroke-width:0.79375"
       d="m 851.96031,-89.958343 h -5.29166 v 5.291666 h 5.29166 z" />
    <path
       id="rect25674-128-0-07-9-25-29-93-09"
       style="fill:#d7eef4;stroke-width:0.79375"
       d="m 857.25198,-95.25001 h -5.29166 v 5.291666 h 5.29166 z" />
    <path
       id="rect25674-128-0-07-9-25-29-93-67"
       style="fill:#aedaea;fill-opacity:1;stroke-width:0.79375"
       d="m 851.96031,-95.25001 h -5.29166 v 5.291666 h 5.29166 z" />
    <path
       id="rect25674-128-0-07-9-25-29-93-21"
       style="fill:#d7eef4;stroke-width:0.79375"
       d="m 851.96031,-100.54168 h -5.29166 v 5.291669 h 5.29166 z" />
    <path
       id="rect25674-128-0-07-9-25-29-93-44"
       style="fill:#aedaea;fill-opacity:1;stroke-width:0.79375"
       d="m 846.66865,-100.54168 h -5.29166 v 5.291669 h 5.29166 z" />
    <path
       id="rect25674-128-0-07-9-25-29-93-84"
       style="fill:#d7eef4;stroke-width:0.79375"
       d="m 846.66865,-95.25001 h -5.29166 v 5.291666 h 5.29166 z" />
    <path
       id="rect25674-128-0-07-9-25-29-93-98"
       style="fill:#d7eef4;stroke-width:0.79375"
       d="m 846.66865,-105.83334 h -5.29166 v 5.29166 h 5.29166 z" />
    <path
       id="rect25674-128-0-07-9-25-29-93-441"
       style="fill:#aedaea;fill-opacity:1;stroke-width:0.79375"
       d="m 841.37698,-105.83334 h -5.29166 v 5.29166 h 5.29166 z" />
    <path
       id="rect25674-128-0-07-9-25-29-93-96"
       style="fill:#d7eef4;stroke-width:0.79375"
       d="m 841.37698,-100.54168 h -5.29166 v 5.291669 h 5.29166 z" />
    <path
       id="rect25674-128-0-07-9-25-29-93-80"
       style="fill:#d7eef4;stroke-width:0.79375"
       d="m 836.08531,-105.83334 h -5.29166 v 5.29166 h 5.29166 z" />
    <path
       id="rect25674-128-0-07-9-25-29-93-93"
       style="fill:#d7eef4;stroke-width:0.79375"
       d="m 841.37698,-111.12501 h -5.29166 v 5.29167 h 5.29166 z" />
    <path
       id="rect25674-128-0-07-9-25-29-93-63"
       style="fill:#aedaea;fill-opacity:1;stroke-width:0.79375"
       d="m 836.08531,-111.12501 h -5.29166 v 5.29167 h 5.29166 z" />
    <path
       id="rect25674-128-0-07-9-25-29-93-89"
       style="fill:#d7eef4;stroke-width:0.79375"
       d="m 836.08531,-116.41668 h -5.29166 v 5.29167 h 5.29166 z" />
    <path
       id="rect25674-128-0-07-9-25-29-93-50"
       style="fill:#aedaea;fill-opacity:1;stroke-width:0.79375"
       d="m 830.79365,-116.41668 h -5.29166 v 5.29167 h 5.29166 z" />
    <path
       id="rect25674-128-0-07-9-25-29-93-1"
       style="fill:#d7eef4;stroke-width:0.79375"
       d="m 830.79365,-111.12501 h -5.29166 v 5.29167 h 5.29166 z" />
    <path
       id="rect25674-128-0-07-9-25-29-93-7"
       style="fill:#d7eef4;stroke-width:3"
       d="M 20.007812 60 L 20.007812 80 L 20.007812 100 L 40.007812 100 L 40.007812 80 L 60.007812 80 L 60.007812 60 L 40.007812 60 L 20.007812 60 z "
       transform="matrix(0.26458333,0,0,0.26458333,814.91652,-137.58334)" />
    <path
       id="rect25674-93"
       style="fill:#004d00;fill-opacity:1;stroke-width:3"
       d="M 520.00781 420 L 520.00781 440 L 520.00781 460 L 540.00781 460 L 560.00781 460 L 580.00781 460 L 600.00781 460 L 620.00781 460 L 640.00781 460 L 640.00781 440 L 640.00781 420 L 620.00781 420 L 600.00781 420 L 580.00781 420 L 560.00781 420 L 540.00781 420 L 520.00781 420 z "
       transform="matrix(0.26458333,0,0,0.26458333,814.91652,-137.58334)" />
    <path
       id="rect25674-93-42"
       style="fill:#004d00;fill-opacity:1;stroke-width:3"
       d="M 460.00781 380 L 460.00781 400 L 460.00781 420 L 480.00781 420 L 500.00781 420 L 500.00781 400 L 520.00781 400 L 540.00781 400 L 560.00781 400 L 580.00781 400 L 580.00781 380 L 560.00781 380 L 540.00781 380 L 520.00781 380 L 500.00781 380 L 480.00781 380 L 460.00781 380 z "
       transform="matrix(0.26458333,0,0,0.26458333,814.91652,-137.58334)" />
  </g>
</svg>
