<?xml version="1.0" encoding="UTF-8" standalone="no"?>
<!-- Created with Inkscape (http://www.inkscape.org/) -->

<svg
   width="200"
   height="200"
   viewBox="0 0 52.916664 52.916667"
   version="1.1"
   id="svg5"
   inkscape:version="1.1 (ce6663b3b7, 2021-05-25)"
   sodipodi:docname="stairs.svg"
   xmlns:inkscape="http://www.inkscape.org/namespaces/inkscape"
   xmlns:sodipodi="http://sodipodi.sourceforge.net/DTD/sodipodi-0.dtd"
   xmlns="http://www.w3.org/2000/svg"
   xmlns:svg="http://www.w3.org/2000/svg">
  <sodipodi:namedview
     id="namedview7"
     pagecolor="#ffffff"
     bordercolor="#666666"
     borderopacity="1.0"
     inkscape:pageshadow="2"
     inkscape:pageopacity="0.0"
     inkscape:pagecheckerboard="0"
     inkscape:document-units="mm"
     showgrid="true"
     width="110.00001px"
     units="px"
     borderlayer="true"
     inkscape:showpageshadow="false"
     scale-x="1"
     inkscape:snap-bbox="true"
     inkscape:bbox-nodes="true"
     inkscape:zoom="2.8284271"
     inkscape:cx="181.19611"
     inkscape:cy="121.79914"
     inkscape:window-width="1848"
     inkscape:window-height="1016"
     inkscape:window-x="72"
     inkscape:window-y="27"
     inkscape:window-maximized="1"
     inkscape:current-layer="layer1"
     fit-margin-top="0"
     fit-margin-left="0"
     fit-margin-right="0"
     fit-margin-bottom="0"
     height="200px"
     showguides="true">
    <inkscape:grid
       type="xygrid"
       id="grid9"
       empspacing="1"
       spacingy="2.6458335"
       spacingx="2.6458335"
       dotted="true"
       originx="-10.583336"
       originy="-7.9375001"
       visible="true"
       enabled="true" />
  </sodipodi:namedview>
  <defs
     id="defs2">
    <inkscape:perspective
       sodipodi:type="inkscape:persp3d"
       inkscape:vp_x="0 : 26.458333 : 1"
       inkscape:vp_y="0 : 1000 : 0"
       inkscape:vp_z="52.916664 : 26.458333 : 1"
       inkscape:persp3d-origin="26.458332 : 17.638889 : 1"
       id="perspective20505" />
  </defs>
  <g
     inkscape:label="Layer 1"
     inkscape:groupmode="layer"
     id="layer1"
     transform="translate(-10.583334,-7.9375)">
    <path
       id="rect2128"
       style="fill:#ececec;fill-opacity:1;stroke-width:0.999999"
       d="M 0 0 L 0 10 L 0 190 L 0 200 L 190 200 L 200 200 L 200 10 L 200 0 L 0 0 z M 10 10 L 190 10 L 190 130 L 180 130 L 180 190 L 160 190 L 160 110 L 150 110 L 150 190 L 130 190 L 130 90 L 120 90 L 120 190 L 100 190 L 100 70 L 90 70 L 90 190 L 70 190 L 70 50 L 60 50 L 60 190 L 40 190 L 40 30 L 30 30 L 30 190 L 10 190 L 10 10 z "
       transform="matrix(0.26458333,0,0,0.26458333,10.583334,7.9375)" />
    <rect
       style="fill:#666666;stroke-width:0.264583"
       id="rect2185"
       width="5.291667"
       height="44.979172"
       x="13.229165"
       y="13.229167" />
    <rect
       style="fill:#666666;stroke-width:0.264583"
       id="rect2189"
       width="5.291667"
       height="39.687504"
       x="21.166666"
       y="18.520834" />
    <rect
       style="fill:#666666;stroke-width:0.264583"
       id="rect2191"
       width="5.291667"
       height="34.395836"
       x="29.104168"
       y="23.8125" />
    <rect
       style="fill:#666666;stroke-width:0.264583"
       id="rect2193"
       width="5.291667"
       height="29.104168"
       x="37.041668"
       y="29.104168" />
    <rect
       style="fill:#666666;stroke-width:0.239324"
       id="rect2193-9"
       width="5.291667"
       height="23.8125"
       x="44.979168"
       y="34.395836" />
    <rect
       style="fill:#666666;fill-opacity:1;stroke-width:0.264583"
       id="rect16454"
       width="5.291667"
       height="18.520836"
       x="52.916668"
       y="39.6875" />
    <path
       id="rect44134"
       style="fill:#000000;fill-opacity:1;stroke-width:0.999999"
       d="M 10 10 L 10 20 L 30 20 L 30 30 L 40 30 L 40 40 L 60 40 L 60 50 L 70 50 L 70 60 L 90 60 L 90 70 L 100 70 L 100 80 L 120 80 L 120 90 L 130 90 L 130 100 L 150 100 L 150 110 L 160 110 L 160 120 L 180 120 L 180 130 L 190 130 L 190 120 L 190 110 L 190 100 L 190 90 L 190 80 L 190 70 L 190 60 L 190 50 L 190 40 L 190 30 L 190 20 L 190 10 L 10 10 z "
       transform="matrix(0.26458333,0,0,0.26458333,10.583334,7.9375)" />
  </g>
</svg>
