<svg xmlns="http://www.w3.org/2000/svg" viewBox="0 0 410.1 295.64"><defs><style>.cls-1{fill:#010101;}.cls-2{fill:#435ba9;}.cls-3{fill:#7e84c0;}.cls-4{fill:#fff;}</style></defs><g id="Layer_2" data-name="Layer 2"><g id="Layer_1-2" data-name="Layer 1"><path class="cls-1" d="M388.47,98.51v3.88l-1.9.14v9.71l-2,.15v9.71l-2,.15V132l-2,.15v7.74l-2,.15v9.71l-2,.15v5.76H362.91c0-.54-.08-1.12-.12-1.82H345.16c0-.7-.08-1.27-.12-1.93h-1.85l-.13,1.79h-1.83V144l1.84-.13V134.1l2-.13v-9.73l1.93-.13V102.53l-1.83-.11V98.59l-1.95-.11c0-.6-.08-1.17-.13-1.86l-1.85-.12-.12-1.85-1.85-.12c0-.59-.08-1.17-.12-1.85l-1.85-.13c0-.58-.08-1.16-.13-1.84l-1.84-.13c0-.58-.08-1.16-.13-1.84l-1.84-.13c0-.58-.08-1.16-.13-1.85l-1.85-.12c0-.59-.08-1.16-.12-1.85l-1.85-.13-.13-1.84-1.84-.13c0-.58-.08-1.16-.13-1.82h-1.83v3.79l1.81.1.13,1.85,1.87.14v5.78l1.93.13v15.66l-1.83.12v7.76l-2,.13v5.79l-2,.12v3.83l-2,.11V130l-1.95.1-.12,1.86-1.88.13v3.83l-1.94.1c0,.6-.08,1.18-.13,1.88h-3.83l-.1,2-1.87.11c0,.59-.07,1.17-.12,1.86l-1.84.12-.13,1.87h-3.82c0,.69-.08,1.27-.12,2h-3.83l-.11,1.93H282l-.1-1.84h-5.81l-.1-2h-3.85c0-.69-.06-1.27-.09-2l-1.87-.1-.12-1.84h-3.85l-.08,1.82-1.87.11c0,.6-.07,1.18-.12,1.91h-3.9l0,0V142l1.88-.19.18-1.81,1.82-.13.1-1.85,1.84-.11.17-1.83,2-.2V132.1l1.91-.12v-5.79l2-.12V114.39l1.81-.19V102.52l-1.86-.12V94.64l-2-.12V90.65h-1.94v-4h-2V82.83l-1.88-.18-.19-1.86h-1.88v-2h-2V76.92l-1.89-.2-.17-1.82-1.83-.1c0-.65-.06-1.23-.1-2h-3.81l-.19-2h-3.78c0-.69-.08-1.22-.13-1.91h-3.81l-.11-1.86H226.73l.09,2H240.5c0,.69.07,1.22.11,1.9h5.79l.14,2h3.79l.2,2h3.77l.11,1.87,1.84.12c.06.69.11,1.26.16,1.89h3.88v2h2v3.88l1.88.17.19,1.86h1.88v4h2v7.82l1.85.18v25.46l-2,.21v3.77l-1.89.11V132l-1.88.14c-.07.69-.13,1.27-.19,1.89h-1.88l0,0v-3.86l2-.24V126.2l2-.14v-3.82l1.84-.11V100.56l-1.94-.14V92.7l-2-.23V88.74l-1.83-.15-.22-1.85-1.85-.11v-3.8l-1.88-.17-.22-1.92h-3.75l-.13-1.85-1.81-.18-.24-1.92H248.5l-.14-2h-3.77l-.24-2h-9.66L234.56,71H218.94l-.23,1.92H213l-.14,2h-3.78l-.21,1.87-1.8.14-.13,1.94h-3.78l-.2,1.87-1.79.12L201,82.65l-1.81.22c-.08.67-.14,1.25-.2,1.79l-1.77.12-.19,1.9h-1.88V82.82l1.89-.13.14-1.84,1.83-.13.14-1.84,1.83-.14.15-1.85H205l.14-2,1.83-.14.14-1.86h3.81c.05-.69.09-1.26.13-2l1.84-.14L213,69h5.77l.15-2h5.77c0-.69.09-1.26.14-1.93h21.56c.05.54.09,1.11.15,1.82h3.79l.15,2h3.79l.15,2h3.81l.13,1.94,1.84.14.14,1.84,1.83.14.14,1.83,1.83.14.15,1.83,1.83.14.14,1.82h3.81l.13-1.8,1.83-.14.15-1.85H276l.15-2h3.8l.15-2h3.79l.15-2h5.77l.15-2h19.6V65.08l2-.14V51.27l2-.14V39.44l2-.14V33.52l2-.14V25.63l2-.14V13.8l2-.14V9.85l2-.13V5.88h3.92l.13-2h5.8l.11-2H345c0-.69.07-1.27.11-1.93H351l.1,1.84h9.76l.1,2,1.86.12c0,.59.08,1.16.12,1.84l1.88.13V9.7l2,.12V17.6l1.93.1v3.85l-1.84.1V37.32l-1.94.11c0,.6-.08,1.17-.13,1.84H353l-.09-1.81-1.89-.13v-5.8l-2-.11V27.59l-1.94-.11c-.05-.6-.09-1.18-.13-1.84h-7.79v3.79l-2,.11v3.84l-1.95.1c0,.6-.07,1.18-.11,1.86l-1.84.12v5.82h3.81c0,.7.06,1.28.09,2l1.87.11.11,1.86,1.91.12v3.9l0,0h-1.9l-.2-1.88-1.81-.18c0-.66-.08-1.19-.12-1.82l-1.86-.1c0-.67-.06-1.24-.09-1.82h-3.82l-.19,1.8-1.73.17v1.84l1.79.09c0,.67.07,1.25.11,1.84l1.83.16.19,1.81,1.81.19.13,1.82,1.85.09c0,.68.07,1.25.11,1.85l1.83.16c.07.68.13,1.26.19,1.81l1.81.18c0,.66.08,1.2.12,1.82l1.85.1c0,.68.08,1.25.11,1.84l1.84.17c.07.68.13,1.25.19,1.81l1.81.18c0,.66.08,1.2.12,1.82l1.85.1c0,.67.08,1.25.11,1.84l1.83.16c.08.69.14,1.26.19,1.81l1.91.2v3.77l1.88.11c0,.67.07,1.25.11,1.84l1.83.16c.07.68.13,1.26.18,1.77h3.78V72.94L359,72.83c0-.68-.08-1.25-.12-1.84L357,70.82c-.08-.68-.14-1.26-.2-1.84L355,68.89V65.05L353,64.94c-.05-.68-.09-1.25-.12-1.84l-1.83-.17c-.07-.68-.14-1.26-.2-1.81L349.08,61c0-.67-.07-1.21-.1-1.82L347.12,59c0-.67-.08-1.25-.12-1.84L345.1,57V53.15l0,0H347c0,.6.1,1.18.15,1.87l1.83.14.14,1.83,1.83.15c0,.55.09,1.13.15,1.82l1.82.15c.05.55.09,1.13.15,1.83l1.83.14c0,.55.08,1.13.14,1.83l1.84.13v3.8l2,.16c0,.54.09,1.12.14,1.83l1.84.13c0,.55.08,1.13.13,1.82h3.86V69l2-.14V65l1.93-.08c0-.56.08-1.13.13-1.86l1.84-.12c0-.55.08-1.12.13-1.85l1.88-.13V57.15h1.93c0-.63.08-1.2.13-1.94l1.88-.12V51.24h1.91c.07-.67.13-1.29.2-2h1.89v-2h2v-2h2v-2h2V41.4h3.95v1.89h2v2h2v2h2v2h2v3.94h2v3.94h2v4h2V65h2v3.94h2v3.94h1.92v4h-1.86v2h-2v2h-2v2h-2v2l-2,.09c0,.61-.05,1.19-.08,1.88l-1.89.09c0,.61-.05,1.19-.09,1.92h-1.94l0,0V84.81l1.88-.2c.07-.69.12-1.26.18-1.82l1.82-.1c0-.66.07-1.23.1-1.85l1.84-.13c.07-.69.13-1.27.18-1.82l1.8-.21c.07-.68.12-1.25.17-1.81l1.78-.09V71h-3.77c-.07.67-.13,1.25-.19,1.8l-1.82.18c0,.67-.06,1.2-.1,1.82l-1.85.1c-.05.68-.09,1.26-.13,1.84l-1.82.18c-.08.68-.14,1.26-.2,1.8l-1.82.17c0,.69-.06,1.22-.09,1.82l-1.85.11-.16,1.83-1.81.19c-.07.69-.13,1.26-.18,1.81l-1.88.13v3.8l-1.88.14-.18,1.82-1.8.2c-.07.69-.12,1.26-.17,1.81l-1.83.1-.1,1.86-2,.13v3.8l-1.86.17-.13,1.83-1.93.1v3.82l-2,.17v9.71l-1.91.13v13.67l-2,.12v9.71l-2,.21v11.66l-1.81.12v1.81h7.86v-5.74l2-.2v-9.69l2-.11v-7.76l2-.17V118.3l1.9-.13v-9.73l1.88-.11v-1.84l-1.76-.17v-3.8l1.81-.12.1-1.84,1.84-.13c.07-.69.12-1.27.19-1.89h1.88Zm-19.7,37.4V122.29l2-.22V110.42l1.92-.15V100.6l1.89-.23c.05-.64.08-1.17.13-1.79l1.81-.12c.07-.68.13-1.26.19-1.81l1.92-.25V92.68l1.83-.15c.08-.69.15-1.26.21-1.81l1.8-.2c.05-.67.08-1.21.12-1.77l1.81-.18c.09-.68.16-1.25.23-1.82l1.86-.14V82.85l1.86-.21c.08-.68.16-1.26.22-1.81l1.77-.13c.06-.66.11-1.23.15-1.8l1.81-.22c.08-.68.14-1.25.2-1.8l1.77-.12c.07-.67.13-1.25.18-1.81l1.82-.22.14-1.78,1.8-.13c.08-.69.14-1.26.2-1.81l1.81-.23L400.4,69l1.78-.12v-5.8l-1.87-.14V59.17l-2-.2V55.2l-1.92-.15V51.29l-1.86-.22c-.08-.68-.14-1.25-.21-1.8l-1.76-.12c-.07-.67-.13-1.25-.18-1.81l-1.83-.22c0-.64-.08-1.17-.13-1.76H386.6l-.2,1.79-1.8.23c-.05.64-.09,1.18-.14,1.77l-1.8.15c-.08.68-.15,1.26-.21,1.81l-1.8.2c0,.67-.08,1.2-.12,1.78l-2,.16V57l-1.85.15c0,.64-.09,1.21-.13,1.8l-2,.21V63l-1.82.14c-.06.66-.11,1.23-.16,1.8l-1.81.22-.19,1.79-1.9.13v3.77l-1.87.23c-.05.64-.1,1.18-.15,1.79l-1.94.13v3.78l-1.86.2-.13,1.78-1.81.17c-.08.68-.15,1.26-.22,1.83l-1.78.13c0,.63-.09,1.21-.13,1.79h-2V78.87L355,78.72l-.14-1.79-1.82-.22c-.07-.68-.14-1.25-.2-1.8L351,74.78V71l-1.88-.24c0-.63-.09-1.17-.14-1.78l-1.79-.13c-.08-.68-.15-1.26-.21-1.81l-1.8-.22c0-.65-.09-1.18-.14-1.77l-1.8-.15L343,63.11l-1.8-.2c-.05-.68-.08-1.21-.12-1.77L339.27,61c-.09-.68-.16-1.26-.23-1.82L337.26,59l-.13-1.8-1.81-.2-.23-1.8-1.77-.14c-.05-.65-.1-1.23-.14-1.8L331.33,53c0-.63-.07-1.16-.1-1.76h-1.84l-.17,1.79-1.92.23V59l-2,.15v9.73l-1.85.11v7.75l1.8.17.23,1.92h3.74l.14,1.84,1.8.2c.09.68.16,1.25.23,1.8l1.78.15.14,1.79,1.81.21c.08.68.14,1.26.21,1.81l1.76.12.18,1.81,1.82.22.13,1.78,1.81.13.2,1.81,1.8.23c.06.64.1,1.17.15,1.77l1.79.14c.08.69.15,1.26.21,1.81l1.81.21.12,1.77,1.81.17c.08.69.15,1.26.22,1.83l1.76.13v15.62l-2,.2V128l-1.93.15v11.65l-1.86.22v9.75h7.71c.08.74.14,1.31.19,1.84h11.8v-5.72l2-.16v-9.7Z"/><path class="cls-1" d="M183.35,250.38h-3.91v1.87l-2,.19v1.88h-4l0,0v-1.91l1.88-.16.17-1.81,1.86-.19V248.4h2v-3.94h1.88v-7.89l-1.85.09v7.83h-2v3.94l-4,0,0,0v-1.88l2-.25v-3.74l2-.14V230.73l1.83-.14v-7.73l-1.95-.18V209l-1.93-.16v-3.75l-1.86-.22c-.08-.68-.14-1.25-.21-1.8l-1.78-.12c-.05-.67-.1-1.24-.14-1.79h-3.81l-.15,1.87h-3.91v3.87l-1.92.12v7.75l-2,.16v9.71l-1.92.16v3.75l-1.86.21-.23,1.78h-3.84V211l-2-.23V205H144l-.2-1.83H140l-.14,1.76-1.88.18V207H136.1l-.21-1.94L134,205v-5.81l-1.93-.1-.11-1.85-1.83-.16-.19-1.81-1.91-.2v-3.77l-1.87-.1-.12-1.84-1.83-.17-.19-1.81-1.81-.18-.12-1.82-1.85-.1-.11-2h-3.8l-.19-1.81h-3.79l-.12,1.8-1.81.1v2h3.85v1.95h-6v3.87l-1.92.14v3.76l-2,.25V199l-1.83.14v4h3.77l.14,1.8,1.91.19V207h-4v-1.89h-3.94l.09,1.86h3.88v4h-2V209h-5.9V211h-2v1.85h-3.9L90.56,211l-1.84-.13L88.58,209l-2-.16v-3.82H82.75v-3.87L80.87,201l-.22-1.8L78.79,199v-3.77l-1.87-.17-.2-1.89h-5.8v-1.89l1.87-.15v-1.83L71,189.19v-3.8l-2-.14-.14-1.84-1.83-.14-.14-1.83-1.83-.14-.14-1.83-1.83-.14L63,177.5l-1.82-.15L61,175.53l-1.85-.15v-3.8l-2-.14-.14-1.83-1.83-.15-.14-1.81H51.25v5.73l-2,.15v3.8l-2,.14v5.78l-2,.14v5.78l-2,.13v5.79l-2,.13V199l-2,.13V203l-2,.13v3.82l-2,.11v5.78H29.54L29.45,211H25.6l-.1-2H21.66l-.1-2H17.71l-.09-2H13.76v-2l-2-.1-.11-1.89H5.87v-2l-1.94-.1v-3.89h1.9l0,0v2H9.72l.1,1.83H15.7v-7.75l2-.13v-7.78l1.91-.09V175.5l2-.12V169.6l2-.18v-5.76l1.91-.13v-5.78l2-.12v-7.74l2-.21v-5.74l1.9-.12V138l2-.13v-5.77l1.86-.18.13-1.88H47.19l.12-2h5.77l.19-1.85,1.79-.17v-1.83l-1.84-.1-.12-1.81H49.25l-.08,1.85H29.55l-.11,1.94-2,.11V130l-2,.22V136l-1.91.11v5.78l-2,.16v5.78l-1.91.11v5.8l-2,.12v7.75l-2,.19v9.69l-1.91.13v5.79l-2,.12v5.84H9.75l0,0v-7.82l1.9-.13v-7.75l2-.14v-9.72l2-.15v-5.77l2-.14V146l2-.15V140l2-.15v-5.76l2-.16V128.2l2-.15v-5.8H43.21l.14-1.94H55.07l.11,1.8,1.87.14v3.8l2,.14V130l2,.14v3.8l2,.14v3.81l2,.13v3.82l2,.12.13,1.85,1.87.13v3.81l2,.14v3.81l2,.13v3.82l2,.11.12,1.85,1.87.14v3.81l2,.13v3.82l2,.12.13,1.85,1.87.13v3.8h2v-3.78l2-.13v-5.79l2-.13v-5.79l2-.12v-5.8l2-.11v-3.83l2-.12V138l2-.11v-3.83l2-.11v-5.81l2-.11v-5.81l2-.1v-3.81H130v3.8l2,.09v3.86h2l.1,2H136l0,0v5.83h1.91l.19-1.8,1.81-.17.12-1.88h3.82l.12-2h3.8l.18-1.92h3.86l0,0V128l-1.89.24-.16,1.86H146l-.22,2H142l-.14,1.82-1.8.16-.22,1.84-1.77.1v1.85l1.95.16v3.79l1.85.15.13,1.8,2,.19v5.74l1.92.16v5.73l2,.23v3.75l1.92.15v3.76l2,.23v3.75l2,.14v5.74l2,.24v5.71l2,.15v3.81l1.92.11v5.77l1.88.17.22,1.84,1.86.12v3.77h1.87l.22-1.81,1.79-.13.13-1.94h3.77l.24-2h3.74l.14-2h3.78l.2-1.87,1.8-.13.14-1.89h3.86v1.88l-1.88.15-.15,1.83-1.82.15c-.05.56-.09,1.13-.15,1.84h-3.78c-.06.69-.11,1.26-.16,2h-3.79c-.05.69-.1,1.26-.16,2l-1.83.14c0,.55-.08,1.13-.13,1.84h-3.8l-.15,2h-7.8v2h-7.88V201l-1.9.13v1.93h3.84V205h1.9v13.79h2v-5.84h2v-7.88h2v-3.94h2v-2h5.91v-1.91h5.91v1.85h4V201h2l.1-1.88h3.91l0,0V201l-1.88.2c-.07.68-.13,1.26-.18,1.81l-1.79.12v1.81h3.79l.18-2h3.79c0-.69.08-1.22.13-1.9h3.81c0-.72.08-1.3.12-1.89l1.83-.17.2-2h3.77l.12-1.9H203l.13-2h3.8c.07-.73.12-1.31.17-1.85h1.83l.1,1.85,1.84.11.17,1.83,2,.21V199h3.77v-3.8l-1.87-.15V191.2l0,0h2l0,0v1.87l2,.26v3.73l1.82.14V199l-1.78.23V203l1.8.15.21,2h15.59c.06.7.1,1.23.16,1.91h7.7l.21,1.87,1.8.22.15,1.78,1.79.13.21,1.86,1.86.11v5.78l1.86.14v3.83l-1.86.11v5.77l-1.88.17c-.08.68-.14,1.25-.23,2h-3.75l-.13,1.79h-9.7c-.08-.67-.15-1.24-.21-1.8h-1.77v3.79l1.88.17v3.87l0,0h-1.9l-.19-1.94h-1.88v-3.87h-5.89v1.89h-2v2h-1.89v1.85h1.86v-1.88h2v-2h3.87l.2,2h1.88l0,4,0,0h-1.88c-.1-.76-.17-1.33-.23-1.88h-3.76l-.14,1.93h-3.77l-.21,1.81H215l-.14-1.78-2-.14v-3.81l-1.84-.12v-3.9h3.76c.09-.74.15-1.31.23-2h1.87c0,1.33,0,2.65,0,4H215v3.91h1.89v1.89h1.86v-1.86h-1.89l0-4h3.88l.14-1.91,1.85-.13.12-1.95h3.81l.14-2h3.8c.06-.71.1-1.29.14-1.83h1.85l.12,1.94h3.82c0,.7.09,1.27.12,1.82h5.79l.15-1.93h3.79l.15-1.87,1.8-.12V214.94l-1.83-.13-.13-1.84-1.85-.13-.12-2H240.6l-.14-2H226.8l-.14-1.83h-5.74v1.82l1.82.14.13,1.84,1.95.13v3.81l1.86.14.14,1.84,1.8.11v5.8l-1.83.14-.12,1.91h-3.88V220.9l-2-.21v-3.84h2v2h2v1.88h1.86v-1.85h-1.89v-2h-2v-3.93h-2v-2h-2v-1.89h-2V211H213v2H209v2h-1.91l-.17-2-1.77.08v3.77H209v-1.89h3.95v-2h3.94v-2h2v2h2c0,1.32,0,2.65,0,4l-1.92-.1-.11-1.81H215l-.14,1.94H211l-.19,1.87-1.8.12c-.05.66-.09,1.24-.13,1.79h-3.8c-.07-.68-.13-1.26-.18-1.8l-1.9-.13V215l-1.87-.23V211l1.81-.14.19-1.8,1.81-.23.14-1.78,1.81-.13c.07-.68.12-1.25.19-1.91H211v2h-2v2h-1.86v1.87H211V209h3.93v-2h4l-.09-1.87-1.86-.14-.14-1.9-1.83.08-.14,1.93H211v-1.89l1.9-.23v-1.79l-1.94-.13v-3.78l-1.87-.21c-.05-.66-.09-1.19-.14-1.76h-3.78l-.22,1.91h-3.75L201,199l-1.81.19-.24,1.91h-3.73c-.05.68-.1,1.25-.15,2h-3.81c0,.7-.08,1.23-.12,1.93h-3.79l-.18,1.87-1.83.22-.13,1.79-1.79.12v5.77l1.79.21v1.78l-1.78.14v1.85l1.77.11v15.65l-1.89.15v15.7Zm-59.2-78.86v-2h-2v-3.86h-1.86v3.83h1.89v2h2v3.94h2v3.95h2v3.94h2v3.94h2v4h2v5.84l2,.2V201h3.8v-1.8l-1.93-.11v-3.82l-2-.15v-3.84h-2v-4h-2v-3.94h-2v-3.94h-2v-3.95h-2v-3.94Zm2,13.76v1.93H128v-1.89h-1.89v-4h-2v-3.93h-2v-2h-2v-3.87h-3.93v3.88h-1.85v4.05h3.86v1.9h3.86l.13,1.89,1.84.13.13,1.87ZM88.69,203.1v3.8l1.9.22.11,1.76h3.92v-3.76l1.87-.22.15-1.79,1.94-.13v-3.79l1.87-.19.12-1.79,2-.16v-3.79l1.92-.16v-3.76l2-.22v-3.75l1.92-.15v-5.73l1.88-.23.14-1.79,1.94-.13v-3.77l2-.24v-3.74l2-.15v-3.79l1.93-.15v-5.73h3.84l.21,1.81,1.88.14v3.76l2,.23v3.75l2,.14v3.77l2,.24v3.74l2,.14v3.8l1.86.15.13,1.81,2,.17v5.76l1.93.16v3.75l2,.23v3.75l1.87.13L142,199h5.79l.15-1.87h7.7l.22-2h5.71v-1.87l-1.79-.17-.22-1.82-1.86-.14V185.4l-2-.21v-3.77l-1.92-.15v-5.73l-2-.23v-5.72l-2-.14v-3.77l-2-.24V161.7l-2-.14v-3.8l-1.93-.15v-3.77l-2-.2V147.9l-1.92-.16V144l-1.87-.22-.2-1.8-1.89-.13v-3.77l-2-.24v-3.74l-2-.14v-5.78l-1.93-.13v-3.78l-1.87-.19-.22-1.82-1.79-.14-.12-1.78h-1.81l-.23,1.78h-3.75l-.13-1.78h-3.82l-.14,1.88h-3.91v5.84l-1.92.12V134l-2,.16v3.79l-1.92.15v7.72l-2,.2v3.77l-1.92.15v5.73l-2,.23v5.72l-2,.14v5.74l-2,.24v3.74l-2,.15v5.77l-1.93.15v3.76l-1.87.2-.22,1.79H88.73l-.13-1.8-1.82-.2-.21-1.81-1.88-.13v-3.77l-1.88-.22-.13-1.79-1.94-.13v-3.78l-1.87-.22-.15-1.79-1.94-.13v-3.81l-1.93-.14v-3.77l-1.87-.2-.22-1.81-1.87-.14v-3.77l-2-.22v-3.75l-1.81-.14-.17-1.81L65,147.7V144l-2-.14V140l-2-.24v-3.73l-2-.16v-3.79L57.16,132,57,130.18H51.28l-.23,1.92H37.36v3.8l-2,.23v3.75l-2,.14v7.71l-2,.24v7.68l-2,.15v5.77l-1.93.15v5.74l-2,.2v5.74l-1.92.16v5.73l-2,.23v7.69l-2,.14v7.71l-1.85.23v7.79H21.5l.22,1.86,1.8.2.13,1.9h5.74l.23,1.85h3.84v-3.76l2-.23v-3.76l2-.13v-3.77l2-.25v-5.7l2-.15v-5.77l1.93-.14v-3.78l2-.19v-5.75l1.93-.16v-5.73l2-.23v-3.75l1.93-.14v-3.74h4v3.74l1.83.16.22,1.81,1.79.2.12,1.77,1.82.18.22,1.82,1.78.14.13,1.79,1.81.21.23,1.8,1.86.15v3.76l1.87.22.19,1.79,1.77.13.19,1.81,1.82.22.14,1.79,1.93.13v3.78l1.87.2.13,1.78,1.81.16.21,1.81,1.8.2.12,1.78,2,.17V199l1.84.15.13,1.8,1.81.2.22,1.83Zm11.82-71v3.83l-2,.12v5.78l-2,.18v5.75l-1.91.13v5.79l-2,.12v5.77l-2,.21v5.74l-1.91.12v5.79l-1.86.11v5.79l1.83.18.11,1.79h1.93v-3.8l2-.15v-5.79l1.9-.09v-5.82l2-.11v-5.78l2-.18V153.8l1.9-.13v-5.79l2-.11V142l2-.21v-5.74l1.91-.12v-5.79l2-.12v-5.78l1.86-.18v-1.79h-5.87v3.8l-2,.15V132Zm79,74.95v11.68h1.81V207.06Zm-27.6,0v1.84h1.78V207Zm25.44-4v-1.83h-1.76V203Z"/><path class="cls-1" d="M228.73,175.45v-1.9l1.87-.14.14-1.84h3.79l.16-2h5.82v-1.95h9.89v-2h7.87v1.83h3.93v-1.92h6v1.89H274l.09-1.86h5.81c0-.72.08-1.29.12-2h7.75l.18-2h9.7c.05-.69.09-1.23.13-1.91h9.74l.11-2h7.84l-.08-1.81H301.74l-.12,1.87h-9.73c0,.72-.08,1.29-.13,2h-9.71c-.07.72-.13,1.3-.2,2h-3.78l-.1,1.95h-5.79l-.17,2h-3.87V163.7l1.91-.15.14-1.85H274l.15-2h5.77l.14-2h7.75l.14-2h9.72l.14-2h11.7l.14-1.94h9.73l.14,1.82h3.82v3.91l2,.15v9.72l1.93.14v3.83h-3.77l-.13,2h-3.82l-.13,2.05h-5.86V173.4h3.88c0-.7.1-1.23.15-1.92h3.75v-1.91l-1.86-.11v-5.78l-2-.16v-3.78h-5.79l-.14,1.94h-9.73l-.12,1.93h-7.76l-.15,2H284l-.15,1.92h-5.75l-.19,2H270.2l-.15,1.85-1.78.12v3.83l1.78.11v3.81l-1.77.15v3.79H274c0-.64.08-1.21.13-1.78h5.93v3.77l1.92.14V201l2,.24V216.8l2,.13v11.66l2,.24v7.68l1.84.15.2,1.76h3.78c0-.66.08-1.19.13-1.87h9.68l.24-1.88,1.75-.14v-5.75l-2-.21V218.9l-1.92-.15v-9.68l-1.82-.21V177.35h7.68c.06-.68.12-1.25.18-1.91h5.84v1.92h-3.88l-.14,1.94-1.83.14v11.7l1.83.14v21.54l2,.16v13.65l1.94.15v9.74h-5.75l-.14,2h-9.72l-.13,1.94H288l-.11-1.81L286,238.5v-7.76l-2-.13v-11.7l-2-.13V207.06l-2-.11V191.29l-2-.11v-5.79h-9.86l-.09,1.8h-3.85l-.09-1.8h-7.81c0,.57-.05,1.14-.09,1.85H242.61v2h17.62v2l2,.09.1,1.88,1.87.1.1,1.86,1.89.11v3.85l2,.09V207l1.93.09v11.75H268.2v3.94h-2v4h-2v2l-2,.08c0,.62-.05,1.2-.09,1.89l-1.88.09-.09,1.88-1.89.09-.08,1.88-1.89.09c0,.61-.05,1.19-.08,1.89h-1.91v2h-4v2H244.5v2h-5.9v3.92h-1.94v1.85h1.89v-1.89h6v-2h3.93v-2h3.89c0-.75.09-1.33.13-1.87l1.87-.13v-1.92h1.91c.05.63.09,1.21.14,1.93l1.83.08.14-1.89h7.73v9.73h-1.83v11.83h-1.92c0,.63-.08,1.2-.13,1.93l-1.85.13-.13,1.84-1.84.13-.13,1.81H244.49V264.2h-2v-2h-3.95v-4h-3.94v-2h-2v-5.86h-2v1.88h-2v2h-2v2h-4v2h-2v2h-5.92v2h-9.85c0,.69-.06,1.26-.09,1.92H187.29v-3.85h1.87l.24,1.89H201l.13-1.94h9.69l.24-2h7.68l.14-1.85,1.81-.18.23-1.91h3.74c.05-.68.09-1.25.14-1.85l1.8-.19.23-1.81,1.78-.14.13-1.82,1.92-.17v-7.81l0,0h2v3.84h3.8v-1.8l-1.86-.19v-3.85l0,0h13.71l.25-2h3.73l.15-1.83,1.8-.21c.08-.68.16-1.25.22-1.81l1.77-.12.16-1.81,1.81-.21.2-1.8,1.77-.12.17-1.82,1.92-.23v-3.74l1.83-.13V211l-1.91-.24v-7.68l-1.83-.14c-.08-.68-.15-1.26-.21-1.8l-1.8-.23-.14-1.87h-3.77l-.23-2H240.61c-.05-.7-.09-1.23-.15-1.92H236.7l-.23-1.88-1.75-.13v-5.89h3.76c.08-.74.15-1.31.23-2h11.63l.15-2h5.78c.05-.7.08-1.23.12-1.92h3.79l.2-2h1.87v1.9h3.84v-7.8l-1.93.09v5.84h-1.94v-5.82l-1.88-.22c-.06-.65-.1-1.18-.15-1.76h-5.75l-.19,1.89H242.52c0-.66,0-1.33,0-2h7.81v-1.86h-7.77v1.89h-5.92v2h-4v2l-4,0Zm35.5,25.62v5.83h1.86v-5.8H264.2v-3.88l-1.87-.19-.2-1.8-1.82-.16-.09-1.89h-3.84l-.11-1.87H242.62v1.93h9.68c.07.72.13,1.29.21,2h3.76l.13,1.9h3.82l.11,1.9,1.83.14c.07.69.13,1.27.19,1.89Zm41.36-2V185.39l-2-.21v-5.72h-1.85V207l1.93.11v9.71l2,.22v7.71l1.9.12v9.69h3.82v-3.77l-1.9-.19V218.88l-2-.1V199.16Zm15.88-43.26h-3.9v1.83l1.93.15v3.77l2,.21v5.73h1.77v-7.78l-1.8-.11Zm-53.4,61v-7.74h-1.79v7.74Zm-3.81-47.38h1.83v-1.78h-1.83Zm-27.61,21.7h1.83v-1.79h-1.83Z"/><path class="cls-1" d="M250.43,149.79v1.9l-1.91.14-.14,1.85h-5.76l-.16,2h-7.79v2h-5.91v2h-6v2h-2v2h-2v2h-2v2h-2v2H211v2h-2v2h-2v2l-2,.09c0,.61-.06,1.19-.09,1.88l-1.87.1-.12,1.95h-3.89v-1.9l2-.21v-1.87H203v-1.85h-1.86v1.88h-3.86c-.08.73-.14,1.3-.19,1.87l-1.87.2v1.87h-3.85c-.09.75-.16,1.32-.22,1.87l-1.78.21v1.77h3.79l.16-1.8,1.87-.21v-1.87h4v1.9l-1.92.13-.13,1.84-1.84.13-.12,1.8h-7.82v-1.85h-2v-1.87l1.91-.24.14-1.78,1.8-.13.22-2h3.75l.14-1.81,1.81-.16.22-2H199v-3.77l-1.79-.18-.23-1.82-1.78-.13c0-.64-.09-1.22-.13-1.81l-1.81-.19-.22-1.79H191.3c-.05.64-.09,1.21-.13,1.8l-1.81.2-.23,1.8-1.77.14-.14,1.8-1.81.21-.22,1.8-1.78.13c0,.66-.09,1.23-.14,1.91H179.4v-1.9l1.89-.17.18-1.8,1.85-.2v-1.88h2v-2h1.89v-1.86h-1.86v1.89h-2v2h-3.87l-.17,1.89-1.8.18-.2,1.87h-3.85v-2h2v-1.94h1.86v-3.93h-1.88v-1.89l1.92-.23.13-1.79,1.81-.12.19-1.81,1.8-.23v-1.78l-1.94-.13v-3.78l-1.87-.22-.14-1.75h-1.81l-.2,1.95h-5.73l-.16,1.92h-3.76l-.2,1.82h-7.72l-.15-1.78-1.94-.14v-3.81l-1.84-.13v-3.79l1.8-.17.22-1.92h3.75c0-.68.09-1.25.13-1.85l1.81-.18.24-1.92h3.73l.14-1.84,1.81-.19.23-1.81,1.78-.15c0-.63.08-1.21.12-1.79l1.81-.2.23-1.8,1.75-.15V128.2L171.6,128l-.21-1.8-1.88-.13v-3.77l-1.9-.22-.11-1.77h-5.77l-.17,1.8-1.84.22-.11,1.85h-3.8l-.17,2h-3.87l0,0v-1.9l1.92-.2.09-1.85h3.84l.11-1.92,1.85-.12c0-.69.1-1.26.15-2h3.81l.11-1.83h3.83l.11,1.83,1.84.14c.06.69.12,1.26.18,1.88h1.89v3.88l1.87.17.19,1.87h1.88V128h1.85v-1.86h-1.88v-3.88l-1.88-.17-.19-1.87H171.5v-3.87l-1.88-.18c-.07-.67-.13-1.25-.19-1.8l-1.83-.2-.09-1.87h-7.85l0,0v-1.92h3.83c0-.68.1-1.25.16-2h3.85v-4h1.92l.14-2h17.68v-4h2v-5.9h2l.1-2h1.92v3.89l-2,.12v5.77l-1.53.17v2h3.56v5.75l2,.17v11.67l1.93.16v21.5L199,142l.23,1.8L201,144l.14,1.78H203l.22-1.81,1.78-.12c.05-.67.09-1.24.14-2h3.8l.15-1.86,1.81-.13.16-1.78h5.77c.06.65.1,1.18.15,1.79l1.79.13.21,1.81,1.81.22.12,1.78,1.92.14v3.87h-1.9l-.2-1.9-1.81-.18-.12-1.82-1.85-.1c0-.67-.07-1.25-.11-1.82H211v1.89h-3.86l-.21,1.89-1.81.17-.1,1.82-1.87.11-.1,1.8h-6v-5.75l-1.9-.13V126.19l-2-.12V112.41l-2-.21v-7.68h-3.76v3.79l2,.17V130l1.91.13v13.68l2,.12v5.77l2,.2v5.74l1.84.13.11,1.81h1.84l.17-1.8,1.81-.2c.06-.68.12-1.26.17-1.81l1.82-.09c0-.67.07-1.25.1-1.85l1.84-.16c.07-.68.13-1.26.19-1.81l1.81-.18.12-1.82,1.85-.1c0-.68.08-1.26.12-1.84l1.89-.19v-1.88h1.9l.2,1.91,1.81.19.13,1.81,1.84.1.11,1.85,1.84.16.19,1.81,1.81.18c0,.66.08,1.2.12,1.82l1.85.1.11,1.82h1.91v-3.86h1.87l.24,1.91h3.75c0-.64.09-1.21.14-1.93h5.74l.24-2h3.75l.14-1.91h3.76l.24-2h3.74c.06-.7.1-1.23.15-1.92h3.76c.09-.73.15-1.3.21-1.85l1.8-.23c.05-.64.1-1.17.15-1.78l1.79-.13.2-1.81,1.81-.22.14-1.78,1.8-.13.2-1.89h1.88l0,0v3.89l-1.89.14-.15,1.83-1.81.16-.18,1.8-1.86.2v1.87h-1.89v1.86h1.86v-1.89l4,0,0,0v1.91l-1.88.13-.13,1.86h-3.88v2h-4c0-.67,0-1.34,0-2h1.89V146h-1.86v1.89h-3.94v2h-3.86v1.86h3.83v-1.89Zm-53.29,13.83v-2h-2v-1.89h-3.95c0,.67.06,1.24.09,1.86h3.89v2h2v1.89H199v-1.86Zm-33.5-11.83h-1.9l-.19-1.9-2-.22v-3.74h-1.81v5.79l1.84.11.12,1.82h3.86v-1.89h3.88c.07-.75.13-1.32.21-2h3.75v-1.81h-5.78c0,.65-.09,1.23-.14,1.81l-1.88.19Zm19.72,1.94v1.89h1.85v-1.86h-1.88v-5.84l-2-.21V144h-1.81v5.79l1.93.12v3.86Zm-3.83,7.91v1.86h3.76c0-.64.08-1.18.13-1.87h3.77l.2-1.87,1.81-.23.15-1.86h3.75V153.8l-1.87-.12v-7.74l-2-.17v-9.7l-1.92-.16V110.45l-2-.2v-3.89h-5.77c-.05-.68-.1-1.25-.14-1.8h-7.86v5.73l-1.83.14v1.8l1.81.23.14,1.78,1.94.14v3.78l1.87.2.12,1.79,2,.15v3.8l1.85.14c0,.64.08,1.21.13,1.81l1.78.17V130l-1.79.14-.13,1.94h-3.79l-.19,1.87-1.78.12-.17,1.81-1.81.22v5.73l1.8.14c.07.67.14,1.25.19,1.77h1.81l.15-1.75h7.86v3.79l1.93.14v3.78l1.84.16v7.75l-1.79.15-.14,1.93h-3.78c-.08.74-.14,1.32-.2,1.93Zm39.26-.08c0-.64.08-1.22.13-1.8l1.91-.22c0-.66-.06-1.23-.08-1.78l-1.83-.14c0-.65-.1-1.23-.15-1.81l-1.92-.22v-3.75l-1.85-.13c-.07-.68-.13-1.25-.19-1.81l-1.82-.23-.14-1.75h-1.8l-.2,1.79-1.81.22-.12,1.77-1.81.15-.22,1.81-1.79.2-.12,1.78-2,.17v3.9h-3.78v1.84l1.91.21v3.75l1.85.14.18,1.81,1.92.23v3.71h1.84c.08-.66.14-1.23.21-1.78l1.8-.23.14-1.86h3.76l.23-1.89,1.78-.13c0-.64.09-1.22.13-1.81l1.81-.19.23-1.81ZM163.67,141.9l-.11,2h-1.83v3.82h1.93v-1.93h5.79V140h-1.93v1.87Zm37.41,27.68.09,1.93,1.92-.09-.09-1.84Zm37.59-17.76v1.83h1.78v-1.83Zm-63.31-4V146h-1.78v1.83Z"/><path class="cls-1" d="M104.41,272.12v-1.9h5.91V272h3.93V274h-3.84v8h-1.93l-.14,1.93-1.82.12v3.86h-4v1.93l-1.93.13-.13,1.85-1.84.12-.13,1.85-1.85.12-.12,1.82H84.76v-1.76H74.91v-4H73L72.84,288H65.11v-4H68.9v-2h5.92v-2h5.92v-2h5.91v-2h5.92v-2h5.92v-2Z"/><path class="cls-1" d="M380.64,163.61V161.7h11.72v1.9h-1.9v2h-2v2H384.6v2h1.84v3.95h-3.87v3.94h-2v2h-2v2h-2v1.91h-7.89v-3.82h-2v1.85h-2v-1.91h-2v-2h-2v-2h-3.95v-2h-2v-2h-2v-2h-1.91v-2h9.79v-2h9.87v-2Z"/><path class="cls-1" d="M299.72,254.24v-1.79l-1.88-.15v-3.82h3.77l.14-2,1.83-.14.15-1.85h3.79l.15-2h3.79l.16-2h3.79l.15-2h3.8l.15-2h3.79l.15-1.94h3.79v9.69l-1.82.14v5.77l-2,.15v3.83h-3.92l-.14,2h-3.82c0,.7-.07,1.27-.11,1.93H313.6c0-.54-.08-1.11-.13-1.78h-1.84c0,.54-.08,1.11-.13,1.78h-1.84l-.13-1.8-1.84-.13-.14-1.84-1.83-.14c0-.57-.09-1.14-.14-1.82h-1.83c0,.54-.09,1.12-.14,1.79Z"/><path class="cls-1" d="M201.14,282v-2h-5.92v-2h-5.9v-2h3.84v-1.94L191.3,274c0-.55-.06-1.12-.09-1.84l1.92-.14c0-.54.08-1.11.13-1.88h5.82v-2H205v-2h5.92v-1.9h7.89v1.77l1.9.13v3.86h-1.82V276h-2v3.94H215l-.13,1.94L213,282l-.12,1.81h-7.81V282Z"/><path class="cls-1" d="M5.83,222.71V220.9l-1.89-.16-.15-1.82L2,218.77l-.14-1.83L0,216.8V211l1.79-.14.14-1.81H5.74l.14,1.81H9.67l.16,2h3.79l.15,2h5.77l.15,2h3.79l.15,2H29.4l.15,2h3.78v4H29.56v3.94l-1.95.09-.15-1.92-1.85-.09v3.89l-1.94.09-.16-1.92H11.81v-3.95H7.88l-.14-1.95Z"/><path class="cls-1" d="M171.49,260.23v1.92h5.83v3.93l-1.83.14v5.83h-1.92l-.14,1.93-1.82.12v3.78H159.67V276h-2v-2h-3.88v-3.94h1.83v-2h-1.83v-2h3.85v-2h3.94v-2h3.93v-2h6Z"/><path class="cls-1" d="M169.52,256.29v2h-5.86v1.93h-15.8v2h-2v2h-4l0,0,0-2h2v-2h1.89v-2h-1.89v-5.82l-2-.23v-3.75l-2-.14v-3.78l-1.87-.2-.12-1.8-1.92-.14v-3.87h1.9l.2,1.9,1.81.18.12,1.82,1.93.1v3.82l2,.16v3.78l2,.19v3.78l2,.11v3.78h1.84v-5.76l-1.86-.11v-3.83l-2-.11v-3.81l-2-.17v-3.87h1.87l.24,1.93,1.87.15v3.75l2,.24v3.74l1.82.14.13,1.79h13.69l.13-1.87h3.79l.16-1.95h3.88l0,0v1.9l-1.88.19-.21,2h-3.77l-.11,1.9H153.85v3.83h7.72l.18-1.86h7.8Z"/><path class="cls-1" d="M185.33,199.12v-1.9l1.88-.14.13-1.84h3.8l.15-2h3.79l.16-2h3.85v-2H203v-2h4v-2h5.91v1.84h2v-1.89h2v-2h2v-2h2v-2h2v-2h2l.1-2h3.92l0,0v1.9l-1.94.19v1.88h-2v2h-1.89v2h1.89v1.87l-1.9.22-.2,1.79-1.8.14-.12,1.82-1.82.16-.21,1.88h-1.87l0,0v-1.88h-2v1.89l0,0H213c-.08-.74-.13-1.32-.19-1.87l-1.8-.2c-.06-.68-.12-1.26-.17-1.78H209l-.1,1.92h-3.82l-.15,2h-3.78l-.21,2H197.2l-.12,1.89h-3.82c0,.72-.07,1.29-.11,2h-3.81l-.18,1.92H185.3Z"/><path class="cls-1" d="M63,258.27H61.14L61,256.39l-1.84-.14v-3.79l-2-.16v-5.82H55.24V218.85h1.84V211h2v-5.91h2l.09-2H63v3.89l-2,.12v5.78L59,213v9.73l-1.84.12v21.57l1.94.14v5.78l1.92.12v3.81l2,.15v3.87Z"/><path class="cls-1" d="M139.94,266.15v1.9l-1.88.14-.14,1.84-1.83.14L136,272l-1.88.09v-3.93h-1.92l-.14-1.94-1.82-.12-.19-1.93h-1.88v-2h-2v-2h-2v-2h-2v-2h-2v-1.92h-2v3.82h-2l-.11,2h-3.9v-1.85l1.91-.25.14-1.78,2-.13v-3.8h5.79l.13,1.81,1.82.19.22,1.82,1.78.13.13,1.8,1.81.2.23,1.81,1.77.14.14,1.8,1.81.2.22,1.78H134l.14-1.9H138v1.9l-2,.19.08,1.88H140Z"/><path class="cls-1" d="M96.55,266.16v1.92H92.71L92.56,270H72.9v-1.86H69v-2H67v-2H65l-.08-2L63,262.17v-3.9h1.86l.24,1.91,1.77.14.14,1.8,1.81.21.22,1.8,1.78.12.14,2H74.8l.13,1.83H90.57l.15-1.88h5.83Z"/><path class="cls-1" d="M396.36,88.65v3.86l-1.88.15c0,.54-.08,1.11-.13,1.82l-1.91.19v1.86h-2v2h-2l0,0V94.67l1.88-.2c.07-.68.12-1.26.18-1.81l1.82-.12c0-.64.07-1.22.1-1.84l1.84-.13c.07-.69.12-1.27.19-1.89h1.88Z"/><path class="cls-1" d="M63,203.06V199.2l1.89-.15.12-1.81,1.92-.19v-1.86h2v-2h2V197l-1.88.21-.22,1.8-1.78.14L66.91,201l-1.82.14-.21,1.9H63Z"/><path class="cls-1" d="M5.83,195.18v-5.89H7.72v-5.95H9.78l0,0v7.83l-2,.16v3.84H5.81Z"/><path class="cls-1" d="M108.39,262.22v1.94h-5.91v2H96.56v-2h3.85l.22-1.91h7.76Z"/><path class="cls-1" d="M187.29,260.24h-1.94v-3.93h-2v-5.93h2v3.84l1.91.23v5.78Z"/><path class="cls-1" d="M153.77,116.29v-1.91l1.87-.12.17-1.92h3.88l0,0v1.91l-1.88.17-.19,1.87h-3.85Z"/><path class="cls-1" d="M136,128.12v-1.91l1.86-.12.18-1.91h3.88l0,0v1.91l-1.88.17-.19,1.86H136Z"/><path class="cls-1" d="M141.94,124.18v-1.91l1.86-.12.18-1.92h3.87l0,0v1.91l-1.88.17-.19,1.87h-3.85Z"/><path class="cls-1" d="M147.85,120.23v-1.91l1.87-.12.17-1.91h3.88l0,0v1.91l-1.88.17-.18,1.86h-3.85Z"/><path class="cls-1" d="M341.13,49.23H343c.05.61.11,1.23.18,2h1.88v2l0,0h-3.94V49.2Z"/><path class="cls-1" d="M112.33,260.24v2H108.4v-2h3.94Z"/><path class="cls-1" d="M171.53,260.27v-1.89h3.86v1.85h-3.9Z"/><path class="cls-1" d="M193.21,90.64V86.7h2v3.93h-2Z"/><path class="cls-1" d="M173.47,254.32v2h-3.95l0,0v-2h3.95Z"/><path class="cls-1" d="M141.91,264.18v2h-2l0,0v-2h2Z"/><path class="cls-2" d="M193.2,90.63h2V86.68h1.88l.19-1.9,1.77-.12c.06-.54.12-1.12.2-1.79l1.81-.22.15-1.81,1.79-.12.2-1.87h3.78l.13-1.94,1.8-.14.21-1.87h3.78l.14-2h5.71l.23-1.92h15.62l.13,1.83h9.66l.24,2h3.77l.14,2h3.74l.24,1.92,1.81.18.13,1.85h3.75l.22,1.92,1.88.17v3.8l1.85.11.22,1.85,1.83.15v3.73l2,.23v7.72l1.94.14v21.57l-1.84.11v3.82l-2,.14v3.74l-2,.24V134h-1.88l-.2,1.89-1.8.13-.14,1.78-1.81.22-.2,1.81-1.79.13c-.05.61-.1,1.14-.15,1.78l-1.8.23c-.06.55-.12,1.12-.21,1.85h-3.76c-.05.69-.09,1.22-.15,1.92h-3.74l-.24,2h-3.76l-.14,1.91h-3.75l-.24,2h-5.74c0,.72-.09,1.29-.14,1.93h-3.75l-.24-1.91h-1.87l0,0v-4h-2V144l-1.92-.14-.12-1.78-1.81-.22-.21-1.81-1.79-.13c-.05-.61-.09-1.14-.15-1.79H211l-.16,1.78-1.81.13-.15,1.86h-3.8c-.05.72-.09,1.29-.14,2l-1.78.12-.22,1.81h-1.81L201,144l-1.77-.15L199,142l-1.86-.21v-21.5l-1.93-.16V108.48l-2-.17v-5.75h-3.56v-2l1.53-.17V94.64l2-.12Zm45.36,29.58h1.88l.24-1.9,1.86-.15V114.4l2-.22v-5.73l1.8-.14v-7.72l-1.91-.23V94.65l-1.85-.14c-.07-.67-.13-1.25-.19-1.81l-1.81-.22c-.05-.64-.1-1.17-.14-1.78l-1.81-.13-.2-2h-7.71c-.05-.7-.1-1.23-.14-1.8h-9.7l-.22,2h-3.75l-.14,1.8-1.89.19v1.87h-2v2h-1.87l-.24,1.9-1.86.15v7.71l-1.84.19v13.64l1.87.16v3.76l2,.2v3.77l1.84.15c0,.63.09,1.2.14,1.93h3.77L217,130h13.61l.13-1.81,1.89-.2v-1.88h3.87c.07-.74.14-1.31.2-1.87l1.85-.21Z"/><path class="cls-2" d="M368.77,135.91l-1.92.16v9.7l-2,.16v5.72h-11.8c-.05-.53-.11-1.1-.19-1.84h-7.71v-9.75l1.86-.22V128.19L349,128V116.39l2-.2V100.57l-1.76-.13c-.07-.57-.14-1.14-.22-1.83l-1.81-.17L347,96.67l-1.81-.21c-.06-.55-.13-1.12-.21-1.81l-1.79-.14c-.05-.6-.09-1.13-.15-1.77l-1.8-.23-.2-1.81-1.81-.13-.13-1.78-1.82-.22-.18-1.81-1.76-.12c-.07-.55-.13-1.13-.21-1.81l-1.81-.21-.14-1.79-1.78-.15c-.07-.55-.14-1.12-.23-1.8l-1.8-.2-.14-1.84H325.5l-.23-1.92-1.8-.17V69l1.85-.11V59.16l2-.15V53.3l1.92-.23.17-1.79h1.84c0,.6.06,1.13.1,1.76l1.85.22c0,.57.09,1.15.14,1.8l1.77.14.23,1.8,1.81.2.13,1.8,1.78.14c.07.56.14,1.14.23,1.82l1.81.18c0,.56.07,1.09.12,1.77l1.8.2.21,1.81,1.8.15c.05.59.09,1.12.14,1.77l1.8.22c.06.55.13,1.13.21,1.81L349,69c.05.61.09,1.15.14,1.78L351,71v3.76l1.89.13c.06.55.13,1.12.2,1.8l1.82.22.14,1.79,1.83.15v3.77h2c0-.58.08-1.16.13-1.79l1.78-.13c.07-.57.14-1.15.22-1.83l1.81-.17.13-1.78,1.86-.2V73l1.94-.13c.05-.61.1-1.15.15-1.79l1.87-.23V67l1.9-.13.19-1.79,1.81-.22c.05-.57.1-1.14.16-1.8L374.6,63V59.2l2-.21c0-.59.08-1.16.13-1.8l1.85-.15V53.25l2-.16c0-.58.07-1.11.12-1.78l1.8-.2c.06-.55.13-1.13.21-1.81l1.8-.15c.05-.59.09-1.13.14-1.77l1.8-.23.2-1.79h3.78c.05.59.09,1.12.13,1.76l1.83.22c.05.56.11,1.14.18,1.81l1.76.12c.07.55.13,1.12.21,1.8l1.86.22v3.76l1.92.15V59l2,.2v3.77l1.87.14v5.8L400.4,69l-.14,1.78-1.81.23c-.06.55-.12,1.12-.2,1.81l-1.8.13-.14,1.78-1.82.22c-.05.56-.11,1.14-.18,1.81l-1.77.12c-.06.55-.12,1.12-.2,1.8l-1.81.22c0,.57-.09,1.14-.15,1.8l-1.77.13c-.06.55-.14,1.13-.22,1.81l-1.86.21v3.76l-1.86.14c-.07.57-.14,1.14-.23,1.82l-1.81.18c0,.56-.07,1.1-.12,1.77l-1.8.2c-.06.55-.13,1.12-.21,1.81l-1.83.15V96.4l-1.92.25c-.06.55-.12,1.13-.19,1.81l-1.81.12c-.05.62-.08,1.15-.13,1.79l-1.89.23v9.67l-1.92.15v11.65l-2,.22Z"/><path class="cls-3" d="M396.39,88.68h-1.88c-.07.62-.12,1.2-.19,1.89l-1.84.13c0,.62-.06,1.2-.1,1.84l-1.82.12c-.06.55-.11,1.13-.18,1.81l-1.88.2v3.87h-1.88c-.07.62-.12,1.2-.19,1.89l-1.84.13-.1,1.84-1.81.12v3.8l1.76.17v1.84l-1.88.11v9.73l-1.9.13V128l-2,.17v7.76l-2,.11v9.69l-2,.2v5.74h-7.86v-1.81l1.81-.12V138.09l2-.21v-9.71l2-.12V114.38l1.91-.13v-9.71l2-.17v-3.82l1.93-.1.13-1.83,1.86-.17v-3.8l2-.13.1-1.86,1.83-.1c.05-.55.1-1.12.17-1.81l1.8-.2.18-1.82,1.88-.14v-3.8l1.88-.13c0-.55.11-1.12.18-1.81l1.81-.19.16-1.83,1.85-.11c0-.6.06-1.13.09-1.82l1.82-.17c.06-.54.12-1.12.2-1.8l1.82-.18c0-.58.08-1.16.13-1.84l1.85-.1c0-.62.07-1.15.1-1.82l1.82-.18c.06-.55.12-1.13.19-1.8h3.77v5.77l-1.78.09c-.05.56-.1,1.13-.17,1.81l-1.8.21c-.05.55-.11,1.13-.18,1.82l-1.84.13c0,.62-.06,1.19-.1,1.85l-1.82.1c-.06.56-.11,1.13-.18,1.82l-1.88.2Z"/><path class="cls-3" d="M341.16,49.2v3.95h3.94V57l1.9.16c0,.59.08,1.17.12,1.84l1.86.11c0,.61.06,1.15.1,1.82l1.81.17c.06.55.13,1.13.2,1.81l1.83.17c0,.59.07,1.16.12,1.84l1.92.11v3.84l1.85.09c.06.58.12,1.16.2,1.84l1.82.17c0,.59.08,1.16.12,1.84l1.85.11v3.77H357c0-.51-.11-1.09-.18-1.77L355,74.78c0-.59-.07-1.17-.11-1.84L353,72.83V69.06l-1.91-.2c-.05-.55-.11-1.12-.19-1.81l-1.83-.16c0-.59-.07-1.17-.11-1.84l-1.85-.1c0-.62-.08-1.16-.12-1.82L345.2,63c-.06-.56-.12-1.13-.19-1.81L343.17,61c0-.59-.07-1.16-.11-1.84l-1.85-.1c0-.62-.08-1.16-.12-1.82L339.28,57c-.06-.55-.12-1.13-.19-1.81l-1.83-.16c0-.6-.07-1.17-.11-1.85l-1.85-.09-.13-1.82-1.81-.19-.19-1.81-1.83-.16c0-.59-.07-1.17-.11-1.84l-1.79-.09V45.37l1.73-.17.19-1.8h3.82c0,.58.06,1.15.09,1.82l1.86.1c0,.63.08,1.16.12,1.82l1.81.18.2,1.88Z"/><path class="cls-3" d="M256.34,143.9V142l1.86-.2.18-1.8,1.81-.16.15-1.83,1.89-.14V134h1.88c.06-.62.12-1.2.19-1.89l1.88-.14v-3.81l1.89-.11v-3.77l2-.21V98.62l-1.85-.18V90.62l0,0h1.94v3.87l2,.12v7.76l1.86.12V114.2l-1.81.19v11.68l-2,.12V132l-1.91.12v3.78l-2,.2-.17,1.83-1.84.11-.1,1.85-1.82.13-.18,1.81-1.88.19v1.9l-4,0Z"/><path class="cls-3" d="M260.29,78.78h-3.88c-.05-.63-.1-1.2-.16-1.89l-1.84-.12-.11-1.87h-3.77l-.2-2h-3.79l-.14-2h-5.79c0-.68-.07-1.21-.11-1.9H226.82l-.09-2h17.71l.11,1.86h3.81c0,.69.09,1.22.13,1.91h3.78l.19,2h3.81c0,.72.07,1.3.1,2l1.83.1.17,1.82,1.89.2v1.89Z"/><path class="cls-3" d="M266.21,86.67h-1.88l-.19-1.86-1.88-.17V80.76l0,0h1.88l.19,1.86,1.88.18V86.7Z"/><path class="cls-3" d="M268.18,90.62h-2v-4l0,0h2v4Z"/><path class="cls-3" d="M262.26,80.76h-2v-2l0,0h2v2Z"/><path class="cls-2" d="M88.69,203.1,86.82,203l-.22-1.83-1.81-.2-.13-1.8L82.82,199v-3.78l-2-.17-.12-1.78-1.8-.2-.21-1.81-1.81-.16-.13-1.78-1.87-.2v-3.78L73,185.25l-.14-1.79L71,183.24l-.19-1.81-1.77-.13-.19-1.79L67,179.29v-3.76l-1.86-.15-.23-1.8-1.81-.21L63,171.58l-1.78-.14L61,169.62l-1.82-.18L59,167.67l-1.79-.2L57,165.66l-1.83-.16v-3.74h-4v3.74l-1.93.14v3.75l-2,.23v5.73l-1.93.16v5.75l-2,.19v3.78l-1.93.14v5.77l-2,.15V197l-2,.25V201l-2,.13v3.76l-2,.23v3.76H29.62L29.39,207H23.65l-.13-1.9-1.8-.2-.22-1.86H17.74v-7.79l1.85-.23v-7.71l2-.14v-7.69l2-.23v-5.73l1.92-.16v-5.74l2-.2v-5.74l1.93-.15V155.8l2-.15V148l2-.24V140l2-.14v-3.75l2-.23v-3.8H51.05l.23-1.92H57l.12,1.79,1.86.15v3.79l2,.16v3.73l2,.24v3.77l2,.14v3.75l1.92.22.17,1.81,1.81.14v3.75l2,.22v3.77l1.87.14.22,1.81,1.87.2v3.77l1.93.14v3.81l1.94.13.15,1.79,1.87.22v3.78l1.94.13.13,1.79,1.88.22v3.77l1.88.13.21,1.81,1.82.2.13,1.8h1.78l.22-1.79,1.87-.2V177.5l1.93-.15v-5.77l2-.15v-3.74l2-.24v-5.74l2-.14v-5.72l2-.23v-5.73l1.92-.15V146l2-.2v-7.72l1.92-.15v-3.79l2-.16v-5.78l1.92-.12v-5.84h3.91l.14-1.88h3.82l.13,1.78H124l.23-1.78h1.81l.12,1.78,1.79.14.22,1.82,1.87.19V128l1.93.13V134l2,.14v3.74l2,.24v3.77l1.89.13.2,1.8,1.87.22v3.75l1.92.16v5.74l2,.2v3.77l1.93.15v3.8l2,.14v3.74l2,.24v3.77l2,.14v5.72l2,.23v5.73l1.92.15v3.77l2,.21v5.74l1.86.14.22,1.82,1.79.17v1.87h-5.71l-.22,2h-7.7l-.15,1.87H142l-.14-1.79-1.87-.13v-3.75l-2-.23v-3.75l-1.93-.16v-5.76l-2-.17-.13-1.81-1.86-.15v-3.8l-2-.14v-3.74l-2-.24V169.6l-2-.14v-3.75l-2-.23v-3.76l-1.88-.14-.21-1.81h-3.84v5.73l-1.93.15v3.79l-2,.15v3.74l-2,.24v3.77l-1.94.13-.14,1.79-1.88.23v5.73l-1.92.15v3.75l-2,.22v3.76l-1.92.16v3.79l-2,.16-.12,1.79-1.87.19V203l-1.94.13-.15,1.79-1.87.22v3.76H90.7l-.11-1.76-1.9-.22Z"/><path class="cls-2" d="M112.34,260.26H108.4v2h-7.77l-.22,1.91H96.56v2H90.72l-.15,1.88H74.93l-.13-1.83H71l-.14-2-1.78-.12-.22-1.8L67,262.13l-.14-1.8-1.77-.14-.24-1.91H63v-3.87l-2-.15v-3.81l-1.92-.12v-5.78l-1.94-.14V222.84l1.84-.12V213l2-.15v-5.78l2-.12v-3.89h1.86l.21-1.9,1.82-.14.12-1.82,1.78-.14.22-1.8,1.88-.21v-3.85h5.81l.2,1.89,1.87.17V199l1.86.15.22,1.8,1.88.21v3.87l0,0H78.91l-.24,1.92-1.86.14v3.77l-2,.21v3.76L73,215v21.53l2,.22v3.75l1.81.14.17,1.8,1.8.22.2,1.8,1.78.12.17,2h3.78l.15,1.82H98.44l.2-2h5.74l.15-1.83,1.79-.14.21-1.81,1.81-.22.12-1.76,1.81-.17.21-1.8,1.8-.2.12-1.78,1.92-.17v-3.87l0,0h2v-6l0,0h1.89V217l-1.91-.22V213l-1.84-.14-.21-1.91h-1.87l0,0v-4H108.4v-1.87l-1.91-.19-.14-1.8h-3.77v-4l1.83-.14v-3.73l2-.25V191.3l1.92-.14v-3.87h6v1.86l1.89.2.22,1.88h3.83l0,0v1.89l1.92.23.13,1.78,1.81.13.21,1.92h1.87l0,0V201l2.08.26v5.7l1.79.14v15.64l-1.94.15v7.72l-1.84.19v1.89H130l.21,1.86,1.8.22.14,1.78,1.8.13.21,1.91H136v3.87l1.92.14.12,1.8,1.87.2v3.78l2,.14v3.75l2,.23v5.82h-3.83l-.2,1.89-1.88.21v1.84h-3.87l-.14,1.9h-1.78l-.22-1.78-1.81-.2-.14-1.8-1.77-.14-.23-1.81-1.81-.2-.13-1.8-1.78-.13-.22-1.82-1.82-.19-.13-1.81h-5.79v3.8l-2,.13-.14,1.78-1.91.25Z"/><path class="cls-2" d="M187.28,260.26v-5.8l-1.91-.23v-3.84h-2v-15.7l1.89-.15V218.89l-1.77-.11v-1.85l1.78-.14V215l-1.79-.21V209l1.79-.12.13-1.79,1.83-.22.18-1.87h3.79c0-.7.08-1.23.12-1.93h3.81c.05-.73.1-1.3.15-2H199l.24-1.91L201,199l.13-1.85h3.75l.22-1.91h3.78c.05.57.09,1.1.14,1.76l1.87.21V201l1.94.13v1.79l-1.9.23v1.89l0,0h-3.86c-.07.66-.12,1.23-.19,1.91l-1.81.13-.14,1.78-1.81.23-.19,1.8-1.81.14v3.75L203,215v3.77l1.9.13c.05.54.11,1.12.18,1.8h3.8c0-.55.08-1.13.13-1.79l1.8-.12.19-1.87h3.79L215,215h3.82l.11,1.81,1.92.1,0,0v3.84l2,.21v3.87l0,0h-4v4l0,0h-2v2l0,0H215c-.08.65-.14,1.22-.23,2H211v3.9l1.84.12v3.81l2,.14.14,1.78h5.74l.21-1.81h3.77l.14-1.93h3.76c.06.55.13,1.12.23,1.88h1.88v7.81l-1.92.17-.13,1.82-1.78.14-.23,1.81-1.8.19c-.05.6-.09,1.17-.14,1.85H221l-.23,1.91-1.81.18-.14,1.85H211.1l-.24,2h-9.69l-.13,1.94H189.39l-.24-1.89Z"/><path class="cls-2" d="M151.77,126.12h3.87l.17-2h3.8l.11-1.85,1.84-.22.17-1.8h5.77l.11,1.77,1.9.22v3.77l1.88.13.21,1.8,1.79.21V132l-1.75.15-.23,1.8-1.81.2c0,.58-.08,1.16-.12,1.79l-1.78.15-.23,1.81-1.81.19-.14,1.84h-3.73l-.24,1.92-1.81.18c0,.6-.08,1.17-.13,1.85h-3.75l-.22,1.92-1.8.17v3.79l1.84.13v3.81l1.94.14.15,1.78h7.72l.2-1.82h3.76l.16-1.92h5.73l.2-1.95h1.81l.14,1.75,1.87.22v3.78l1.94.13v1.78l-1.8.23-.19,1.81-1.81.12-.13,1.79-1.92.23v1.89l0,0h-2v2l0,0h-3.87l-.22,1.89-1.8.2-.13,1.8-1.79.12v5.76l2,.24v5.68h3.79l.14-1.93h3.78c.08-.74.14-1.32.2-1.87l1.8-.13.13-1.8,1.91-.22v-1.84h3.87c0-.68.09-1.25.14-1.91l1.78-.13.22-1.8,1.81-.21.14-1.8,1.77-.14.23-1.8,1.81-.2c0-.59.08-1.16.13-1.8h1.78l.22,1.79,1.81.19c0,.59.09,1.17.13,1.81l1.78.13.23,1.82,1.79.18v3.77h-3.73l-.22,2-1.81.16-.14,1.81h-3.75l-.22,2-1.8.13-.14,1.78-1.91.24v1.87h-3.87l-.14,1.89-1.8.13-.2,1.87h-3.78l-.14,2h-3.74l-.24,2h-3.77l-.13,1.94-1.79.13-.22,1.81h-1.87v-3.77l-1.86-.12-.22-1.84-1.88-.17v-5.77l-1.92-.11v-3.81l-2-.15v-5.71l-2-.24v-5.74l-2-.14v-3.75l-2-.23v-3.76l-1.92-.15v-3.75l-2-.23v-5.73l-1.92-.16V144l-2-.19-.13-1.8-1.85-.15v-3.79l-1.95-.16v-1.85l1.77-.1.22-1.84,1.8-.16.14-1.82h3.75l.22-2h3.76l.16-1.86,1.89-.24Z"/><path class="cls-2" d="M173.5,248.43h-3.88l-.16,1.95h-3.79l-.13,1.87H151.85l-.13-1.79-1.82-.14v-3.74l-2-.24v-3.75l-1.87-.15-.24-1.93h-1.87l0,0v-3.85l-1.91-.23-.19-1.8-1.89-.12v-3.78l-1.93-.22v-9.75l0,0h1.89V207H138v-1.88l1.88-.18.14-1.76h3.78L144,205h5.78v5.8l2,.23v19.54h3.84l.23-1.78,1.86-.21v-3.75l1.92-.16V215l2-.16v-7.75l1.92-.12v-3.87h3.91l.15-1.87h3.81c0,.55.09,1.12.14,1.79l1.78.12c.07.55.13,1.12.21,1.8l1.86.22v3.75l1.93.16v13.64l1.95.18v7.73l-1.83.14v11.69l-2,.14v3.74l-2,.25Z"/><path class="cls-2" d="M216.86,191.21h1.87l.21-1.88,1.82-.16.12-1.82,1.8-.14.2-1.79,1.9-.22v-1.87h3.84l.19-1.89,1.88-.22v-1.86l0,0h3.85l.25-2h3.74l.14-2h3.88v-1.93h11.73l.19-1.89h5.75c.05.58.09,1.11.15,1.76l1.88.22v5.82l0,0h-1.87l-.2,2h-3.79c0,.69-.07,1.22-.12,1.92h-5.78l-.15,2H238.71c-.08.66-.15,1.23-.23,2h-3.76v5.89l1.75.13.23,1.88h3.76c.06.69.1,1.22.15,1.92h13.61l.23,2h3.77l.14,1.87,1.8.23c.06.54.13,1.12.21,1.8l1.83.14v7.68l1.91.24v11.67l-1.83.13v3.74l-1.92.23-.17,1.82-1.77.12-.2,1.8-1.81.21-.16,1.81-1.77.12c-.06.56-.14,1.13-.22,1.81l-1.8.21-.15,1.83h-3.73l-.25,2H234.62V234.7l-1.88-.17v-3.79h1.77c.06.56.13,1.13.21,1.8h9.7l.13-1.79h3.75c.09-.72.15-1.29.23-2l1.88-.17v-5.77l1.86-.11V218.9l-1.86-.14V213l-1.86-.11-.21-1.86-1.79-.13-.15-1.78-1.8-.22-.21-1.87h-7.7c-.06-.68-.1-1.21-.16-1.91H220.94l-.21-2-1.8-.15v-3.74l1.78-.23v-1.8l-1.82-.14v-3.73l-2-.26Z"/><path class="cls-4" d="M82.75,205.05h3.87v3.82l2,.16.14,1.83,1.84.13.12,1.81h3.9V211h2V209h5.9V211h2l0,0v3.9l2,.11.09,2h1.85v13.78h-1.91v2h-2v2h-4v2H96.52v1.83H84.77l-.13-1.82-1.83-.14-.15-1.92H78.8l0,0v-4h-2v-5.89H74.92v-7.87h2v-4h2V209l1.89-.14.14-1.83,1.91-.15V205Z"/><path class="cls-3" d="M5.81,195.15H7.74v-3.84l2-.16v-7.83H11.7v-5.84l2-.12v-5.79l1.91-.13v-9.69l2-.19v-7.75l2-.12v-5.8l1.91-.11V142l2-.16v-5.78l1.91-.11v-5.74l2-.22V126.2l2-.11.11-1.94H49.17l.08-1.85H53.1l.12,1.81,1.84.1V126l-1.79.17-.19,1.85H47.31l-.12,2H35.48L35.35,132l-1.86.18v5.77l-2,.13v5.79l-1.9.12v5.74l-2,.21v7.74l-2,.12v5.78l-1.91.13v5.76l-2,.18v5.78l-2,.12v7.78l-1.91.09v7.78l-2,.13V199H9.82l-.1-1.83H5.81Z"/><path class="cls-4" d="M222.79,224.77h3.88l.12-1.91,1.83-.14v-5.8l-1.8-.11-.14-1.84-1.86-.14V211l-1.95-.13-.13-1.84-1.82-.14v-1.82h5.74l.14,1.83h13.66l.14,2h3.82l.12,2,1.85.13.13,1.84,1.83.13v11.71l-1.8.12-.15,1.87h-3.79l-.15,1.93h-5.79c0-.55-.07-1.12-.12-1.82h-3.82l-.12-1.94h-1.85c0,.54-.08,1.12-.14,1.83h-3.8l-.14,2h-3.81l-.12,1.95-1.85.13-.14,1.91h-3.88l0,0c0-1.33,0-2.65,0-4l0,0h2v-2l0,0h2V226.8l2-.18v-1.87Z"/><path class="cls-3" d="M143.89,240.51v3.87l2,.17v3.81l2,.11v3.83l1.86.11v5.76h-1.84v-3.78l-2-.11V250.5l-2-.19v-3.78l-2-.16v-3.82l-1.93-.1-.12-1.82-1.81-.18-.2-1.9H136V234.7l-1.92-.2-.17-1.82-1.82-.1-.1-1.86-1.82-.11v-5.78l1.75-.19V203.11l-1.86-.13v-3.81L128.2,199l-.19-1.92h-1.88l0,0v-3.87l-1.91-.18-.19-1.9h-3.84l0,0-.08-1.91-1.83-.17-.19-1.89H114.3v-1.92h-3.85v-2l1.81-.1.12-1.8h3.79l.19,1.81h3.8l.11,2,1.85.1.12,1.82,1.81.18.19,1.81,1.83.17.12,1.84,1.87.1V195l1.91.2.19,1.81,1.83.16.11,1.85,1.93.1V205l1.85.09.21,1.94H138v13.82l0,0-2.05.09v5.79l-1.83.11v3.83l1.83.11.14,1.84,2,.19v3.78l1.85.12.1,1.85,1.84.11.19,1.93h1.88Z"/><path class="cls-3" d="M100.51,132.11l1.9-.11v-5.78l2-.15v-3.8h5.87v1.79l-1.86.18V130l-2,.12v5.79l-1.91.12v5.74l-2,.21v5.77l-2,.11v5.79l-1.9.13v3.79l-2,.18v5.78l-2,.11v5.82l-1.9.09v5.79l-2,.15v3.8H88.73l-.11-1.79-1.83-.18v-5.79l1.86-.11v-5.79l1.91-.12v-5.74l2-.21v-5.77l2-.12V147.9l1.91-.13V142l2-.18v-5.78l2-.12Z"/><path class="cls-3" d="M104.43,207h3.94l.09,1.9,1.82.17.2,1.9h1.87l0,0v3.88l2.05.18v3.76l1.89.19v7.79l0,0-2,.09v5.86l0,0-1.9.09-.2,1.83-1.81.17-.1,1.82-1.85.11-.14,1.83-1.82.18-.2,1.81-1.81.17-.1,1.89h-3.82l-.15,2H94.63l-.11,1.83H86.74l-.11-1.92h-3.8l-.19-1.86-1.81-.19-.13-1.82-1.84-.09-.11-1.86-1.9-.15v-3.88l0,0h2l0,0v1.92l1.89.18.2,1.8,1.81.18.11,1.79H98.48l.11-1.92h3.81l.16-2h3.79l.17-1.86,1.82-.12.1-1.85,2-.11v-3.81l1.83-.17v-7.75l-1.86-.11v-5.8l-1.93-.11-.11-1.84-1.83-.16-.2-1.89h-1.88l0,0v-4Z"/><path class="cls-3" d="M147.83,120.2h3.85l.18-1.86,1.88-.17v-1.91h3.85l.19-1.87,1.88-.17v-1.91h7.85l.09,1.87,1.83.2c.06.55.12,1.13.19,1.8l1.88.18v3.87l0,0h-1.89c-.06-.62-.12-1.19-.18-1.88l-1.84-.14-.11-1.83h-3.83l-.11,1.83h-3.81c0,.72-.1,1.29-.15,2l-1.85.12-.11,1.92h-3.84l-.09,1.85-1.92.2v1.9h-3.86l-.18,1.92H144l-.12,2H140L139.9,132l-1.81.17-.19,1.8H136v-5.83h3.85l.19-1.86,1.88-.17v-1.91h3.85l.19-1.87,1.88-.17Z"/><path class="cls-3" d="M185.3,199.09h3.86l.18-1.92h3.81c0-.71.07-1.28.11-2h3.82l.12-1.89H201l.21-2H205l.15-2h3.82l.1-1.92h1.83c0,.52.11,1.1.17,1.78l1.8.2c.06.55.11,1.13.19,1.87h1.9v3.88l1.87.15V199H213v-3.74l-2-.21-.17-1.83-1.84-.11-.1-1.85h-1.83c-.05.54-.1,1.12-.17,1.85h-3.8l-.13,2h-3.82l-.12,1.9H195.3l-.2,2-1.83.17c0,.59-.08,1.17-.12,1.89h-3.81c-.05.68-.09,1.21-.13,1.9h-3.79l-.18,2h-3.79v-1.81l1.79-.12c0-.55.11-1.13.18-1.81l1.88-.2Z"/><path class="cls-3" d="M173.5,254.35h-3.95v2h-7.8l-.18,1.86h-7.72v-3.83H167.5l.11-1.9h3.77l.21-2,1.88-.19v-1.9l4,0,0,0v1.88l-1.86.19-.17,1.81-1.88.16Z"/><path class="cls-4" d="M126.16,185.28h-1.91l-.13-1.87-1.84-.13-.13-1.89h-3.86v-1.9h-3.86v-4.05h1.85v-3.88h3.93v3.87h2v2h2v3.93h2v4Z"/><path class="cls-4" d="M211,205.05h3.86l.14-1.93,1.83-.08.14,1.9,1.86.14.09,1.87h-4v2H211v1.9h-3.88V209H209v-2h2v-2Z"/><path class="cls-3" d="M134,191.24h2v3.84l2,.15v3.82l1.93.11V201h-3.8v-3.71l-2-.2v-5.84Z"/><path class="cls-3" d="M234.64,238.54v3.85l1.86.19v1.8h-3.8v-3.84h-2l0-4,0,0h1.88l.19,1.94Z"/><path class="cls-3" d="M179.48,207.06h1.81v11.68h-1.81Z"/><path class="cls-3" d="M224.78,234.62v-1.89h5.89v3.87l0,0h-1.88l-.2-2h-3.87Z"/><path class="cls-3" d="M179.42,244.49v-7.83l1.85-.09v7.89h-1.88Z"/><path class="cls-3" d="M209,214.87v1.89h-3.82V213l1.77-.08.17,2H209Z"/><path class="cls-3" d="M132.05,187.29h2v4l0,0h-2v-4Z"/><path class="cls-3" d="M104.46,207h-3.88l-.09-1.86h3.94V207Z"/><path class="cls-3" d="M132.08,187.26h-2v-3.94l0,0h2v3.94Z"/><path class="cls-3" d="M177.44,248.43v-3.94h2l0,0v3.94h-2Z"/><path class="cls-3" d="M130.1,183.32h-2v-3.94l0,0h2v3.94Z"/><path class="cls-3" d="M126.12,175.46h2v3.95l0,0h-2v-3.95Z"/><path class="cls-3" d="M216.86,210.92v2h-3.94l0,0v-2h3.94Z"/><path class="cls-3" d="M122.21,169.51h-1.89v-3.83h1.86v3.86Z"/><path class="cls-3" d="M216.89,238.54H215v-3.91h1.91l0,0c0,1.33,0,2.65,0,4Z"/><path class="cls-3" d="M209,214.9v-2H213l0,0v2H209Z"/><path class="cls-3" d="M220.8,212.94h2v3.93l0,0h-2l0,0c0-1.32,0-2.65,0-4Z"/><path class="cls-3" d="M124.15,171.52h2v3.94l0,0h-2v-3.94Z"/><path class="cls-3" d="M224.75,218.85h1.89v1.85h-1.86v-1.88Z"/><path class="cls-3" d="M222.78,216.87h2v2l0,0h-2v-2Z"/><path class="cls-3" d="M122.18,169.54h2v2l0,0h-2v-2Z"/><path class="cls-3" d="M224.75,234.59v2h-2l0,0v-2h2Z"/><path class="cls-3" d="M218.84,211h2v2l0,0h-2v-2Z"/><path class="cls-3" d="M222.78,236.57v1.88h-1.86V236.6h1.89Z"/><path class="cls-3" d="M216.86,238.57h1.89v1.86h-1.86v-1.89Z"/><path class="cls-3" d="M218.87,210.93h-2l0,0v-1.88h2V211Z"/><path class="cls-3" d="M151.88,207h1.78v1.84h-1.78Z"/><path class="cls-4" d="M126.12,185.32H128v1.89h-1.85v-1.93Z"/><path class="cls-3" d="M177.32,203h-1.76v-1.83h1.76Z"/><path class="cls-3" d="M214.89,191.24v-1.89h2v1.88Z"/><path class="cls-2" d="M313.55,175.44h-5.84c-.06.66-.12,1.23-.18,1.91h-7.68v31.51l1.82.21v9.68l1.92.15v9.67l2,.21v5.75l-1.75.14-.24,1.88h-9.68c-.05.68-.09,1.21-.13,1.87H290l-.2-1.76-1.84-.15v-7.68l-2-.24V216.93l-2-.13V201.22l-2-.24v-15.6l-1.92-.14v-3.77h-5.93c0,.57-.09,1.14-.13,1.78h-5.74v-3.79l1.77-.15V175.5l-1.78-.11v-3.83l1.78-.12.15-1.85h7.72l.19-2h5.75l.15-1.92h9.71l.15-2h7.76l.12-1.93h9.73l.14-1.94h5.79v3.78l2,.16v5.78l1.86.11v1.91h-3.75c-.05.69-.1,1.22-.15,1.92h-3.88v2.07Z"/><path class="cls-3" d="M305.59,199.06l2,.1v19.62l2,.1v11.67l1.9.19v3.77h-3.82v-9.69l-1.9-.12V217l-2-.22v-9.71l-1.93-.11V179.46h1.85v5.72l2,.21Z"/><path class="cls-3" d="M268.14,165.59H272l.17-2H278l.1-1.95h3.78c.07-.66.13-1.24.2-2h9.71c.05-.72.09-1.29.13-2h9.73l.12-1.87h13.69l.08,1.81h-7.84l-.11,2h-9.74c0,.68-.08,1.22-.13,1.91H288l-.18,2h-7.75c0,.72-.08,1.29-.12,2h-5.81l-.09,1.86h-5.87v-1.89Z"/><path class="cls-3" d="M264.23,201.07h-1.88c-.06-.62-.12-1.2-.19-1.89l-1.83-.14-.11-1.9H256.4l-.13-1.9h-3.76c-.08-.71-.14-1.28-.21-2h-9.68v-1.93h13.65l.11,1.87h3.84l.09,1.89,1.82.16.2,1.8,1.87.19v3.88Z"/><path class="cls-4" d="M254.33,238.53v1.92l-1.87.13c0,.54-.08,1.12-.13,1.87h-3.89v2h-3.93v2h-6l0,0v-3.92h5.9v-2h5.88v-2h4Z"/><path class="cls-3" d="M321.47,155.8v3.8l1.8.11v7.78H321.5v-5.73l-2-.21v-3.77l-1.93-.15V155.8Z"/><path class="cls-3" d="M262.22,179.39h1.94v-5.84l1.93-.09v7.8h-3.84v-1.9Z"/><path class="cls-3" d="M268.07,216.81h-1.79v-7.74h1.79Z"/><path class="cls-3" d="M226.76,179.4v-1.88l1.94-.19v-1.9l4,0,0,0v1.9l-2,.19v1.88l0,0h-4Z"/><path class="cls-3" d="M242.54,171.51v-1.89h7.77v1.86H242.5Z"/><path class="cls-3" d="M242.5,171.48c0,.67,0,1.34,0,2v0h-5.94l0,0v-2h5.92Z"/><path class="cls-3" d="M264.2,201.1h1.89v5.8h-1.86v-5.83Z"/><path class="cls-3" d="M232.67,175.46v-2h4l0,0v2h-4Z"/><path class="cls-3" d="M264.26,169.43v-1.78h1.83v1.78Z"/><path class="cls-4" d="M238.55,246.42v1.89h-1.89v-1.85h1.94Z"/><path class="cls-3" d="M236.65,191.13v-1.79h1.83v1.79Z"/><path class="cls-2" d="M179.53,161.64h1.73c.06-.61.12-1.19.2-1.93h3.78l.14-1.93,1.79-.15v-7.75l-1.84-.16v-3.78l-1.93-.14V142h-7.86l-.15,1.75h-1.81c-.05-.52-.12-1.1-.19-1.77l-1.8-.14v-5.73l1.81-.22.17-1.81,1.78-.12.19-1.87h3.79l.13-1.94,1.79-.14v-3.8l-1.78-.17c-.05-.6-.09-1.17-.13-1.81l-1.85-.14v-3.8l-2-.15-.12-1.79-1.87-.2v-3.78l-1.94-.14-.14-1.78-1.81-.23v-1.8l1.83-.14v-5.73h7.86c0,.55.09,1.12.14,1.8h5.77v3.89l2,.2v25.46l1.92.16v9.7l2,.17v7.74l1.87.12v3.87h-3.75l-.15,1.86-1.81.23-.2,1.87h-3.77c0,.69-.09,1.23-.13,1.87h-3.76Z"/><path class="cls-3" d="M210.94,143.87v1.88l-1.89.19c0,.58-.08,1.16-.12,1.84l-1.85.1L207,149.7l-1.81.18c-.06.55-.12,1.13-.19,1.81l-1.84.16c0,.6-.06,1.18-.1,1.85l-1.82.09c0,.55-.11,1.13-.17,1.81l-1.81.2-.17,1.8h-1.84l-.11-1.81-1.84-.13v-5.74l-2-.2V144l-2-.12V130.15l-1.91-.13V108.48l-2-.17v-3.79h3.76v7.68l2,.21v13.66l2,.12v17.62l1.9.13v5.75h6l.1-1.8,1.87-.11.1-1.82,1.81-.17.21-1.89H211Z"/><path class="cls-2" d="M218.79,161.56l-1.78.14-.23,1.81-1.81.19c0,.59-.08,1.17-.13,1.81l-1.78.13-.23,1.89h-3.76l-.14,1.86-1.8.23c-.07.55-.13,1.12-.21,1.78h-1.84v-3.71l-1.92-.23-.18-1.81-1.85-.14v-3.75l-1.91-.21v-1.84H203v-3.9l2-.17.12-1.78,1.79-.2.22-1.81,1.81-.15.12-1.77,1.81-.22.2-1.79h1.8l.14,1.75,1.82.23c.06.56.12,1.13.19,1.81l1.85.13v3.75l1.92.22c0,.58.1,1.16.15,1.81l1.83.14c0,.55.05,1.12.08,1.78l-1.91.22C218.87,160.34,218.83,160.92,218.79,161.56Z"/><path class="cls-3" d="M211,143.9V142h5.85c0,.57.07,1.15.11,1.82l1.85.1.12,1.82,1.81.18.2,1.9h1.87v4h2l0,0v3.86h-1.91l-.11-1.82-1.85-.1c0-.62-.08-1.16-.12-1.82L219,151.7l-.19-1.81-1.84-.16-.11-1.85-1.84-.1-.13-1.81-1.81-.19-.2-1.91h-1.9Z"/><path class="cls-3" d="M183.32,167.53v1.88l-1.85.2-.18,1.8-1.89.17v1.87h-3.87c-.07.77-.12,1.34-.17,1.92l-1.81.17c-.07.67-.12,1.24-.18,1.76h-3.83v-3.84l0,0h4v-2l0,0h3.85l.2-1.87,1.8-.18.17-1.89h3.87Z"/><path class="cls-4" d="M163.67,141.9h3.85V140h1.93v5.79h-5.79v1.93h-1.93v-3.82h1.83Z"/><path class="cls-4" d="M175.45,163.63h1.88v3.93h-1.86v1.94h-2v2l0,0h-1.87V167.6l1.89-.12v-1.9l0,0h2v-2Z"/><path class="cls-3" d="M183.36,153.73h-2v-3.86l-1.93-.12V144h1.81v3.75l2,.21v5.84Z"/><path class="cls-3" d="M163.6,151.76v1.89h-3.86l-.12-1.82-1.84-.11v-5.79h1.81v3.74l2,.22.19,1.9h1.9Z"/><path class="cls-3" d="M163.64,151.79v-1.88l1.88-.19c0-.58.09-1.16.14-1.81h5.78v1.81h-3.75c-.08.72-.14,1.29-.21,2H163.6Z"/><path class="cls-2" d="M195.16,179.37v1.87l-1.87.21-.16,1.8h-3.79v-1.77l1.78-.21c.06-.55.13-1.12.22-1.87h3.85Z"/><path class="cls-2" d="M199.15,179.38h-4l0,0v-1.87l1.87-.2c.05-.57.11-1.14.19-1.87h3.86l0,0v1.87l-2,.21v1.9Z"/><path class="cls-3" d="M175.47,126.12h-1.88l-.19-1.87-1.87-.17V120.2l0,0h1.87l.19,1.87,1.88.17v3.88Z"/><path class="cls-3" d="M250.43,149.79h-4l0,0v-2h3.94l0,0c0,.66,0,1.33,0,2Z"/><path class="cls-3" d="M246.45,149.79v1.89h-3.83v-1.86h3.86Z"/><path class="cls-3" d="M195.2,161.62h-3.89c0-.62-.05-1.19-.09-1.86h3.95v1.89Z"/><path class="cls-3" d="M201.08,169.58H203l.09,1.84-1.92.09Z"/><path class="cls-2" d="M201.11,175.46v-1.88H203v1.85h-1.89Z"/><path class="cls-3" d="M185.3,165.57v2h-2l0,0v-2h2Z"/><path class="cls-3" d="M197.14,163.62H199v1.86h-1.85v-1.89Z"/><path class="cls-3" d="M185.33,165.6v-1.89h1.86v1.86H185.3Z"/><path class="cls-3" d="M197.17,163.59h-2v-2l0,0h2v2Z"/><path class="cls-3" d="M183.33,153.76h1.88v1.86h-1.85v-1.89Z"/><path class="cls-3" d="M238.67,151.82h1.78v1.83h-1.78Z"/><path class="cls-3" d="M250.42,147.85V146h1.86v1.86h-1.89Z"/><path class="cls-3" d="M175.36,147.78h-1.78V146h1.78Z"/><path class="cls-3" d="M256.31,143.87v1.89h-1.86V143.9h1.89Z"/><path class="cls-3" d="M175.44,126.15h1.88V128h-1.85v-1.89Z"/><path class="cls-3" d="M141.94,264.21h-2v2h-3.89L136,264.3l2-.19v-1.87h4l0,0Z"/><path class="cls-3" d="M143.88,258.28h1.89v2h-1.89l0,0v-2Z"/><path class="cls-3" d="M143.88,260.23v2h-2l0,0v-2h2Z"/><path class="cls-3" d="M224.78,183.33h-1.89v-2h1.89l0,0v2Z"/><path class="cls-3" d="M224.78,181.37v-2h2l0,0v2h-2Z"/><path class="cls-1" d="M232.64,126.12V128l-1.89.2-.13,1.81H217l-.23-1.86H213c0-.73-.09-1.3-.14-1.93l-1.84-.15V122.3l-2-.2v-3.76l-1.87-.16V104.54l1.84-.19V96.64l1.86-.15.24-1.9h1.87v3.89l-1.88.1v15.68l1.93.11v5.9h3.84l.13,1.83h7.76c0-.67.09-1.24.14-1.93h3.8l.14-1.87,1.84-.13.13-1.84,1.84-.13.13-1.85,2-.12v-3.82l2-.13V104.5l1.82-.13V98.58l-1.93-.14v-3.8l-1.86-.14-.14-1.84-1.84-.13-.12-1.8H220.88l-.14,1.87h-5.83V90.74l1.89-.19.14-1.8h3.75l.22-2h9.7c0,.57.09,1.1.14,1.8h7.71l.2,2,1.81.13c0,.61.09,1.14.14,1.78l1.81.22c.06.56.12,1.14.19,1.81l1.85.14v5.71l1.91.23v7.72l-1.8.14v5.73l-2,.22v3.76l-1.86.15-.24,1.9h-1.88l0,0v-3.87l2-.21v-3.77l1.81-.11V96.64h-1.93V108.3l-2,.21v3.77l-1.91.12v3.81l-1.88.13c-.07.69-.12,1.26-.17,1.82l-1.81.2c-.07.68-.12,1.26-.18,1.81l-1.82.11c0,.65-.06,1.22-.1,1.94h-3.81l-.18,2H214.89v-1.89H213v1.86h1.88v2h3.85L219,128h9.69l.18-1.86h3.85Z"/><path class="cls-1" d="M238.56,120.21V124l-1.85.21c-.06.56-.13,1.13-.2,1.87h-3.87l0,0v-1.91l1.88-.16.17-1.81,1.8-.18.2-1.86h1.87Z"/><path class="cls-1" d="M224.78,151.79h-2v-4h2Z"/><path class="cls-1" d="M212.94,94.59v-2h2v2h-2Z"/><path class="cls-1" d="M78.83,234.62h-2v-1.89H75v1.85h1.89v3.88l1.9.15.11,1.86,1.84.09.13,1.82,1.81.19.19,1.86h3.8l.11,1.92h7.78l.11-1.83h5.79l.15-2h3.82l.1-1.89,1.81-.17.2-1.81,1.82-.18.14-1.83,1.85-.11.1-1.82,1.81-.17.2-1.83,1.9-.09v3.87l-1.92.17-.12,1.78-1.8.2-.21,1.8-1.81.17-.12,1.76-1.81.22-.21,1.81-1.79.14-.15,1.83H98.64l-.2,2H84.8l-.15-1.82H80.87l-.17-2-1.78-.12-.2-1.8-1.8-.22-.17-1.8-1.81-.14v-3.75l-2-.22V215l1.8-.14v-3.76l2-.21v-3.77l1.86-.14.24-1.92h3.86v1.89l-1.91.15-.14,1.83-1.89.14v3.85h-2v4h-2v7.87H76.8v5.89h2Z"/><path class="cls-1" d="M126.13,197.12H128l.19,1.92,1.88.13V203l1.86.13v21.53l-1.75.19v5.78l1.82.11.1,1.86,1.82.1.17,1.82,1.92.2v3.86h-1.87l-.21-1.91-1.8-.13-.14-1.78-1.8-.22-.21-1.86h-3.77v-1.89l1.84-.19v-7.72l1.94-.15V207.07l-1.79-.14v-5.7l-2.08-.26Z"/><path class="cls-1" d="M116.26,226.73v-7.79l-1.89-.19V215l-2.05-.18v-3.88h1.87l.21,1.91,1.84.14v3.75l1.91.22v9.78Z"/><path class="cls-1" d="M120.22,191.2h3.84l.19,1.9,1.91.18v3.87h-1.87l-.21-1.92-1.81-.13-.13-1.78-1.92-.23Z"/><path class="cls-1" d="M114.3,187.26h3.84l.19,1.89,1.83.17.08,1.91h-3.83l-.22-1.88-1.89-.2Z"/><path class="cls-1" d="M143.91,260.26h-2v2h-4v-1.87l1.88-.21.2-1.89h3.86Z"/><path class="cls-1" d="M114.29,232.65v-5.86l2-.09v6Z"/><path class="cls-1" d="M112.35,211h-1.87l-.2-1.9-1.82-.17-.09-1.9h4Z"/><path class="cls-1" d="M222.82,224.75v1.87l-2,.18v1.92h-2v-4Z"/><path class="cls-1" d="M218.87,228.69v2h-2v-2Z"/><path class="cls-1" d="M173.51,165.58v1.9l-1.89.12v3.87h1.87v2h-4V171.6h-1.85v1.86h1.88v3.84h3.83c.06-.52.11-1.09.18-1.76l1.81-.17c0-.58.1-1.15.17-1.92h3.87v1.87l-1.91.22-.13,1.8-1.8.13c-.06.55-.12,1.13-.2,1.87h-3.78l-.14,1.93h-3.79v-5.68l-2-.24v-5.76l1.79-.12.13-1.8,1.8-.2.22-1.89Z"/><path class="cls-1" d="M175.48,163.61v2h-2v-2Z"/><path class="cls-1" d="M143.91,240.54H142l-.19-1.93L140,238.5l-.1-1.85-1.85-.12v-3.78l-2-.19-.14-1.84-1.83-.11v-3.83l1.83-.11v-5.79l2.05-.09v9.75l1.93.22v3.78l1.89.12.19,1.8,1.91.23Z"/><path class="cls-1" d="M138,220.81V207h1.89v13.82Z"/><path class="cls-1" d="M232.64,175.43h4v-2h5.94v2h-3.88l-.14,2h-3.74l-.25,2h-3.85v-1.88l2-.19Z"/><path class="cls-1" d="M224.75,181.34h2v-2h4v1.86l-1.88.22-.19,1.89h-3.87Z"/><path class="cls-1" d="M104.42,210.94h1.88l.2,1.89,1.83.16.11,1.84,1.93.11v5.8l1.86.11v7.75l-1.83.17v3.81l-2,.11-.1,1.85-1.82.12-.17,1.86h-3.79l-.16,2H98.59l-.11,1.92H82.81l-.11-1.79-1.81-.18-.2-1.8-1.89-.18v-1.92h3.86l.15,1.92,1.83.14.13,1.82H96.52v-1.83h3.94v-2h4v-2h2v-2h1.91V216.9h-1.85l-.09-2-2-.11Z"/><path class="cls-4" d="M212.93,94.57h2v-2h5.84l.14-1.87h11.71l.12,1.8,1.84.13.14,1.84,1.86.14v3.8l1.93.14v5.79l-1.82.13v5.78l-2,.13v3.82l-2,.12-.13,1.85-1.84.13-.13,1.84-1.84.13-.14,1.87h-3.8c0,.69-.09,1.26-.14,1.93H217l-.13-1.83H213v-5.9l-1.93-.11V98.58l1.88-.1Z"/><path class="cls-3" d="M238.59,120.23h-1.87l-.2,1.86-1.8.18-.17,1.81-1.88.16v1.91h-3.85l-.18,1.86H219l-.18-1.83h-3.85v-2l0,0h11.75l.18-2h3.81c0-.72.07-1.29.1-1.94l1.82-.11c.06-.55.11-1.13.18-1.81l1.81-.2c.05-.56.1-1.13.17-1.82l1.88-.13V112.4l1.91-.12v-3.77l2-.21V96.64h1.93v15.63l-1.81.11v3.77l-2,.21Z"/><path class="cls-3" d="M214.92,124.15H213v-1.86h1.85v1.89Z"/><path class="cls-3" d="M76.85,234.59H75v-1.85h1.86v1.89Z"/><path class="cls-3" d="M169.55,173.46h-1.88V171.6h1.85v1.89Z"/></g></g></svg>