<svg xmlns="http://www.w3.org/2000/svg" viewBox="0 0 125.99 90"><defs><style>.cls-1,.cls-2{fill:#231f20;}.cls-2,.cls-3{stroke:#231f20;stroke-miterlimit:10;stroke-width:2px;}.cls-3{fill:none;}</style></defs><g id="Layer_2" data-name="Layer 2"><g id="Layer_1-2" data-name="Layer 1"><path class="cls-1" d="M74,40.47a13.45,13.45,0,0,1-5.93-1.24,5.27,5.27,0,0,1-2.58-2.5A3.61,3.61,0,0,1,65.2,34a4.24,4.24,0,0,1,1.37-1.94A8.19,8.19,0,0,1,70,30.39a11.63,11.63,0,0,1,3.9-.3,12.66,12.66,0,0,1,4.28,1,5.86,5.86,0,0,1,2.7,2.27,3.67,3.67,0,0,1-.78,5A8.12,8.12,0,0,1,76,40.25C75.23,40.37,74.44,40.43,74,40.47Zm-.68-1a3,3,0,0,0,3.28-2.77,6.2,6.2,0,0,0-.17-1.47,7.31,7.31,0,0,0-1-2.5,3.2,3.2,0,0,0-3.31-1.51A2.85,2.85,0,0,0,70,34.3c.05.32.1.65.16,1A8.15,8.15,0,0,0,71,37.81,2.9,2.9,0,0,0,73.34,39.49Z"/><line class="cls-2" x1="1" y1="12.52" x2="124.99" y2="12.52"/><line class="cls-2" x1="1" y1="24.04" x2="124.99" y2="24.04"/><line class="cls-2" x1="1" y1="35.56" x2="124.99" y2="35.56"/><rect class="cls-3" x="1" y="1" width="123.99" height="46.08"/><line class="cls-2" x1="121.15" y1="1" x2="121.15" y2="47.08"/><path d="M29.78,16.4a18.6,18.6,0,0,1-2.54,9.4,39.11,39.11,0,0,1-4.76,6.53,31.13,31.13,0,0,1-3.79,3.74A39.73,39.73,0,0,1,8.77,42c-.51.21-1.07.33-1.6.49h0c-.29,0-.54,0-.61-.2s0-.43.21-.57c.47-.36,1-.73,1.44-1.07,1.76-1.21,3.55-2.37,5.29-3.61A29.34,29.34,0,0,0,18,33a21.18,21.18,0,0,0,3.35-5.18,29.61,29.61,0,0,0,2.36-7A16.55,16.55,0,0,0,24,16.15a13.27,13.27,0,0,0-2.27-6.34,14,14,0,0,0-4.09-4,5.53,5.53,0,0,0-5.05-.55A4.85,4.85,0,0,0,10.4,6.53a4.7,4.7,0,0,0-.52.74A1.34,1.34,0,0,0,10.1,9,4.06,4.06,0,0,0,12,10.11a5.36,5.36,0,0,1,4.2,4.39A5.47,5.47,0,0,1,5.66,17.24,15,15,0,0,1,5.19,15,11.57,11.57,0,0,1,5,12.09,9.61,9.61,0,0,1,7.33,6.46a11.33,11.33,0,0,1,6-3.58,14,14,0,0,1,4.22-.48,11.82,11.82,0,0,1,8.27,3.73,14.17,14.17,0,0,1,3.78,7.47A13.8,13.8,0,0,1,29.78,16.4Z"/><path d="M35.84,10.53a3.78,3.78,0,0,1-3.29-1.81,3.41,3.41,0,0,1,.79-4.45,4,4,0,0,1,5.15.11,3.47,3.47,0,0,1-.84,5.72A3.92,3.92,0,0,1,35.84,10.53Z"/><path d="M35.84,21.62a3.78,3.78,0,0,1-3.29-1.81,3.41,3.41,0,0,1,.79-4.45,4,4,0,0,1,5.15.11,3.47,3.47,0,0,1-.84,5.72A3.92,3.92,0,0,1,35.84,21.62Z"/><path d="M54.46,32.34c.47-.38.88-.73,1.33-1a4.94,4.94,0,0,1,2.28-.9,2.69,2.69,0,0,1,3,2.1A4.84,4.84,0,0,1,60.84,35a7,7,0,0,1-2,2.82,28.52,28.52,0,0,1-4.46,3c-.38.24-.6.12-.69-.32a2.42,2.42,0,0,1,0-.47V21.46h.81Zm0,7.1a2.68,2.68,0,0,0,.29-.2,13.48,13.48,0,0,0,2.48-2.41,4.7,4.7,0,0,0,1.1-2,3.27,3.27,0,0,0,.05-1.39,1.49,1.49,0,0,0-2.24-1A3.06,3.06,0,0,0,54.59,34a1.25,1.25,0,0,0-.12.54c0,1.07,0,2.15,0,3.23Z"/></g></g></svg>