<svg xmlns="http://www.w3.org/2000/svg" viewBox="0 0 125.99 90"><defs><style>.cls-1,.cls-2{fill:#231f20;}.cls-2,.cls-3{stroke:#231f20;stroke-miterlimit:10;stroke-width:2px;}.cls-3{fill:none;}</style></defs><g id="Layer_2" data-name="Layer 2"><g id="Layer_1-2" data-name="Layer 1"><path class="cls-1" d="M74,10.43a13.45,13.45,0,0,1-5.93-1.25,5.25,5.25,0,0,1-2.58-2.49A3.63,3.63,0,0,1,65.22,4,4.3,4.3,0,0,1,66.59,2,8.19,8.19,0,0,1,70,.34a11.89,11.89,0,0,1,3.9-.3,12.9,12.9,0,0,1,4.28,1,6,6,0,0,1,2.7,2.27,3.68,3.68,0,0,1-.78,5A8.1,8.1,0,0,1,76,10.2C75.25,10.33,74.46,10.38,74,10.43Zm-.68-1a3,3,0,0,0,3.28-2.77,6.09,6.09,0,0,0-.17-1.47,7.29,7.29,0,0,0-1-2.51,3.18,3.18,0,0,0-3.31-1.5A2.85,2.85,0,0,0,70,4.26c0,.32.1.64.16,1A8.21,8.21,0,0,0,71,7.77,2.9,2.9,0,0,0,73.36,9.45Z"/><line class="cls-2" x1="1" y1="22.63" x2="124.99" y2="22.63"/><line class="cls-2" x1="1" y1="34.15" x2="124.99" y2="34.15"/><line class="cls-2" x1="1" y1="45.67" x2="124.99" y2="45.67"/><rect class="cls-3" x="1" y="11.11" width="123.99" height="46.08"/><line class="cls-2" x1="121.15" y1="11.11" x2="121.15" y2="57.19"/><path d="M29.78,26.51a18.6,18.6,0,0,1-2.54,9.4,39.11,39.11,0,0,1-4.76,6.53,31.13,31.13,0,0,1-3.79,3.74,39.73,39.73,0,0,1-9.92,5.88c-.51.21-1.07.33-1.6.49h0c-.29,0-.54,0-.61-.2a.45.45,0,0,1,.21-.56c.47-.37,1-.74,1.44-1.08,1.76-1.2,3.55-2.37,5.29-3.61a29.34,29.34,0,0,0,4.5-4A21,21,0,0,0,21.3,38a29.61,29.61,0,0,0,2.36-7A16.55,16.55,0,0,0,24,26.26a13.31,13.31,0,0,0-2.27-6.34,14,14,0,0,0-4.09-4,5.56,5.56,0,0,0-5.05-.55,4.78,4.78,0,0,0-2.21,1.27,4.2,4.2,0,0,0-.52.73,1.36,1.36,0,0,0,.22,1.73A4,4,0,0,0,12,20.22a5.36,5.36,0,0,1,4.2,4.39A5.47,5.47,0,0,1,5.66,27.35a15,15,0,0,1-.47-2.21A11.51,11.51,0,0,1,5,22.21a9.64,9.64,0,0,1,2.29-5.64,11.33,11.33,0,0,1,6-3.58,14,14,0,0,1,4.22-.47,11.81,11.81,0,0,1,8.27,3.72,14.17,14.17,0,0,1,3.78,7.47A13.8,13.8,0,0,1,29.78,26.51Z"/><path d="M35.84,20.64a3.78,3.78,0,0,1-3.29-1.81,3.41,3.41,0,0,1,.79-4.45,4,4,0,0,1,5.15.11,3.47,3.47,0,0,1-.84,5.72A3.92,3.92,0,0,1,35.84,20.64Z"/><path d="M35.84,31.73a3.78,3.78,0,0,1-3.29-1.81,3.41,3.41,0,0,1,.79-4.45,4,4,0,0,1,5.15.11,3.47,3.47,0,0,1-.84,5.72A3.92,3.92,0,0,1,35.84,31.73Z"/></g></g></svg>