<svg xmlns="http://www.w3.org/2000/svg" viewBox="0 0 125.99 90">><defs><style>.cls-1,.cls-2{fill:#231f20;}.cls-2,.cls-3{stroke:#231f20;stroke-miterlimit:10;stroke-width:2px;}.cls-3{fill:none;}</style></defs><g id="Layer_2" data-name="Layer 2"><g id="Layer_1-2" data-name="Layer 1"><path class="cls-1" d="M73.74,46.66a13.5,13.5,0,0,1-5.94-1.25,5.33,5.33,0,0,1-2.58-2.49,3.67,3.67,0,0,1-.3-2.72,4.22,4.22,0,0,1,1.36-1.94,8.25,8.25,0,0,1,3.4-1.69,11.89,11.89,0,0,1,3.9-.3,13,13,0,0,1,4.29,1,5.79,5.79,0,0,1,2.69,2.27,3.67,3.67,0,0,1-.77,5,8.18,8.18,0,0,1-4.06,1.86C74.94,46.56,74.15,46.61,73.74,46.66Zm-.69-1a3,3,0,0,0,3.29-2.77,6.24,6.24,0,0,0-.18-1.48,7.29,7.29,0,0,0-.94-2.5,3.22,3.22,0,0,0-3.31-1.51,2.85,2.85,0,0,0-2.2,3.06c.05.33.09.65.15,1A8.77,8.77,0,0,0,70.69,44,2.91,2.91,0,0,0,73.05,45.68Z"/><line class="cls-2" x1="1" y1="12.52" x2="124.99" y2="12.52"/><line class="cls-2" x1="1" y1="24.04" x2="124.99" y2="24.04"/><line class="cls-2" x1="1" y1="35.56" x2="124.99" y2="35.56"/><rect class="cls-3" x="1" y="1" width="123.99" height="46.08"/><line class="cls-2" x1="121.15" y1="1" x2="121.15" y2="47.08"/><path d="M29.78,16.4a18.6,18.6,0,0,1-2.54,9.4,39.11,39.11,0,0,1-4.76,6.53,31.13,31.13,0,0,1-3.79,3.74A39.73,39.73,0,0,1,8.77,42c-.51.21-1.07.33-1.6.49h0c-.29,0-.54,0-.61-.2s0-.43.21-.57c.47-.36,1-.73,1.44-1.07,1.76-1.21,3.55-2.37,5.29-3.61A29.34,29.34,0,0,0,18,33a21.18,21.18,0,0,0,3.35-5.18,29.61,29.61,0,0,0,2.36-7A16.55,16.55,0,0,0,24,16.15a13.27,13.27,0,0,0-2.27-6.34,14,14,0,0,0-4.09-4,5.53,5.53,0,0,0-5.05-.55A4.85,4.85,0,0,0,10.4,6.53a4.7,4.7,0,0,0-.52.74A1.34,1.34,0,0,0,10.1,9,4.06,4.06,0,0,0,12,10.11a5.36,5.36,0,0,1,4.2,4.39A5.47,5.47,0,0,1,5.66,17.24,15,15,0,0,1,5.19,15,11.57,11.57,0,0,1,5,12.09,9.61,9.61,0,0,1,7.33,6.46a11.33,11.33,0,0,1,6-3.58,14,14,0,0,1,4.22-.48,11.82,11.82,0,0,1,8.27,3.73,14.17,14.17,0,0,1,3.78,7.47A13.8,13.8,0,0,1,29.78,16.4Z"/><path d="M35.84,10.53a3.78,3.78,0,0,1-3.29-1.81,3.41,3.41,0,0,1,.79-4.45,4,4,0,0,1,5.15.11,3.47,3.47,0,0,1-.84,5.72A3.92,3.92,0,0,1,35.84,10.53Z"/><path d="M35.84,21.62a3.78,3.78,0,0,1-3.29-1.81,3.41,3.41,0,0,1,.79-4.45,4,4,0,0,1,5.15.11,3.47,3.47,0,0,1-.84,5.72A3.92,3.92,0,0,1,35.84,21.62Z"/><path d="M53.58,38.38c.47-.38.89-.73,1.33-1a4.82,4.82,0,0,1,2.28-.89,2.69,2.69,0,0,1,3,2.09A4.84,4.84,0,0,1,60,41a6.88,6.88,0,0,1-2,2.82,28.58,28.58,0,0,1-4.46,3c-.38.23-.6.12-.68-.33a2.42,2.42,0,0,1,0-.47V27.5h.81Zm0,7.11.29-.21a13.22,13.22,0,0,0,2.49-2.41,4.87,4.87,0,0,0,1.1-2,3.43,3.43,0,0,0,0-1.39,1.49,1.49,0,0,0-2.24-1A3.08,3.08,0,0,0,53.71,40a1.37,1.37,0,0,0-.12.53c0,1.08,0,2.16,0,3.23Z"/></g></g></svg>