<svg xmlns="http://www.w3.org/2000/svg" viewBox="0 0 125.99 71.87"><defs><style>.cls-1,.cls-2{fill:#231f20;}.cls-2,.cls-3{stroke:#231f20;stroke-miterlimit:10;stroke-width:2px;}.cls-3{fill:none;}</style></defs><g id="Layer_2" data-name="Layer 2"><g id="Layer_1-2" data-name="Layer 1"><path class="cls-1" d="M74,15.46a13.45,13.45,0,0,1-5.93-1.25,5.25,5.25,0,0,1-2.58-2.49A3.64,3.64,0,0,1,65.22,9a4.24,4.24,0,0,1,1.37-1.94A8.19,8.19,0,0,1,70,5.37a11.89,11.89,0,0,1,3.9-.3,12.9,12.9,0,0,1,4.28,1,5.86,5.86,0,0,1,2.7,2.27,3.68,3.68,0,0,1-.78,5A8.1,8.1,0,0,1,76,15.23C75.25,15.36,74.46,15.41,74,15.46Zm-.68-1a3,3,0,0,0,3.28-2.77,6.23,6.23,0,0,0-.17-1.48,7.31,7.31,0,0,0-1-2.5,3.2,3.2,0,0,0-3.31-1.51A2.86,2.86,0,0,0,70,9.28c0,.33.1.65.16,1A8.21,8.21,0,0,0,71,12.8,2.9,2.9,0,0,0,73.36,14.48Z"/><line class="cls-2" x1="1" y1="21.66" x2="124.99" y2="21.66"/><line class="cls-2" x1="1" y1="33.18" x2="124.99" y2="33.18"/><line class="cls-2" x1="1" y1="44.7" x2="124.99" y2="44.7"/><rect class="cls-3" x="1" y="10.14" width="123.99" height="46.08"/><line class="cls-2" x1="121.15" y1="10.14" x2="121.15" y2="56.22"/><path d="M29.78,25.54a18.6,18.6,0,0,1-2.54,9.4,39.11,39.11,0,0,1-4.76,6.53,31.88,31.88,0,0,1-3.79,3.74,39.73,39.73,0,0,1-9.92,5.88c-.51.21-1.07.33-1.6.49h0c-.29,0-.54,0-.61-.2s0-.43.21-.57c.47-.36,1-.73,1.44-1.07,1.76-1.21,3.55-2.37,5.29-3.61a29.34,29.34,0,0,0,4.5-4A21.18,21.18,0,0,0,21.3,37a29.61,29.61,0,0,0,2.36-7A16.55,16.55,0,0,0,24,25.29,13.27,13.27,0,0,0,21.75,19a14,14,0,0,0-4.09-4,5.53,5.53,0,0,0-5.05-.55,4.85,4.85,0,0,0-2.21,1.26,4.7,4.7,0,0,0-.52.74,1.34,1.34,0,0,0,.22,1.72A4.06,4.06,0,0,0,12,19.25a5.36,5.36,0,0,1,4.2,4.39A5.47,5.47,0,0,1,5.66,26.38a15,15,0,0,1-.47-2.21A11.57,11.57,0,0,1,5,21.23,9.59,9.59,0,0,1,7.33,15.6a11.33,11.33,0,0,1,6-3.58,14,14,0,0,1,4.22-.48,11.82,11.82,0,0,1,8.27,3.73,14.17,14.17,0,0,1,3.78,7.47A13.8,13.8,0,0,1,29.78,25.54Z"/><path d="M35.84,19.67a3.81,3.81,0,0,1-3.29-1.81,3.41,3.41,0,0,1,.79-4.45,4,4,0,0,1,5.15.11,3.47,3.47,0,0,1-.84,5.72A3.92,3.92,0,0,1,35.84,19.67Z"/><path d="M35.84,30.76A3.78,3.78,0,0,1,32.55,29a3.41,3.41,0,0,1,.79-4.45,4,4,0,0,1,5.15.11,3.47,3.47,0,0,1-.84,5.72A3.92,3.92,0,0,1,35.84,30.76Z"/><path d="M54.32,20.28h-.73v-5.1l-1.94.44V13.54c.54-.11,1.08-.23,1.63-.33.27,0,.33-.14.32-.33,0-1.49,0-3,0-4.48a2.29,2.29,0,0,0,0-.25l-1.93.37v-2c.54-.12,1.08-.24,1.63-.34.26-.05.33-.14.32-.33,0-1.53,0-3.06,0-4.58V.94h.73V5.89c.91-.2,1.77-.38,2.63-.58a.25.25,0,0,0,.18-.19V0h.8a.51.51,0,0,0,0,.13V4.92s0,.11,0,.2l1.88-.39v2c-.54.11-1.06.23-1.58.32-.24,0-.33.13-.33.33,0,1.5,0,3,0,4.49v.28l1.92-.41c0,.67,0,1.3,0,1.92,0,.06-.15.15-.25.18-.44.1-.89.21-1.34.28-.27,0-.33.14-.32.33,0,1.52,0,3,0,4.57v.29h-.78V14.42L54.45,15a.21.21,0,0,0-.13.17ZM57.15,7.35c-.87.18-1.69.36-2.52.51-.25,0-.32.13-.32.33,0,1.51,0,3,0,4.53,0,.08,0,.16,0,.27.86-.19,1.67-.38,2.49-.55.25,0,.33-.12.33-.32,0-.94,0-1.89,0-2.83Z"/></g></g></svg>