<svg xmlns="http://www.w3.org/2000/svg" viewBox="0 0 125.99 55.41"><defs><style>.cls-1,.cls-2{fill:#231f20;}.cls-2,.cls-3{stroke:#231f20;stroke-miterlimit:10;stroke-width:2px;}.cls-3{fill:none;}</style></defs><g id="Layer_2" data-name="Layer 2"><g id="Layer_1-2" data-name="Layer 1"><path class="cls-1" d="M73.74,19.36a13.64,13.64,0,0,1-5.94-1.24,5.35,5.35,0,0,1-2.58-2.5,3.67,3.67,0,0,1-.3-2.72A4.33,4.33,0,0,1,66.28,11a8.11,8.11,0,0,1,3.4-1.68,11.37,11.37,0,0,1,3.9-.3,12.54,12.54,0,0,1,4.29,1,5.79,5.79,0,0,1,2.69,2.27,3.66,3.66,0,0,1-.77,5,8.18,8.18,0,0,1-4.06,1.86C74.94,19.26,74.15,19.31,73.74,19.36Zm-.69-1a3,3,0,0,0,3.29-2.77,6.1,6.1,0,0,0-.18-1.47,7.22,7.22,0,0,0-.94-2.5,3.18,3.18,0,0,0-3.31-1.51,2.84,2.84,0,0,0-2.2,3.06c.05.32.09.64.15,1a8.8,8.8,0,0,0,.83,2.54A2.91,2.91,0,0,0,73.05,18.38Z"/><line class="cls-2" x1="1" y1="19.85" x2="124.99" y2="19.85"/><line class="cls-2" x1="1" y1="31.37" x2="124.99" y2="31.37"/><line class="cls-2" x1="1" y1="42.89" x2="124.99" y2="42.89"/><rect class="cls-3" x="1" y="8.34" width="123.99" height="46.08"/><line class="cls-2" x1="121.15" y1="8.34" x2="121.15" y2="54.41"/><path d="M29.78,23.73a18.6,18.6,0,0,1-2.54,9.4,38.7,38.7,0,0,1-4.76,6.53,30.43,30.43,0,0,1-3.79,3.74,39.47,39.47,0,0,1-9.92,5.89c-.51.21-1.07.32-1.6.48h0c-.29,0-.54,0-.61-.2A.45.45,0,0,1,6.72,49c.47-.37,1-.73,1.44-1.07,1.76-1.21,3.55-2.37,5.29-3.62a28.82,28.82,0,0,0,4.5-4,20.81,20.81,0,0,0,3.35-5.18,29.61,29.61,0,0,0,2.36-7,16.51,16.51,0,0,0,.36-4.7,13.31,13.31,0,0,0-2.27-6.35,14.14,14.14,0,0,0-4.09-4,5.56,5.56,0,0,0-5.05-.55,4.87,4.87,0,0,0-2.21,1.27,4.62,4.62,0,0,0-.52.73,1.36,1.36,0,0,0,.22,1.73A4.06,4.06,0,0,0,12,17.45a5.35,5.35,0,0,1,4.2,4.38A5.47,5.47,0,0,1,5.66,24.58a15.38,15.38,0,0,1-.47-2.22A11.49,11.49,0,0,1,5,19.43,9.59,9.59,0,0,1,7.33,13.8a11.41,11.41,0,0,1,6-3.59,14.33,14.33,0,0,1,4.22-.47,11.81,11.81,0,0,1,8.27,3.72,14.21,14.21,0,0,1,3.78,7.47A13.86,13.86,0,0,1,29.78,23.73Z"/><path d="M35.84,17.86a3.78,3.78,0,0,1-3.29-1.81,3.41,3.41,0,0,1,.79-4.45,4,4,0,0,1,5.15.11,3.47,3.47,0,0,1-.84,5.72A3.92,3.92,0,0,1,35.84,17.86Z"/><path d="M35.84,29a3.78,3.78,0,0,1-3.29-1.8,3.41,3.41,0,0,1,.79-4.45,4,4,0,0,1,5.15.11,3.47,3.47,0,0,1-.84,5.72A3.91,3.91,0,0,1,35.84,29Z"/><path d="M52.58,10.88c.47-.38.89-.73,1.33-1a4.94,4.94,0,0,1,2.28-.9,2.7,2.7,0,0,1,3,2.1A4.84,4.84,0,0,1,59,13.51a6.88,6.88,0,0,1-2,2.82,27.84,27.84,0,0,1-4.46,3c-.38.24-.6.13-.68-.32a2.42,2.42,0,0,1,0-.47V0h.81Zm0,7.1a2.68,2.68,0,0,0,.29-.2,13.22,13.22,0,0,0,2.49-2.41,4.87,4.87,0,0,0,1.1-2,3.43,3.43,0,0,0,0-1.39,1.49,1.49,0,0,0-2.24-1,3.08,3.08,0,0,0-1.55,1.57,1.37,1.37,0,0,0-.12.53c0,1.08,0,2.15,0,3.23Z"/></g></g></svg>