<svg xmlns="http://www.w3.org/2000/svg" viewBox="0 0 125.99 90"><defs><style>.cls-1,.cls-2{fill:#231f20;}.cls-2,.cls-3{stroke:#231f20;stroke-miterlimit:10;stroke-width:2px;}.cls-3{fill:none;}</style></defs><g id="Layer_2" data-name="Layer 2"><g id="Layer_1-2" data-name="Layer 1"><path class="cls-1" d="M73.74,16.64A13.5,13.5,0,0,1,67.8,15.4a5.38,5.38,0,0,1-2.58-2.49,3.68,3.68,0,0,1-.3-2.72,4.22,4.22,0,0,1,1.36-1.94,8.25,8.25,0,0,1,3.4-1.69,11.89,11.89,0,0,1,3.9-.3,13,13,0,0,1,4.29,1,5.79,5.79,0,0,1,2.69,2.27,3.67,3.67,0,0,1-.77,5,8.18,8.18,0,0,1-4.06,1.86C74.94,16.55,74.15,16.6,73.74,16.64Zm-.69-1a3,3,0,0,0,3.29-2.76,6.24,6.24,0,0,0-.18-1.48,7.29,7.29,0,0,0-.94-2.5,3.22,3.22,0,0,0-3.31-1.51,2.85,2.85,0,0,0-2.2,3.06c.05.33.09.65.15,1A8.77,8.77,0,0,0,70.69,14,2.92,2.92,0,0,0,73.05,15.66Z"/><line class="cls-2" x1="1" y1="17.14" x2="124.99" y2="17.14"/><line class="cls-2" x1="1" y1="28.66" x2="124.99" y2="28.66"/><line class="cls-2" x1="1" y1="40.18" x2="124.99" y2="40.18"/><rect class="cls-3" x="1" y="5.62" width="123.99" height="46.08"/><line class="cls-2" x1="121.15" y1="5.62" x2="121.15" y2="51.7"/><path d="M29.78,21a18.6,18.6,0,0,1-2.54,9.4A39.11,39.11,0,0,1,22.48,37a31.13,31.13,0,0,1-3.79,3.74,39.73,39.73,0,0,1-9.92,5.88c-.51.21-1.07.33-1.6.49h0c-.29,0-.54,0-.61-.2s0-.43.21-.57c.47-.36,1-.73,1.44-1.07,1.76-1.21,3.55-2.37,5.29-3.61a29.34,29.34,0,0,0,4.5-4,21.18,21.18,0,0,0,3.35-5.18,29.61,29.61,0,0,0,2.36-7A16.55,16.55,0,0,0,24,20.77a13.27,13.27,0,0,0-2.27-6.34,14,14,0,0,0-4.09-4,5.53,5.53,0,0,0-5.05-.55,4.85,4.85,0,0,0-2.21,1.26,4.7,4.7,0,0,0-.52.74,1.34,1.34,0,0,0,.22,1.72A4.06,4.06,0,0,0,12,14.73a5.36,5.36,0,0,1,4.2,4.39A5.47,5.47,0,0,1,5.66,21.86a15,15,0,0,1-.47-2.21A11.51,11.51,0,0,1,5,16.72a9.62,9.62,0,0,1,2.29-5.64,11.33,11.33,0,0,1,6-3.58A14.33,14.33,0,0,1,17.51,7a11.82,11.82,0,0,1,8.27,3.73,14.17,14.17,0,0,1,3.78,7.47A13.8,13.8,0,0,1,29.78,21Z"/><path d="M35.84,15.15a3.78,3.78,0,0,1-3.29-1.81,3.41,3.41,0,0,1,.79-4.45A4,4,0,0,1,38.49,9a3.47,3.47,0,0,1-.84,5.72A3.92,3.92,0,0,1,35.84,15.15Z"/><path d="M35.84,26.24a3.78,3.78,0,0,1-3.29-1.81A3.41,3.41,0,0,1,33.34,20a4,4,0,0,1,5.15.11,3.47,3.47,0,0,1-.84,5.72A3.92,3.92,0,0,1,35.84,26.24Z"/><path d="M55.94,20.28h-.73v-5.1l-1.94.44V13.54c.54-.11,1.08-.23,1.63-.33.27,0,.32-.14.32-.33,0-1.49,0-3,0-4.48,0-.08,0-.16,0-.25l-1.93.37v-2c.54-.12,1.08-.24,1.63-.34.26-.05.32-.14.32-.33,0-1.53,0-3.06,0-4.58V.94H56V5.89c.91-.2,1.77-.38,2.63-.58a.25.25,0,0,0,.18-.19c0-1.71,0-3.41,0-5.12h.81a.51.51,0,0,0,0,.13V4.92s0,.11,0,.2l1.88-.39v2c-.54.11-1.06.23-1.58.32-.25,0-.33.13-.33.33,0,1.5,0,3,0,4.49v.28l1.92-.41c0,.67,0,1.3,0,1.92,0,.06-.15.15-.25.18-.44.1-.89.21-1.35.28-.26,0-.32.14-.32.33,0,1.52,0,3,0,4.57v.29h-.78V14.42l-2.7.57c-.06,0-.12.11-.12.17C55.93,16.87,55.94,18.57,55.94,20.28ZM58.76,7.35c-.86.18-1.68.36-2.51.51-.25,0-.33.13-.32.33,0,1.51,0,3,0,4.53,0,.08,0,.16,0,.27.85-.19,1.67-.38,2.49-.55.25,0,.33-.12.33-.32,0-.94,0-1.89,0-2.83Z"/></g></g></svg>