<svg xmlns="http://www.w3.org/2000/svg" viewBox="0 0 125.99 60.78"><defs><style>.cls-1,.cls-2{fill:#231f20;}.cls-2,.cls-3{stroke:#231f20;stroke-miterlimit:10;stroke-width:2px;}.cls-3{fill:none;}</style></defs><g id="Layer_2" data-name="Layer 2"><g id="Layer_1-2" data-name="Layer 1"><path class="cls-1" d="M74,19a13.45,13.45,0,0,1-5.93-1.25,5.25,5.25,0,0,1-2.58-2.49,3.64,3.64,0,0,1-.31-2.72,4.24,4.24,0,0,1,1.37-1.94A8.19,8.19,0,0,1,70,8.93a11.89,11.89,0,0,1,3.9-.3,12.9,12.9,0,0,1,4.28,1,5.86,5.86,0,0,1,2.7,2.27,3.68,3.68,0,0,1-.78,5A8.1,8.1,0,0,1,76,18.79C75.25,18.92,74.46,19,74,19Zm-.68-1a3,3,0,0,0,3.28-2.77,6.23,6.23,0,0,0-.17-1.48,7.31,7.31,0,0,0-1-2.5,3.2,3.2,0,0,0-3.31-1.51A2.86,2.86,0,0,0,70,12.84c0,.33.1.65.16,1A8.21,8.21,0,0,0,71,16.36,2.92,2.92,0,0,0,73.36,18Z"/><line class="cls-2" x1="1" y1="25.22" x2="124.99" y2="25.22"/><line class="cls-2" x1="1" y1="36.74" x2="124.99" y2="36.74"/><line class="cls-2" x1="1" y1="48.26" x2="124.99" y2="48.26"/><rect class="cls-3" x="1" y="13.7" width="123.99" height="46.08"/><line class="cls-2" x1="121.15" y1="13.7" x2="121.15" y2="59.78"/><path d="M29.78,29.09a18.61,18.61,0,0,1-2.54,9.41A39.11,39.11,0,0,1,22.48,45a31.05,31.05,0,0,1-3.79,3.73,39.47,39.47,0,0,1-9.92,5.89c-.51.21-1.07.33-1.6.49h0c-.29,0-.54,0-.61-.21s0-.42.21-.56c.47-.37,1-.73,1.44-1.07,1.76-1.21,3.55-2.37,5.29-3.61a29.34,29.34,0,0,0,4.5-4,21.18,21.18,0,0,0,3.35-5.18,29.61,29.61,0,0,0,2.36-7A16.55,16.55,0,0,0,24,28.85a13.27,13.27,0,0,0-2.27-6.34,14,14,0,0,0-4.09-4A5.53,5.53,0,0,0,12.61,18a5,5,0,0,0-2.21,1.27,4.7,4.7,0,0,0-.52.74,1.34,1.34,0,0,0,.22,1.72A4.06,4.06,0,0,0,12,22.81a5.36,5.36,0,0,1,4.2,4.39A5.47,5.47,0,0,1,5.66,29.94a14.83,14.83,0,0,1-.47-2.22A11.47,11.47,0,0,1,5,24.79a9.59,9.59,0,0,1,2.29-5.63,11.41,11.41,0,0,1,6-3.59,14.33,14.33,0,0,1,4.22-.47,11.82,11.82,0,0,1,8.27,3.73,14.14,14.14,0,0,1,3.78,7.47A13.76,13.76,0,0,1,29.78,29.09Z"/><path d="M35.84,23.22a3.76,3.76,0,0,1-3.29-1.81A3.4,3.4,0,0,1,33.34,17a4,4,0,0,1,5.15.11,3.47,3.47,0,0,1-.84,5.72A3.91,3.91,0,0,1,35.84,23.22Z"/><path d="M35.84,34.32a3.78,3.78,0,0,1-3.29-1.81,3.41,3.41,0,0,1,.79-4.45,4,4,0,0,1,5.15.11,3.47,3.47,0,0,1-.84,5.72A3.92,3.92,0,0,1,35.84,34.32Z"/><path d="M53.64,10.88c.47-.38.89-.73,1.33-1a4.94,4.94,0,0,1,2.28-.9,2.7,2.7,0,0,1,3,2.1A4.84,4.84,0,0,1,60,13.51a6.88,6.88,0,0,1-2,2.82,28.21,28.21,0,0,1-4.45,3c-.39.24-.61.13-.69-.32a2.42,2.42,0,0,1-.05-.47V0h.81Zm0,7.1.3-.2a13.47,13.47,0,0,0,2.48-2.41,4.87,4.87,0,0,0,1.1-2,3.43,3.43,0,0,0,0-1.39,1.49,1.49,0,0,0-2.24-1,3.08,3.08,0,0,0-1.55,1.57,1.37,1.37,0,0,0-.12.53c0,1.08,0,2.15,0,3.23Z"/></g></g></svg>