<svg xmlns="http://www.w3.org/2000/svg" viewBox="0 0 125.99 57.22"><defs><style>.cls-1,.cls-2{fill:#231f20;}.cls-2,.cls-3{stroke:#231f20;stroke-miterlimit:10;stroke-width:2px;}.cls-3{fill:none;}</style></defs><g id="Layer_2" data-name="Layer 2"><g id="Layer_1-2" data-name="Layer 1"><path class="cls-1" d="M74.7,51.7a13.45,13.45,0,0,1-5.93-1.24A5.27,5.27,0,0,1,66.19,48a3.61,3.61,0,0,1-.31-2.71,4.3,4.3,0,0,1,1.36-1.94,8.17,8.17,0,0,1,3.41-1.69,11.59,11.59,0,0,1,3.89-.3,12.66,12.66,0,0,1,4.29,1,5.86,5.86,0,0,1,2.7,2.27,3.67,3.67,0,0,1-.78,5,8.06,8.06,0,0,1-4.06,1.86C75.91,51.6,75.12,51.66,74.7,51.7Zm-.68-1A3,3,0,0,0,77.3,48a6.2,6.2,0,0,0-.17-1.47,7.23,7.23,0,0,0-.95-2.5,3.19,3.19,0,0,0-3.31-1.51,2.85,2.85,0,0,0-2.2,3.06c0,.32.1.65.16,1A8.15,8.15,0,0,0,71.66,49,2.89,2.89,0,0,0,74,50.72Z"/><line class="cls-2" x1="1" y1="12.52" x2="124.99" y2="12.52"/><line class="cls-2" x1="1" y1="24.04" x2="124.99" y2="24.04"/><line class="cls-2" x1="1" y1="35.56" x2="124.99" y2="35.56"/><rect class="cls-3" x="1" y="1" width="123.99" height="46.08"/><line class="cls-2" x1="121.15" y1="1" x2="121.15" y2="47.08"/><path d="M29.78,16.4a18.6,18.6,0,0,1-2.54,9.4,39.11,39.11,0,0,1-4.76,6.53,31.13,31.13,0,0,1-3.79,3.74A39.73,39.73,0,0,1,8.77,42c-.51.21-1.07.33-1.6.49h0c-.29,0-.54,0-.61-.2s0-.43.21-.57c.47-.36,1-.73,1.44-1.07,1.76-1.21,3.55-2.37,5.29-3.61A29.34,29.34,0,0,0,18,33a21.18,21.18,0,0,0,3.35-5.18,29.61,29.61,0,0,0,2.36-7A16.55,16.55,0,0,0,24,16.15a13.27,13.27,0,0,0-2.27-6.34,14,14,0,0,0-4.09-4,5.53,5.53,0,0,0-5.05-.55A4.85,4.85,0,0,0,10.4,6.53a4.7,4.7,0,0,0-.52.74A1.34,1.34,0,0,0,10.1,9,4.06,4.06,0,0,0,12,10.11a5.36,5.36,0,0,1,4.2,4.39A5.47,5.47,0,0,1,5.66,17.24,15,15,0,0,1,5.19,15,11.57,11.57,0,0,1,5,12.09,9.61,9.61,0,0,1,7.33,6.46a11.33,11.33,0,0,1,6-3.58,14,14,0,0,1,4.22-.48,11.82,11.82,0,0,1,8.27,3.73,14.17,14.17,0,0,1,3.78,7.47A13.8,13.8,0,0,1,29.78,16.4Z"/><path d="M35.84,10.53a3.78,3.78,0,0,1-3.29-1.81,3.41,3.41,0,0,1,.79-4.45,4,4,0,0,1,5.15.11,3.47,3.47,0,0,1-.84,5.72A3.92,3.92,0,0,1,35.84,10.53Z"/><path d="M35.84,21.62a3.78,3.78,0,0,1-3.29-1.81,3.41,3.41,0,0,1,.79-4.45,4,4,0,0,1,5.15.11,3.47,3.47,0,0,1-.84,5.72A3.92,3.92,0,0,1,35.84,21.62Z"/><path d="M57.12,57.22h-.74v-5.1l-1.94.43V50.48c.55-.11,1.09-.24,1.64-.33.27,0,.32-.14.32-.33,0-1.49,0-3,0-4.48,0-.08,0-.16,0-.26l-1.93.38v-2c.55-.12,1.09-.24,1.64-.34.26-.05.32-.14.32-.33,0-1.53,0-3.06,0-4.58v-.3h.73v4.95c.91-.2,1.78-.38,2.64-.58a.27.27,0,0,0,.17-.19c0-1.71,0-3.42,0-5.12h.8s0,.08,0,.12v4.79a2.06,2.06,0,0,0,0,.21l1.88-.4v2.05L61,44c-.24,0-.32.13-.32.33,0,1.5,0,3,0,4.49v.28l1.92-.41c0,.67,0,1.29,0,1.92,0,.06-.14.15-.24.18-.45.1-.9.2-1.35.28-.27,0-.32.14-.32.33,0,1.52,0,3,0,4.56v.29h-.78V51.35c-.93.2-1.82.38-2.7.58a.21.21,0,0,0-.13.17C57.11,53.81,57.12,55.51,57.12,57.22Zm2.82-12.93-2.51.51c-.25.05-.33.13-.33.33,0,1.51,0,3,0,4.53,0,.08,0,.16,0,.27.85-.19,1.66-.38,2.49-.55.25-.05.33-.12.33-.32,0-.94,0-1.89,0-2.84Z"/></g></g></svg>