<svg xmlns="http://www.w3.org/2000/svg" viewBox="0 0 125.99 90"><defs><style>.cls-1,.cls-2{fill:#231f20;}.cls-2,.cls-3{stroke:#231f20;stroke-miterlimit:10;stroke-width:2px;}.cls-3{fill:none;}</style></defs><g id="Layer_2" data-name="Layer 2"><g id="Layer_1-2" data-name="Layer 1"><path class="cls-1" d="M74.68,35.43a13.53,13.53,0,0,1-5.94-1.25,5.33,5.33,0,0,1-2.58-2.49,3.67,3.67,0,0,1-.3-2.72A4.22,4.22,0,0,1,67.22,27a8.29,8.29,0,0,1,3.41-1.69,11.85,11.85,0,0,1,3.89-.3,12.9,12.9,0,0,1,4.29,1,5.86,5.86,0,0,1,2.7,2.27,3.68,3.68,0,0,1-.78,5,8.14,8.14,0,0,1-4.06,1.86C75.89,35.33,75.1,35.38,74.68,35.43Zm-.68-1a3,3,0,0,0,3.28-2.77,6.23,6.23,0,0,0-.17-1.48,7.31,7.31,0,0,0-1-2.5,3.2,3.2,0,0,0-3.31-1.51,2.86,2.86,0,0,0-2.2,3.06c0,.33.1.65.16,1a8.21,8.21,0,0,0,.83,2.55A2.89,2.89,0,0,0,74,34.45Z"/><line class="cls-2" x1="1" y1="12.52" x2="124.99" y2="12.52"/><line class="cls-2" x1="1" y1="24.04" x2="124.99" y2="24.04"/><line class="cls-2" x1="1" y1="35.56" x2="124.99" y2="35.56"/><rect class="cls-3" x="1" y="1" width="123.99" height="46.08"/><line class="cls-2" x1="121.15" y1="1" x2="121.15" y2="47.08"/><path d="M29.78,16.4a18.6,18.6,0,0,1-2.54,9.4,39.11,39.11,0,0,1-4.76,6.53,31.13,31.13,0,0,1-3.79,3.74A39.73,39.73,0,0,1,8.77,42c-.51.21-1.07.33-1.6.49h0c-.29,0-.54,0-.61-.2s0-.43.21-.57c.47-.36,1-.73,1.44-1.07,1.76-1.21,3.55-2.37,5.29-3.61A29.34,29.34,0,0,0,18,33a21.18,21.18,0,0,0,3.35-5.18,29.61,29.61,0,0,0,2.36-7A16.55,16.55,0,0,0,24,16.15a13.27,13.27,0,0,0-2.27-6.34,14,14,0,0,0-4.09-4,5.53,5.53,0,0,0-5.05-.55A4.85,4.85,0,0,0,10.4,6.53a4.7,4.7,0,0,0-.52.74A1.34,1.34,0,0,0,10.1,9,4.06,4.06,0,0,0,12,10.11a5.36,5.36,0,0,1,4.2,4.39A5.47,5.47,0,0,1,5.66,17.24,15,15,0,0,1,5.19,15,11.57,11.57,0,0,1,5,12.09,9.61,9.61,0,0,1,7.33,6.46a11.33,11.33,0,0,1,6-3.58,14,14,0,0,1,4.22-.48,11.82,11.82,0,0,1,8.27,3.73,14.17,14.17,0,0,1,3.78,7.47A13.8,13.8,0,0,1,29.78,16.4Z"/><path d="M35.84,10.53a3.78,3.78,0,0,1-3.29-1.81,3.41,3.41,0,0,1,.79-4.45,4,4,0,0,1,5.15.11,3.47,3.47,0,0,1-.84,5.72A3.92,3.92,0,0,1,35.84,10.53Z"/><path d="M35.84,21.62a3.78,3.78,0,0,1-3.29-1.81,3.41,3.41,0,0,1,.79-4.45,4,4,0,0,1,5.15.11,3.47,3.47,0,0,1-.84,5.72A3.92,3.92,0,0,1,35.84,21.62Z"/><path d="M57.2,40.35h-.74v-5.1l-1.94.44V33.61c.55-.11,1.09-.23,1.64-.32.27,0,.32-.14.32-.33,0-1.5,0-3,0-4.49a2.5,2.5,0,0,0,0-.25l-1.93.37v-2c.55-.11,1.09-.24,1.64-.34.26,0,.32-.13.32-.32,0-1.53,0-3.06,0-4.59V21h.73V26l2.63-.57a.28.28,0,0,0,.18-.2c0-1.71,0-3.41,0-5.12h.8s0,.09,0,.13c0,1.6,0,3.19,0,4.79,0,.06,0,.11,0,.2l1.89-.39v2l-1.59.33c-.24,0-.32.13-.32.33,0,1.49,0,3,0,4.48v.28l1.92-.4c0,.66,0,1.29,0,1.91,0,.06-.14.15-.25.18-.44.11-.89.21-1.34.28-.27.05-.32.15-.32.34,0,1.52,0,3,0,4.56v.29H60V34.49l-2.7.57a.23.23,0,0,0-.13.17C57.19,36.94,57.19,38.65,57.2,40.35ZM60,27.42l-2.51.52c-.25,0-.33.13-.33.32,0,1.51,0,3,0,4.54,0,.08,0,.16,0,.26.85-.19,1.66-.38,2.49-.54.25-.05.33-.13.32-.33,0-.94,0-1.89,0-2.83Z"/></g></g></svg>