<svg xmlns="http://www.w3.org/2000/svg" viewBox="0 0 125.99 90"><defs><style>.cls-1,.cls-3{fill:#231f20;}.cls-1,.cls-2{stroke:#231f20;stroke-miterlimit:10;stroke-width:2px;}.cls-2{fill:none;}</style></defs><g id="Layer_2" data-name="Layer 2"><g id="Layer_1-2" data-name="Layer 1"><line class="cls-1" x1="1" y1="21.59" x2="124.99" y2="21.59"/><line class="cls-1" x1="1" y1="33.11" x2="124.99" y2="33.11"/><line class="cls-1" x1="1" y1="44.63" x2="124.99" y2="44.63"/><rect class="cls-2" x="1" y="10.07" width="123.99" height="46.08"/><path class="cls-3" d="M16.45,68.53c.92,1.74,2.78,2.29,4.95,1.57a5.34,5.34,0,0,0,3.85-5.79C25,61.16,24.43,58,24,55.07a47.88,47.88,0,0,1-5.51,0C12.2,54.28,8,49.91,6.77,43.37c-1-5.43.8-10,4.18-14,1.84-2.2,3.84-4.26,5.81-6.35a1.93,1.93,0,0,0,.62-1.86,88.73,88.73,0,0,1-1.12-9.72A15.51,15.51,0,0,1,19,2.28C19.79,1.12,20.68-.13,22.28,0s2.2,1.46,2.73,2.7c2.55,6.09,2.7,17.41-4.3,24.33a1.86,1.86,0,0,0-.56,2c.48,1.9.81,3.84,1.21,5.83A8.3,8.3,0,0,1,29,37.07c4.88,4.77,3.6,13.52-2.47,16.62-.81.42-1.17.72-.94,1.78a73.85,73.85,0,0,1,1.24,8.09,10.89,10.89,0,0,1-.47,4.09,5.77,5.77,0,0,1-5.14,4.14A9,9,0,0,1,13.14,69a5.17,5.17,0,0,1,0-6.55,3.77,3.77,0,0,1,4.15-1.06,3.69,3.69,0,0,1,2.45,3.37,3.61,3.61,0,0,1-2.46,3.5C17,68.33,16.78,68.41,16.45,68.53ZM23.57,53,21,39.7a5,5,0,0,0-3.27,2.73c-1.56,3.3.3,5.67,2.52,8.09a7.64,7.64,0,0,1-5.92-8.34,8.93,8.93,0,0,1,4.83-6.42c.35-.2.86-.68.82-1-.3-1.9-.72-3.79-1.15-5.94-1.95,1.82-3.73,3.39-5.4,5.06A12.35,12.35,0,0,0,9.77,45.35C11,52.51,18.8,54.91,23.57,53ZM18.71,20.88c2.56-2.67,4.85-5.26,5.75-8.69a10.11,10.11,0,0,0,.12-4.1c-.34-2-1.78-2.36-3.29-1a4.21,4.21,0,0,0-.72.8C18,11.88,17.71,16.16,18.71,20.88Zm3.62,18.61L25,52.43a6.68,6.68,0,0,0,3.39-7.57C27.69,41.57,25.57,39.6,22.33,39.49Z"/><line class="cls-1" x1="121.15" y1="10.07" x2="121.15" y2="56.15"/><path class="cls-3" d="M63.74,67.13a13.5,13.5,0,0,1-5.94-1.24,5.38,5.38,0,0,1-2.58-2.49,3.68,3.68,0,0,1-.3-2.72,4.22,4.22,0,0,1,1.36-1.94,8.25,8.25,0,0,1,3.4-1.69,11.89,11.89,0,0,1,3.9-.3,13,13,0,0,1,4.29,1,5.79,5.79,0,0,1,2.69,2.27,3.67,3.67,0,0,1-.77,5,8.18,8.18,0,0,1-4.06,1.86C64.94,67,64.15,67.09,63.74,67.13Zm-.69-1a3,3,0,0,0,3.29-2.76,6.24,6.24,0,0,0-.18-1.48,7.29,7.29,0,0,0-.94-2.5,3.22,3.22,0,0,0-3.31-1.51A2.85,2.85,0,0,0,59.71,61c0,.33.09.65.15,1a8.77,8.77,0,0,0,.83,2.55A2.92,2.92,0,0,0,63.05,66.15Z"/><path d="M45.78,59c.48-.38.89-.73,1.33-1a5,5,0,0,1,2.29-.9,2.68,2.68,0,0,1,3,2.1,4.73,4.73,0,0,1-.25,2.47,7,7,0,0,1-2,2.82,29,29,0,0,1-4.46,3c-.39.24-.61.13-.69-.32a2.42,2.42,0,0,1-.05-.47V48.12h.81Zm0,7.1.29-.2a13.47,13.47,0,0,0,2.48-2.41,4.93,4.93,0,0,0,1.1-2,3.63,3.63,0,0,0,.05-1.39,1.5,1.5,0,0,0-2.25-1.05,3,3,0,0,0-1.54,1.56,1.3,1.3,0,0,0-.13.54c0,1.08,0,2.15,0,3.23Z"/></g></g></svg>