<svg xmlns="http://www.w3.org/2000/svg" viewBox="0 0 125.99 71.87"><defs><style>.cls-1,.cls-3{fill:#231f20;}.cls-1,.cls-2{stroke:#231f20;stroke-miterlimit:10;stroke-width:2px;}.cls-2{fill:none;}</style></defs><g id="Layer_2" data-name="Layer 2"><g id="Layer_1-2" data-name="Layer 1"><line class="cls-1" x1="1" y1="21.66" x2="124.99" y2="21.66"/><line class="cls-1" x1="1" y1="33.18" x2="124.99" y2="33.18"/><line class="cls-1" x1="1" y1="44.7" x2="124.99" y2="44.7"/><rect class="cls-2" x="1" y="10.14" width="123.99" height="46.08"/><path class="cls-3" d="M16.45,68.59c.92,1.75,2.78,2.3,4.95,1.58a5.35,5.35,0,0,0,3.85-5.79C25,61.23,24.43,58.1,24,55.14a47.88,47.88,0,0,1-5.51,0C12.2,54.35,8,50,6.77,43.44c-1-5.43.8-10,4.18-14,1.84-2.2,3.84-4.27,5.81-6.35a1.94,1.94,0,0,0,.62-1.87,88.45,88.45,0,0,1-1.12-9.72A15.55,15.55,0,0,1,19,2.34c.76-1.15,1.65-2.41,3.25-2.26s2.2,1.46,2.73,2.7c2.55,6.09,2.7,17.4-4.3,24.33a1.86,1.86,0,0,0-.56,2C20.63,31,21,33,21.36,35A8.25,8.25,0,0,1,29,37.14c4.88,4.77,3.6,13.52-2.47,16.62-.81.42-1.17.72-.94,1.78a73.85,73.85,0,0,1,1.24,8.09,10.91,10.91,0,0,1-.47,4.09,5.77,5.77,0,0,1-5.14,4.14A9,9,0,0,1,13.14,69a5.17,5.17,0,0,1,0-6.55,3.77,3.77,0,0,1,4.15-1.06,3.69,3.69,0,0,1,2.45,3.37,3.61,3.61,0,0,1-2.46,3.5ZM23.57,53.1,21,39.77a5,5,0,0,0-3.27,2.73c-1.56,3.29.3,5.67,2.52,8.09a7.64,7.64,0,0,1-5.92-8.34,8.92,8.92,0,0,1,4.83-6.42c.35-.21.86-.68.82-1-.3-1.9-.72-3.79-1.15-5.94-1.95,1.82-3.73,3.39-5.4,5.06A12.34,12.34,0,0,0,9.77,45.41C11,52.58,18.8,55,23.57,53.1ZM18.71,21c2.56-2.67,4.85-5.26,5.75-8.69a10.11,10.11,0,0,0,.12-4.1c-.34-2-1.78-2.36-3.29-1a4.47,4.47,0,0,0-.72.79C18,12,17.71,16.23,18.71,21Zm3.62,18.61L25,52.5a6.68,6.68,0,0,0,3.39-7.57C27.69,41.63,25.57,39.67,22.33,39.56Z"/><line class="cls-1" x1="121.15" y1="10.14" x2="121.15" y2="56.22"/><path class="cls-3" d="M63.74,15.37a13.64,13.64,0,0,1-5.94-1.24,5.35,5.35,0,0,1-2.58-2.5,3.67,3.67,0,0,1-.3-2.72A4.33,4.33,0,0,1,56.28,7a8.11,8.11,0,0,1,3.4-1.68,11.37,11.37,0,0,1,3.9-.3,12.54,12.54,0,0,1,4.29,1,5.79,5.79,0,0,1,2.69,2.27,3.66,3.66,0,0,1-.77,5,8.18,8.18,0,0,1-4.06,1.86C64.94,15.27,64.15,15.32,63.74,15.37Zm-.69-1a3,3,0,0,0,3.29-2.77,6.1,6.1,0,0,0-.18-1.47,7.22,7.22,0,0,0-.94-2.5,3.18,3.18,0,0,0-3.31-1.51,2.84,2.84,0,0,0-2.2,3.06c0,.32.09.64.15,1a8.8,8.8,0,0,0,.83,2.54A2.91,2.91,0,0,0,63.05,14.39Z"/><path d="M47.27,20.28h-.74v-5.1l-1.94.44V13.54c.55-.11,1.09-.23,1.64-.33.27,0,.32-.14.32-.33,0-1.49,0-3,0-4.48a2.29,2.29,0,0,0,0-.25l-1.93.37v-2c.55-.12,1.09-.24,1.64-.34.26-.05.32-.14.32-.33,0-1.53,0-3.06,0-4.58V.94h.73V5.89c.91-.2,1.78-.38,2.64-.58a.24.24,0,0,0,.17-.19c0-1.71,0-3.41,0-5.12h.8s0,.08,0,.13c0,1.59,0,3.19,0,4.79,0,0,0,.11,0,.2l1.89-.39v2c-.54.11-1.06.23-1.59.32-.24,0-.32.13-.32.33,0,1.5,0,3,0,4.49v.28l1.93-.41c0,.67,0,1.3,0,1.92,0,.06-.14.15-.24.18-.45.1-.9.21-1.35.28-.27,0-.32.14-.32.33,0,1.52,0,3,0,4.57v.29h-.77V14.42l-2.7.57a.21.21,0,0,0-.13.17C47.26,16.87,47.26,18.57,47.27,20.28ZM50.09,7.35c-.87.18-1.69.36-2.51.51-.25,0-.33.13-.33.33,0,1.51,0,3,0,4.53,0,.08,0,.16,0,.27.85-.19,1.66-.38,2.49-.55.25,0,.33-.12.33-.32,0-.94,0-1.89,0-2.83Z"/></g></g></svg>