<svg xmlns="http://www.w3.org/2000/svg" viewBox="0 0 125.99 71.87"><defs><style>.cls-1,.cls-3{fill:#231f20;}.cls-1,.cls-2{stroke:#231f20;stroke-miterlimit:10;stroke-width:2px;}.cls-2{fill:none;}</style></defs><g id="Layer_2" data-name="Layer 2"><g id="Layer_1-2" data-name="Layer 1"><line class="cls-1" x1="1" y1="21.59" x2="124.99" y2="21.59"/><line class="cls-1" x1="1" y1="33.11" x2="124.99" y2="33.11"/><line class="cls-1" x1="1" y1="44.63" x2="124.99" y2="44.63"/><rect class="cls-2" x="1" y="10.07" width="123.99" height="46.08"/><path class="cls-3" d="M16.45,68.53c.92,1.74,2.78,2.29,4.95,1.57a5.34,5.34,0,0,0,3.85-5.79C25,61.16,24.43,58,24,55.07a47.88,47.88,0,0,1-5.51,0C12.2,54.28,8,49.91,6.77,43.37c-1-5.43.8-10,4.18-14,1.84-2.2,3.84-4.26,5.81-6.35a1.93,1.93,0,0,0,.62-1.86,88.73,88.73,0,0,1-1.12-9.72A15.51,15.51,0,0,1,19,2.28C19.79,1.12,20.68-.13,22.28,0s2.2,1.46,2.73,2.7c2.55,6.09,2.7,17.41-4.3,24.33a1.86,1.86,0,0,0-.56,2c.48,1.9.81,3.84,1.21,5.83A8.3,8.3,0,0,1,29,37.07c4.88,4.77,3.6,13.52-2.47,16.62-.81.42-1.17.72-.94,1.78a73.85,73.85,0,0,1,1.24,8.09,10.89,10.89,0,0,1-.47,4.09,5.77,5.77,0,0,1-5.14,4.14A9,9,0,0,1,13.14,69a5.17,5.17,0,0,1,0-6.55,3.77,3.77,0,0,1,4.15-1.06,3.69,3.69,0,0,1,2.45,3.37,3.61,3.61,0,0,1-2.46,3.5C17,68.33,16.78,68.41,16.45,68.53ZM23.57,53,21,39.7a5,5,0,0,0-3.27,2.73c-1.56,3.3.3,5.67,2.52,8.09a7.64,7.64,0,0,1-5.92-8.34,8.93,8.93,0,0,1,4.83-6.42c.35-.2.86-.68.82-1-.3-1.9-.72-3.79-1.15-5.94-1.95,1.82-3.73,3.39-5.4,5.06A12.35,12.35,0,0,0,9.77,45.35C11,52.51,18.8,54.91,23.57,53ZM18.71,20.88c2.56-2.67,4.85-5.26,5.75-8.69a10.11,10.11,0,0,0,.12-4.1c-.34-2-1.78-2.36-3.29-1a4.21,4.21,0,0,0-.72.8C18,11.88,17.71,16.16,18.71,20.88Zm3.62,18.61L25,52.43a6.68,6.68,0,0,0,3.39-7.57C27.69,41.57,25.57,39.6,22.33,39.49Z"/><line class="cls-1" x1="121.15" y1="10.07" x2="121.15" y2="56.15"/><path class="cls-3" d="M63.74,21.29a13.64,13.64,0,0,1-5.94-1.24,5.35,5.35,0,0,1-2.58-2.5,3.65,3.65,0,0,1-.3-2.71,4.3,4.3,0,0,1,1.36-1.95,8.11,8.11,0,0,1,3.4-1.68,11.37,11.37,0,0,1,3.9-.3,12.54,12.54,0,0,1,4.29,1,5.79,5.79,0,0,1,2.69,2.27,3.66,3.66,0,0,1-.77,5,8.18,8.18,0,0,1-4.06,1.86C64.94,21.19,64.15,21.24,63.74,21.29Zm-.69-1a3,3,0,0,0,3.29-2.77,6.1,6.1,0,0,0-.18-1.47,7.22,7.22,0,0,0-.94-2.5,3.18,3.18,0,0,0-3.31-1.51,2.84,2.84,0,0,0-2.2,3.06c0,.32.09.65.15,1a8.7,8.7,0,0,0,.83,2.54A2.91,2.91,0,0,0,63.05,20.31Z"/></g></g></svg>